  0
SECTION
  2
BLOCKS
  0
ENDSEC
  0
SECTION
  2
ENTITIES
  0
LINE
  8
0
 10
150
 20
0
 11
-150
 21
0
  0
LINE
  8
0
 10
-150
 20
0
 11
-150
 21
-51
  0
LINE
  8
0
 10
-150
 20
-51
 11
150
 21
-51
  0
LINE
  8
0
 10
150
 20
-51
 11
150
 21
0
  0
LINE
  8
0
 10
-142.132
 20
-10.0959
 11
-142.263
 21
-10.0834
  0
LINE
  8
0
 10
-142.263
 20
-10.0834
 11
-142.393
 21
-10.0628
  0
LINE
  8
0
 10
-142.393
 20
-10.0628
 11
-142.522
 21
-10.034
  0
LINE
  8
0
 10
-142.522
 20
-10.034
 11
-142.649
 21
-9.99721
  0
LINE
  8
0
 10
-142.649
 20
-9.99721
 11
-142.773
 21
-9.95253
  0
LINE
  8
0
 10
-142.773
 20
-9.95253
 11
-142.894
 21
-9.90013
  0
LINE
  8
0
 10
-142.894
 20
-9.90013
 11
-143.012
 21
-9.84024
  0
LINE
  8
0
 10
-143.012
 20
-9.84024
 11
-143.125
 21
-9.77309
  0
LINE
  8
0
 10
-143.125
 20
-9.77309
 11
-143.234
 21
-9.69893
  0
LINE
  8
0
 10
-143.234
 20
-9.69893
 11
-143.339
 21
-9.61807
  0
LINE
  8
0
 10
-143.339
 20
-9.61807
 11
-143.438
 21
-9.53082
  0
LINE
  8
0
 10
-143.438
 20
-9.53082
 11
-143.531
 21
-9.43755
  0
LINE
  8
0
 10
-143.531
 20
-9.43755
 11
-143.618
 21
-9.33858
  0
LINE
  8
0
 10
-143.618
 20
-9.33858
 11
-143.699
 21
-9.23434
  0
LINE
  8
0
 10
-143.699
 20
-9.23434
 11
-143.773
 21
-9.12523
  0
LINE
  8
0
 10
-143.773
 20
-9.12523
 11
-143.84
 21
-9.01167
  0
LINE
  8
0
 10
-143.84
 20
-9.01167
 11
-143.9
 21
-8.89413
  0
LINE
  8
0
 10
-143.9
 20
-8.89413
 11
-143.953
 21
-8.77306
  0
LINE
  8
0
 10
-143.953
 20
-8.77306
 11
-143.997
 21
-8.64893
  0
LINE
  8
0
 10
-143.997
 20
-8.64893
 11
-144.034
 21
-8.52225
  0
LINE
  8
0
 10
-144.034
 20
-8.52225
 11
-144.063
 21
-8.39349
  0
LINE
  8
0
 10
-144.063
 20
-8.39349
 11
-144.083
 21
-8.2632
  0
LINE
  8
0
 10
-144.083
 20
-8.2632
 11
-144.096
 21
-8.13185
  0
LINE
  8
0
 10
-144.096
 20
-8.13185
 11
-144.1
 21
-8
  0
LINE
  8
0
 10
-144.1
 20
-8
 11
-144.096
 21
-7.86813
  0
LINE
  8
0
 10
-144.096
 20
-7.86813
 11
-144.083
 21
-7.73679
  0
LINE
  8
0
 10
-144.083
 20
-7.73679
 11
-144.063
 21
-7.60649
  0
LINE
  8
0
 10
-144.063
 20
-7.60649
 11
-144.034
 21
-7.47774
  0
LINE
  8
0
 10
-144.034
 20
-7.47774
 11
-143.997
 21
-7.35106
  0
LINE
  8
0
 10
-143.997
 20
-7.35106
 11
-143.953
 21
-7.22693
  0
LINE
  8
0
 10
-143.953
 20
-7.22693
 11
-143.9
 21
-7.10585
  0
LINE
  8
0
 10
-143.9
 20
-7.10585
 11
-143.84
 21
-6.98831
  0
LINE
  8
0
 10
-143.84
 20
-6.98831
 11
-143.773
 21
-6.87476
  0
LINE
  8
0
 10
-143.773
 20
-6.87476
 11
-143.699
 21
-6.76564
  0
LINE
  8
0
 10
-143.699
 20
-6.76564
 11
-143.618
 21
-6.66141
  0
LINE
  8
0
 10
-143.618
 20
-6.66141
 11
-143.531
 21
-6.56244
  0
LINE
  8
0
 10
-143.531
 20
-6.56244
 11
-143.438
 21
-6.46916
  0
LINE
  8
0
 10
-143.438
 20
-6.46916
 11
-143.339
 21
-6.38191
  0
LINE
  8
0
 10
-143.339
 20
-6.38191
 11
-143.234
 21
-6.30106
  0
LINE
  8
0
 10
-143.234
 20
-6.30106
 11
-143.125
 21
-6.2269
  0
LINE
  8
0
 10
-143.125
 20
-6.2269
 11
-143.012
 21
-6.15974
  0
LINE
  8
0
 10
-143.012
 20
-6.15974
 11
-142.894
 21
-6.09985
  0
LINE
  8
0
 10
-142.894
 20
-6.09985
 11
-142.773
 21
-6.04745
  0
LINE
  8
0
 10
-142.773
 20
-6.04745
 11
-142.649
 21
-6.00278
  0
LINE
  8
0
 10
-142.649
 20
-6.00278
 11
-142.522
 21
-5.96597
  0
LINE
  8
0
 10
-142.522
 20
-5.96597
 11
-142.393
 21
-5.93719
  0
LINE
  8
0
 10
-142.393
 20
-5.93719
 11
-142.263
 21
-5.91655
  0
LINE
  8
0
 10
-142.263
 20
-5.91655
 11
-142.132
 21
-5.90413
  0
LINE
  8
0
 10
-142.132
 20
-5.90413
 11
-142
 21
-5.89999
  0
LINE
  8
0
 10
-142
 20
-5.89999
 11
-141.868
 21
-5.90413
  0
LINE
  8
0
 10
-141.868
 20
-5.90413
 11
-141.737
 21
-5.91655
  0
LINE
  8
0
 10
-141.737
 20
-5.91655
 11
-141.607
 21
-5.93719
  0
LINE
  8
0
 10
-141.607
 20
-5.93719
 11
-141.478
 21
-5.96597
  0
LINE
  8
0
 10
-141.478
 20
-5.96597
 11
-141.351
 21
-6.00278
  0
LINE
  8
0
 10
-141.351
 20
-6.00278
 11
-141.227
 21
-6.04745
  0
LINE
  8
0
 10
-141.227
 20
-6.04745
 11
-141.106
 21
-6.09985
  0
LINE
  8
0
 10
-141.106
 20
-6.09985
 11
-140.988
 21
-6.15974
  0
LINE
  8
0
 10
-140.988
 20
-6.15974
 11
-140.875
 21
-6.2269
  0
LINE
  8
0
 10
-140.875
 20
-6.2269
 11
-140.766
 21
-6.30106
  0
LINE
  8
0
 10
-140.766
 20
-6.30106
 11
-140.661
 21
-6.38191
  0
LINE
  8
0
 10
-140.661
 20
-6.38191
 11
-140.562
 21
-6.46916
  0
LINE
  8
0
 10
-140.562
 20
-6.46916
 11
-140.469
 21
-6.56244
  0
LINE
  8
0
 10
-140.469
 20
-6.56244
 11
-140.382
 21
-6.66141
  0
LINE
  8
0
 10
-140.382
 20
-6.66141
 11
-140.301
 21
-6.76564
  0
LINE
  8
0
 10
-140.301
 20
-6.76564
 11
-140.227
 21
-6.87476
  0
LINE
  8
0
 10
-140.227
 20
-6.87476
 11
-140.16
 21
-6.98831
  0
LINE
  8
0
 10
-140.16
 20
-6.98831
 11
-140.1
 21
-7.10585
  0
LINE
  8
0
 10
-140.1
 20
-7.10585
 11
-140.047
 21
-7.22693
  0
LINE
  8
0
 10
-140.047
 20
-7.22693
 11
-140.003
 21
-7.35106
  0
LINE
  8
0
 10
-140.003
 20
-7.35106
 11
-139.966
 21
-7.47774
  0
LINE
  8
0
 10
-139.966
 20
-7.47774
 11
-139.937
 21
-7.60649
  0
LINE
  8
0
 10
-139.937
 20
-7.60649
 11
-139.917
 21
-7.73679
  0
LINE
  8
0
 10
-139.917
 20
-7.73679
 11
-139.904
 21
-7.86813
  0
LINE
  8
0
 10
-139.904
 20
-7.86813
 11
-139.9
 21
-8
  0
LINE
  8
0
 10
-139.9
 20
-8
 11
-139.904
 21
-8.13185
  0
LINE
  8
0
 10
-139.904
 20
-8.13185
 11
-139.917
 21
-8.2632
  0
LINE
  8
0
 10
-139.917
 20
-8.2632
 11
-139.937
 21
-8.39349
  0
LINE
  8
0
 10
-139.937
 20
-8.39349
 11
-139.966
 21
-8.52225
  0
LINE
  8
0
 10
-139.966
 20
-8.52225
 11
-140.003
 21
-8.64893
  0
LINE
  8
0
 10
-140.003
 20
-8.64893
 11
-140.047
 21
-8.77306
  0
LINE
  8
0
 10
-140.047
 20
-8.77306
 11
-140.1
 21
-8.89413
  0
LINE
  8
0
 10
-140.1
 20
-8.89413
 11
-140.16
 21
-9.01167
  0
LINE
  8
0
 10
-140.16
 20
-9.01167
 11
-140.227
 21
-9.12523
  0
LINE
  8
0
 10
-140.227
 20
-9.12523
 11
-140.301
 21
-9.23434
  0
LINE
  8
0
 10
-140.301
 20
-9.23434
 11
-140.382
 21
-9.33858
  0
LINE
  8
0
 10
-140.382
 20
-9.33858
 11
-140.469
 21
-9.43755
  0
LINE
  8
0
 10
-140.469
 20
-9.43755
 11
-140.562
 21
-9.53082
  0
LINE
  8
0
 10
-140.562
 20
-9.53082
 11
-140.661
 21
-9.61807
  0
LINE
  8
0
 10
-140.661
 20
-9.61807
 11
-140.766
 21
-9.69893
  0
LINE
  8
0
 10
-140.766
 20
-9.69893
 11
-140.875
 21
-9.77309
  0
LINE
  8
0
 10
-140.875
 20
-9.77309
 11
-140.988
 21
-9.84024
  0
LINE
  8
0
 10
-140.988
 20
-9.84024
 11
-141.106
 21
-9.90013
  0
LINE
  8
0
 10
-141.106
 20
-9.90013
 11
-141.227
 21
-9.95253
  0
LINE
  8
0
 10
-141.227
 20
-9.95253
 11
-141.351
 21
-9.99721
  0
LINE
  8
0
 10
-141.351
 20
-9.99721
 11
-141.478
 21
-10.034
  0
LINE
  8
0
 10
-141.478
 20
-10.034
 11
-141.607
 21
-10.0628
  0
LINE
  8
0
 10
-141.607
 20
-10.0628
 11
-141.737
 21
-10.0834
  0
LINE
  8
0
 10
-141.737
 20
-10.0834
 11
-141.868
 21
-10.0959
  0
LINE
  8
0
 10
-141.868
 20
-10.0959
 11
-142
 21
-10.1
  0
LINE
  8
0
 10
-142
 20
-10.1
 11
-142.132
 21
-10.0959
  0
LINE
  8
0
 10
-142.132
 20
-45.0959
 11
-142.263
 21
-45.0834
  0
LINE
  8
0
 10
-142.263
 20
-45.0834
 11
-142.393
 21
-45.0628
  0
LINE
  8
0
 10
-142.393
 20
-45.0628
 11
-142.522
 21
-45.034
  0
LINE
  8
0
 10
-142.522
 20
-45.034
 11
-142.649
 21
-44.9972
  0
LINE
  8
0
 10
-142.649
 20
-44.9972
 11
-142.773
 21
-44.9525
  0
LINE
  8
0
 10
-142.773
 20
-44.9525
 11
-142.894
 21
-44.9001
  0
LINE
  8
0
 10
-142.894
 20
-44.9001
 11
-143.012
 21
-44.8402
  0
LINE
  8
0
 10
-143.012
 20
-44.8402
 11
-143.125
 21
-44.7731
  0
LINE
  8
0
 10
-143.125
 20
-44.7731
 11
-143.234
 21
-44.6989
  0
LINE
  8
0
 10
-143.234
 20
-44.6989
 11
-143.339
 21
-44.6181
  0
LINE
  8
0
 10
-143.339
 20
-44.6181
 11
-143.438
 21
-44.5308
  0
LINE
  8
0
 10
-143.438
 20
-44.5308
 11
-143.531
 21
-44.4375
  0
LINE
  8
0
 10
-143.531
 20
-44.4375
 11
-143.618
 21
-44.3386
  0
LINE
  8
0
 10
-143.618
 20
-44.3386
 11
-143.699
 21
-44.2343
  0
LINE
  8
0
 10
-143.699
 20
-44.2343
 11
-143.773
 21
-44.1252
  0
LINE
  8
0
 10
-143.773
 20
-44.1252
 11
-143.84
 21
-44.0117
  0
LINE
  8
0
 10
-143.84
 20
-44.0117
 11
-143.9
 21
-43.8941
  0
LINE
  8
0
 10
-143.9
 20
-43.8941
 11
-143.953
 21
-43.7731
  0
LINE
  8
0
 10
-143.953
 20
-43.7731
 11
-143.997
 21
-43.6489
  0
LINE
  8
0
 10
-143.997
 20
-43.6489
 11
-144.034
 21
-43.5222
  0
LINE
  8
0
 10
-144.034
 20
-43.5222
 11
-144.063
 21
-43.3935
  0
LINE
  8
0
 10
-144.063
 20
-43.3935
 11
-144.083
 21
-43.2632
  0
LINE
  8
0
 10
-144.083
 20
-43.2632
 11
-144.096
 21
-43.1319
  0
LINE
  8
0
 10
-144.096
 20
-43.1319
 11
-144.1
 21
-43
  0
LINE
  8
0
 10
-144.1
 20
-43
 11
-144.096
 21
-42.8681
  0
LINE
  8
0
 10
-144.096
 20
-42.8681
 11
-144.083
 21
-42.7368
  0
LINE
  8
0
 10
-144.083
 20
-42.7368
 11
-144.063
 21
-42.6065
  0
LINE
  8
0
 10
-144.063
 20
-42.6065
 11
-144.034
 21
-42.4778
  0
LINE
  8
0
 10
-144.034
 20
-42.4778
 11
-143.997
 21
-42.3511
  0
LINE
  8
0
 10
-143.997
 20
-42.3511
 11
-143.953
 21
-42.2269
  0
LINE
  8
0
 10
-143.953
 20
-42.2269
 11
-143.9
 21
-42.1059
  0
LINE
  8
0
 10
-143.9
 20
-42.1059
 11
-143.84
 21
-41.9883
  0
LINE
  8
0
 10
-143.84
 20
-41.9883
 11
-143.773
 21
-41.8748
  0
LINE
  8
0
 10
-143.773
 20
-41.8748
 11
-143.699
 21
-41.7656
  0
LINE
  8
0
 10
-143.699
 20
-41.7656
 11
-143.618
 21
-41.6614
  0
LINE
  8
0
 10
-143.618
 20
-41.6614
 11
-143.531
 21
-41.5624
  0
LINE
  8
0
 10
-143.531
 20
-41.5624
 11
-143.438
 21
-41.4692
  0
LINE
  8
0
 10
-143.438
 20
-41.4692
 11
-143.339
 21
-41.3819
  0
LINE
  8
0
 10
-143.339
 20
-41.3819
 11
-143.234
 21
-41.3011
  0
LINE
  8
0
 10
-143.234
 20
-41.3011
 11
-143.125
 21
-41.2269
  0
LINE
  8
0
 10
-143.125
 20
-41.2269
 11
-143.012
 21
-41.1597
  0
LINE
  8
0
 10
-143.012
 20
-41.1597
 11
-142.894
 21
-41.0999
  0
LINE
  8
0
 10
-142.894
 20
-41.0999
 11
-142.773
 21
-41.0475
  0
LINE
  8
0
 10
-142.773
 20
-41.0475
 11
-142.649
 21
-41.0028
  0
LINE
  8
0
 10
-142.649
 20
-41.0028
 11
-142.522
 21
-40.966
  0
LINE
  8
0
 10
-142.522
 20
-40.966
 11
-142.393
 21
-40.9372
  0
LINE
  8
0
 10
-142.393
 20
-40.9372
 11
-142.263
 21
-40.9165
  0
LINE
  8
0
 10
-142.263
 20
-40.9165
 11
-142.132
 21
-40.9041
  0
LINE
  8
0
 10
-142.132
 20
-40.9041
 11
-142
 21
-40.9
  0
LINE
  8
0
 10
-142
 20
-40.9
 11
-141.868
 21
-40.9041
  0
LINE
  8
0
 10
-141.868
 20
-40.9041
 11
-141.737
 21
-40.9165
  0
LINE
  8
0
 10
-141.737
 20
-40.9165
 11
-141.607
 21
-40.9372
  0
LINE
  8
0
 10
-141.607
 20
-40.9372
 11
-141.478
 21
-40.966
  0
LINE
  8
0
 10
-141.478
 20
-40.966
 11
-141.351
 21
-41.0028
  0
LINE
  8
0
 10
-141.351
 20
-41.0028
 11
-141.227
 21
-41.0475
  0
LINE
  8
0
 10
-141.227
 20
-41.0475
 11
-141.106
 21
-41.0999
  0
LINE
  8
0
 10
-141.106
 20
-41.0999
 11
-140.988
 21
-41.1597
  0
LINE
  8
0
 10
-140.988
 20
-41.1597
 11
-140.875
 21
-41.2269
  0
LINE
  8
0
 10
-140.875
 20
-41.2269
 11
-140.766
 21
-41.3011
  0
LINE
  8
0
 10
-140.766
 20
-41.3011
 11
-140.661
 21
-41.3819
  0
LINE
  8
0
 10
-140.661
 20
-41.3819
 11
-140.562
 21
-41.4692
  0
LINE
  8
0
 10
-140.562
 20
-41.4692
 11
-140.469
 21
-41.5624
  0
LINE
  8
0
 10
-140.469
 20
-41.5624
 11
-140.382
 21
-41.6614
  0
LINE
  8
0
 10
-140.382
 20
-41.6614
 11
-140.301
 21
-41.7656
  0
LINE
  8
0
 10
-140.301
 20
-41.7656
 11
-140.227
 21
-41.8748
  0
LINE
  8
0
 10
-140.227
 20
-41.8748
 11
-140.16
 21
-41.9883
  0
LINE
  8
0
 10
-140.16
 20
-41.9883
 11
-140.1
 21
-42.1059
  0
LINE
  8
0
 10
-140.1
 20
-42.1059
 11
-140.047
 21
-42.2269
  0
LINE
  8
0
 10
-140.047
 20
-42.2269
 11
-140.003
 21
-42.3511
  0
LINE
  8
0
 10
-140.003
 20
-42.3511
 11
-139.966
 21
-42.4778
  0
LINE
  8
0
 10
-139.966
 20
-42.4778
 11
-139.937
 21
-42.6065
  0
LINE
  8
0
 10
-139.937
 20
-42.6065
 11
-139.917
 21
-42.7368
  0
LINE
  8
0
 10
-139.917
 20
-42.7368
 11
-139.904
 21
-42.8681
  0
LINE
  8
0
 10
-139.904
 20
-42.8681
 11
-139.9
 21
-43
  0
LINE
  8
0
 10
-139.9
 20
-43
 11
-139.904
 21
-43.1319
  0
LINE
  8
0
 10
-139.904
 20
-43.1319
 11
-139.917
 21
-43.2632
  0
LINE
  8
0
 10
-139.917
 20
-43.2632
 11
-139.937
 21
-43.3935
  0
LINE
  8
0
 10
-139.937
 20
-43.3935
 11
-139.966
 21
-43.5222
  0
LINE
  8
0
 10
-139.966
 20
-43.5222
 11
-140.003
 21
-43.6489
  0
LINE
  8
0
 10
-140.003
 20
-43.6489
 11
-140.047
 21
-43.7731
  0
LINE
  8
0
 10
-140.047
 20
-43.7731
 11
-140.1
 21
-43.8941
  0
LINE
  8
0
 10
-140.1
 20
-43.8941
 11
-140.16
 21
-44.0117
  0
LINE
  8
0
 10
-140.16
 20
-44.0117
 11
-140.227
 21
-44.1252
  0
LINE
  8
0
 10
-140.227
 20
-44.1252
 11
-140.301
 21
-44.2343
  0
LINE
  8
0
 10
-140.301
 20
-44.2343
 11
-140.382
 21
-44.3386
  0
LINE
  8
0
 10
-140.382
 20
-44.3386
 11
-140.469
 21
-44.4375
  0
LINE
  8
0
 10
-140.469
 20
-44.4375
 11
-140.562
 21
-44.5308
  0
LINE
  8
0
 10
-140.562
 20
-44.5308
 11
-140.661
 21
-44.6181
  0
LINE
  8
0
 10
-140.661
 20
-44.6181
 11
-140.766
 21
-44.6989
  0
LINE
  8
0
 10
-140.766
 20
-44.6989
 11
-140.875
 21
-44.7731
  0
LINE
  8
0
 10
-140.875
 20
-44.7731
 11
-140.988
 21
-44.8402
  0
LINE
  8
0
 10
-140.988
 20
-44.8402
 11
-141.106
 21
-44.9001
  0
LINE
  8
0
 10
-141.106
 20
-44.9001
 11
-141.227
 21
-44.9525
  0
LINE
  8
0
 10
-141.227
 20
-44.9525
 11
-141.351
 21
-44.9972
  0
LINE
  8
0
 10
-141.351
 20
-44.9972
 11
-141.478
 21
-45.034
  0
LINE
  8
0
 10
-141.478
 20
-45.034
 11
-141.607
 21
-45.0628
  0
LINE
  8
0
 10
-141.607
 20
-45.0628
 11
-141.737
 21
-45.0834
  0
LINE
  8
0
 10
-141.737
 20
-45.0834
 11
-141.868
 21
-45.0959
  0
LINE
  8
0
 10
-141.868
 20
-45.0959
 11
-142
 21
-45.1
  0
LINE
  8
0
 10
-142
 20
-45.1
 11
-142.132
 21
-45.0959
  0
LINE
  8
0
 10
19.936
 20
-316.873
 11
39.7933
 21
-314.996
  0
LINE
  8
0
 10
39.7933
 20
-314.996
 11
59.4936
 21
-311.876
  0
LINE
  8
0
 10
59.4936
 20
-311.876
 11
78.959
 21
-307.525
  0
LINE
  8
0
 10
78.959
 20
-307.525
 11
98.1129
 21
-301.96
  0
LINE
  8
0
 10
98.1129
 20
-301.96
 11
116.88
 21
-295.204
  0
LINE
  8
0
 10
116.88
 20
-295.204
 11
135.185
 21
-287.283
  0
LINE
  8
0
 10
135.185
 20
-287.283
 11
152.957
 21
-278.227
  0
LINE
  8
0
 10
152.957
 20
-278.227
 11
170.125
 21
-268.074
  0
LINE
  8
0
 10
170.125
 20
-268.074
 11
186.622
 21
-256.863
  0
LINE
  8
0
 10
186.622
 20
-256.863
 11
202.382
 21
-244.638
  0
LINE
  8
0
 10
202.382
 20
-244.638
 11
217.344
 21
-231.448
  0
LINE
  8
0
 10
217.344
 20
-231.448
 11
231.448
 21
-217.344
  0
LINE
  8
0
 10
231.448
 20
-217.344
 11
244.638
 21
-202.382
  0
LINE
  8
0
 10
244.638
 20
-202.382
 11
256.863
 21
-186.622
  0
LINE
  8
0
 10
256.863
 20
-186.622
 11
268.074
 21
-170.125
  0
LINE
  8
0
 10
268.074
 20
-170.125
 11
278.227
 21
-152.957
  0
LINE
  8
0
 10
278.227
 20
-152.957
 11
287.283
 21
-135.185
  0
LINE
  8
0
 10
287.283
 20
-135.185
 11
292.772
 21
-122.5
  0
LINE
  8
0
 10
292.772
 20
-122.5
 11
126.25
 21
-122.5
  0
LINE
  8
0
 10
126.25
 20
-122.5
 11
126.25
 21
-141.75
  0
LINE
  8
0
 10
126.25
 20
-141.75
 11
135
 21
-141.75
  0
LINE
  8
0
 10
135
 20
-141.75
 11
135
 21
-150.5
  0
LINE
  8
0
 10
135
 20
-150.5
 11
100
 21
-150.5
  0
LINE
  8
0
 10
100
 20
-150.5
 11
100
 21
-141.75
  0
LINE
  8
0
 10
100
 20
-141.75
 11
108.75
 21
-141.75
  0
LINE
  8
0
 10
108.75
 20
-141.75
 11
108.75
 21
-122.5
  0
LINE
  8
0
 10
108.75
 20
-122.5
 11
-108.75
 21
-122.5
  0
LINE
  8
0
 10
-108.75
 20
-122.5
 11
-108.75
 21
-141.75
  0
LINE
  8
0
 10
-108.75
 20
-141.75
 11
-100
 21
-141.75
  0
LINE
  8
0
 10
-100
 20
-141.75
 11
-100
 21
-150.5
  0
LINE
  8
0
 10
-100
 20
-150.5
 11
-135
 21
-150.5
  0
LINE
  8
0
 10
-135
 20
-150.5
 11
-135
 21
-141.75
  0
LINE
  8
0
 10
-135
 20
-141.75
 11
-126.25
 21
-141.75
  0
LINE
  8
0
 10
-126.25
 20
-141.75
 11
-126.25
 21
-122.5
  0
LINE
  8
0
 10
-126.25
 20
-122.5
 11
-292.772
 21
-122.5
  0
LINE
  8
0
 10
-292.772
 20
-122.5
 11
-287.283
 21
-135.185
  0
LINE
  8
0
 10
-287.283
 20
-135.185
 11
-278.227
 21
-152.957
  0
LINE
  8
0
 10
-278.227
 20
-152.957
 11
-268.074
 21
-170.125
  0
LINE
  8
0
 10
-268.074
 20
-170.125
 11
-256.863
 21
-186.622
  0
LINE
  8
0
 10
-256.863
 20
-186.622
 11
-244.638
 21
-202.382
  0
LINE
  8
0
 10
-244.638
 20
-202.382
 11
-231.448
 21
-217.344
  0
LINE
  8
0
 10
-231.448
 20
-217.344
 11
-217.344
 21
-231.448
  0
LINE
  8
0
 10
-217.344
 20
-231.448
 11
-202.382
 21
-244.638
  0
LINE
  8
0
 10
-202.382
 20
-244.638
 11
-186.622
 21
-256.863
  0
LINE
  8
0
 10
-186.622
 20
-256.863
 11
-170.125
 21
-268.074
  0
LINE
  8
0
 10
-170.125
 20
-268.074
 11
-152.957
 21
-278.227
  0
LINE
  8
0
 10
-152.957
 20
-278.227
 11
-135.185
 21
-287.283
  0
LINE
  8
0
 10
-135.185
 20
-287.283
 11
-116.88
 21
-295.204
  0
LINE
  8
0
 10
-116.88
 20
-295.204
 11
-98.1129
 21
-301.96
  0
LINE
  8
0
 10
-98.1129
 20
-301.96
 11
-78.959
 21
-307.525
  0
LINE
  8
0
 10
-78.959
 20
-307.525
 11
-59.4936
 21
-311.876
  0
LINE
  8
0
 10
-59.4936
 20
-311.876
 11
-39.7933
 21
-314.996
  0
LINE
  8
0
 10
-39.7933
 20
-314.996
 11
-19.936
 21
-316.873
  0
LINE
  8
0
 10
-19.936
 20
-316.873
 11
0
 21
-317.5
  0
LINE
  8
0
 10
0
 20
-317.5
 11
19.936
 21
-316.873
  0
LINE
  8
0
 10
-135.132
 20
-132.596
 11
-135.263
 21
-132.583
  0
LINE
  8
0
 10
-135.263
 20
-132.583
 11
-135.393
 21
-132.563
  0
LINE
  8
0
 10
-135.393
 20
-132.563
 11
-135.522
 21
-132.534
  0
LINE
  8
0
 10
-135.522
 20
-132.534
 11
-135.649
 21
-132.497
  0
LINE
  8
0
 10
-135.649
 20
-132.497
 11
-135.773
 21
-132.453
  0
LINE
  8
0
 10
-135.773
 20
-132.453
 11
-135.894
 21
-132.4
  0
LINE
  8
0
 10
-135.894
 20
-132.4
 11
-136.012
 21
-132.34
  0
LINE
  8
0
 10
-136.012
 20
-132.34
 11
-136.125
 21
-132.273
  0
LINE
  8
0
 10
-136.125
 20
-132.273
 11
-136.234
 21
-132.199
  0
LINE
  8
0
 10
-136.234
 20
-132.199
 11
-136.339
 21
-132.118
  0
LINE
  8
0
 10
-136.339
 20
-132.118
 11
-136.438
 21
-132.031
  0
LINE
  8
0
 10
-136.438
 20
-132.031
 11
-136.531
 21
-131.938
  0
LINE
  8
0
 10
-136.531
 20
-131.938
 11
-136.618
 21
-131.839
  0
LINE
  8
0
 10
-136.618
 20
-131.839
 11
-136.699
 21
-131.734
  0
LINE
  8
0
 10
-136.699
 20
-131.734
 11
-136.773
 21
-131.625
  0
LINE
  8
0
 10
-136.773
 20
-131.625
 11
-136.84
 21
-131.512
  0
LINE
  8
0
 10
-136.84
 20
-131.512
 11
-136.9
 21
-131.394
  0
LINE
  8
0
 10
-136.9
 20
-131.394
 11
-136.953
 21
-131.273
  0
LINE
  8
0
 10
-136.953
 20
-131.273
 11
-136.997
 21
-131.149
  0
LINE
  8
0
 10
-136.997
 20
-131.149
 11
-137.034
 21
-131.022
  0
LINE
  8
0
 10
-137.034
 20
-131.022
 11
-137.063
 21
-130.893
  0
LINE
  8
0
 10
-137.063
 20
-130.893
 11
-137.083
 21
-130.763
  0
LINE
  8
0
 10
-137.083
 20
-130.763
 11
-137.096
 21
-130.632
  0
LINE
  8
0
 10
-137.096
 20
-130.632
 11
-137.1
 21
-130.5
  0
LINE
  8
0
 10
-137.1
 20
-130.5
 11
-137.096
 21
-130.368
  0
LINE
  8
0
 10
-137.096
 20
-130.368
 11
-137.083
 21
-130.237
  0
LINE
  8
0
 10
-137.083
 20
-130.237
 11
-137.063
 21
-130.107
  0
LINE
  8
0
 10
-137.063
 20
-130.107
 11
-137.034
 21
-129.978
  0
LINE
  8
0
 10
-137.034
 20
-129.978
 11
-136.997
 21
-129.851
  0
LINE
  8
0
 10
-136.997
 20
-129.851
 11
-136.953
 21
-129.727
  0
LINE
  8
0
 10
-136.953
 20
-129.727
 11
-136.9
 21
-129.606
  0
LINE
  8
0
 10
-136.9
 20
-129.606
 11
-136.84
 21
-129.488
  0
LINE
  8
0
 10
-136.84
 20
-129.488
 11
-136.773
 21
-129.375
  0
LINE
  8
0
 10
-136.773
 20
-129.375
 11
-136.699
 21
-129.266
  0
LINE
  8
0
 10
-136.699
 20
-129.266
 11
-136.618
 21
-129.161
  0
LINE
  8
0
 10
-136.618
 20
-129.161
 11
-136.531
 21
-129.062
  0
LINE
  8
0
 10
-136.531
 20
-129.062
 11
-136.438
 21
-128.969
  0
LINE
  8
0
 10
-136.438
 20
-128.969
 11
-136.339
 21
-128.882
  0
LINE
  8
0
 10
-136.339
 20
-128.882
 11
-136.234
 21
-128.801
  0
LINE
  8
0
 10
-136.234
 20
-128.801
 11
-136.125
 21
-128.727
  0
LINE
  8
0
 10
-136.125
 20
-128.727
 11
-136.012
 21
-128.66
  0
LINE
  8
0
 10
-136.012
 20
-128.66
 11
-135.894
 21
-128.6
  0
LINE
  8
0
 10
-135.894
 20
-128.6
 11
-135.773
 21
-128.547
  0
LINE
  8
0
 10
-135.773
 20
-128.547
 11
-135.649
 21
-128.503
  0
LINE
  8
0
 10
-135.649
 20
-128.503
 11
-135.522
 21
-128.466
  0
LINE
  8
0
 10
-135.522
 20
-128.466
 11
-135.393
 21
-128.437
  0
LINE
  8
0
 10
-135.393
 20
-128.437
 11
-135.263
 21
-128.417
  0
LINE
  8
0
 10
-135.263
 20
-128.417
 11
-135.132
 21
-128.404
  0
LINE
  8
0
 10
-135.132
 20
-128.404
 11
-135
 21
-128.4
  0
LINE
  8
0
 10
-135
 20
-128.4
 11
-134.868
 21
-128.404
  0
LINE
  8
0
 10
-134.868
 20
-128.404
 11
-134.737
 21
-128.417
  0
LINE
  8
0
 10
-134.737
 20
-128.417
 11
-134.607
 21
-128.437
  0
LINE
  8
0
 10
-134.607
 20
-128.437
 11
-134.478
 21
-128.466
  0
LINE
  8
0
 10
-134.478
 20
-128.466
 11
-134.351
 21
-128.503
  0
LINE
  8
0
 10
-134.351
 20
-128.503
 11
-134.227
 21
-128.547
  0
LINE
  8
0
 10
-134.227
 20
-128.547
 11
-134.106
 21
-128.6
  0
LINE
  8
0
 10
-134.106
 20
-128.6
 11
-133.988
 21
-128.66
  0
LINE
  8
0
 10
-133.988
 20
-128.66
 11
-133.875
 21
-128.727
  0
LINE
  8
0
 10
-133.875
 20
-128.727
 11
-133.766
 21
-128.801
  0
LINE
  8
0
 10
-133.766
 20
-128.801
 11
-133.661
 21
-128.882
  0
LINE
  8
0
 10
-133.661
 20
-128.882
 11
-133.562
 21
-128.969
  0
LINE
  8
0
 10
-133.562
 20
-128.969
 11
-133.469
 21
-129.062
  0
LINE
  8
0
 10
-133.469
 20
-129.062
 11
-133.382
 21
-129.161
  0
LINE
  8
0
 10
-133.382
 20
-129.161
 11
-133.301
 21
-129.266
  0
LINE
  8
0
 10
-133.301
 20
-129.266
 11
-133.227
 21
-129.375
  0
LINE
  8
0
 10
-133.227
 20
-129.375
 11
-133.16
 21
-129.488
  0
LINE
  8
0
 10
-133.16
 20
-129.488
 11
-133.1
 21
-129.606
  0
LINE
  8
0
 10
-133.1
 20
-129.606
 11
-133.047
 21
-129.727
  0
LINE
  8
0
 10
-133.047
 20
-129.727
 11
-133.003
 21
-129.851
  0
LINE
  8
0
 10
-133.003
 20
-129.851
 11
-132.966
 21
-129.978
  0
LINE
  8
0
 10
-132.966
 20
-129.978
 11
-132.937
 21
-130.107
  0
LINE
  8
0
 10
-132.937
 20
-130.107
 11
-132.917
 21
-130.237
  0
LINE
  8
0
 10
-132.917
 20
-130.237
 11
-132.904
 21
-130.368
  0
LINE
  8
0
 10
-132.904
 20
-130.368
 11
-132.9
 21
-130.5
  0
LINE
  8
0
 10
-132.9
 20
-130.5
 11
-132.904
 21
-130.632
  0
LINE
  8
0
 10
-132.904
 20
-130.632
 11
-132.917
 21
-130.763
  0
LINE
  8
0
 10
-132.917
 20
-130.763
 11
-132.937
 21
-130.893
  0
LINE
  8
0
 10
-132.937
 20
-130.893
 11
-132.966
 21
-131.022
  0
LINE
  8
0
 10
-132.966
 20
-131.022
 11
-133.003
 21
-131.149
  0
LINE
  8
0
 10
-133.003
 20
-131.149
 11
-133.047
 21
-131.273
  0
LINE
  8
0
 10
-133.047
 20
-131.273
 11
-133.1
 21
-131.394
  0
LINE
  8
0
 10
-133.1
 20
-131.394
 11
-133.16
 21
-131.512
  0
LINE
  8
0
 10
-133.16
 20
-131.512
 11
-133.227
 21
-131.625
  0
LINE
  8
0
 10
-133.227
 20
-131.625
 11
-133.301
 21
-131.734
  0
LINE
  8
0
 10
-133.301
 20
-131.734
 11
-133.382
 21
-131.839
  0
LINE
  8
0
 10
-133.382
 20
-131.839
 11
-133.469
 21
-131.938
  0
LINE
  8
0
 10
-133.469
 20
-131.938
 11
-133.562
 21
-132.031
  0
LINE
  8
0
 10
-133.562
 20
-132.031
 11
-133.661
 21
-132.118
  0
LINE
  8
0
 10
-133.661
 20
-132.118
 11
-133.766
 21
-132.199
  0
LINE
  8
0
 10
-133.766
 20
-132.199
 11
-133.875
 21
-132.273
  0
LINE
  8
0
 10
-133.875
 20
-132.273
 11
-133.988
 21
-132.34
  0
LINE
  8
0
 10
-133.988
 20
-132.34
 11
-134.106
 21
-132.4
  0
LINE
  8
0
 10
-134.106
 20
-132.4
 11
-134.227
 21
-132.453
  0
LINE
  8
0
 10
-134.227
 20
-132.453
 11
-134.351
 21
-132.497
  0
LINE
  8
0
 10
-134.351
 20
-132.497
 11
-134.478
 21
-132.534
  0
LINE
  8
0
 10
-134.478
 20
-132.534
 11
-134.607
 21
-132.563
  0
LINE
  8
0
 10
-134.607
 20
-132.563
 11
-134.737
 21
-132.583
  0
LINE
  8
0
 10
-134.737
 20
-132.583
 11
-134.868
 21
-132.596
  0
LINE
  8
0
 10
-134.868
 20
-132.596
 11
-135
 21
-132.6
  0
LINE
  8
0
 10
-135
 20
-132.6
 11
-135.132
 21
-132.596
  0
LINE
  8
0
 10
-100.132
 20
-132.596
 11
-100.263
 21
-132.583
  0
LINE
  8
0
 10
-100.263
 20
-132.583
 11
-100.393
 21
-132.563
  0
LINE
  8
0
 10
-100.393
 20
-132.563
 11
-100.522
 21
-132.534
  0
LINE
  8
0
 10
-100.522
 20
-132.534
 11
-100.649
 21
-132.497
  0
LINE
  8
0
 10
-100.649
 20
-132.497
 11
-100.773
 21
-132.453
  0
LINE
  8
0
 10
-100.773
 20
-132.453
 11
-100.894
 21
-132.4
  0
LINE
  8
0
 10
-100.894
 20
-132.4
 11
-101.012
 21
-132.34
  0
LINE
  8
0
 10
-101.012
 20
-132.34
 11
-101.125
 21
-132.273
  0
LINE
  8
0
 10
-101.125
 20
-132.273
 11
-101.234
 21
-132.199
  0
LINE
  8
0
 10
-101.234
 20
-132.199
 11
-101.339
 21
-132.118
  0
LINE
  8
0
 10
-101.339
 20
-132.118
 11
-101.438
 21
-132.031
  0
LINE
  8
0
 10
-101.438
 20
-132.031
 11
-101.531
 21
-131.938
  0
LINE
  8
0
 10
-101.531
 20
-131.938
 11
-101.618
 21
-131.839
  0
LINE
  8
0
 10
-101.618
 20
-131.839
 11
-101.699
 21
-131.734
  0
LINE
  8
0
 10
-101.699
 20
-131.734
 11
-101.773
 21
-131.625
  0
LINE
  8
0
 10
-101.773
 20
-131.625
 11
-101.84
 21
-131.512
  0
LINE
  8
0
 10
-101.84
 20
-131.512
 11
-101.9
 21
-131.394
  0
LINE
  8
0
 10
-101.9
 20
-131.394
 11
-101.953
 21
-131.273
  0
LINE
  8
0
 10
-101.953
 20
-131.273
 11
-101.997
 21
-131.149
  0
LINE
  8
0
 10
-101.997
 20
-131.149
 11
-102.034
 21
-131.022
  0
LINE
  8
0
 10
-102.034
 20
-131.022
 11
-102.063
 21
-130.893
  0
LINE
  8
0
 10
-102.063
 20
-130.893
 11
-102.083
 21
-130.763
  0
LINE
  8
0
 10
-102.083
 20
-130.763
 11
-102.096
 21
-130.632
  0
LINE
  8
0
 10
-102.096
 20
-130.632
 11
-102.1
 21
-130.5
  0
LINE
  8
0
 10
-102.1
 20
-130.5
 11
-102.096
 21
-130.368
  0
LINE
  8
0
 10
-102.096
 20
-130.368
 11
-102.083
 21
-130.237
  0
LINE
  8
0
 10
-102.083
 20
-130.237
 11
-102.063
 21
-130.107
  0
LINE
  8
0
 10
-102.063
 20
-130.107
 11
-102.034
 21
-129.978
  0
LINE
  8
0
 10
-102.034
 20
-129.978
 11
-101.997
 21
-129.851
  0
LINE
  8
0
 10
-101.997
 20
-129.851
 11
-101.953
 21
-129.727
  0
LINE
  8
0
 10
-101.953
 20
-129.727
 11
-101.9
 21
-129.606
  0
LINE
  8
0
 10
-101.9
 20
-129.606
 11
-101.84
 21
-129.488
  0
LINE
  8
0
 10
-101.84
 20
-129.488
 11
-101.773
 21
-129.375
  0
LINE
  8
0
 10
-101.773
 20
-129.375
 11
-101.699
 21
-129.266
  0
LINE
  8
0
 10
-101.699
 20
-129.266
 11
-101.618
 21
-129.161
  0
LINE
  8
0
 10
-101.618
 20
-129.161
 11
-101.531
 21
-129.062
  0
LINE
  8
0
 10
-101.531
 20
-129.062
 11
-101.438
 21
-128.969
  0
LINE
  8
0
 10
-101.438
 20
-128.969
 11
-101.339
 21
-128.882
  0
LINE
  8
0
 10
-101.339
 20
-128.882
 11
-101.234
 21
-128.801
  0
LINE
  8
0
 10
-101.234
 20
-128.801
 11
-101.125
 21
-128.727
  0
LINE
  8
0
 10
-101.125
 20
-128.727
 11
-101.012
 21
-128.66
  0
LINE
  8
0
 10
-101.012
 20
-128.66
 11
-100.894
 21
-128.6
  0
LINE
  8
0
 10
-100.894
 20
-128.6
 11
-100.773
 21
-128.547
  0
LINE
  8
0
 10
-100.773
 20
-128.547
 11
-100.649
 21
-128.503
  0
LINE
  8
0
 10
-100.649
 20
-128.503
 11
-100.522
 21
-128.466
  0
LINE
  8
0
 10
-100.522
 20
-128.466
 11
-100.393
 21
-128.437
  0
LINE
  8
0
 10
-100.393
 20
-128.437
 11
-100.263
 21
-128.417
  0
LINE
  8
0
 10
-100.263
 20
-128.417
 11
-100.132
 21
-128.404
  0
LINE
  8
0
 10
-100.132
 20
-128.404
 11
-100
 21
-128.4
  0
LINE
  8
0
 10
-100
 20
-128.4
 11
-99.8681
 21
-128.404
  0
LINE
  8
0
 10
-99.8681
 20
-128.404
 11
-99.7368
 21
-128.417
  0
LINE
  8
0
 10
-99.7368
 20
-128.417
 11
-99.6065
 21
-128.437
  0
LINE
  8
0
 10
-99.6065
 20
-128.437
 11
-99.4778
 21
-128.466
  0
LINE
  8
0
 10
-99.4778
 20
-128.466
 11
-99.3511
 21
-128.503
  0
LINE
  8
0
 10
-99.3511
 20
-128.503
 11
-99.2269
 21
-128.547
  0
LINE
  8
0
 10
-99.2269
 20
-128.547
 11
-99.1059
 21
-128.6
  0
LINE
  8
0
 10
-99.1059
 20
-128.6
 11
-98.9883
 21
-128.66
  0
LINE
  8
0
 10
-98.9883
 20
-128.66
 11
-98.8748
 21
-128.727
  0
LINE
  8
0
 10
-98.8748
 20
-128.727
 11
-98.7656
 21
-128.801
  0
LINE
  8
0
 10
-98.7656
 20
-128.801
 11
-98.6614
 21
-128.882
  0
LINE
  8
0
 10
-98.6614
 20
-128.882
 11
-98.5625
 21
-128.969
  0
LINE
  8
0
 10
-98.5625
 20
-128.969
 11
-98.4692
 21
-129.062
  0
LINE
  8
0
 10
-98.4692
 20
-129.062
 11
-98.3819
 21
-129.161
  0
LINE
  8
0
 10
-98.3819
 20
-129.161
 11
-98.3011
 21
-129.266
  0
LINE
  8
0
 10
-98.3011
 20
-129.266
 11
-98.2269
 21
-129.375
  0
LINE
  8
0
 10
-98.2269
 20
-129.375
 11
-98.1598
 21
-129.488
  0
LINE
  8
0
 10
-98.1598
 20
-129.488
 11
-98.0999
 21
-129.606
  0
LINE
  8
0
 10
-98.0999
 20
-129.606
 11
-98.0475
 21
-129.727
  0
LINE
  8
0
 10
-98.0475
 20
-129.727
 11
-98.0028
 21
-129.851
  0
LINE
  8
0
 10
-98.0028
 20
-129.851
 11
-97.966
 21
-129.978
  0
LINE
  8
0
 10
-97.966
 20
-129.978
 11
-97.9372
 21
-130.107
  0
LINE
  8
0
 10
-97.9372
 20
-130.107
 11
-97.9165
 21
-130.237
  0
LINE
  8
0
 10
-97.9165
 20
-130.237
 11
-97.9041
 21
-130.368
  0
LINE
  8
0
 10
-97.9041
 20
-130.368
 11
-97.9
 21
-130.5
  0
LINE
  8
0
 10
-97.9
 20
-130.5
 11
-97.9041
 21
-130.632
  0
LINE
  8
0
 10
-97.9041
 20
-130.632
 11
-97.9165
 21
-130.763
  0
LINE
  8
0
 10
-97.9165
 20
-130.763
 11
-97.9372
 21
-130.893
  0
LINE
  8
0
 10
-97.9372
 20
-130.893
 11
-97.966
 21
-131.022
  0
LINE
  8
0
 10
-97.966
 20
-131.022
 11
-98.0028
 21
-131.149
  0
LINE
  8
0
 10
-98.0028
 20
-131.149
 11
-98.0475
 21
-131.273
  0
LINE
  8
0
 10
-98.0475
 20
-131.273
 11
-98.0999
 21
-131.394
  0
LINE
  8
0
 10
-98.0999
 20
-131.394
 11
-98.1598
 21
-131.512
  0
LINE
  8
0
 10
-98.1598
 20
-131.512
 11
-98.2269
 21
-131.625
  0
LINE
  8
0
 10
-98.2269
 20
-131.625
 11
-98.3011
 21
-131.734
  0
LINE
  8
0
 10
-98.3011
 20
-131.734
 11
-98.3819
 21
-131.839
  0
LINE
  8
0
 10
-98.3819
 20
-131.839
 11
-98.4692
 21
-131.938
  0
LINE
  8
0
 10
-98.4692
 20
-131.938
 11
-98.5625
 21
-132.031
  0
LINE
  8
0
 10
-98.5625
 20
-132.031
 11
-98.6614
 21
-132.118
  0
LINE
  8
0
 10
-98.6614
 20
-132.118
 11
-98.7656
 21
-132.199
  0
LINE
  8
0
 10
-98.7656
 20
-132.199
 11
-98.8748
 21
-132.273
  0
LINE
  8
0
 10
-98.8748
 20
-132.273
 11
-98.9883
 21
-132.34
  0
LINE
  8
0
 10
-98.9883
 20
-132.34
 11
-99.1059
 21
-132.4
  0
LINE
  8
0
 10
-99.1059
 20
-132.4
 11
-99.2269
 21
-132.453
  0
LINE
  8
0
 10
-99.2269
 20
-132.453
 11
-99.3511
 21
-132.497
  0
LINE
  8
0
 10
-99.3511
 20
-132.497
 11
-99.4778
 21
-132.534
  0
LINE
  8
0
 10
-99.4778
 20
-132.534
 11
-99.6065
 21
-132.563
  0
LINE
  8
0
 10
-99.6065
 20
-132.563
 11
-99.7368
 21
-132.583
  0
LINE
  8
0
 10
-99.7368
 20
-132.583
 11
-99.8681
 21
-132.596
  0
LINE
  8
0
 10
-99.8681
 20
-132.596
 11
-100
 21
-132.6
  0
LINE
  8
0
 10
-100
 20
-132.6
 11
-100.132
 21
-132.596
  0
LINE
  8
0
 10
99.8681
 20
-132.596
 11
99.7368
 21
-132.583
  0
LINE
  8
0
 10
99.7368
 20
-132.583
 11
99.6065
 21
-132.563
  0
LINE
  8
0
 10
99.6065
 20
-132.563
 11
99.4778
 21
-132.534
  0
LINE
  8
0
 10
99.4778
 20
-132.534
 11
99.3511
 21
-132.497
  0
LINE
  8
0
 10
99.3511
 20
-132.497
 11
99.2269
 21
-132.453
  0
LINE
  8
0
 10
99.2269
 20
-132.453
 11
99.1059
 21
-132.4
  0
LINE
  8
0
 10
99.1059
 20
-132.4
 11
98.9883
 21
-132.34
  0
LINE
  8
0
 10
98.9883
 20
-132.34
 11
98.8748
 21
-132.273
  0
LINE
  8
0
 10
98.8748
 20
-132.273
 11
98.7656
 21
-132.199
  0
LINE
  8
0
 10
98.7656
 20
-132.199
 11
98.6614
 21
-132.118
  0
LINE
  8
0
 10
98.6614
 20
-132.118
 11
98.5625
 21
-132.031
  0
LINE
  8
0
 10
98.5625
 20
-132.031
 11
98.4692
 21
-131.938
  0
LINE
  8
0
 10
98.4692
 20
-131.938
 11
98.3819
 21
-131.839
  0
LINE
  8
0
 10
98.3819
 20
-131.839
 11
98.3011
 21
-131.734
  0
LINE
  8
0
 10
98.3011
 20
-131.734
 11
98.2269
 21
-131.625
  0
LINE
  8
0
 10
98.2269
 20
-131.625
 11
98.1598
 21
-131.512
  0
LINE
  8
0
 10
98.1598
 20
-131.512
 11
98.0999
 21
-131.394
  0
LINE
  8
0
 10
98.0999
 20
-131.394
 11
98.0475
 21
-131.273
  0
LINE
  8
0
 10
98.0475
 20
-131.273
 11
98.0028
 21
-131.149
  0
LINE
  8
0
 10
98.0028
 20
-131.149
 11
97.966
 21
-131.022
  0
LINE
  8
0
 10
97.966
 20
-131.022
 11
97.9372
 21
-130.893
  0
LINE
  8
0
 10
97.9372
 20
-130.893
 11
97.9165
 21
-130.763
  0
LINE
  8
0
 10
97.9165
 20
-130.763
 11
97.9041
 21
-130.632
  0
LINE
  8
0
 10
97.9041
 20
-130.632
 11
97.9
 21
-130.5
  0
LINE
  8
0
 10
97.9
 20
-130.5
 11
97.9041
 21
-130.368
  0
LINE
  8
0
 10
97.9041
 20
-130.368
 11
97.9165
 21
-130.237
  0
LINE
  8
0
 10
97.9165
 20
-130.237
 11
97.9372
 21
-130.107
  0
LINE
  8
0
 10
97.9372
 20
-130.107
 11
97.966
 21
-129.978
  0
LINE
  8
0
 10
97.966
 20
-129.978
 11
98.0028
 21
-129.851
  0
LINE
  8
0
 10
98.0028
 20
-129.851
 11
98.0475
 21
-129.727
  0
LINE
  8
0
 10
98.0475
 20
-129.727
 11
98.0999
 21
-129.606
  0
LINE
  8
0
 10
98.0999
 20
-129.606
 11
98.1598
 21
-129.488
  0
LINE
  8
0
 10
98.1598
 20
-129.488
 11
98.2269
 21
-129.375
  0
LINE
  8
0
 10
98.2269
 20
-129.375
 11
98.3011
 21
-129.266
  0
LINE
  8
0
 10
98.3011
 20
-129.266
 11
98.3819
 21
-129.161
  0
LINE
  8
0
 10
98.3819
 20
-129.161
 11
98.4692
 21
-129.062
  0
LINE
  8
0
 10
98.4692
 20
-129.062
 11
98.5625
 21
-128.969
  0
LINE
  8
0
 10
98.5625
 20
-128.969
 11
98.6614
 21
-128.882
  0
LINE
  8
0
 10
98.6614
 20
-128.882
 11
98.7656
 21
-128.801
  0
LINE
  8
0
 10
98.7656
 20
-128.801
 11
98.8748
 21
-128.727
  0
LINE
  8
0
 10
98.8748
 20
-128.727
 11
98.9883
 21
-128.66
  0
LINE
  8
0
 10
98.9883
 20
-128.66
 11
99.1059
 21
-128.6
  0
LINE
  8
0
 10
99.1059
 20
-128.6
 11
99.2269
 21
-128.547
  0
LINE
  8
0
 10
99.2269
 20
-128.547
 11
99.3511
 21
-128.503
  0
LINE
  8
0
 10
99.3511
 20
-128.503
 11
99.4778
 21
-128.466
  0
LINE
  8
0
 10
99.4778
 20
-128.466
 11
99.6065
 21
-128.437
  0
LINE
  8
0
 10
99.6065
 20
-128.437
 11
99.7368
 21
-128.417
  0
LINE
  8
0
 10
99.7368
 20
-128.417
 11
99.8681
 21
-128.404
  0
LINE
  8
0
 10
99.8681
 20
-128.404
 11
100
 21
-128.4
  0
LINE
  8
0
 10
100
 20
-128.4
 11
100.132
 21
-128.404
  0
LINE
  8
0
 10
100.132
 20
-128.404
 11
100.263
 21
-128.417
  0
LINE
  8
0
 10
100.263
 20
-128.417
 11
100.393
 21
-128.437
  0
LINE
  8
0
 10
100.393
 20
-128.437
 11
100.522
 21
-128.466
  0
LINE
  8
0
 10
100.522
 20
-128.466
 11
100.649
 21
-128.503
  0
LINE
  8
0
 10
100.649
 20
-128.503
 11
100.773
 21
-128.547
  0
LINE
  8
0
 10
100.773
 20
-128.547
 11
100.894
 21
-128.6
  0
LINE
  8
0
 10
100.894
 20
-128.6
 11
101.012
 21
-128.66
  0
LINE
  8
0
 10
101.012
 20
-128.66
 11
101.125
 21
-128.727
  0
LINE
  8
0
 10
101.125
 20
-128.727
 11
101.234
 21
-128.801
  0
LINE
  8
0
 10
101.234
 20
-128.801
 11
101.339
 21
-128.882
  0
LINE
  8
0
 10
101.339
 20
-128.882
 11
101.438
 21
-128.969
  0
LINE
  8
0
 10
101.438
 20
-128.969
 11
101.531
 21
-129.062
  0
LINE
  8
0
 10
101.531
 20
-129.062
 11
101.618
 21
-129.161
  0
LINE
  8
0
 10
101.618
 20
-129.161
 11
101.699
 21
-129.266
  0
LINE
  8
0
 10
101.699
 20
-129.266
 11
101.773
 21
-129.375
  0
LINE
  8
0
 10
101.773
 20
-129.375
 11
101.84
 21
-129.488
  0
LINE
  8
0
 10
101.84
 20
-129.488
 11
101.9
 21
-129.606
  0
LINE
  8
0
 10
101.9
 20
-129.606
 11
101.953
 21
-129.727
  0
LINE
  8
0
 10
101.953
 20
-129.727
 11
101.997
 21
-129.851
  0
LINE
  8
0
 10
101.997
 20
-129.851
 11
102.034
 21
-129.978
  0
LINE
  8
0
 10
102.034
 20
-129.978
 11
102.063
 21
-130.107
  0
LINE
  8
0
 10
102.063
 20
-130.107
 11
102.083
 21
-130.237
  0
LINE
  8
0
 10
102.083
 20
-130.237
 11
102.096
 21
-130.368
  0
LINE
  8
0
 10
102.096
 20
-130.368
 11
102.1
 21
-130.5
  0
LINE
  8
0
 10
102.1
 20
-130.5
 11
102.096
 21
-130.632
  0
LINE
  8
0
 10
102.096
 20
-130.632
 11
102.083
 21
-130.763
  0
LINE
  8
0
 10
102.083
 20
-130.763
 11
102.063
 21
-130.893
  0
LINE
  8
0
 10
102.063
 20
-130.893
 11
102.034
 21
-131.022
  0
LINE
  8
0
 10
102.034
 20
-131.022
 11
101.997
 21
-131.149
  0
LINE
  8
0
 10
101.997
 20
-131.149
 11
101.953
 21
-131.273
  0
LINE
  8
0
 10
101.953
 20
-131.273
 11
101.9
 21
-131.394
  0
LINE
  8
0
 10
101.9
 20
-131.394
 11
101.84
 21
-131.512
  0
LINE
  8
0
 10
101.84
 20
-131.512
 11
101.773
 21
-131.625
  0
LINE
  8
0
 10
101.773
 20
-131.625
 11
101.699
 21
-131.734
  0
LINE
  8
0
 10
101.699
 20
-131.734
 11
101.618
 21
-131.839
  0
LINE
  8
0
 10
101.618
 20
-131.839
 11
101.531
 21
-131.938
  0
LINE
  8
0
 10
101.531
 20
-131.938
 11
101.438
 21
-132.031
  0
LINE
  8
0
 10
101.438
 20
-132.031
 11
101.339
 21
-132.118
  0
LINE
  8
0
 10
101.339
 20
-132.118
 11
101.234
 21
-132.199
  0
LINE
  8
0
 10
101.234
 20
-132.199
 11
101.125
 21
-132.273
  0
LINE
  8
0
 10
101.125
 20
-132.273
 11
101.012
 21
-132.34
  0
LINE
  8
0
 10
101.012
 20
-132.34
 11
100.894
 21
-132.4
  0
LINE
  8
0
 10
100.894
 20
-132.4
 11
100.773
 21
-132.453
  0
LINE
  8
0
 10
100.773
 20
-132.453
 11
100.649
 21
-132.497
  0
LINE
  8
0
 10
100.649
 20
-132.497
 11
100.522
 21
-132.534
  0
LINE
  8
0
 10
100.522
 20
-132.534
 11
100.393
 21
-132.563
  0
LINE
  8
0
 10
100.393
 20
-132.563
 11
100.263
 21
-132.583
  0
LINE
  8
0
 10
100.263
 20
-132.583
 11
100.132
 21
-132.596
  0
LINE
  8
0
 10
100.132
 20
-132.596
 11
100
 21
-132.6
  0
LINE
  8
0
 10
100
 20
-132.6
 11
99.8681
 21
-132.596
  0
LINE
  8
0
 10
134.868
 20
-132.596
 11
134.737
 21
-132.583
  0
LINE
  8
0
 10
134.737
 20
-132.583
 11
134.607
 21
-132.563
  0
LINE
  8
0
 10
134.607
 20
-132.563
 11
134.478
 21
-132.534
  0
LINE
  8
0
 10
134.478
 20
-132.534
 11
134.351
 21
-132.497
  0
LINE
  8
0
 10
134.351
 20
-132.497
 11
134.227
 21
-132.453
  0
LINE
  8
0
 10
134.227
 20
-132.453
 11
134.106
 21
-132.4
  0
LINE
  8
0
 10
134.106
 20
-132.4
 11
133.988
 21
-132.34
  0
LINE
  8
0
 10
133.988
 20
-132.34
 11
133.875
 21
-132.273
  0
LINE
  8
0
 10
133.875
 20
-132.273
 11
133.766
 21
-132.199
  0
LINE
  8
0
 10
133.766
 20
-132.199
 11
133.661
 21
-132.118
  0
LINE
  8
0
 10
133.661
 20
-132.118
 11
133.562
 21
-132.031
  0
LINE
  8
0
 10
133.562
 20
-132.031
 11
133.469
 21
-131.938
  0
LINE
  8
0
 10
133.469
 20
-131.938
 11
133.382
 21
-131.839
  0
LINE
  8
0
 10
133.382
 20
-131.839
 11
133.301
 21
-131.734
  0
LINE
  8
0
 10
133.301
 20
-131.734
 11
133.227
 21
-131.625
  0
LINE
  8
0
 10
133.227
 20
-131.625
 11
133.16
 21
-131.512
  0
LINE
  8
0
 10
133.16
 20
-131.512
 11
133.1
 21
-131.394
  0
LINE
  8
0
 10
133.1
 20
-131.394
 11
133.047
 21
-131.273
  0
LINE
  8
0
 10
133.047
 20
-131.273
 11
133.003
 21
-131.149
  0
LINE
  8
0
 10
133.003
 20
-131.149
 11
132.966
 21
-131.022
  0
LINE
  8
0
 10
132.966
 20
-131.022
 11
132.937
 21
-130.893
  0
LINE
  8
0
 10
132.937
 20
-130.893
 11
132.917
 21
-130.763
  0
LINE
  8
0
 10
132.917
 20
-130.763
 11
132.904
 21
-130.632
  0
LINE
  8
0
 10
132.904
 20
-130.632
 11
132.9
 21
-130.5
  0
LINE
  8
0
 10
132.9
 20
-130.5
 11
132.904
 21
-130.368
  0
LINE
  8
0
 10
132.904
 20
-130.368
 11
132.917
 21
-130.237
  0
LINE
  8
0
 10
132.917
 20
-130.237
 11
132.937
 21
-130.107
  0
LINE
  8
0
 10
132.937
 20
-130.107
 11
132.966
 21
-129.978
  0
LINE
  8
0
 10
132.966
 20
-129.978
 11
133.003
 21
-129.851
  0
LINE
  8
0
 10
133.003
 20
-129.851
 11
133.047
 21
-129.727
  0
LINE
  8
0
 10
133.047
 20
-129.727
 11
133.1
 21
-129.606
  0
LINE
  8
0
 10
133.1
 20
-129.606
 11
133.16
 21
-129.488
  0
LINE
  8
0
 10
133.16
 20
-129.488
 11
133.227
 21
-129.375
  0
LINE
  8
0
 10
133.227
 20
-129.375
 11
133.301
 21
-129.266
  0
LINE
  8
0
 10
133.301
 20
-129.266
 11
133.382
 21
-129.161
  0
LINE
  8
0
 10
133.382
 20
-129.161
 11
133.469
 21
-129.062
  0
LINE
  8
0
 10
133.469
 20
-129.062
 11
133.562
 21
-128.969
  0
LINE
  8
0
 10
133.562
 20
-128.969
 11
133.661
 21
-128.882
  0
LINE
  8
0
 10
133.661
 20
-128.882
 11
133.766
 21
-128.801
  0
LINE
  8
0
 10
133.766
 20
-128.801
 11
133.875
 21
-128.727
  0
LINE
  8
0
 10
133.875
 20
-128.727
 11
133.988
 21
-128.66
  0
LINE
  8
0
 10
133.988
 20
-128.66
 11
134.106
 21
-128.6
  0
LINE
  8
0
 10
134.106
 20
-128.6
 11
134.227
 21
-128.547
  0
LINE
  8
0
 10
134.227
 20
-128.547
 11
134.351
 21
-128.503
  0
LINE
  8
0
 10
134.351
 20
-128.503
 11
134.478
 21
-128.466
  0
LINE
  8
0
 10
134.478
 20
-128.466
 11
134.607
 21
-128.437
  0
LINE
  8
0
 10
134.607
 20
-128.437
 11
134.737
 21
-128.417
  0
LINE
  8
0
 10
134.737
 20
-128.417
 11
134.868
 21
-128.404
  0
LINE
  8
0
 10
134.868
 20
-128.404
 11
135
 21
-128.4
  0
LINE
  8
0
 10
135
 20
-128.4
 11
135.132
 21
-128.404
  0
LINE
  8
0
 10
135.132
 20
-128.404
 11
135.263
 21
-128.417
  0
LINE
  8
0
 10
135.263
 20
-128.417
 11
135.393
 21
-128.437
  0
LINE
  8
0
 10
135.393
 20
-128.437
 11
135.522
 21
-128.466
  0
LINE
  8
0
 10
135.522
 20
-128.466
 11
135.649
 21
-128.503
  0
LINE
  8
0
 10
135.649
 20
-128.503
 11
135.773
 21
-128.547
  0
LINE
  8
0
 10
135.773
 20
-128.547
 11
135.894
 21
-128.6
  0
LINE
  8
0
 10
135.894
 20
-128.6
 11
136.012
 21
-128.66
  0
LINE
  8
0
 10
136.012
 20
-128.66
 11
136.125
 21
-128.727
  0
LINE
  8
0
 10
136.125
 20
-128.727
 11
136.234
 21
-128.801
  0
LINE
  8
0
 10
136.234
 20
-128.801
 11
136.339
 21
-128.882
  0
LINE
  8
0
 10
136.339
 20
-128.882
 11
136.438
 21
-128.969
  0
LINE
  8
0
 10
136.438
 20
-128.969
 11
136.531
 21
-129.062
  0
LINE
  8
0
 10
136.531
 20
-129.062
 11
136.618
 21
-129.161
  0
LINE
  8
0
 10
136.618
 20
-129.161
 11
136.699
 21
-129.266
  0
LINE
  8
0
 10
136.699
 20
-129.266
 11
136.773
 21
-129.375
  0
LINE
  8
0
 10
136.773
 20
-129.375
 11
136.84
 21
-129.488
  0
LINE
  8
0
 10
136.84
 20
-129.488
 11
136.9
 21
-129.606
  0
LINE
  8
0
 10
136.9
 20
-129.606
 11
136.953
 21
-129.727
  0
LINE
  8
0
 10
136.953
 20
-129.727
 11
136.997
 21
-129.851
  0
LINE
  8
0
 10
136.997
 20
-129.851
 11
137.034
 21
-129.978
  0
LINE
  8
0
 10
137.034
 20
-129.978
 11
137.063
 21
-130.107
  0
LINE
  8
0
 10
137.063
 20
-130.107
 11
137.083
 21
-130.237
  0
LINE
  8
0
 10
137.083
 20
-130.237
 11
137.096
 21
-130.368
  0
LINE
  8
0
 10
137.096
 20
-130.368
 11
137.1
 21
-130.5
  0
LINE
  8
0
 10
137.1
 20
-130.5
 11
137.096
 21
-130.632
  0
LINE
  8
0
 10
137.096
 20
-130.632
 11
137.083
 21
-130.763
  0
LINE
  8
0
 10
137.083
 20
-130.763
 11
137.063
 21
-130.893
  0
LINE
  8
0
 10
137.063
 20
-130.893
 11
137.034
 21
-131.022
  0
LINE
  8
0
 10
137.034
 20
-131.022
 11
136.997
 21
-131.149
  0
LINE
  8
0
 10
136.997
 20
-131.149
 11
136.953
 21
-131.273
  0
LINE
  8
0
 10
136.953
 20
-131.273
 11
136.9
 21
-131.394
  0
LINE
  8
0
 10
136.9
 20
-131.394
 11
136.84
 21
-131.512
  0
LINE
  8
0
 10
136.84
 20
-131.512
 11
136.773
 21
-131.625
  0
LINE
  8
0
 10
136.773
 20
-131.625
 11
136.699
 21
-131.734
  0
LINE
  8
0
 10
136.699
 20
-131.734
 11
136.618
 21
-131.839
  0
LINE
  8
0
 10
136.618
 20
-131.839
 11
136.531
 21
-131.938
  0
LINE
  8
0
 10
136.531
 20
-131.938
 11
136.438
 21
-132.031
  0
LINE
  8
0
 10
136.438
 20
-132.031
 11
136.339
 21
-132.118
  0
LINE
  8
0
 10
136.339
 20
-132.118
 11
136.234
 21
-132.199
  0
LINE
  8
0
 10
136.234
 20
-132.199
 11
136.125
 21
-132.273
  0
LINE
  8
0
 10
136.125
 20
-132.273
 11
136.012
 21
-132.34
  0
LINE
  8
0
 10
136.012
 20
-132.34
 11
135.894
 21
-132.4
  0
LINE
  8
0
 10
135.894
 20
-132.4
 11
135.773
 21
-132.453
  0
LINE
  8
0
 10
135.773
 20
-132.453
 11
135.649
 21
-132.497
  0
LINE
  8
0
 10
135.649
 20
-132.497
 11
135.522
 21
-132.534
  0
LINE
  8
0
 10
135.522
 20
-132.534
 11
135.393
 21
-132.563
  0
LINE
  8
0
 10
135.393
 20
-132.563
 11
135.263
 21
-132.583
  0
LINE
  8
0
 10
135.263
 20
-132.583
 11
135.132
 21
-132.596
  0
LINE
  8
0
 10
135.132
 20
-132.596
 11
135
 21
-132.6
  0
LINE
  8
0
 10
135
 20
-132.6
 11
134.868
 21
-132.596
  0
LINE
  8
0
 10
-48.1319
 20
-256.096
 11
-48.2632
 21
-256.083
  0
LINE
  8
0
 10
-48.2632
 20
-256.083
 11
-48.3935
 21
-256.063
  0
LINE
  8
0
 10
-48.3935
 20
-256.063
 11
-48.5222
 21
-256.034
  0
LINE
  8
0
 10
-48.5222
 20
-256.034
 11
-48.6489
 21
-255.997
  0
LINE
  8
0
 10
-48.6489
 20
-255.997
 11
-48.7731
 21
-255.953
  0
LINE
  8
0
 10
-48.7731
 20
-255.953
 11
-48.8941
 21
-255.9
  0
LINE
  8
0
 10
-48.8941
 20
-255.9
 11
-49.0117
 21
-255.84
  0
LINE
  8
0
 10
-49.0117
 20
-255.84
 11
-49.1252
 21
-255.773
  0
LINE
  8
0
 10
-49.1252
 20
-255.773
 11
-49.2343
 21
-255.699
  0
LINE
  8
0
 10
-49.2343
 20
-255.699
 11
-49.3386
 21
-255.618
  0
LINE
  8
0
 10
-49.3386
 20
-255.618
 11
-49.4375
 21
-255.531
  0
LINE
  8
0
 10
-49.4375
 20
-255.531
 11
-49.5308
 21
-255.438
  0
LINE
  8
0
 10
-49.5308
 20
-255.438
 11
-49.6181
 21
-255.339
  0
LINE
  8
0
 10
-49.6181
 20
-255.339
 11
-49.6989
 21
-255.234
  0
LINE
  8
0
 10
-49.6989
 20
-255.234
 11
-49.7731
 21
-255.125
  0
LINE
  8
0
 10
-49.7731
 20
-255.125
 11
-49.8402
 21
-255.012
  0
LINE
  8
0
 10
-49.8402
 20
-255.012
 11
-49.9001
 21
-254.894
  0
LINE
  8
0
 10
-49.9001
 20
-254.894
 11
-49.9525
 21
-254.773
  0
LINE
  8
0
 10
-49.9525
 20
-254.773
 11
-49.9972
 21
-254.649
  0
LINE
  8
0
 10
-49.9972
 20
-254.649
 11
-50.034
 21
-254.522
  0
LINE
  8
0
 10
-50.034
 20
-254.522
 11
-50.0628
 21
-254.393
  0
LINE
  8
0
 10
-50.0628
 20
-254.393
 11
-50.0834
 21
-254.263
  0
LINE
  8
0
 10
-50.0834
 20
-254.263
 11
-50.0959
 21
-254.132
  0
LINE
  8
0
 10
-50.0959
 20
-254.132
 11
-50.1
 21
-254
  0
LINE
  8
0
 10
-50.1
 20
-254
 11
-50.0959
 21
-253.868
  0
LINE
  8
0
 10
-50.0959
 20
-253.868
 11
-50.0834
 21
-253.737
  0
LINE
  8
0
 10
-50.0834
 20
-253.737
 11
-50.0628
 21
-253.607
  0
LINE
  8
0
 10
-50.0628
 20
-253.607
 11
-50.034
 21
-253.478
  0
LINE
  8
0
 10
-50.034
 20
-253.478
 11
-49.9972
 21
-253.351
  0
LINE
  8
0
 10
-49.9972
 20
-253.351
 11
-49.9525
 21
-253.227
  0
LINE
  8
0
 10
-49.9525
 20
-253.227
 11
-49.9001
 21
-253.106
  0
LINE
  8
0
 10
-49.9001
 20
-253.106
 11
-49.8402
 21
-252.988
  0
LINE
  8
0
 10
-49.8402
 20
-252.988
 11
-49.7731
 21
-252.875
  0
LINE
  8
0
 10
-49.7731
 20
-252.875
 11
-49.6989
 21
-252.766
  0
LINE
  8
0
 10
-49.6989
 20
-252.766
 11
-49.6181
 21
-252.661
  0
LINE
  8
0
 10
-49.6181
 20
-252.661
 11
-49.5308
 21
-252.562
  0
LINE
  8
0
 10
-49.5308
 20
-252.562
 11
-49.4375
 21
-252.469
  0
LINE
  8
0
 10
-49.4375
 20
-252.469
 11
-49.3386
 21
-252.382
  0
LINE
  8
0
 10
-49.3386
 20
-252.382
 11
-49.2343
 21
-252.301
  0
LINE
  8
0
 10
-49.2343
 20
-252.301
 11
-49.1252
 21
-252.227
  0
LINE
  8
0
 10
-49.1252
 20
-252.227
 11
-49.0117
 21
-252.16
  0
LINE
  8
0
 10
-49.0117
 20
-252.16
 11
-48.8941
 21
-252.1
  0
LINE
  8
0
 10
-48.8941
 20
-252.1
 11
-48.7731
 21
-252.047
  0
LINE
  8
0
 10
-48.7731
 20
-252.047
 11
-48.6489
 21
-252.003
  0
LINE
  8
0
 10
-48.6489
 20
-252.003
 11
-48.5222
 21
-251.966
  0
LINE
  8
0
 10
-48.5222
 20
-251.966
 11
-48.3935
 21
-251.937
  0
LINE
  8
0
 10
-48.3935
 20
-251.937
 11
-48.2632
 21
-251.917
  0
LINE
  8
0
 10
-48.2632
 20
-251.917
 11
-48.1319
 21
-251.904
  0
LINE
  8
0
 10
-48.1319
 20
-251.904
 11
-48
 21
-251.9
  0
LINE
  8
0
 10
-48
 20
-251.9
 11
-47.8681
 21
-251.904
  0
LINE
  8
0
 10
-47.8681
 20
-251.904
 11
-47.7368
 21
-251.917
  0
LINE
  8
0
 10
-47.7368
 20
-251.917
 11
-47.6065
 21
-251.937
  0
LINE
  8
0
 10
-47.6065
 20
-251.937
 11
-47.4778
 21
-251.966
  0
LINE
  8
0
 10
-47.4778
 20
-251.966
 11
-47.3511
 21
-252.003
  0
LINE
  8
0
 10
-47.3511
 20
-252.003
 11
-47.2269
 21
-252.047
  0
LINE
  8
0
 10
-47.2269
 20
-252.047
 11
-47.1059
 21
-252.1
  0
LINE
  8
0
 10
-47.1059
 20
-252.1
 11
-46.9883
 21
-252.16
  0
LINE
  8
0
 10
-46.9883
 20
-252.16
 11
-46.8748
 21
-252.227
  0
LINE
  8
0
 10
-46.8748
 20
-252.227
 11
-46.7656
 21
-252.301
  0
LINE
  8
0
 10
-46.7656
 20
-252.301
 11
-46.6614
 21
-252.382
  0
LINE
  8
0
 10
-46.6614
 20
-252.382
 11
-46.5624
 21
-252.469
  0
LINE
  8
0
 10
-46.5624
 20
-252.469
 11
-46.4692
 21
-252.562
  0
LINE
  8
0
 10
-46.4692
 20
-252.562
 11
-46.3819
 21
-252.661
  0
LINE
  8
0
 10
-46.3819
 20
-252.661
 11
-46.3011
 21
-252.766
  0
LINE
  8
0
 10
-46.3011
 20
-252.766
 11
-46.2269
 21
-252.875
  0
LINE
  8
0
 10
-46.2269
 20
-252.875
 11
-46.1597
 21
-252.988
  0
LINE
  8
0
 10
-46.1597
 20
-252.988
 11
-46.0999
 21
-253.106
  0
LINE
  8
0
 10
-46.0999
 20
-253.106
 11
-46.0475
 21
-253.227
  0
LINE
  8
0
 10
-46.0475
 20
-253.227
 11
-46.0028
 21
-253.351
  0
LINE
  8
0
 10
-46.0028
 20
-253.351
 11
-45.966
 21
-253.478
  0
LINE
  8
0
 10
-45.966
 20
-253.478
 11
-45.9372
 21
-253.607
  0
LINE
  8
0
 10
-45.9372
 20
-253.607
 11
-45.9165
 21
-253.737
  0
LINE
  8
0
 10
-45.9165
 20
-253.737
 11
-45.9041
 21
-253.868
  0
LINE
  8
0
 10
-45.9041
 20
-253.868
 11
-45.9
 21
-254
  0
LINE
  8
0
 10
-45.9
 20
-254
 11
-45.9041
 21
-254.132
  0
LINE
  8
0
 10
-45.9041
 20
-254.132
 11
-45.9165
 21
-254.263
  0
LINE
  8
0
 10
-45.9165
 20
-254.263
 11
-45.9372
 21
-254.393
  0
LINE
  8
0
 10
-45.9372
 20
-254.393
 11
-45.966
 21
-254.522
  0
LINE
  8
0
 10
-45.966
 20
-254.522
 11
-46.0028
 21
-254.649
  0
LINE
  8
0
 10
-46.0028
 20
-254.649
 11
-46.0475
 21
-254.773
  0
LINE
  8
0
 10
-46.0475
 20
-254.773
 11
-46.0999
 21
-254.894
  0
LINE
  8
0
 10
-46.0999
 20
-254.894
 11
-46.1597
 21
-255.012
  0
LINE
  8
0
 10
-46.1597
 20
-255.012
 11
-46.2269
 21
-255.125
  0
LINE
  8
0
 10
-46.2269
 20
-255.125
 11
-46.3011
 21
-255.234
  0
LINE
  8
0
 10
-46.3011
 20
-255.234
 11
-46.3819
 21
-255.339
  0
LINE
  8
0
 10
-46.3819
 20
-255.339
 11
-46.4692
 21
-255.438
  0
LINE
  8
0
 10
-46.4692
 20
-255.438
 11
-46.5624
 21
-255.531
  0
LINE
  8
0
 10
-46.5624
 20
-255.531
 11
-46.6614
 21
-255.618
  0
LINE
  8
0
 10
-46.6614
 20
-255.618
 11
-46.7656
 21
-255.699
  0
LINE
  8
0
 10
-46.7656
 20
-255.699
 11
-46.8748
 21
-255.773
  0
LINE
  8
0
 10
-46.8748
 20
-255.773
 11
-46.9883
 21
-255.84
  0
LINE
  8
0
 10
-46.9883
 20
-255.84
 11
-47.1059
 21
-255.9
  0
LINE
  8
0
 10
-47.1059
 20
-255.9
 11
-47.2269
 21
-255.953
  0
LINE
  8
0
 10
-47.2269
 20
-255.953
 11
-47.3511
 21
-255.997
  0
LINE
  8
0
 10
-47.3511
 20
-255.997
 11
-47.4778
 21
-256.034
  0
LINE
  8
0
 10
-47.4778
 20
-256.034
 11
-47.6065
 21
-256.063
  0
LINE
  8
0
 10
-47.6065
 20
-256.063
 11
-47.7368
 21
-256.083
  0
LINE
  8
0
 10
-47.7368
 20
-256.083
 11
-47.8681
 21
-256.096
  0
LINE
  8
0
 10
-47.8681
 20
-256.096
 11
-48
 21
-256.1
  0
LINE
  8
0
 10
-48
 20
-256.1
 11
-48.1319
 21
-256.096
  0
LINE
  8
0
 10
47.8681
 20
-256.096
 11
47.7368
 21
-256.083
  0
LINE
  8
0
 10
47.7368
 20
-256.083
 11
47.6065
 21
-256.063
  0
LINE
  8
0
 10
47.6065
 20
-256.063
 11
47.4778
 21
-256.034
  0
LINE
  8
0
 10
47.4778
 20
-256.034
 11
47.3511
 21
-255.997
  0
LINE
  8
0
 10
47.3511
 20
-255.997
 11
47.2269
 21
-255.953
  0
LINE
  8
0
 10
47.2269
 20
-255.953
 11
47.1059
 21
-255.9
  0
LINE
  8
0
 10
47.1059
 20
-255.9
 11
46.9883
 21
-255.84
  0
LINE
  8
0
 10
46.9883
 20
-255.84
 11
46.8748
 21
-255.773
  0
LINE
  8
0
 10
46.8748
 20
-255.773
 11
46.7656
 21
-255.699
  0
LINE
  8
0
 10
46.7656
 20
-255.699
 11
46.6614
 21
-255.618
  0
LINE
  8
0
 10
46.6614
 20
-255.618
 11
46.5624
 21
-255.531
  0
LINE
  8
0
 10
46.5624
 20
-255.531
 11
46.4692
 21
-255.438
  0
LINE
  8
0
 10
46.4692
 20
-255.438
 11
46.3819
 21
-255.339
  0
LINE
  8
0
 10
46.3819
 20
-255.339
 11
46.3011
 21
-255.234
  0
LINE
  8
0
 10
46.3011
 20
-255.234
 11
46.2269
 21
-255.125
  0
LINE
  8
0
 10
46.2269
 20
-255.125
 11
46.1597
 21
-255.012
  0
LINE
  8
0
 10
46.1597
 20
-255.012
 11
46.0999
 21
-254.894
  0
LINE
  8
0
 10
46.0999
 20
-254.894
 11
46.0475
 21
-254.773
  0
LINE
  8
0
 10
46.0475
 20
-254.773
 11
46.0028
 21
-254.649
  0
LINE
  8
0
 10
46.0028
 20
-254.649
 11
45.966
 21
-254.522
  0
LINE
  8
0
 10
45.966
 20
-254.522
 11
45.9372
 21
-254.393
  0
LINE
  8
0
 10
45.9372
 20
-254.393
 11
45.9165
 21
-254.263
  0
LINE
  8
0
 10
45.9165
 20
-254.263
 11
45.9041
 21
-254.132
  0
LINE
  8
0
 10
45.9041
 20
-254.132
 11
45.9
 21
-254
  0
LINE
  8
0
 10
45.9
 20
-254
 11
45.9041
 21
-253.868
  0
LINE
  8
0
 10
45.9041
 20
-253.868
 11
45.9165
 21
-253.737
  0
LINE
  8
0
 10
45.9165
 20
-253.737
 11
45.9372
 21
-253.607
  0
LINE
  8
0
 10
45.9372
 20
-253.607
 11
45.966
 21
-253.478
  0
LINE
  8
0
 10
45.966
 20
-253.478
 11
46.0028
 21
-253.351
  0
LINE
  8
0
 10
46.0028
 20
-253.351
 11
46.0475
 21
-253.227
  0
LINE
  8
0
 10
46.0475
 20
-253.227
 11
46.0999
 21
-253.106
  0
LINE
  8
0
 10
46.0999
 20
-253.106
 11
46.1597
 21
-252.988
  0
LINE
  8
0
 10
46.1597
 20
-252.988
 11
46.2269
 21
-252.875
  0
LINE
  8
0
 10
46.2269
 20
-252.875
 11
46.3011
 21
-252.766
  0
LINE
  8
0
 10
46.3011
 20
-252.766
 11
46.3819
 21
-252.661
  0
LINE
  8
0
 10
46.3819
 20
-252.661
 11
46.4692
 21
-252.562
  0
LINE
  8
0
 10
46.4692
 20
-252.562
 11
46.5624
 21
-252.469
  0
LINE
  8
0
 10
46.5624
 20
-252.469
 11
46.6614
 21
-252.382
  0
LINE
  8
0
 10
46.6614
 20
-252.382
 11
46.7656
 21
-252.301
  0
LINE
  8
0
 10
46.7656
 20
-252.301
 11
46.8748
 21
-252.227
  0
LINE
  8
0
 10
46.8748
 20
-252.227
 11
46.9883
 21
-252.16
  0
LINE
  8
0
 10
46.9883
 20
-252.16
 11
47.1059
 21
-252.1
  0
LINE
  8
0
 10
47.1059
 20
-252.1
 11
47.2269
 21
-252.047
  0
LINE
  8
0
 10
47.2269
 20
-252.047
 11
47.3511
 21
-252.003
  0
LINE
  8
0
 10
47.3511
 20
-252.003
 11
47.4778
 21
-251.966
  0
LINE
  8
0
 10
47.4778
 20
-251.966
 11
47.6065
 21
-251.937
  0
LINE
  8
0
 10
47.6065
 20
-251.937
 11
47.7368
 21
-251.917
  0
LINE
  8
0
 10
47.7368
 20
-251.917
 11
47.8681
 21
-251.904
  0
LINE
  8
0
 10
47.8681
 20
-251.904
 11
48
 21
-251.9
  0
LINE
  8
0
 10
48
 20
-251.9
 11
48.1319
 21
-251.904
  0
LINE
  8
0
 10
48.1319
 20
-251.904
 11
48.2632
 21
-251.917
  0
LINE
  8
0
 10
48.2632
 20
-251.917
 11
48.3935
 21
-251.937
  0
LINE
  8
0
 10
48.3935
 20
-251.937
 11
48.5222
 21
-251.966
  0
LINE
  8
0
 10
48.5222
 20
-251.966
 11
48.6489
 21
-252.003
  0
LINE
  8
0
 10
48.6489
 20
-252.003
 11
48.7731
 21
-252.047
  0
LINE
  8
0
 10
48.7731
 20
-252.047
 11
48.8941
 21
-252.1
  0
LINE
  8
0
 10
48.8941
 20
-252.1
 11
49.0117
 21
-252.16
  0
LINE
  8
0
 10
49.0117
 20
-252.16
 11
49.1252
 21
-252.227
  0
LINE
  8
0
 10
49.1252
 20
-252.227
 11
49.2343
 21
-252.301
  0
LINE
  8
0
 10
49.2343
 20
-252.301
 11
49.3386
 21
-252.382
  0
LINE
  8
0
 10
49.3386
 20
-252.382
 11
49.4375
 21
-252.469
  0
LINE
  8
0
 10
49.4375
 20
-252.469
 11
49.5308
 21
-252.562
  0
LINE
  8
0
 10
49.5308
 20
-252.562
 11
49.6181
 21
-252.661
  0
LINE
  8
0
 10
49.6181
 20
-252.661
 11
49.6989
 21
-252.766
  0
LINE
  8
0
 10
49.6989
 20
-252.766
 11
49.7731
 21
-252.875
  0
LINE
  8
0
 10
49.7731
 20
-252.875
 11
49.8402
 21
-252.988
  0
LINE
  8
0
 10
49.8402
 20
-252.988
 11
49.9001
 21
-253.106
  0
LINE
  8
0
 10
49.9001
 20
-253.106
 11
49.9525
 21
-253.227
  0
LINE
  8
0
 10
49.9525
 20
-253.227
 11
49.9972
 21
-253.351
  0
LINE
  8
0
 10
49.9972
 20
-253.351
 11
50.034
 21
-253.478
  0
LINE
  8
0
 10
50.034
 20
-253.478
 11
50.0628
 21
-253.607
  0
LINE
  8
0
 10
50.0628
 20
-253.607
 11
50.0834
 21
-253.737
  0
LINE
  8
0
 10
50.0834
 20
-253.737
 11
50.0959
 21
-253.868
  0
LINE
  8
0
 10
50.0959
 20
-253.868
 11
50.1
 21
-254
  0
LINE
  8
0
 10
50.1
 20
-254
 11
50.0959
 21
-254.132
  0
LINE
  8
0
 10
50.0959
 20
-254.132
 11
50.0834
 21
-254.263
  0
LINE
  8
0
 10
50.0834
 20
-254.263
 11
50.0628
 21
-254.393
  0
LINE
  8
0
 10
50.0628
 20
-254.393
 11
50.034
 21
-254.522
  0
LINE
  8
0
 10
50.034
 20
-254.522
 11
49.9972
 21
-254.649
  0
LINE
  8
0
 10
49.9972
 20
-254.649
 11
49.9525
 21
-254.773
  0
LINE
  8
0
 10
49.9525
 20
-254.773
 11
49.9001
 21
-254.894
  0
LINE
  8
0
 10
49.9001
 20
-254.894
 11
49.8402
 21
-255.012
  0
LINE
  8
0
 10
49.8402
 20
-255.012
 11
49.7731
 21
-255.125
  0
LINE
  8
0
 10
49.7731
 20
-255.125
 11
49.6989
 21
-255.234
  0
LINE
  8
0
 10
49.6989
 20
-255.234
 11
49.6181
 21
-255.339
  0
LINE
  8
0
 10
49.6181
 20
-255.339
 11
49.5308
 21
-255.438
  0
LINE
  8
0
 10
49.5308
 20
-255.438
 11
49.4375
 21
-255.531
  0
LINE
  8
0
 10
49.4375
 20
-255.531
 11
49.3386
 21
-255.618
  0
LINE
  8
0
 10
49.3386
 20
-255.618
 11
49.2343
 21
-255.699
  0
LINE
  8
0
 10
49.2343
 20
-255.699
 11
49.1252
 21
-255.773
  0
LINE
  8
0
 10
49.1252
 20
-255.773
 11
49.0117
 21
-255.84
  0
LINE
  8
0
 10
49.0117
 20
-255.84
 11
48.8941
 21
-255.9
  0
LINE
  8
0
 10
48.8941
 20
-255.9
 11
48.7731
 21
-255.953
  0
LINE
  8
0
 10
48.7731
 20
-255.953
 11
48.6489
 21
-255.997
  0
LINE
  8
0
 10
48.6489
 20
-255.997
 11
48.5222
 21
-256.034
  0
LINE
  8
0
 10
48.5222
 20
-256.034
 11
48.3935
 21
-256.063
  0
LINE
  8
0
 10
48.3935
 20
-256.063
 11
48.2632
 21
-256.083
  0
LINE
  8
0
 10
48.2632
 20
-256.083
 11
48.1319
 21
-256.096
  0
LINE
  8
0
 10
48.1319
 20
-256.096
 11
48
 21
-256.1
  0
LINE
  8
0
 10
48
 20
-256.1
 11
47.8681
 21
-256.096
  0
ENDSEC
  0
SECTION
  2
OBJECTS
  0
DICTIONARY
  0
ENDSEC
  0
EOF
