  0
SECTION
  2
BLOCKS
  0
ENDSEC
  0
SECTION
  2
ENTITIES
  0
LINE
  8
0
 10
15.0697
 20
-239.526
 11
30.08
 21
-238.108
  0
LINE
  8
0
 10
30.08
 20
-238.108
 11
44.9715
 21
-235.749
  0
LINE
  8
0
 10
44.9715
 20
-235.749
 11
59.6856
 21
-232.46
  0
LINE
  8
0
 10
59.6856
 20
-232.46
 11
74.1641
 21
-228.254
  0
LINE
  8
0
 10
74.1641
 20
-228.254
 11
88.3499
 21
-223.146
  0
LINE
  8
0
 10
88.3499
 20
-223.146
 11
102.187
 21
-217.158
  0
LINE
  8
0
 10
102.187
 20
-217.158
 11
115.621
 21
-210.314
  0
LINE
  8
0
 10
115.621
 20
-210.314
 11
128.598
 21
-202.639
  0
LINE
  8
0
 10
128.598
 20
-202.639
 11
141.068
 21
-194.164
  0
LINE
  8
0
 10
141.068
 20
-194.164
 11
152.982
 21
-184.923
  0
LINE
  8
0
 10
152.982
 20
-184.923
 11
164.291
 21
-174.952
  0
LINE
  8
0
 10
164.291
 20
-174.952
 11
174.952
 21
-164.291
  0
LINE
  8
0
 10
174.952
 20
-164.291
 11
184.923
 21
-152.982
  0
LINE
  8
0
 10
184.923
 20
-152.982
 11
194.164
 21
-141.068
  0
LINE
  8
0
 10
194.164
 20
-141.068
 11
202.639
 21
-128.598
  0
LINE
  8
0
 10
202.639
 20
-128.598
 11
210.314
 21
-115.621
  0
LINE
  8
0
 10
210.314
 20
-115.621
 11
217.158
 21
-102.187
  0
LINE
  8
0
 10
217.158
 20
-102.187
 11
223.146
 21
-88.3499
  0
LINE
  8
0
 10
223.146
 20
-88.3499
 11
224.352
 21
-85
  0
LINE
  8
0
 10
224.352
 20
-85
 11
-224.352
 21
-85
  0
LINE
  8
0
 10
-224.352
 20
-85
 11
-223.146
 21
-88.3499
  0
LINE
  8
0
 10
-223.146
 20
-88.3499
 11
-217.158
 21
-102.187
  0
LINE
  8
0
 10
-217.158
 20
-102.187
 11
-210.314
 21
-115.621
  0
LINE
  8
0
 10
-210.314
 20
-115.621
 11
-202.639
 21
-128.598
  0
LINE
  8
0
 10
-202.639
 20
-128.598
 11
-194.164
 21
-141.068
  0
LINE
  8
0
 10
-194.164
 20
-141.068
 11
-184.923
 21
-152.982
  0
LINE
  8
0
 10
-184.923
 20
-152.982
 11
-174.952
 21
-164.291
  0
LINE
  8
0
 10
-174.952
 20
-164.291
 11
-164.291
 21
-174.952
  0
LINE
  8
0
 10
-164.291
 20
-174.952
 11
-152.982
 21
-184.923
  0
LINE
  8
0
 10
-152.982
 20
-184.923
 11
-141.068
 21
-194.164
  0
LINE
  8
0
 10
-141.068
 20
-194.164
 11
-128.598
 21
-202.639
  0
LINE
  8
0
 10
-128.598
 20
-202.639
 11
-115.621
 21
-210.314
  0
LINE
  8
0
 10
-115.621
 20
-210.314
 11
-102.187
 21
-217.158
  0
LINE
  8
0
 10
-102.187
 20
-217.158
 11
-88.3499
 21
-223.146
  0
LINE
  8
0
 10
-88.3499
 20
-223.146
 11
-74.1641
 21
-228.254
  0
LINE
  8
0
 10
-74.1641
 20
-228.254
 11
-59.6856
 21
-232.46
  0
LINE
  8
0
 10
-59.6856
 20
-232.46
 11
-44.9715
 21
-235.749
  0
LINE
  8
0
 10
-44.9715
 20
-235.749
 11
-30.08
 21
-238.108
  0
LINE
  8
0
 10
-30.08
 20
-238.108
 11
-15.0697
 21
-239.526
  0
LINE
  8
0
 10
-15.0697
 20
-239.526
 11
0
 21
-240
  0
LINE
  8
0
 10
0
 20
-240
 11
15.0697
 21
-239.526
  0
LINE
  8
0
 10
99.8681
 20
-95.0959
 11
99.7368
 21
-95.0834
  0
LINE
  8
0
 10
99.7368
 20
-95.0834
 11
99.6065
 21
-95.0628
  0
LINE
  8
0
 10
99.6065
 20
-95.0628
 11
99.4778
 21
-95.034
  0
LINE
  8
0
 10
99.4778
 20
-95.034
 11
99.3511
 21
-94.9972
  0
LINE
  8
0
 10
99.3511
 20
-94.9972
 11
99.2269
 21
-94.9525
  0
LINE
  8
0
 10
99.2269
 20
-94.9525
 11
99.1059
 21
-94.9001
  0
LINE
  8
0
 10
99.1059
 20
-94.9001
 11
98.9883
 21
-94.8402
  0
LINE
  8
0
 10
98.9883
 20
-94.8402
 11
98.8748
 21
-94.7731
  0
LINE
  8
0
 10
98.8748
 20
-94.7731
 11
98.7656
 21
-94.6989
  0
LINE
  8
0
 10
98.7656
 20
-94.6989
 11
98.6614
 21
-94.6181
  0
LINE
  8
0
 10
98.6614
 20
-94.6181
 11
98.5625
 21
-94.5308
  0
LINE
  8
0
 10
98.5625
 20
-94.5308
 11
98.4692
 21
-94.4375
  0
LINE
  8
0
 10
98.4692
 20
-94.4375
 11
98.3819
 21
-94.3386
  0
LINE
  8
0
 10
98.3819
 20
-94.3386
 11
98.3011
 21
-94.2343
  0
LINE
  8
0
 10
98.3011
 20
-94.2343
 11
98.2269
 21
-94.1252
  0
LINE
  8
0
 10
98.2269
 20
-94.1252
 11
98.1598
 21
-94.0117
  0
LINE
  8
0
 10
98.1598
 20
-94.0117
 11
98.0999
 21
-93.8941
  0
LINE
  8
0
 10
98.0999
 20
-93.8941
 11
98.0475
 21
-93.7731
  0
LINE
  8
0
 10
98.0475
 20
-93.7731
 11
98.0028
 21
-93.6489
  0
LINE
  8
0
 10
98.0028
 20
-93.6489
 11
97.966
 21
-93.5222
  0
LINE
  8
0
 10
97.966
 20
-93.5222
 11
97.9372
 21
-93.3935
  0
LINE
  8
0
 10
97.9372
 20
-93.3935
 11
97.9165
 21
-93.2632
  0
LINE
  8
0
 10
97.9165
 20
-93.2632
 11
97.9041
 21
-93.1319
  0
LINE
  8
0
 10
97.9041
 20
-93.1319
 11
97.9
 21
-93
  0
LINE
  8
0
 10
97.9
 20
-93
 11
97.9041
 21
-92.8681
  0
LINE
  8
0
 10
97.9041
 20
-92.8681
 11
97.9165
 21
-92.7368
  0
LINE
  8
0
 10
97.9165
 20
-92.7368
 11
97.9372
 21
-92.6065
  0
LINE
  8
0
 10
97.9372
 20
-92.6065
 11
97.966
 21
-92.4778
  0
LINE
  8
0
 10
97.966
 20
-92.4778
 11
98.0028
 21
-92.3511
  0
LINE
  8
0
 10
98.0028
 20
-92.3511
 11
98.0475
 21
-92.2269
  0
LINE
  8
0
 10
98.0475
 20
-92.2269
 11
98.0999
 21
-92.1059
  0
LINE
  8
0
 10
98.0999
 20
-92.1059
 11
98.1598
 21
-91.9883
  0
LINE
  8
0
 10
98.1598
 20
-91.9883
 11
98.2269
 21
-91.8748
  0
LINE
  8
0
 10
98.2269
 20
-91.8748
 11
98.3011
 21
-91.7656
  0
LINE
  8
0
 10
98.3011
 20
-91.7656
 11
98.3819
 21
-91.6614
  0
LINE
  8
0
 10
98.3819
 20
-91.6614
 11
98.4692
 21
-91.5625
  0
LINE
  8
0
 10
98.4692
 20
-91.5625
 11
98.5625
 21
-91.4692
  0
LINE
  8
0
 10
98.5625
 20
-91.4692
 11
98.6614
 21
-91.3819
  0
LINE
  8
0
 10
98.6614
 20
-91.3819
 11
98.7656
 21
-91.3011
  0
LINE
  8
0
 10
98.7656
 20
-91.3011
 11
98.8748
 21
-91.2269
  0
LINE
  8
0
 10
98.8748
 20
-91.2269
 11
98.9883
 21
-91.1598
  0
LINE
  8
0
 10
98.9883
 20
-91.1598
 11
99.1059
 21
-91.0999
  0
LINE
  8
0
 10
99.1059
 20
-91.0999
 11
99.2269
 21
-91.0475
  0
LINE
  8
0
 10
99.2269
 20
-91.0475
 11
99.3511
 21
-91.0028
  0
LINE
  8
0
 10
99.3511
 20
-91.0028
 11
99.4778
 21
-90.966
  0
LINE
  8
0
 10
99.4778
 20
-90.966
 11
99.6065
 21
-90.9372
  0
LINE
  8
0
 10
99.6065
 20
-90.9372
 11
99.7368
 21
-90.9165
  0
LINE
  8
0
 10
99.7368
 20
-90.9165
 11
99.8681
 21
-90.9041
  0
LINE
  8
0
 10
99.8681
 20
-90.9041
 11
100
 21
-90.9
  0
LINE
  8
0
 10
100
 20
-90.9
 11
100.132
 21
-90.9041
  0
LINE
  8
0
 10
100.132
 20
-90.9041
 11
100.263
 21
-90.9165
  0
LINE
  8
0
 10
100.263
 20
-90.9165
 11
100.393
 21
-90.9372
  0
LINE
  8
0
 10
100.393
 20
-90.9372
 11
100.522
 21
-90.966
  0
LINE
  8
0
 10
100.522
 20
-90.966
 11
100.649
 21
-91.0028
  0
LINE
  8
0
 10
100.649
 20
-91.0028
 11
100.773
 21
-91.0475
  0
LINE
  8
0
 10
100.773
 20
-91.0475
 11
100.894
 21
-91.0999
  0
LINE
  8
0
 10
100.894
 20
-91.0999
 11
101.012
 21
-91.1598
  0
LINE
  8
0
 10
101.012
 20
-91.1598
 11
101.125
 21
-91.2269
  0
LINE
  8
0
 10
101.125
 20
-91.2269
 11
101.234
 21
-91.3011
  0
LINE
  8
0
 10
101.234
 20
-91.3011
 11
101.339
 21
-91.3819
  0
LINE
  8
0
 10
101.339
 20
-91.3819
 11
101.438
 21
-91.4692
  0
LINE
  8
0
 10
101.438
 20
-91.4692
 11
101.531
 21
-91.5625
  0
LINE
  8
0
 10
101.531
 20
-91.5625
 11
101.618
 21
-91.6614
  0
LINE
  8
0
 10
101.618
 20
-91.6614
 11
101.699
 21
-91.7656
  0
LINE
  8
0
 10
101.699
 20
-91.7656
 11
101.773
 21
-91.8748
  0
LINE
  8
0
 10
101.773
 20
-91.8748
 11
101.84
 21
-91.9883
  0
LINE
  8
0
 10
101.84
 20
-91.9883
 11
101.9
 21
-92.1059
  0
LINE
  8
0
 10
101.9
 20
-92.1059
 11
101.953
 21
-92.2269
  0
LINE
  8
0
 10
101.953
 20
-92.2269
 11
101.997
 21
-92.3511
  0
LINE
  8
0
 10
101.997
 20
-92.3511
 11
102.034
 21
-92.4778
  0
LINE
  8
0
 10
102.034
 20
-92.4778
 11
102.063
 21
-92.6065
  0
LINE
  8
0
 10
102.063
 20
-92.6065
 11
102.083
 21
-92.7368
  0
LINE
  8
0
 10
102.083
 20
-92.7368
 11
102.096
 21
-92.8681
  0
LINE
  8
0
 10
102.096
 20
-92.8681
 11
102.1
 21
-93
  0
LINE
  8
0
 10
102.1
 20
-93
 11
102.096
 21
-93.1319
  0
LINE
  8
0
 10
102.096
 20
-93.1319
 11
102.083
 21
-93.2632
  0
LINE
  8
0
 10
102.083
 20
-93.2632
 11
102.063
 21
-93.3935
  0
LINE
  8
0
 10
102.063
 20
-93.3935
 11
102.034
 21
-93.5222
  0
LINE
  8
0
 10
102.034
 20
-93.5222
 11
101.997
 21
-93.6489
  0
LINE
  8
0
 10
101.997
 20
-93.6489
 11
101.953
 21
-93.7731
  0
LINE
  8
0
 10
101.953
 20
-93.7731
 11
101.9
 21
-93.8941
  0
LINE
  8
0
 10
101.9
 20
-93.8941
 11
101.84
 21
-94.0117
  0
LINE
  8
0
 10
101.84
 20
-94.0117
 11
101.773
 21
-94.1252
  0
LINE
  8
0
 10
101.773
 20
-94.1252
 11
101.699
 21
-94.2343
  0
LINE
  8
0
 10
101.699
 20
-94.2343
 11
101.618
 21
-94.3386
  0
LINE
  8
0
 10
101.618
 20
-94.3386
 11
101.531
 21
-94.4375
  0
LINE
  8
0
 10
101.531
 20
-94.4375
 11
101.438
 21
-94.5308
  0
LINE
  8
0
 10
101.438
 20
-94.5308
 11
101.339
 21
-94.6181
  0
LINE
  8
0
 10
101.339
 20
-94.6181
 11
101.234
 21
-94.6989
  0
LINE
  8
0
 10
101.234
 20
-94.6989
 11
101.125
 21
-94.7731
  0
LINE
  8
0
 10
101.125
 20
-94.7731
 11
101.012
 21
-94.8402
  0
LINE
  8
0
 10
101.012
 20
-94.8402
 11
100.894
 21
-94.9001
  0
LINE
  8
0
 10
100.894
 20
-94.9001
 11
100.773
 21
-94.9525
  0
LINE
  8
0
 10
100.773
 20
-94.9525
 11
100.649
 21
-94.9972
  0
LINE
  8
0
 10
100.649
 20
-94.9972
 11
100.522
 21
-95.034
  0
LINE
  8
0
 10
100.522
 20
-95.034
 11
100.393
 21
-95.0628
  0
LINE
  8
0
 10
100.393
 20
-95.0628
 11
100.263
 21
-95.0834
  0
LINE
  8
0
 10
100.263
 20
-95.0834
 11
100.132
 21
-95.0959
  0
LINE
  8
0
 10
100.132
 20
-95.0959
 11
100
 21
-95.1
  0
LINE
  8
0
 10
100
 20
-95.1
 11
99.8681
 21
-95.0959
  0
LINE
  8
0
 10
135.263
 20
-90.9165
 11
135.393
 21
-90.9372
  0
LINE
  8
0
 10
135.393
 20
-90.9372
 11
135.522
 21
-90.966
  0
LINE
  8
0
 10
135.522
 20
-90.966
 11
135.649
 21
-91.0028
  0
LINE
  8
0
 10
135.649
 20
-91.0028
 11
135.773
 21
-91.0475
  0
LINE
  8
0
 10
135.773
 20
-91.0475
 11
135.894
 21
-91.0999
  0
LINE
  8
0
 10
135.894
 20
-91.0999
 11
136.012
 21
-91.1598
  0
LINE
  8
0
 10
136.012
 20
-91.1598
 11
136.125
 21
-91.2269
  0
LINE
  8
0
 10
136.125
 20
-91.2269
 11
136.234
 21
-91.3011
  0
LINE
  8
0
 10
136.234
 20
-91.3011
 11
136.339
 21
-91.3819
  0
LINE
  8
0
 10
136.339
 20
-91.3819
 11
136.438
 21
-91.4692
  0
LINE
  8
0
 10
136.438
 20
-91.4692
 11
136.531
 21
-91.5625
  0
LINE
  8
0
 10
136.531
 20
-91.5625
 11
136.618
 21
-91.6614
  0
LINE
  8
0
 10
136.618
 20
-91.6614
 11
136.699
 21
-91.7656
  0
LINE
  8
0
 10
136.699
 20
-91.7656
 11
136.773
 21
-91.8748
  0
LINE
  8
0
 10
136.773
 20
-91.8748
 11
136.84
 21
-91.9883
  0
LINE
  8
0
 10
136.84
 20
-91.9883
 11
136.9
 21
-92.1059
  0
LINE
  8
0
 10
136.9
 20
-92.1059
 11
136.953
 21
-92.2269
  0
LINE
  8
0
 10
136.953
 20
-92.2269
 11
136.997
 21
-92.3511
  0
LINE
  8
0
 10
136.997
 20
-92.3511
 11
137.034
 21
-92.4778
  0
LINE
  8
0
 10
137.034
 20
-92.4778
 11
137.063
 21
-92.6065
  0
LINE
  8
0
 10
137.063
 20
-92.6065
 11
137.083
 21
-92.7368
  0
LINE
  8
0
 10
137.083
 20
-92.7368
 11
137.096
 21
-92.8681
  0
LINE
  8
0
 10
137.096
 20
-92.8681
 11
137.1
 21
-93
  0
LINE
  8
0
 10
137.1
 20
-93
 11
137.096
 21
-93.1319
  0
LINE
  8
0
 10
137.096
 20
-93.1319
 11
137.083
 21
-93.2632
  0
LINE
  8
0
 10
137.083
 20
-93.2632
 11
137.063
 21
-93.3935
  0
LINE
  8
0
 10
137.063
 20
-93.3935
 11
137.034
 21
-93.5222
  0
LINE
  8
0
 10
137.034
 20
-93.5222
 11
136.997
 21
-93.6489
  0
LINE
  8
0
 10
136.997
 20
-93.6489
 11
136.953
 21
-93.7731
  0
LINE
  8
0
 10
136.953
 20
-93.7731
 11
136.9
 21
-93.8941
  0
LINE
  8
0
 10
136.9
 20
-93.8941
 11
136.84
 21
-94.0117
  0
LINE
  8
0
 10
136.84
 20
-94.0117
 11
136.773
 21
-94.1252
  0
LINE
  8
0
 10
136.773
 20
-94.1252
 11
136.699
 21
-94.2343
  0
LINE
  8
0
 10
136.699
 20
-94.2343
 11
136.618
 21
-94.3386
  0
LINE
  8
0
 10
136.618
 20
-94.3386
 11
136.531
 21
-94.4375
  0
LINE
  8
0
 10
136.531
 20
-94.4375
 11
136.438
 21
-94.5308
  0
LINE
  8
0
 10
136.438
 20
-94.5308
 11
136.339
 21
-94.6181
  0
LINE
  8
0
 10
136.339
 20
-94.6181
 11
136.234
 21
-94.6989
  0
LINE
  8
0
 10
136.234
 20
-94.6989
 11
136.125
 21
-94.7731
  0
LINE
  8
0
 10
136.125
 20
-94.7731
 11
136.012
 21
-94.8402
  0
LINE
  8
0
 10
136.012
 20
-94.8402
 11
135.894
 21
-94.9001
  0
LINE
  8
0
 10
135.894
 20
-94.9001
 11
135.773
 21
-94.9525
  0
LINE
  8
0
 10
135.773
 20
-94.9525
 11
135.649
 21
-94.9972
  0
LINE
  8
0
 10
135.649
 20
-94.9972
 11
135.522
 21
-95.034
  0
LINE
  8
0
 10
135.522
 20
-95.034
 11
135.393
 21
-95.0628
  0
LINE
  8
0
 10
135.393
 20
-95.0628
 11
135.263
 21
-95.0834
  0
LINE
  8
0
 10
135.263
 20
-95.0834
 11
135.132
 21
-95.0959
  0
LINE
  8
0
 10
135.132
 20
-95.0959
 11
135
 21
-95.1
  0
LINE
  8
0
 10
135
 20
-95.1
 11
134.868
 21
-95.0959
  0
LINE
  8
0
 10
134.868
 20
-95.0959
 11
134.737
 21
-95.0834
  0
LINE
  8
0
 10
134.737
 20
-95.0834
 11
134.607
 21
-95.0628
  0
LINE
  8
0
 10
134.607
 20
-95.0628
 11
134.478
 21
-95.034
  0
LINE
  8
0
 10
134.478
 20
-95.034
 11
134.351
 21
-94.9972
  0
LINE
  8
0
 10
134.351
 20
-94.9972
 11
134.227
 21
-94.9525
  0
LINE
  8
0
 10
134.227
 20
-94.9525
 11
134.106
 21
-94.9001
  0
LINE
  8
0
 10
134.106
 20
-94.9001
 11
133.988
 21
-94.8402
  0
LINE
  8
0
 10
133.988
 20
-94.8402
 11
133.875
 21
-94.7731
  0
LINE
  8
0
 10
133.875
 20
-94.7731
 11
133.766
 21
-94.6989
  0
LINE
  8
0
 10
133.766
 20
-94.6989
 11
133.661
 21
-94.6181
  0
LINE
  8
0
 10
133.661
 20
-94.6181
 11
133.562
 21
-94.5308
  0
LINE
  8
0
 10
133.562
 20
-94.5308
 11
133.469
 21
-94.4375
  0
LINE
  8
0
 10
133.469
 20
-94.4375
 11
133.382
 21
-94.3386
  0
LINE
  8
0
 10
133.382
 20
-94.3386
 11
133.301
 21
-94.2343
  0
LINE
  8
0
 10
133.301
 20
-94.2343
 11
133.227
 21
-94.1252
  0
LINE
  8
0
 10
133.227
 20
-94.1252
 11
133.16
 21
-94.0117
  0
LINE
  8
0
 10
133.16
 20
-94.0117
 11
133.1
 21
-93.8941
  0
LINE
  8
0
 10
133.1
 20
-93.8941
 11
133.047
 21
-93.7731
  0
LINE
  8
0
 10
133.047
 20
-93.7731
 11
133.003
 21
-93.6489
  0
LINE
  8
0
 10
133.003
 20
-93.6489
 11
132.966
 21
-93.5222
  0
LINE
  8
0
 10
132.966
 20
-93.5222
 11
132.937
 21
-93.3935
  0
LINE
  8
0
 10
132.937
 20
-93.3935
 11
132.917
 21
-93.2632
  0
LINE
  8
0
 10
132.917
 20
-93.2632
 11
132.904
 21
-93.1319
  0
LINE
  8
0
 10
132.904
 20
-93.1319
 11
132.9
 21
-93
  0
LINE
  8
0
 10
132.9
 20
-93
 11
132.904
 21
-92.8681
  0
LINE
  8
0
 10
132.904
 20
-92.8681
 11
132.917
 21
-92.7368
  0
LINE
  8
0
 10
132.917
 20
-92.7368
 11
132.937
 21
-92.6065
  0
LINE
  8
0
 10
132.937
 20
-92.6065
 11
132.966
 21
-92.4778
  0
LINE
  8
0
 10
132.966
 20
-92.4778
 11
133.003
 21
-92.3511
  0
LINE
  8
0
 10
133.003
 20
-92.3511
 11
133.047
 21
-92.2269
  0
LINE
  8
0
 10
133.047
 20
-92.2269
 11
133.1
 21
-92.1059
  0
LINE
  8
0
 10
133.1
 20
-92.1059
 11
133.16
 21
-91.9883
  0
LINE
  8
0
 10
133.16
 20
-91.9883
 11
133.227
 21
-91.8748
  0
LINE
  8
0
 10
133.227
 20
-91.8748
 11
133.301
 21
-91.7656
  0
LINE
  8
0
 10
133.301
 20
-91.7656
 11
133.382
 21
-91.6614
  0
LINE
  8
0
 10
133.382
 20
-91.6614
 11
133.469
 21
-91.5625
  0
LINE
  8
0
 10
133.469
 20
-91.5625
 11
133.562
 21
-91.4692
  0
LINE
  8
0
 10
133.562
 20
-91.4692
 11
133.661
 21
-91.3819
  0
LINE
  8
0
 10
133.661
 20
-91.3819
 11
133.766
 21
-91.3011
  0
LINE
  8
0
 10
133.766
 20
-91.3011
 11
133.875
 21
-91.2269
  0
LINE
  8
0
 10
133.875
 20
-91.2269
 11
133.988
 21
-91.1598
  0
LINE
  8
0
 10
133.988
 20
-91.1598
 11
134.106
 21
-91.0999
  0
LINE
  8
0
 10
134.106
 20
-91.0999
 11
134.227
 21
-91.0475
  0
LINE
  8
0
 10
134.227
 20
-91.0475
 11
134.351
 21
-91.0028
  0
LINE
  8
0
 10
134.351
 20
-91.0028
 11
134.478
 21
-90.966
  0
LINE
  8
0
 10
134.478
 20
-90.966
 11
134.607
 21
-90.9372
  0
LINE
  8
0
 10
134.607
 20
-90.9372
 11
134.737
 21
-90.9165
  0
LINE
  8
0
 10
134.737
 20
-90.9165
 11
134.868
 21
-90.9041
  0
LINE
  8
0
 10
134.868
 20
-90.9041
 11
135
 21
-90.9
  0
LINE
  8
0
 10
135
 20
-90.9
 11
135.132
 21
-90.9041
  0
LINE
  8
0
 10
135.132
 20
-90.9041
 11
135.263
 21
-90.9165
  0
LINE
  8
0
 10
-100.132
 20
-95.0959
 11
-100.263
 21
-95.0834
  0
LINE
  8
0
 10
-100.263
 20
-95.0834
 11
-100.393
 21
-95.0628
  0
LINE
  8
0
 10
-100.393
 20
-95.0628
 11
-100.522
 21
-95.034
  0
LINE
  8
0
 10
-100.522
 20
-95.034
 11
-100.649
 21
-94.9972
  0
LINE
  8
0
 10
-100.649
 20
-94.9972
 11
-100.773
 21
-94.9525
  0
LINE
  8
0
 10
-100.773
 20
-94.9525
 11
-100.894
 21
-94.9001
  0
LINE
  8
0
 10
-100.894
 20
-94.9001
 11
-101.012
 21
-94.8402
  0
LINE
  8
0
 10
-101.012
 20
-94.8402
 11
-101.125
 21
-94.7731
  0
LINE
  8
0
 10
-101.125
 20
-94.7731
 11
-101.234
 21
-94.6989
  0
LINE
  8
0
 10
-101.234
 20
-94.6989
 11
-101.339
 21
-94.6181
  0
LINE
  8
0
 10
-101.339
 20
-94.6181
 11
-101.438
 21
-94.5308
  0
LINE
  8
0
 10
-101.438
 20
-94.5308
 11
-101.531
 21
-94.4375
  0
LINE
  8
0
 10
-101.531
 20
-94.4375
 11
-101.618
 21
-94.3386
  0
LINE
  8
0
 10
-101.618
 20
-94.3386
 11
-101.699
 21
-94.2343
  0
LINE
  8
0
 10
-101.699
 20
-94.2343
 11
-101.773
 21
-94.1252
  0
LINE
  8
0
 10
-101.773
 20
-94.1252
 11
-101.84
 21
-94.0117
  0
LINE
  8
0
 10
-101.84
 20
-94.0117
 11
-101.9
 21
-93.8941
  0
LINE
  8
0
 10
-101.9
 20
-93.8941
 11
-101.953
 21
-93.7731
  0
LINE
  8
0
 10
-101.953
 20
-93.7731
 11
-101.997
 21
-93.6489
  0
LINE
  8
0
 10
-101.997
 20
-93.6489
 11
-102.034
 21
-93.5222
  0
LINE
  8
0
 10
-102.034
 20
-93.5222
 11
-102.063
 21
-93.3935
  0
LINE
  8
0
 10
-102.063
 20
-93.3935
 11
-102.083
 21
-93.2632
  0
LINE
  8
0
 10
-102.083
 20
-93.2632
 11
-102.096
 21
-93.1319
  0
LINE
  8
0
 10
-102.096
 20
-93.1319
 11
-102.1
 21
-93
  0
LINE
  8
0
 10
-102.1
 20
-93
 11
-102.096
 21
-92.8681
  0
LINE
  8
0
 10
-102.096
 20
-92.8681
 11
-102.083
 21
-92.7368
  0
LINE
  8
0
 10
-102.083
 20
-92.7368
 11
-102.063
 21
-92.6065
  0
LINE
  8
0
 10
-102.063
 20
-92.6065
 11
-102.034
 21
-92.4778
  0
LINE
  8
0
 10
-102.034
 20
-92.4778
 11
-101.997
 21
-92.3511
  0
LINE
  8
0
 10
-101.997
 20
-92.3511
 11
-101.953
 21
-92.2269
  0
LINE
  8
0
 10
-101.953
 20
-92.2269
 11
-101.9
 21
-92.1059
  0
LINE
  8
0
 10
-101.9
 20
-92.1059
 11
-101.84
 21
-91.9883
  0
LINE
  8
0
 10
-101.84
 20
-91.9883
 11
-101.773
 21
-91.8748
  0
LINE
  8
0
 10
-101.773
 20
-91.8748
 11
-101.699
 21
-91.7656
  0
LINE
  8
0
 10
-101.699
 20
-91.7656
 11
-101.618
 21
-91.6614
  0
LINE
  8
0
 10
-101.618
 20
-91.6614
 11
-101.531
 21
-91.5625
  0
LINE
  8
0
 10
-101.531
 20
-91.5625
 11
-101.438
 21
-91.4692
  0
LINE
  8
0
 10
-101.438
 20
-91.4692
 11
-101.339
 21
-91.3819
  0
LINE
  8
0
 10
-101.339
 20
-91.3819
 11
-101.234
 21
-91.3011
  0
LINE
  8
0
 10
-101.234
 20
-91.3011
 11
-101.125
 21
-91.2269
  0
LINE
  8
0
 10
-101.125
 20
-91.2269
 11
-101.012
 21
-91.1598
  0
LINE
  8
0
 10
-101.012
 20
-91.1598
 11
-100.894
 21
-91.0999
  0
LINE
  8
0
 10
-100.894
 20
-91.0999
 11
-100.773
 21
-91.0475
  0
LINE
  8
0
 10
-100.773
 20
-91.0475
 11
-100.649
 21
-91.0028
  0
LINE
  8
0
 10
-100.649
 20
-91.0028
 11
-100.522
 21
-90.966
  0
LINE
  8
0
 10
-100.522
 20
-90.966
 11
-100.393
 21
-90.9372
  0
LINE
  8
0
 10
-100.393
 20
-90.9372
 11
-100.263
 21
-90.9165
  0
LINE
  8
0
 10
-100.263
 20
-90.9165
 11
-100.132
 21
-90.9041
  0
LINE
  8
0
 10
-100.132
 20
-90.9041
 11
-100
 21
-90.9
  0
LINE
  8
0
 10
-100
 20
-90.9
 11
-99.8681
 21
-90.9041
  0
LINE
  8
0
 10
-99.8681
 20
-90.9041
 11
-99.7368
 21
-90.9165
  0
LINE
  8
0
 10
-99.7368
 20
-90.9165
 11
-99.6065
 21
-90.9372
  0
LINE
  8
0
 10
-99.6065
 20
-90.9372
 11
-99.4778
 21
-90.966
  0
LINE
  8
0
 10
-99.4778
 20
-90.966
 11
-99.3511
 21
-91.0028
  0
LINE
  8
0
 10
-99.3511
 20
-91.0028
 11
-99.2269
 21
-91.0475
  0
LINE
  8
0
 10
-99.2269
 20
-91.0475
 11
-99.1059
 21
-91.0999
  0
LINE
  8
0
 10
-99.1059
 20
-91.0999
 11
-98.9883
 21
-91.1598
  0
LINE
  8
0
 10
-98.9883
 20
-91.1598
 11
-98.8748
 21
-91.2269
  0
LINE
  8
0
 10
-98.8748
 20
-91.2269
 11
-98.7656
 21
-91.3011
  0
LINE
  8
0
 10
-98.7656
 20
-91.3011
 11
-98.6614
 21
-91.3819
  0
LINE
  8
0
 10
-98.6614
 20
-91.3819
 11
-98.5625
 21
-91.4692
  0
LINE
  8
0
 10
-98.5625
 20
-91.4692
 11
-98.4692
 21
-91.5625
  0
LINE
  8
0
 10
-98.4692
 20
-91.5625
 11
-98.3819
 21
-91.6614
  0
LINE
  8
0
 10
-98.3819
 20
-91.6614
 11
-98.3011
 21
-91.7656
  0
LINE
  8
0
 10
-98.3011
 20
-91.7656
 11
-98.2269
 21
-91.8748
  0
LINE
  8
0
 10
-98.2269
 20
-91.8748
 11
-98.1598
 21
-91.9883
  0
LINE
  8
0
 10
-98.1598
 20
-91.9883
 11
-98.0999
 21
-92.1059
  0
LINE
  8
0
 10
-98.0999
 20
-92.1059
 11
-98.0475
 21
-92.2269
  0
LINE
  8
0
 10
-98.0475
 20
-92.2269
 11
-98.0028
 21
-92.3511
  0
LINE
  8
0
 10
-98.0028
 20
-92.3511
 11
-97.966
 21
-92.4778
  0
LINE
  8
0
 10
-97.966
 20
-92.4778
 11
-97.9372
 21
-92.6065
  0
LINE
  8
0
 10
-97.9372
 20
-92.6065
 11
-97.9165
 21
-92.7368
  0
LINE
  8
0
 10
-97.9165
 20
-92.7368
 11
-97.9041
 21
-92.8681
  0
LINE
  8
0
 10
-97.9041
 20
-92.8681
 11
-97.9
 21
-93
  0
LINE
  8
0
 10
-97.9
 20
-93
 11
-97.9041
 21
-93.1319
  0
LINE
  8
0
 10
-97.9041
 20
-93.1319
 11
-97.9165
 21
-93.2632
  0
LINE
  8
0
 10
-97.9165
 20
-93.2632
 11
-97.9372
 21
-93.3935
  0
LINE
  8
0
 10
-97.9372
 20
-93.3935
 11
-97.966
 21
-93.5222
  0
LINE
  8
0
 10
-97.966
 20
-93.5222
 11
-98.0028
 21
-93.6489
  0
LINE
  8
0
 10
-98.0028
 20
-93.6489
 11
-98.0475
 21
-93.7731
  0
LINE
  8
0
 10
-98.0475
 20
-93.7731
 11
-98.0999
 21
-93.8941
  0
LINE
  8
0
 10
-98.0999
 20
-93.8941
 11
-98.1598
 21
-94.0117
  0
LINE
  8
0
 10
-98.1598
 20
-94.0117
 11
-98.2269
 21
-94.1252
  0
LINE
  8
0
 10
-98.2269
 20
-94.1252
 11
-98.3011
 21
-94.2343
  0
LINE
  8
0
 10
-98.3011
 20
-94.2343
 11
-98.3819
 21
-94.3386
  0
LINE
  8
0
 10
-98.3819
 20
-94.3386
 11
-98.4692
 21
-94.4375
  0
LINE
  8
0
 10
-98.4692
 20
-94.4375
 11
-98.5625
 21
-94.5308
  0
LINE
  8
0
 10
-98.5625
 20
-94.5308
 11
-98.6614
 21
-94.6181
  0
LINE
  8
0
 10
-98.6614
 20
-94.6181
 11
-98.7656
 21
-94.6989
  0
LINE
  8
0
 10
-98.7656
 20
-94.6989
 11
-98.8748
 21
-94.7731
  0
LINE
  8
0
 10
-98.8748
 20
-94.7731
 11
-98.9883
 21
-94.8402
  0
LINE
  8
0
 10
-98.9883
 20
-94.8402
 11
-99.1059
 21
-94.9001
  0
LINE
  8
0
 10
-99.1059
 20
-94.9001
 11
-99.2269
 21
-94.9525
  0
LINE
  8
0
 10
-99.2269
 20
-94.9525
 11
-99.3511
 21
-94.9972
  0
LINE
  8
0
 10
-99.3511
 20
-94.9972
 11
-99.4778
 21
-95.034
  0
LINE
  8
0
 10
-99.4778
 20
-95.034
 11
-99.6065
 21
-95.0628
  0
LINE
  8
0
 10
-99.6065
 20
-95.0628
 11
-99.7368
 21
-95.0834
  0
LINE
  8
0
 10
-99.7368
 20
-95.0834
 11
-99.8681
 21
-95.0959
  0
LINE
  8
0
 10
-99.8681
 20
-95.0959
 11
-100
 21
-95.1
  0
LINE
  8
0
 10
-100
 20
-95.1
 11
-100.132
 21
-95.0959
  0
LINE
  8
0
 10
-135.132
 20
-95.0959
 11
-135.263
 21
-95.0834
  0
LINE
  8
0
 10
-135.263
 20
-95.0834
 11
-135.393
 21
-95.0628
  0
LINE
  8
0
 10
-135.393
 20
-95.0628
 11
-135.522
 21
-95.034
  0
LINE
  8
0
 10
-135.522
 20
-95.034
 11
-135.649
 21
-94.9972
  0
LINE
  8
0
 10
-135.649
 20
-94.9972
 11
-135.773
 21
-94.9525
  0
LINE
  8
0
 10
-135.773
 20
-94.9525
 11
-135.894
 21
-94.9001
  0
LINE
  8
0
 10
-135.894
 20
-94.9001
 11
-136.012
 21
-94.8402
  0
LINE
  8
0
 10
-136.012
 20
-94.8402
 11
-136.125
 21
-94.7731
  0
LINE
  8
0
 10
-136.125
 20
-94.7731
 11
-136.234
 21
-94.6989
  0
LINE
  8
0
 10
-136.234
 20
-94.6989
 11
-136.339
 21
-94.6181
  0
LINE
  8
0
 10
-136.339
 20
-94.6181
 11
-136.438
 21
-94.5308
  0
LINE
  8
0
 10
-136.438
 20
-94.5308
 11
-136.531
 21
-94.4375
  0
LINE
  8
0
 10
-136.531
 20
-94.4375
 11
-136.618
 21
-94.3386
  0
LINE
  8
0
 10
-136.618
 20
-94.3386
 11
-136.699
 21
-94.2343
  0
LINE
  8
0
 10
-136.699
 20
-94.2343
 11
-136.773
 21
-94.1252
  0
LINE
  8
0
 10
-136.773
 20
-94.1252
 11
-136.84
 21
-94.0117
  0
LINE
  8
0
 10
-136.84
 20
-94.0117
 11
-136.9
 21
-93.8941
  0
LINE
  8
0
 10
-136.9
 20
-93.8941
 11
-136.953
 21
-93.7731
  0
LINE
  8
0
 10
-136.953
 20
-93.7731
 11
-136.997
 21
-93.6489
  0
LINE
  8
0
 10
-136.997
 20
-93.6489
 11
-137.034
 21
-93.5222
  0
LINE
  8
0
 10
-137.034
 20
-93.5222
 11
-137.063
 21
-93.3935
  0
LINE
  8
0
 10
-137.063
 20
-93.3935
 11
-137.083
 21
-93.2632
  0
LINE
  8
0
 10
-137.083
 20
-93.2632
 11
-137.096
 21
-93.1319
  0
LINE
  8
0
 10
-137.096
 20
-93.1319
 11
-137.1
 21
-93
  0
LINE
  8
0
 10
-137.1
 20
-93
 11
-137.096
 21
-92.8681
  0
LINE
  8
0
 10
-137.096
 20
-92.8681
 11
-137.083
 21
-92.7368
  0
LINE
  8
0
 10
-137.083
 20
-92.7368
 11
-137.063
 21
-92.6065
  0
LINE
  8
0
 10
-137.063
 20
-92.6065
 11
-137.034
 21
-92.4778
  0
LINE
  8
0
 10
-137.034
 20
-92.4778
 11
-136.997
 21
-92.3511
  0
LINE
  8
0
 10
-136.997
 20
-92.3511
 11
-136.953
 21
-92.2269
  0
LINE
  8
0
 10
-136.953
 20
-92.2269
 11
-136.9
 21
-92.1059
  0
LINE
  8
0
 10
-136.9
 20
-92.1059
 11
-136.84
 21
-91.9883
  0
LINE
  8
0
 10
-136.84
 20
-91.9883
 11
-136.773
 21
-91.8748
  0
LINE
  8
0
 10
-136.773
 20
-91.8748
 11
-136.699
 21
-91.7656
  0
LINE
  8
0
 10
-136.699
 20
-91.7656
 11
-136.618
 21
-91.6614
  0
LINE
  8
0
 10
-136.618
 20
-91.6614
 11
-136.531
 21
-91.5625
  0
LINE
  8
0
 10
-136.531
 20
-91.5625
 11
-136.438
 21
-91.4692
  0
LINE
  8
0
 10
-136.438
 20
-91.4692
 11
-136.339
 21
-91.3819
  0
LINE
  8
0
 10
-136.339
 20
-91.3819
 11
-136.234
 21
-91.3011
  0
LINE
  8
0
 10
-136.234
 20
-91.3011
 11
-136.125
 21
-91.2269
  0
LINE
  8
0
 10
-136.125
 20
-91.2269
 11
-136.012
 21
-91.1598
  0
LINE
  8
0
 10
-136.012
 20
-91.1598
 11
-135.894
 21
-91.0999
  0
LINE
  8
0
 10
-135.894
 20
-91.0999
 11
-135.773
 21
-91.0475
  0
LINE
  8
0
 10
-135.773
 20
-91.0475
 11
-135.649
 21
-91.0028
  0
LINE
  8
0
 10
-135.649
 20
-91.0028
 11
-135.522
 21
-90.966
  0
LINE
  8
0
 10
-135.522
 20
-90.966
 11
-135.393
 21
-90.9372
  0
LINE
  8
0
 10
-135.393
 20
-90.9372
 11
-135.263
 21
-90.9165
  0
LINE
  8
0
 10
-135.263
 20
-90.9165
 11
-135.132
 21
-90.9041
  0
LINE
  8
0
 10
-135.132
 20
-90.9041
 11
-135
 21
-90.9
  0
LINE
  8
0
 10
-135
 20
-90.9
 11
-134.868
 21
-90.9041
  0
LINE
  8
0
 10
-134.868
 20
-90.9041
 11
-134.737
 21
-90.9165
  0
LINE
  8
0
 10
-134.737
 20
-90.9165
 11
-134.607
 21
-90.9372
  0
LINE
  8
0
 10
-134.607
 20
-90.9372
 11
-134.478
 21
-90.966
  0
LINE
  8
0
 10
-134.478
 20
-90.966
 11
-134.351
 21
-91.0028
  0
LINE
  8
0
 10
-134.351
 20
-91.0028
 11
-134.227
 21
-91.0475
  0
LINE
  8
0
 10
-134.227
 20
-91.0475
 11
-134.106
 21
-91.0999
  0
LINE
  8
0
 10
-134.106
 20
-91.0999
 11
-133.988
 21
-91.1598
  0
LINE
  8
0
 10
-133.988
 20
-91.1598
 11
-133.875
 21
-91.2269
  0
LINE
  8
0
 10
-133.875
 20
-91.2269
 11
-133.766
 21
-91.3011
  0
LINE
  8
0
 10
-133.766
 20
-91.3011
 11
-133.661
 21
-91.3819
  0
LINE
  8
0
 10
-133.661
 20
-91.3819
 11
-133.562
 21
-91.4692
  0
LINE
  8
0
 10
-133.562
 20
-91.4692
 11
-133.469
 21
-91.5625
  0
LINE
  8
0
 10
-133.469
 20
-91.5625
 11
-133.382
 21
-91.6614
  0
LINE
  8
0
 10
-133.382
 20
-91.6614
 11
-133.301
 21
-91.7656
  0
LINE
  8
0
 10
-133.301
 20
-91.7656
 11
-133.227
 21
-91.8748
  0
LINE
  8
0
 10
-133.227
 20
-91.8748
 11
-133.16
 21
-91.9883
  0
LINE
  8
0
 10
-133.16
 20
-91.9883
 11
-133.1
 21
-92.1059
  0
LINE
  8
0
 10
-133.1
 20
-92.1059
 11
-133.047
 21
-92.2269
  0
LINE
  8
0
 10
-133.047
 20
-92.2269
 11
-133.003
 21
-92.3511
  0
LINE
  8
0
 10
-133.003
 20
-92.3511
 11
-132.966
 21
-92.4778
  0
LINE
  8
0
 10
-132.966
 20
-92.4778
 11
-132.937
 21
-92.6065
  0
LINE
  8
0
 10
-132.937
 20
-92.6065
 11
-132.917
 21
-92.7368
  0
LINE
  8
0
 10
-132.917
 20
-92.7368
 11
-132.904
 21
-92.8681
  0
LINE
  8
0
 10
-132.904
 20
-92.8681
 11
-132.9
 21
-93
  0
LINE
  8
0
 10
-132.9
 20
-93
 11
-132.904
 21
-93.1319
  0
LINE
  8
0
 10
-132.904
 20
-93.1319
 11
-132.917
 21
-93.2632
  0
LINE
  8
0
 10
-132.917
 20
-93.2632
 11
-132.937
 21
-93.3935
  0
LINE
  8
0
 10
-132.937
 20
-93.3935
 11
-132.966
 21
-93.5222
  0
LINE
  8
0
 10
-132.966
 20
-93.5222
 11
-133.003
 21
-93.6489
  0
LINE
  8
0
 10
-133.003
 20
-93.6489
 11
-133.047
 21
-93.7731
  0
LINE
  8
0
 10
-133.047
 20
-93.7731
 11
-133.1
 21
-93.8941
  0
LINE
  8
0
 10
-133.1
 20
-93.8941
 11
-133.16
 21
-94.0117
  0
LINE
  8
0
 10
-133.16
 20
-94.0117
 11
-133.227
 21
-94.1252
  0
LINE
  8
0
 10
-133.227
 20
-94.1252
 11
-133.301
 21
-94.2343
  0
LINE
  8
0
 10
-133.301
 20
-94.2343
 11
-133.382
 21
-94.3386
  0
LINE
  8
0
 10
-133.382
 20
-94.3386
 11
-133.469
 21
-94.4375
  0
LINE
  8
0
 10
-133.469
 20
-94.4375
 11
-133.562
 21
-94.5308
  0
LINE
  8
0
 10
-133.562
 20
-94.5308
 11
-133.661
 21
-94.6181
  0
LINE
  8
0
 10
-133.661
 20
-94.6181
 11
-133.766
 21
-94.6989
  0
LINE
  8
0
 10
-133.766
 20
-94.6989
 11
-133.875
 21
-94.7731
  0
LINE
  8
0
 10
-133.875
 20
-94.7731
 11
-133.988
 21
-94.8402
  0
LINE
  8
0
 10
-133.988
 20
-94.8402
 11
-134.106
 21
-94.9001
  0
LINE
  8
0
 10
-134.106
 20
-94.9001
 11
-134.227
 21
-94.9525
  0
LINE
  8
0
 10
-134.227
 20
-94.9525
 11
-134.351
 21
-94.9972
  0
LINE
  8
0
 10
-134.351
 20
-94.9972
 11
-134.478
 21
-95.034
  0
LINE
  8
0
 10
-134.478
 20
-95.034
 11
-134.607
 21
-95.0628
  0
LINE
  8
0
 10
-134.607
 20
-95.0628
 11
-134.737
 21
-95.0834
  0
LINE
  8
0
 10
-134.737
 20
-95.0834
 11
-134.868
 21
-95.0959
  0
LINE
  8
0
 10
-134.868
 20
-95.0959
 11
-135
 21
-95.1
  0
LINE
  8
0
 10
-135
 20
-95.1
 11
-135.132
 21
-95.0959
  0
LINE
  8
0
 10
47.8681
 20
-194.096
 11
47.7368
 21
-194.083
  0
LINE
  8
0
 10
47.7368
 20
-194.083
 11
47.6065
 21
-194.063
  0
LINE
  8
0
 10
47.6065
 20
-194.063
 11
47.4778
 21
-194.034
  0
LINE
  8
0
 10
47.4778
 20
-194.034
 11
47.3511
 21
-193.997
  0
LINE
  8
0
 10
47.3511
 20
-193.997
 11
47.2269
 21
-193.953
  0
LINE
  8
0
 10
47.2269
 20
-193.953
 11
47.1059
 21
-193.9
  0
LINE
  8
0
 10
47.1059
 20
-193.9
 11
46.9883
 21
-193.84
  0
LINE
  8
0
 10
46.9883
 20
-193.84
 11
46.8748
 21
-193.773
  0
LINE
  8
0
 10
46.8748
 20
-193.773
 11
46.7656
 21
-193.699
  0
LINE
  8
0
 10
46.7656
 20
-193.699
 11
46.6614
 21
-193.618
  0
LINE
  8
0
 10
46.6614
 20
-193.618
 11
46.5624
 21
-193.531
  0
LINE
  8
0
 10
46.5624
 20
-193.531
 11
46.4692
 21
-193.438
  0
LINE
  8
0
 10
46.4692
 20
-193.438
 11
46.3819
 21
-193.339
  0
LINE
  8
0
 10
46.3819
 20
-193.339
 11
46.3011
 21
-193.234
  0
LINE
  8
0
 10
46.3011
 20
-193.234
 11
46.2269
 21
-193.125
  0
LINE
  8
0
 10
46.2269
 20
-193.125
 11
46.1597
 21
-193.012
  0
LINE
  8
0
 10
46.1597
 20
-193.012
 11
46.0999
 21
-192.894
  0
LINE
  8
0
 10
46.0999
 20
-192.894
 11
46.0475
 21
-192.773
  0
LINE
  8
0
 10
46.0475
 20
-192.773
 11
46.0028
 21
-192.649
  0
LINE
  8
0
 10
46.0028
 20
-192.649
 11
45.966
 21
-192.522
  0
LINE
  8
0
 10
45.966
 20
-192.522
 11
45.9372
 21
-192.393
  0
LINE
  8
0
 10
45.9372
 20
-192.393
 11
45.9165
 21
-192.263
  0
LINE
  8
0
 10
45.9165
 20
-192.263
 11
45.9041
 21
-192.132
  0
LINE
  8
0
 10
45.9041
 20
-192.132
 11
45.9
 21
-192
  0
LINE
  8
0
 10
45.9
 20
-192
 11
45.9041
 21
-191.868
  0
LINE
  8
0
 10
45.9041
 20
-191.868
 11
45.9165
 21
-191.737
  0
LINE
  8
0
 10
45.9165
 20
-191.737
 11
45.9372
 21
-191.607
  0
LINE
  8
0
 10
45.9372
 20
-191.607
 11
45.966
 21
-191.478
  0
LINE
  8
0
 10
45.966
 20
-191.478
 11
46.0028
 21
-191.351
  0
LINE
  8
0
 10
46.0028
 20
-191.351
 11
46.0475
 21
-191.227
  0
LINE
  8
0
 10
46.0475
 20
-191.227
 11
46.0999
 21
-191.106
  0
LINE
  8
0
 10
46.0999
 20
-191.106
 11
46.1597
 21
-190.988
  0
LINE
  8
0
 10
46.1597
 20
-190.988
 11
46.2269
 21
-190.875
  0
LINE
  8
0
 10
46.2269
 20
-190.875
 11
46.3011
 21
-190.766
  0
LINE
  8
0
 10
46.3011
 20
-190.766
 11
46.3819
 21
-190.661
  0
LINE
  8
0
 10
46.3819
 20
-190.661
 11
46.4692
 21
-190.562
  0
LINE
  8
0
 10
46.4692
 20
-190.562
 11
46.5624
 21
-190.469
  0
LINE
  8
0
 10
46.5624
 20
-190.469
 11
46.6614
 21
-190.382
  0
LINE
  8
0
 10
46.6614
 20
-190.382
 11
46.7656
 21
-190.301
  0
LINE
  8
0
 10
46.7656
 20
-190.301
 11
46.8748
 21
-190.227
  0
LINE
  8
0
 10
46.8748
 20
-190.227
 11
46.9883
 21
-190.16
  0
LINE
  8
0
 10
46.9883
 20
-190.16
 11
47.1059
 21
-190.1
  0
LINE
  8
0
 10
47.1059
 20
-190.1
 11
47.2269
 21
-190.047
  0
LINE
  8
0
 10
47.2269
 20
-190.047
 11
47.3511
 21
-190.003
  0
LINE
  8
0
 10
47.3511
 20
-190.003
 11
47.4778
 21
-189.966
  0
LINE
  8
0
 10
47.4778
 20
-189.966
 11
47.6065
 21
-189.937
  0
LINE
  8
0
 10
47.6065
 20
-189.937
 11
47.7368
 21
-189.917
  0
LINE
  8
0
 10
47.7368
 20
-189.917
 11
47.8681
 21
-189.904
  0
LINE
  8
0
 10
47.8681
 20
-189.904
 11
48
 21
-189.9
  0
LINE
  8
0
 10
48
 20
-189.9
 11
48.1319
 21
-189.904
  0
LINE
  8
0
 10
48.1319
 20
-189.904
 11
48.2632
 21
-189.917
  0
LINE
  8
0
 10
48.2632
 20
-189.917
 11
48.3935
 21
-189.937
  0
LINE
  8
0
 10
48.3935
 20
-189.937
 11
48.5222
 21
-189.966
  0
LINE
  8
0
 10
48.5222
 20
-189.966
 11
48.6489
 21
-190.003
  0
LINE
  8
0
 10
48.6489
 20
-190.003
 11
48.7731
 21
-190.047
  0
LINE
  8
0
 10
48.7731
 20
-190.047
 11
48.8941
 21
-190.1
  0
LINE
  8
0
 10
48.8941
 20
-190.1
 11
49.0117
 21
-190.16
  0
LINE
  8
0
 10
49.0117
 20
-190.16
 11
49.1252
 21
-190.227
  0
LINE
  8
0
 10
49.1252
 20
-190.227
 11
49.2343
 21
-190.301
  0
LINE
  8
0
 10
49.2343
 20
-190.301
 11
49.3386
 21
-190.382
  0
LINE
  8
0
 10
49.3386
 20
-190.382
 11
49.4375
 21
-190.469
  0
LINE
  8
0
 10
49.4375
 20
-190.469
 11
49.5308
 21
-190.562
  0
LINE
  8
0
 10
49.5308
 20
-190.562
 11
49.6181
 21
-190.661
  0
LINE
  8
0
 10
49.6181
 20
-190.661
 11
49.6989
 21
-190.766
  0
LINE
  8
0
 10
49.6989
 20
-190.766
 11
49.7731
 21
-190.875
  0
LINE
  8
0
 10
49.7731
 20
-190.875
 11
49.8402
 21
-190.988
  0
LINE
  8
0
 10
49.8402
 20
-190.988
 11
49.9001
 21
-191.106
  0
LINE
  8
0
 10
49.9001
 20
-191.106
 11
49.9525
 21
-191.227
  0
LINE
  8
0
 10
49.9525
 20
-191.227
 11
49.9972
 21
-191.351
  0
LINE
  8
0
 10
49.9972
 20
-191.351
 11
50.034
 21
-191.478
  0
LINE
  8
0
 10
50.034
 20
-191.478
 11
50.0628
 21
-191.607
  0
LINE
  8
0
 10
50.0628
 20
-191.607
 11
50.0834
 21
-191.737
  0
LINE
  8
0
 10
50.0834
 20
-191.737
 11
50.0959
 21
-191.868
  0
LINE
  8
0
 10
50.0959
 20
-191.868
 11
50.1
 21
-192
  0
LINE
  8
0
 10
50.1
 20
-192
 11
50.0959
 21
-192.132
  0
LINE
  8
0
 10
50.0959
 20
-192.132
 11
50.0834
 21
-192.263
  0
LINE
  8
0
 10
50.0834
 20
-192.263
 11
50.0628
 21
-192.393
  0
LINE
  8
0
 10
50.0628
 20
-192.393
 11
50.034
 21
-192.522
  0
LINE
  8
0
 10
50.034
 20
-192.522
 11
49.9972
 21
-192.649
  0
LINE
  8
0
 10
49.9972
 20
-192.649
 11
49.9525
 21
-192.773
  0
LINE
  8
0
 10
49.9525
 20
-192.773
 11
49.9001
 21
-192.894
  0
LINE
  8
0
 10
49.9001
 20
-192.894
 11
49.8402
 21
-193.012
  0
LINE
  8
0
 10
49.8402
 20
-193.012
 11
49.7731
 21
-193.125
  0
LINE
  8
0
 10
49.7731
 20
-193.125
 11
49.6989
 21
-193.234
  0
LINE
  8
0
 10
49.6989
 20
-193.234
 11
49.6181
 21
-193.339
  0
LINE
  8
0
 10
49.6181
 20
-193.339
 11
49.5308
 21
-193.438
  0
LINE
  8
0
 10
49.5308
 20
-193.438
 11
49.4375
 21
-193.531
  0
LINE
  8
0
 10
49.4375
 20
-193.531
 11
49.3386
 21
-193.618
  0
LINE
  8
0
 10
49.3386
 20
-193.618
 11
49.2343
 21
-193.699
  0
LINE
  8
0
 10
49.2343
 20
-193.699
 11
49.1252
 21
-193.773
  0
LINE
  8
0
 10
49.1252
 20
-193.773
 11
49.0117
 21
-193.84
  0
LINE
  8
0
 10
49.0117
 20
-193.84
 11
48.8941
 21
-193.9
  0
LINE
  8
0
 10
48.8941
 20
-193.9
 11
48.7731
 21
-193.953
  0
LINE
  8
0
 10
48.7731
 20
-193.953
 11
48.6489
 21
-193.997
  0
LINE
  8
0
 10
48.6489
 20
-193.997
 11
48.5222
 21
-194.034
  0
LINE
  8
0
 10
48.5222
 20
-194.034
 11
48.3935
 21
-194.063
  0
LINE
  8
0
 10
48.3935
 20
-194.063
 11
48.2632
 21
-194.083
  0
LINE
  8
0
 10
48.2632
 20
-194.083
 11
48.1319
 21
-194.096
  0
LINE
  8
0
 10
48.1319
 20
-194.096
 11
48
 21
-194.1
  0
LINE
  8
0
 10
48
 20
-194.1
 11
47.8681
 21
-194.096
  0
LINE
  8
0
 10
-48.1319
 20
-194.096
 11
-48.2632
 21
-194.083
  0
LINE
  8
0
 10
-48.2632
 20
-194.083
 11
-48.3935
 21
-194.063
  0
LINE
  8
0
 10
-48.3935
 20
-194.063
 11
-48.5222
 21
-194.034
  0
LINE
  8
0
 10
-48.5222
 20
-194.034
 11
-48.6489
 21
-193.997
  0
LINE
  8
0
 10
-48.6489
 20
-193.997
 11
-48.7731
 21
-193.953
  0
LINE
  8
0
 10
-48.7731
 20
-193.953
 11
-48.8941
 21
-193.9
  0
LINE
  8
0
 10
-48.8941
 20
-193.9
 11
-49.0117
 21
-193.84
  0
LINE
  8
0
 10
-49.0117
 20
-193.84
 11
-49.1252
 21
-193.773
  0
LINE
  8
0
 10
-49.1252
 20
-193.773
 11
-49.2343
 21
-193.699
  0
LINE
  8
0
 10
-49.2343
 20
-193.699
 11
-49.3386
 21
-193.618
  0
LINE
  8
0
 10
-49.3386
 20
-193.618
 11
-49.4375
 21
-193.531
  0
LINE
  8
0
 10
-49.4375
 20
-193.531
 11
-49.5308
 21
-193.438
  0
LINE
  8
0
 10
-49.5308
 20
-193.438
 11
-49.6181
 21
-193.339
  0
LINE
  8
0
 10
-49.6181
 20
-193.339
 11
-49.6989
 21
-193.234
  0
LINE
  8
0
 10
-49.6989
 20
-193.234
 11
-49.7731
 21
-193.125
  0
LINE
  8
0
 10
-49.7731
 20
-193.125
 11
-49.8402
 21
-193.012
  0
LINE
  8
0
 10
-49.8402
 20
-193.012
 11
-49.9001
 21
-192.894
  0
LINE
  8
0
 10
-49.9001
 20
-192.894
 11
-49.9525
 21
-192.773
  0
LINE
  8
0
 10
-49.9525
 20
-192.773
 11
-49.9972
 21
-192.649
  0
LINE
  8
0
 10
-49.9972
 20
-192.649
 11
-50.034
 21
-192.522
  0
LINE
  8
0
 10
-50.034
 20
-192.522
 11
-50.0628
 21
-192.393
  0
LINE
  8
0
 10
-50.0628
 20
-192.393
 11
-50.0834
 21
-192.263
  0
LINE
  8
0
 10
-50.0834
 20
-192.263
 11
-50.0959
 21
-192.132
  0
LINE
  8
0
 10
-50.0959
 20
-192.132
 11
-50.1
 21
-192
  0
LINE
  8
0
 10
-50.1
 20
-192
 11
-50.0959
 21
-191.868
  0
LINE
  8
0
 10
-50.0959
 20
-191.868
 11
-50.0834
 21
-191.737
  0
LINE
  8
0
 10
-50.0834
 20
-191.737
 11
-50.0628
 21
-191.607
  0
LINE
  8
0
 10
-50.0628
 20
-191.607
 11
-50.034
 21
-191.478
  0
LINE
  8
0
 10
-50.034
 20
-191.478
 11
-49.9972
 21
-191.351
  0
LINE
  8
0
 10
-49.9972
 20
-191.351
 11
-49.9525
 21
-191.227
  0
LINE
  8
0
 10
-49.9525
 20
-191.227
 11
-49.9001
 21
-191.106
  0
LINE
  8
0
 10
-49.9001
 20
-191.106
 11
-49.8402
 21
-190.988
  0
LINE
  8
0
 10
-49.8402
 20
-190.988
 11
-49.7731
 21
-190.875
  0
LINE
  8
0
 10
-49.7731
 20
-190.875
 11
-49.6989
 21
-190.766
  0
LINE
  8
0
 10
-49.6989
 20
-190.766
 11
-49.6181
 21
-190.661
  0
LINE
  8
0
 10
-49.6181
 20
-190.661
 11
-49.5308
 21
-190.562
  0
LINE
  8
0
 10
-49.5308
 20
-190.562
 11
-49.4375
 21
-190.469
  0
LINE
  8
0
 10
-49.4375
 20
-190.469
 11
-49.3386
 21
-190.382
  0
LINE
  8
0
 10
-49.3386
 20
-190.382
 11
-49.2343
 21
-190.301
  0
LINE
  8
0
 10
-49.2343
 20
-190.301
 11
-49.1252
 21
-190.227
  0
LINE
  8
0
 10
-49.1252
 20
-190.227
 11
-49.0117
 21
-190.16
  0
LINE
  8
0
 10
-49.0117
 20
-190.16
 11
-48.8941
 21
-190.1
  0
LINE
  8
0
 10
-48.8941
 20
-190.1
 11
-48.7731
 21
-190.047
  0
LINE
  8
0
 10
-48.7731
 20
-190.047
 11
-48.6489
 21
-190.003
  0
LINE
  8
0
 10
-48.6489
 20
-190.003
 11
-48.5222
 21
-189.966
  0
LINE
  8
0
 10
-48.5222
 20
-189.966
 11
-48.3935
 21
-189.937
  0
LINE
  8
0
 10
-48.3935
 20
-189.937
 11
-48.2632
 21
-189.917
  0
LINE
  8
0
 10
-48.2632
 20
-189.917
 11
-48.1319
 21
-189.904
  0
LINE
  8
0
 10
-48.1319
 20
-189.904
 11
-48
 21
-189.9
  0
LINE
  8
0
 10
-48
 20
-189.9
 11
-47.8681
 21
-189.904
  0
LINE
  8
0
 10
-47.8681
 20
-189.904
 11
-47.7368
 21
-189.917
  0
LINE
  8
0
 10
-47.7368
 20
-189.917
 11
-47.6065
 21
-189.937
  0
LINE
  8
0
 10
-47.6065
 20
-189.937
 11
-47.4778
 21
-189.966
  0
LINE
  8
0
 10
-47.4778
 20
-189.966
 11
-47.3511
 21
-190.003
  0
LINE
  8
0
 10
-47.3511
 20
-190.003
 11
-47.2269
 21
-190.047
  0
LINE
  8
0
 10
-47.2269
 20
-190.047
 11
-47.1059
 21
-190.1
  0
LINE
  8
0
 10
-47.1059
 20
-190.1
 11
-46.9883
 21
-190.16
  0
LINE
  8
0
 10
-46.9883
 20
-190.16
 11
-46.8748
 21
-190.227
  0
LINE
  8
0
 10
-46.8748
 20
-190.227
 11
-46.7656
 21
-190.301
  0
LINE
  8
0
 10
-46.7656
 20
-190.301
 11
-46.6614
 21
-190.382
  0
LINE
  8
0
 10
-46.6614
 20
-190.382
 11
-46.5624
 21
-190.469
  0
LINE
  8
0
 10
-46.5624
 20
-190.469
 11
-46.4692
 21
-190.562
  0
LINE
  8
0
 10
-46.4692
 20
-190.562
 11
-46.3819
 21
-190.661
  0
LINE
  8
0
 10
-46.3819
 20
-190.661
 11
-46.3011
 21
-190.766
  0
LINE
  8
0
 10
-46.3011
 20
-190.766
 11
-46.2269
 21
-190.875
  0
LINE
  8
0
 10
-46.2269
 20
-190.875
 11
-46.1597
 21
-190.988
  0
LINE
  8
0
 10
-46.1597
 20
-190.988
 11
-46.0999
 21
-191.106
  0
LINE
  8
0
 10
-46.0999
 20
-191.106
 11
-46.0475
 21
-191.227
  0
LINE
  8
0
 10
-46.0475
 20
-191.227
 11
-46.0028
 21
-191.351
  0
LINE
  8
0
 10
-46.0028
 20
-191.351
 11
-45.966
 21
-191.478
  0
LINE
  8
0
 10
-45.966
 20
-191.478
 11
-45.9372
 21
-191.607
  0
LINE
  8
0
 10
-45.9372
 20
-191.607
 11
-45.9165
 21
-191.737
  0
LINE
  8
0
 10
-45.9165
 20
-191.737
 11
-45.9041
 21
-191.868
  0
LINE
  8
0
 10
-45.9041
 20
-191.868
 11
-45.9
 21
-192
  0
LINE
  8
0
 10
-45.9
 20
-192
 11
-45.9041
 21
-192.132
  0
LINE
  8
0
 10
-45.9041
 20
-192.132
 11
-45.9165
 21
-192.263
  0
LINE
  8
0
 10
-45.9165
 20
-192.263
 11
-45.9372
 21
-192.393
  0
LINE
  8
0
 10
-45.9372
 20
-192.393
 11
-45.966
 21
-192.522
  0
LINE
  8
0
 10
-45.966
 20
-192.522
 11
-46.0028
 21
-192.649
  0
LINE
  8
0
 10
-46.0028
 20
-192.649
 11
-46.0475
 21
-192.773
  0
LINE
  8
0
 10
-46.0475
 20
-192.773
 11
-46.0999
 21
-192.894
  0
LINE
  8
0
 10
-46.0999
 20
-192.894
 11
-46.1597
 21
-193.012
  0
LINE
  8
0
 10
-46.1597
 20
-193.012
 11
-46.2269
 21
-193.125
  0
LINE
  8
0
 10
-46.2269
 20
-193.125
 11
-46.3011
 21
-193.234
  0
LINE
  8
0
 10
-46.3011
 20
-193.234
 11
-46.3819
 21
-193.339
  0
LINE
  8
0
 10
-46.3819
 20
-193.339
 11
-46.4692
 21
-193.438
  0
LINE
  8
0
 10
-46.4692
 20
-193.438
 11
-46.5624
 21
-193.531
  0
LINE
  8
0
 10
-46.5624
 20
-193.531
 11
-46.6614
 21
-193.618
  0
LINE
  8
0
 10
-46.6614
 20
-193.618
 11
-46.7656
 21
-193.699
  0
LINE
  8
0
 10
-46.7656
 20
-193.699
 11
-46.8748
 21
-193.773
  0
LINE
  8
0
 10
-46.8748
 20
-193.773
 11
-46.9883
 21
-193.84
  0
LINE
  8
0
 10
-46.9883
 20
-193.84
 11
-47.1059
 21
-193.9
  0
LINE
  8
0
 10
-47.1059
 20
-193.9
 11
-47.2269
 21
-193.953
  0
LINE
  8
0
 10
-47.2269
 20
-193.953
 11
-47.3511
 21
-193.997
  0
LINE
  8
0
 10
-47.3511
 20
-193.997
 11
-47.4778
 21
-194.034
  0
LINE
  8
0
 10
-47.4778
 20
-194.034
 11
-47.6065
 21
-194.063
  0
LINE
  8
0
 10
-47.6065
 20
-194.063
 11
-47.7368
 21
-194.083
  0
LINE
  8
0
 10
-47.7368
 20
-194.083
 11
-47.8681
 21
-194.096
  0
LINE
  8
0
 10
-47.8681
 20
-194.096
 11
-48
 21
-194.1
  0
LINE
  8
0
 10
-48
 20
-194.1
 11
-48.1319
 21
-194.096
  0
ENDSEC
  0
SECTION
  2
OBJECTS
  0
DICTIONARY
  0
ENDSEC
  0
EOF
