  0
SECTION
  2
BLOCKS
  0
ENDSEC
  0
SECTION
  2
ENTITIES
  0
LINE
  8
0
 10
185
 20
100
 11
61.6667
 21
100
  0
LINE
  8
0
 10
61.6667
 20
100
 11
61.6667
 21
50
  0
LINE
  8
0
 10
61.6667
 20
50
 11
-61.6667
 21
50
  0
LINE
  8
0
 10
-61.6667
 20
50
 11
-61.6667
 21
100
  0
LINE
  8
0
 10
-61.6667
 20
100
 11
-185
 21
100
  0
LINE
  8
0
 10
-185
 20
100
 11
-185
 21
-50
  0
LINE
  8
0
 10
-185
 20
-50
 11
185
 21
-50
  0
LINE
  8
0
 10
185
 20
-50
 11
185
 21
100
  0
LINE
  8
0
 10
-0.18837
 20
22.0059
 11
-0.375992
 21
22.0237
  0
LINE
  8
0
 10
-0.375992
 20
22.0237
 11
-0.562134
 21
22.0531
  0
LINE
  8
0
 10
-0.562134
 20
22.0531
 11
-0.746063
 21
22.0942
  0
LINE
  8
0
 10
-0.746063
 20
22.0942
 11
-0.927048
 21
22.1468
  0
LINE
  8
0
 10
-0.927048
 20
22.1468
 11
-1.10437
 21
22.2107
  0
LINE
  8
0
 10
-1.10437
 20
22.2107
 11
-1.27733
 21
22.2855
  0
LINE
  8
0
 10
-1.27733
 20
22.2855
 11
-1.44525
 21
22.3711
  0
LINE
  8
0
 10
-1.44525
 20
22.3711
 11
-1.60747
 21
22.467
  0
LINE
  8
0
 10
-1.60747
 20
22.467
 11
-1.76335
 21
22.5729
  0
LINE
  8
0
 10
-1.76335
 20
22.5729
 11
-1.91226
 21
22.6884
  0
LINE
  8
0
 10
-1.91226
 20
22.6884
 11
-2.05363
 21
22.8131
  0
LINE
  8
0
 10
-2.05363
 20
22.8131
 11
-2.1869
 21
22.9464
  0
LINE
  8
0
 10
-2.1869
 20
22.9464
 11
-2.31154
 21
23.0877
  0
LINE
  8
0
 10
-2.31154
 20
23.0877
 11
-2.42705
 21
23.2366
  0
LINE
  8
0
 10
-2.42705
 20
23.2366
 11
-2.53297
 21
23.3925
  0
LINE
  8
0
 10
-2.53297
 20
23.3925
 11
-2.62891
 21
23.5547
  0
LINE
  8
0
 10
-2.62891
 20
23.5547
 11
-2.71448
 21
23.7227
  0
LINE
  8
0
 10
-2.71448
 20
23.7227
 11
-2.78932
 21
23.8956
  0
LINE
  8
0
 10
-2.78932
 20
23.8956
 11
-2.85316
 21
24.0729
  0
LINE
  8
0
 10
-2.85316
 20
24.0729
 11
-2.90575
 21
24.2539
  0
LINE
  8
0
 10
-2.90575
 20
24.2539
 11
-2.94685
 21
24.4379
  0
LINE
  8
0
 10
-2.94685
 20
24.4379
 11
-2.97633
 21
24.624
  0
LINE
  8
0
 10
-2.97633
 20
24.624
 11
-2.99408
 21
24.8116
  0
LINE
  8
0
 10
-2.99408
 20
24.8116
 11
-3
 21
25
  0
LINE
  8
0
 10
-3
 20
25
 11
-2.99408
 21
25.1884
  0
LINE
  8
0
 10
-2.99408
 20
25.1884
 11
-2.97633
 21
25.376
  0
LINE
  8
0
 10
-2.97633
 20
25.376
 11
-2.94685
 21
25.5621
  0
LINE
  8
0
 10
-2.94685
 20
25.5621
 11
-2.90575
 21
25.7461
  0
LINE
  8
0
 10
-2.90575
 20
25.7461
 11
-2.85316
 21
25.927
  0
LINE
  8
0
 10
-2.85316
 20
25.927
 11
-2.78932
 21
26.1044
  0
LINE
  8
0
 10
-2.78932
 20
26.1044
 11
-2.71448
 21
26.2773
  0
LINE
  8
0
 10
-2.71448
 20
26.2773
 11
-2.62891
 21
26.4453
  0
LINE
  8
0
 10
-2.62891
 20
26.4453
 11
-2.53297
 21
26.6075
  0
LINE
  8
0
 10
-2.53297
 20
26.6075
 11
-2.42705
 21
26.7634
  0
LINE
  8
0
 10
-2.42705
 20
26.7634
 11
-2.31154
 21
26.9123
  0
LINE
  8
0
 10
-2.31154
 20
26.9123
 11
-2.1869
 21
27.0536
  0
LINE
  8
0
 10
-2.1869
 20
27.0536
 11
-2.05363
 21
27.1869
  0
LINE
  8
0
 10
-2.05363
 20
27.1869
 11
-1.91226
 21
27.3115
  0
LINE
  8
0
 10
-1.91226
 20
27.3115
 11
-1.76335
 21
27.427
  0
LINE
  8
0
 10
-1.76335
 20
27.427
 11
-1.60747
 21
27.533
  0
LINE
  8
0
 10
-1.60747
 20
27.533
 11
-1.44525
 21
27.6289
  0
LINE
  8
0
 10
-1.44525
 20
27.6289
 11
-1.27733
 21
27.7145
  0
LINE
  8
0
 10
-1.27733
 20
27.7145
 11
-1.10437
 21
27.7893
  0
LINE
  8
0
 10
-1.10437
 20
27.7893
 11
-0.927048
 21
27.8532
  0
LINE
  8
0
 10
-0.927048
 20
27.8532
 11
-0.746063
 21
27.9057
  0
LINE
  8
0
 10
-0.746063
 20
27.9057
 11
-0.562134
 21
27.9469
  0
LINE
  8
0
 10
-0.562134
 20
27.9469
 11
-0.375992
 21
27.9763
  0
LINE
  8
0
 10
-0.375992
 20
27.9763
 11
-0.18837
 21
27.9941
  0
LINE
  8
0
 10
-0.18837
 20
27.9941
 11
0
 21
28
  0
LINE
  8
0
 10
0
 20
28
 11
0.18837
 21
27.9941
  0
LINE
  8
0
 10
0.18837
 20
27.9941
 11
0.375992
 21
27.9763
  0
LINE
  8
0
 10
0.375992
 20
27.9763
 11
0.562134
 21
27.9469
  0
LINE
  8
0
 10
0.562134
 20
27.9469
 11
0.746063
 21
27.9057
  0
LINE
  8
0
 10
0.746063
 20
27.9057
 11
0.927048
 21
27.8532
  0
LINE
  8
0
 10
0.927048
 20
27.8532
 11
1.10437
 21
27.7893
  0
LINE
  8
0
 10
1.10437
 20
27.7893
 11
1.27733
 21
27.7145
  0
LINE
  8
0
 10
1.27733
 20
27.7145
 11
1.44525
 21
27.6289
  0
LINE
  8
0
 10
1.44525
 20
27.6289
 11
1.60747
 21
27.533
  0
LINE
  8
0
 10
1.60747
 20
27.533
 11
1.76335
 21
27.427
  0
LINE
  8
0
 10
1.76335
 20
27.427
 11
1.91226
 21
27.3115
  0
LINE
  8
0
 10
1.91226
 20
27.3115
 11
2.05363
 21
27.1869
  0
LINE
  8
0
 10
2.05363
 20
27.1869
 11
2.1869
 21
27.0536
  0
LINE
  8
0
 10
2.1869
 20
27.0536
 11
2.31154
 21
26.9123
  0
LINE
  8
0
 10
2.31154
 20
26.9123
 11
2.42705
 21
26.7634
  0
LINE
  8
0
 10
2.42705
 20
26.7634
 11
2.53297
 21
26.6075
  0
LINE
  8
0
 10
2.53297
 20
26.6075
 11
2.62891
 21
26.4453
  0
LINE
  8
0
 10
2.62891
 20
26.4453
 11
2.71448
 21
26.2773
  0
LINE
  8
0
 10
2.71448
 20
26.2773
 11
2.78932
 21
26.1044
  0
LINE
  8
0
 10
2.78932
 20
26.1044
 11
2.85316
 21
25.927
  0
LINE
  8
0
 10
2.85316
 20
25.927
 11
2.90575
 21
25.7461
  0
LINE
  8
0
 10
2.90575
 20
25.7461
 11
2.94685
 21
25.5621
  0
LINE
  8
0
 10
2.94685
 20
25.5621
 11
2.97633
 21
25.376
  0
LINE
  8
0
 10
2.97633
 20
25.376
 11
2.99408
 21
25.1884
  0
LINE
  8
0
 10
2.99408
 20
25.1884
 11
3
 21
25
  0
LINE
  8
0
 10
3
 20
25
 11
2.99408
 21
24.8116
  0
LINE
  8
0
 10
2.99408
 20
24.8116
 11
2.97633
 21
24.624
  0
LINE
  8
0
 10
2.97633
 20
24.624
 11
2.94685
 21
24.4379
  0
LINE
  8
0
 10
2.94685
 20
24.4379
 11
2.90575
 21
24.2539
  0
LINE
  8
0
 10
2.90575
 20
24.2539
 11
2.85316
 21
24.0729
  0
LINE
  8
0
 10
2.85316
 20
24.0729
 11
2.78932
 21
23.8956
  0
LINE
  8
0
 10
2.78932
 20
23.8956
 11
2.71448
 21
23.7227
  0
LINE
  8
0
 10
2.71448
 20
23.7227
 11
2.62891
 21
23.5547
  0
LINE
  8
0
 10
2.62891
 20
23.5547
 11
2.53297
 21
23.3925
  0
LINE
  8
0
 10
2.53297
 20
23.3925
 11
2.42705
 21
23.2366
  0
LINE
  8
0
 10
2.42705
 20
23.2366
 11
2.31154
 21
23.0877
  0
LINE
  8
0
 10
2.31154
 20
23.0877
 11
2.1869
 21
22.9464
  0
LINE
  8
0
 10
2.1869
 20
22.9464
 11
2.05363
 21
22.8131
  0
LINE
  8
0
 10
2.05363
 20
22.8131
 11
1.91226
 21
22.6884
  0
LINE
  8
0
 10
1.91226
 20
22.6884
 11
1.76335
 21
22.5729
  0
LINE
  8
0
 10
1.76335
 20
22.5729
 11
1.60747
 21
22.467
  0
LINE
  8
0
 10
1.60747
 20
22.467
 11
1.44525
 21
22.3711
  0
LINE
  8
0
 10
1.44525
 20
22.3711
 11
1.27733
 21
22.2855
  0
LINE
  8
0
 10
1.27733
 20
22.2855
 11
1.10437
 21
22.2107
  0
LINE
  8
0
 10
1.10437
 20
22.2107
 11
0.927048
 21
22.1468
  0
LINE
  8
0
 10
0.927048
 20
22.1468
 11
0.746063
 21
22.0942
  0
LINE
  8
0
 10
0.746063
 20
22.0942
 11
0.562134
 21
22.0531
  0
LINE
  8
0
 10
0.562134
 20
22.0531
 11
0.375992
 21
22.0237
  0
LINE
  8
0
 10
0.375992
 20
22.0237
 11
0.18837
 21
22.0059
  0
LINE
  8
0
 10
0.18837
 20
22.0059
 11
0
 21
22
  0
LINE
  8
0
 10
0
 20
22
 11
-0.18837
 21
22.0059
  0
LINE
  8
0
 10
-0.18837
 20
-27.9941
 11
-0.375992
 21
-27.9763
  0
LINE
  8
0
 10
-0.375992
 20
-27.9763
 11
-0.562134
 21
-27.9469
  0
LINE
  8
0
 10
-0.562134
 20
-27.9469
 11
-0.746063
 21
-27.9057
  0
LINE
  8
0
 10
-0.746063
 20
-27.9057
 11
-0.927048
 21
-27.8532
  0
LINE
  8
0
 10
-0.927048
 20
-27.8532
 11
-1.10437
 21
-27.7893
  0
LINE
  8
0
 10
-1.10437
 20
-27.7893
 11
-1.27733
 21
-27.7145
  0
LINE
  8
0
 10
-1.27733
 20
-27.7145
 11
-1.44525
 21
-27.6289
  0
LINE
  8
0
 10
-1.44525
 20
-27.6289
 11
-1.60747
 21
-27.533
  0
LINE
  8
0
 10
-1.60747
 20
-27.533
 11
-1.76335
 21
-27.427
  0
LINE
  8
0
 10
-1.76335
 20
-27.427
 11
-1.91226
 21
-27.3115
  0
LINE
  8
0
 10
-1.91226
 20
-27.3115
 11
-2.05363
 21
-27.1869
  0
LINE
  8
0
 10
-2.05363
 20
-27.1869
 11
-2.1869
 21
-27.0536
  0
LINE
  8
0
 10
-2.1869
 20
-27.0536
 11
-2.31154
 21
-26.9123
  0
LINE
  8
0
 10
-2.31154
 20
-26.9123
 11
-2.42705
 21
-26.7634
  0
LINE
  8
0
 10
-2.42705
 20
-26.7634
 11
-2.53297
 21
-26.6075
  0
LINE
  8
0
 10
-2.53297
 20
-26.6075
 11
-2.62891
 21
-26.4453
  0
LINE
  8
0
 10
-2.62891
 20
-26.4453
 11
-2.71448
 21
-26.2773
  0
LINE
  8
0
 10
-2.71448
 20
-26.2773
 11
-2.78932
 21
-26.1044
  0
LINE
  8
0
 10
-2.78932
 20
-26.1044
 11
-2.85316
 21
-25.927
  0
LINE
  8
0
 10
-2.85316
 20
-25.927
 11
-2.90575
 21
-25.7461
  0
LINE
  8
0
 10
-2.90575
 20
-25.7461
 11
-2.94685
 21
-25.5621
  0
LINE
  8
0
 10
-2.94685
 20
-25.5621
 11
-2.97633
 21
-25.376
  0
LINE
  8
0
 10
-2.97633
 20
-25.376
 11
-2.99408
 21
-25.1884
  0
LINE
  8
0
 10
-2.99408
 20
-25.1884
 11
-3
 21
-25
  0
LINE
  8
0
 10
-3
 20
-25
 11
-2.99408
 21
-24.8116
  0
LINE
  8
0
 10
-2.99408
 20
-24.8116
 11
-2.97633
 21
-24.624
  0
LINE
  8
0
 10
-2.97633
 20
-24.624
 11
-2.94685
 21
-24.4379
  0
LINE
  8
0
 10
-2.94685
 20
-24.4379
 11
-2.90575
 21
-24.2539
  0
LINE
  8
0
 10
-2.90575
 20
-24.2539
 11
-2.85316
 21
-24.0729
  0
LINE
  8
0
 10
-2.85316
 20
-24.0729
 11
-2.78932
 21
-23.8956
  0
LINE
  8
0
 10
-2.78932
 20
-23.8956
 11
-2.71448
 21
-23.7227
  0
LINE
  8
0
 10
-2.71448
 20
-23.7227
 11
-2.62891
 21
-23.5547
  0
LINE
  8
0
 10
-2.62891
 20
-23.5547
 11
-2.53297
 21
-23.3925
  0
LINE
  8
0
 10
-2.53297
 20
-23.3925
 11
-2.42705
 21
-23.2366
  0
LINE
  8
0
 10
-2.42705
 20
-23.2366
 11
-2.31154
 21
-23.0877
  0
LINE
  8
0
 10
-2.31154
 20
-23.0877
 11
-2.1869
 21
-22.9464
  0
LINE
  8
0
 10
-2.1869
 20
-22.9464
 11
-2.05363
 21
-22.8131
  0
LINE
  8
0
 10
-2.05363
 20
-22.8131
 11
-1.91226
 21
-22.6884
  0
LINE
  8
0
 10
-1.91226
 20
-22.6884
 11
-1.76335
 21
-22.5729
  0
LINE
  8
0
 10
-1.76335
 20
-22.5729
 11
-1.60747
 21
-22.467
  0
LINE
  8
0
 10
-1.60747
 20
-22.467
 11
-1.44525
 21
-22.3711
  0
LINE
  8
0
 10
-1.44525
 20
-22.3711
 11
-1.27733
 21
-22.2855
  0
LINE
  8
0
 10
-1.27733
 20
-22.2855
 11
-1.10437
 21
-22.2107
  0
LINE
  8
0
 10
-1.10437
 20
-22.2107
 11
-0.927048
 21
-22.1468
  0
LINE
  8
0
 10
-0.927048
 20
-22.1468
 11
-0.746063
 21
-22.0942
  0
LINE
  8
0
 10
-0.746063
 20
-22.0942
 11
-0.562134
 21
-22.0531
  0
LINE
  8
0
 10
-0.562134
 20
-22.0531
 11
-0.375992
 21
-22.0237
  0
LINE
  8
0
 10
-0.375992
 20
-22.0237
 11
-0.18837
 21
-22.0059
  0
LINE
  8
0
 10
-0.18837
 20
-22.0059
 11
0
 21
-22
  0
LINE
  8
0
 10
0
 20
-22
 11
0.18837
 21
-22.0059
  0
LINE
  8
0
 10
0.18837
 20
-22.0059
 11
0.375992
 21
-22.0237
  0
LINE
  8
0
 10
0.375992
 20
-22.0237
 11
0.562134
 21
-22.0531
  0
LINE
  8
0
 10
0.562134
 20
-22.0531
 11
0.746063
 21
-22.0942
  0
LINE
  8
0
 10
0.746063
 20
-22.0942
 11
0.927048
 21
-22.1468
  0
LINE
  8
0
 10
0.927048
 20
-22.1468
 11
1.10437
 21
-22.2107
  0
LINE
  8
0
 10
1.10437
 20
-22.2107
 11
1.27733
 21
-22.2855
  0
LINE
  8
0
 10
1.27733
 20
-22.2855
 11
1.44525
 21
-22.3711
  0
LINE
  8
0
 10
1.44525
 20
-22.3711
 11
1.60747
 21
-22.467
  0
LINE
  8
0
 10
1.60747
 20
-22.467
 11
1.76335
 21
-22.5729
  0
LINE
  8
0
 10
1.76335
 20
-22.5729
 11
1.91226
 21
-22.6884
  0
LINE
  8
0
 10
1.91226
 20
-22.6884
 11
2.05363
 21
-22.8131
  0
LINE
  8
0
 10
2.05363
 20
-22.8131
 11
2.1869
 21
-22.9464
  0
LINE
  8
0
 10
2.1869
 20
-22.9464
 11
2.31154
 21
-23.0877
  0
LINE
  8
0
 10
2.31154
 20
-23.0877
 11
2.42705
 21
-23.2366
  0
LINE
  8
0
 10
2.42705
 20
-23.2366
 11
2.53297
 21
-23.3925
  0
LINE
  8
0
 10
2.53297
 20
-23.3925
 11
2.62891
 21
-23.5547
  0
LINE
  8
0
 10
2.62891
 20
-23.5547
 11
2.71448
 21
-23.7227
  0
LINE
  8
0
 10
2.71448
 20
-23.7227
 11
2.78932
 21
-23.8956
  0
LINE
  8
0
 10
2.78932
 20
-23.8956
 11
2.85316
 21
-24.0729
  0
LINE
  8
0
 10
2.85316
 20
-24.0729
 11
2.90575
 21
-24.2539
  0
LINE
  8
0
 10
2.90575
 20
-24.2539
 11
2.94685
 21
-24.4379
  0
LINE
  8
0
 10
2.94685
 20
-24.4379
 11
2.97633
 21
-24.624
  0
LINE
  8
0
 10
2.97633
 20
-24.624
 11
2.99408
 21
-24.8116
  0
LINE
  8
0
 10
2.99408
 20
-24.8116
 11
3
 21
-25
  0
LINE
  8
0
 10
3
 20
-25
 11
2.99408
 21
-25.1884
  0
LINE
  8
0
 10
2.99408
 20
-25.1884
 11
2.97633
 21
-25.376
  0
LINE
  8
0
 10
2.97633
 20
-25.376
 11
2.94685
 21
-25.5621
  0
LINE
  8
0
 10
2.94685
 20
-25.5621
 11
2.90575
 21
-25.7461
  0
LINE
  8
0
 10
2.90575
 20
-25.7461
 11
2.85316
 21
-25.927
  0
LINE
  8
0
 10
2.85316
 20
-25.927
 11
2.78932
 21
-26.1044
  0
LINE
  8
0
 10
2.78932
 20
-26.1044
 11
2.71448
 21
-26.2773
  0
LINE
  8
0
 10
2.71448
 20
-26.2773
 11
2.62891
 21
-26.4453
  0
LINE
  8
0
 10
2.62891
 20
-26.4453
 11
2.53297
 21
-26.6075
  0
LINE
  8
0
 10
2.53297
 20
-26.6075
 11
2.42705
 21
-26.7634
  0
LINE
  8
0
 10
2.42705
 20
-26.7634
 11
2.31154
 21
-26.9123
  0
LINE
  8
0
 10
2.31154
 20
-26.9123
 11
2.1869
 21
-27.0536
  0
LINE
  8
0
 10
2.1869
 20
-27.0536
 11
2.05363
 21
-27.1869
  0
LINE
  8
0
 10
2.05363
 20
-27.1869
 11
1.91226
 21
-27.3115
  0
LINE
  8
0
 10
1.91226
 20
-27.3115
 11
1.76335
 21
-27.427
  0
LINE
  8
0
 10
1.76335
 20
-27.427
 11
1.60747
 21
-27.533
  0
LINE
  8
0
 10
1.60747
 20
-27.533
 11
1.44525
 21
-27.6289
  0
LINE
  8
0
 10
1.44525
 20
-27.6289
 11
1.27733
 21
-27.7145
  0
LINE
  8
0
 10
1.27733
 20
-27.7145
 11
1.10437
 21
-27.7893
  0
LINE
  8
0
 10
1.10437
 20
-27.7893
 11
0.927048
 21
-27.8532
  0
LINE
  8
0
 10
0.927048
 20
-27.8532
 11
0.746063
 21
-27.9057
  0
LINE
  8
0
 10
0.746063
 20
-27.9057
 11
0.562134
 21
-27.9469
  0
LINE
  8
0
 10
0.562134
 20
-27.9469
 11
0.375992
 21
-27.9763
  0
LINE
  8
0
 10
0.375992
 20
-27.9763
 11
0.18837
 21
-27.9941
  0
LINE
  8
0
 10
0.18837
 20
-27.9941
 11
0
 21
-28
  0
LINE
  8
0
 10
0
 20
-28
 11
-0.18837
 21
-27.9941
  0
ENDSEC
  0
SECTION
  2
OBJECTS
  0
DICTIONARY
  0
ENDSEC
  0
EOF
