  0
SECTION
  2
BLOCKS
  0
ENDSEC
  0
SECTION
  2
ENTITIES
  0
LINE
  8
0
 10
185
 20
100
 11
61.6667
 21
100
  0
LINE
  8
0
 10
61.6667
 20
100
 11
61.6667
 21
50
  0
LINE
  8
0
 10
61.6667
 20
50
 11
-61.6667
 21
50
  0
LINE
  8
0
 10
-61.6667
 20
50
 11
-61.6667
 21
100
  0
LINE
  8
0
 10
-61.6667
 20
100
 11
-185
 21
100
  0
LINE
  8
0
 10
-185
 20
100
 11
-185
 21
-50
  0
LINE
  8
0
 10
-185
 20
-50
 11
185
 21
-50
  0
LINE
  8
0
 10
185
 20
-50
 11
185
 21
100
  0
LINE
  8
0
 10
-0.18837
 20
22.0059
 11
-0.375992
 21
22.0237
  0
LINE
  8
0
 10
-0.375992
 20
22.0237
 11
-0.562134
 21
22.0531
  0
LINE
  8
0
 10
-0.562134
 20
22.0531
 11
-0.746063
 21
22.0942
  0
LINE
  8
0
 10
-0.746063
 20
22.0942
 11
-0.927048
 21
22.1468
  0
LINE
  8
0
 10
-0.927048
 20
22.1468
 11
-1.10437
 21
22.2107
  0
LINE
  8
0
 10
-1.10437
 20
22.2107
 11
-1.27733
 21
22.2855
  0
LINE
  8
0
 10
-1.27733
 20
22.2855
 11
-1.44525
 21
22.3711
  0
LINE
  8
0
 10
-1.44525
 20
22.3711
 11
-1.60747
 21
22.467
  0
LINE
  8
0
 10
-1.60747
 20
22.467
 11
-1.76335
 21
22.5729
  0
LINE
  8
0
 10
-1.76335
 20
22.5729
 11
-1.91226
 21
22.6884
  0
LINE
  8
0
 10
-1.91226
 20
22.6884
 11
-2.05363
 21
22.8131
  0
LINE
  8
0
 10
-2.05363
 20
22.8131
 11
-2.1869
 21
22.9464
  0
LINE
  8
0
 10
-2.1869
 20
22.9464
 11
-2.31154
 21
23.0877
  0
LINE
  8
0
 10
-2.31154
 20
23.0877
 11
-2.42705
 21
23.2366
  0
LINE
  8
0
 10
-2.42705
 20
23.2366
 11
-2.53297
 21
23.3925
  0
LINE
  8
0
 10
-2.53297
 20
23.3925
 11
-2.62891
 21
23.5547
  0
LINE
  8
0
 10
-2.62891
 20
23.5547
 11
-2.71448
 21
23.7227
  0
LINE
  8
0
 10
-2.71448
 20
23.7227
 11
-2.78932
 21
23.8956
  0
LINE
  8
0
 10
-2.78932
 20
23.8956
 11
-2.85316
 21
24.0729
  0
LINE
  8
0
 10
-2.85316
 20
24.0729
 11
-2.90575
 21
24.2539
  0
LINE
  8
0
 10
-2.90575
 20
24.2539
 11
-2.94685
 21
24.4379
  0
LINE
  8
0
 10
-2.94685
 20
24.4379
 11
-2.97633
 21
24.624
  0
LINE
  8
0
 10
-2.97633
 20
24.624
 11
-2.99408
 21
24.8116
  0
LINE
  8
0
 10
-2.99408
 20
24.8116
 11
-3
 21
25
  0
LINE
  8
0
 10
-3
 20
25
 11
-2.99408
 21
25.1884
  0
LINE
  8
0
 10
-2.99408
 20
25.1884
 11
-2.97633
 21
25.376
  0
LINE
  8
0
 10
-2.97633
 20
25.376
 11
-2.94685
 21
25.5621
  0
LINE
  8
0
 10
-2.94685
 20
25.5621
 11
-2.90575
 21
25.7461
  0
LINE
  8
0
 10
-2.90575
 20
25.7461
 11
-2.85316
 21
25.927
  0
LINE
  8
0
 10
-2.85316
 20
25.927
 11
-2.78932
 21
26.1044
  0
LINE
  8
0
 10
-2.78932
 20
26.1044
 11
-2.71448
 21
26.2773
  0
LINE
  8
0
 10
-2.71448
 20
26.2773
 11
-2.62891
 21
26.4453
  0
LINE
  8
0
 10
-2.62891
 20
26.4453
 11
-2.53297
 21
26.6075
  0
LINE
  8
0
 10
-2.53297
 20
26.6075
 11
-2.42705
 21
26.7634
  0
LINE
  8
0
 10
-2.42705
 20
26.7634
 11
-2.31154
 21
26.9123
  0
LINE
  8
0
 10
-2.31154
 20
26.9123
 11
-2.1869
 21
27.0536
  0
LINE
  8
0
 10
-2.1869
 20
27.0536
 11
-2.05363
 21
27.1869
  0
LINE
  8
0
 10
-2.05363
 20
27.1869
 11
-1.91226
 21
27.3115
  0
LINE
  8
0
 10
-1.91226
 20
27.3115
 11
-1.76335
 21
27.427
  0
LINE
  8
0
 10
-1.76335
 20
27.427
 11
-1.60747
 21
27.533
  0
LINE
  8
0
 10
-1.60747
 20
27.533
 11
-1.44525
 21
27.6289
  0
LINE
  8
0
 10
-1.44525
 20
27.6289
 11
-1.27733
 21
27.7145
  0
LINE
  8
0
 10
-1.27733
 20
27.7145
 11
-1.10437
 21
27.7893
  0
LINE
  8
0
 10
-1.10437
 20
27.7893
 11
-0.927048
 21
27.8532
  0
LINE
  8
0
 10
-0.927048
 20
27.8532
 11
-0.746063
 21
27.9057
  0
LINE
  8
0
 10
-0.746063
 20
27.9057
 11
-0.562134
 21
27.9469
  0
LINE
  8
0
 10
-0.562134
 20
27.9469
 11
-0.375992
 21
27.9763
  0
LINE
  8
0
 10
-0.375992
 20
27.9763
 11
-0.18837
 21
27.9941
  0
LINE
  8
0
 10
-0.18837
 20
27.9941
 11
0
 21
28
  0
LINE
  8
0
 10
0
 20
28
 11
0.18837
 21
27.9941
  0
LINE
  8
0
 10
0.18837
 20
27.9941
 11
0.375992
 21
27.9763
  0
LINE
  8
0
 10
0.375992
 20
27.9763
 11
0.562134
 21
27.9469
  0
LINE
  8
0
 10
0.562134
 20
27.9469
 11
0.746063
 21
27.9057
  0
LINE
  8
0
 10
0.746063
 20
27.9057
 11
0.927048
 21
27.8532
  0
LINE
  8
0
 10
0.927048
 20
27.8532
 11
1.10437
 21
27.7893
  0
LINE
  8
0
 10
1.10437
 20
27.7893
 11
1.27733
 21
27.7145
  0
LINE
  8
0
 10
1.27733
 20
27.7145
 11
1.44525
 21
27.6289
  0
LINE
  8
0
 10
1.44525
 20
27.6289
 11
1.60747
 21
27.533
  0
LINE
  8
0
 10
1.60747
 20
27.533
 11
1.76335
 21
27.427
  0
LINE
  8
0
 10
1.76335
 20
27.427
 11
1.91226
 21
27.3115
  0
LINE
  8
0
 10
1.91226
 20
27.3115
 11
2.05363
 21
27.1869
  0
LINE
  8
0
 10
2.05363
 20
27.1869
 11
2.1869
 21
27.0536
  0
LINE
  8
0
 10
2.1869
 20
27.0536
 11
2.31154
 21
26.9123
  0
LINE
  8
0
 10
2.31154
 20
26.9123
 11
2.42705
 21
26.7634
  0
LINE
  8
0
 10
2.42705
 20
26.7634
 11
2.53297
 21
26.6075
  0
LINE
  8
0
 10
2.53297
 20
26.6075
 11
2.62891
 21
26.4453
  0
LINE
  8
0
 10
2.62891
 20
26.4453
 11
2.71448
 21
26.2773
  0
LINE
  8
0
 10
2.71448
 20
26.2773
 11
2.78932
 21
26.1044
  0
LINE
  8
0
 10
2.78932
 20
26.1044
 11
2.85316
 21
25.927
  0
LINE
  8
0
 10
2.85316
 20
25.927
 11
2.90575
 21
25.7461
  0
LINE
  8
0
 10
2.90575
 20
25.7461
 11
2.94685
 21
25.5621
  0
LINE
  8
0
 10
2.94685
 20
25.5621
 11
2.97633
 21
25.376
  0
LINE
  8
0
 10
2.97633
 20
25.376
 11
2.99408
 21
25.1884
  0
LINE
  8
0
 10
2.99408
 20
25.1884
 11
3
 21
25
  0
LINE
  8
0
 10
3
 20
25
 11
2.99408
 21
24.8116
  0
LINE
  8
0
 10
2.99408
 20
24.8116
 11
2.97633
 21
24.624
  0
LINE
  8
0
 10
2.97633
 20
24.624
 11
2.94685
 21
24.4379
  0
LINE
  8
0
 10
2.94685
 20
24.4379
 11
2.90575
 21
24.2539
  0
LINE
  8
0
 10
2.90575
 20
24.2539
 11
2.85316
 21
24.0729
  0
LINE
  8
0
 10
2.85316
 20
24.0729
 11
2.78932
 21
23.8956
  0
LINE
  8
0
 10
2.78932
 20
23.8956
 11
2.71448
 21
23.7227
  0
LINE
  8
0
 10
2.71448
 20
23.7227
 11
2.62891
 21
23.5547
  0
LINE
  8
0
 10
2.62891
 20
23.5547
 11
2.53297
 21
23.3925
  0
LINE
  8
0
 10
2.53297
 20
23.3925
 11
2.42705
 21
23.2366
  0
LINE
  8
0
 10
2.42705
 20
23.2366
 11
2.31154
 21
23.0877
  0
LINE
  8
0
 10
2.31154
 20
23.0877
 11
2.1869
 21
22.9464
  0
LINE
  8
0
 10
2.1869
 20
22.9464
 11
2.05363
 21
22.8131
  0
LINE
  8
0
 10
2.05363
 20
22.8131
 11
1.91226
 21
22.6884
  0
LINE
  8
0
 10
1.91226
 20
22.6884
 11
1.76335
 21
22.5729
  0
LINE
  8
0
 10
1.76335
 20
22.5729
 11
1.60747
 21
22.467
  0
LINE
  8
0
 10
1.60747
 20
22.467
 11
1.44525
 21
22.3711
  0
LINE
  8
0
 10
1.44525
 20
22.3711
 11
1.27733
 21
22.2855
  0
LINE
  8
0
 10
1.27733
 20
22.2855
 11
1.10437
 21
22.2107
  0
LINE
  8
0
 10
1.10437
 20
22.2107
 11
0.927048
 21
22.1468
  0
LINE
  8
0
 10
0.927048
 20
22.1468
 11
0.746063
 21
22.0942
  0
LINE
  8
0
 10
0.746063
 20
22.0942
 11
0.562134
 21
22.0531
  0
LINE
  8
0
 10
0.562134
 20
22.0531
 11
0.375992
 21
22.0237
  0
LINE
  8
0
 10
0.375992
 20
22.0237
 11
0.18837
 21
22.0059
  0
LINE
  8
0
 10
0.18837
 20
22.0059
 11
0
 21
22
  0
LINE
  8
0
 10
0
 20
22
 11
-0.18837
 21
22.0059
  0
LINE
  8
0
 10
42.2857
 20
-25
 11
42.2857
 21
3.57143
  0
LINE
  8
0
 10
42.2857
 20
3.57143
 11
148
 21
3.57143
  0
LINE
  8
0
 10
148
 20
3.57143
 11
148
 21
-25
  0
LINE
  8
0
 10
148
 20
-25
 11
42.2857
 21
-25
  0
LINE
  8
0
 10
-148
 20
-25
 11
-148
 21
3.57143
  0
LINE
  8
0
 10
-148
 20
3.57143
 11
-42.2857
 21
3.57143
  0
LINE
  8
0
 10
-42.2857
 20
3.57143
 11
-42.2857
 21
-25
  0
LINE
  8
0
 10
-42.2857
 20
-25
 11
-148
 21
-25
  0
LINE
  8
0
 10
-0.18837
 20
-27.9941
 11
-0.375992
 21
-27.9763
  0
LINE
  8
0
 10
-0.375992
 20
-27.9763
 11
-0.562134
 21
-27.9469
  0
LINE
  8
0
 10
-0.562134
 20
-27.9469
 11
-0.746063
 21
-27.9057
  0
LINE
  8
0
 10
-0.746063
 20
-27.9057
 11
-0.927048
 21
-27.8532
  0
LINE
  8
0
 10
-0.927048
 20
-27.8532
 11
-1.10437
 21
-27.7893
  0
LINE
  8
0
 10
-1.10437
 20
-27.7893
 11
-1.27733
 21
-27.7145
  0
LINE
  8
0
 10
-1.27733
 20
-27.7145
 11
-1.44525
 21
-27.6289
  0
LINE
  8
0
 10
-1.44525
 20
-27.6289
 11
-1.60747
 21
-27.533
  0
LINE
  8
0
 10
-1.60747
 20
-27.533
 11
-1.76335
 21
-27.427
  0
LINE
  8
0
 10
-1.76335
 20
-27.427
 11
-1.91226
 21
-27.3115
  0
LINE
  8
0
 10
-1.91226
 20
-27.3115
 11
-2.05363
 21
-27.1869
  0
LINE
  8
0
 10
-2.05363
 20
-27.1869
 11
-2.1869
 21
-27.0536
  0
LINE
  8
0
 10
-2.1869
 20
-27.0536
 11
-2.31154
 21
-26.9123
  0
LINE
  8
0
 10
-2.31154
 20
-26.9123
 11
-2.42705
 21
-26.7634
  0
LINE
  8
0
 10
-2.42705
 20
-26.7634
 11
-2.53297
 21
-26.6075
  0
LINE
  8
0
 10
-2.53297
 20
-26.6075
 11
-2.62891
 21
-26.4453
  0
LINE
  8
0
 10
-2.62891
 20
-26.4453
 11
-2.71448
 21
-26.2773
  0
LINE
  8
0
 10
-2.71448
 20
-26.2773
 11
-2.78932
 21
-26.1044
  0
LINE
  8
0
 10
-2.78932
 20
-26.1044
 11
-2.85316
 21
-25.927
  0
LINE
  8
0
 10
-2.85316
 20
-25.927
 11
-2.90575
 21
-25.7461
  0
LINE
  8
0
 10
-2.90575
 20
-25.7461
 11
-2.94685
 21
-25.5621
  0
LINE
  8
0
 10
-2.94685
 20
-25.5621
 11
-2.97633
 21
-25.376
  0
LINE
  8
0
 10
-2.97633
 20
-25.376
 11
-2.99408
 21
-25.1884
  0
LINE
  8
0
 10
-2.99408
 20
-25.1884
 11
-3
 21
-25
  0
LINE
  8
0
 10
-3
 20
-25
 11
-2.99408
 21
-24.8116
  0
LINE
  8
0
 10
-2.99408
 20
-24.8116
 11
-2.97633
 21
-24.624
  0
LINE
  8
0
 10
-2.97633
 20
-24.624
 11
-2.94685
 21
-24.4379
  0
LINE
  8
0
 10
-2.94685
 20
-24.4379
 11
-2.90575
 21
-24.2539
  0
LINE
  8
0
 10
-2.90575
 20
-24.2539
 11
-2.85316
 21
-24.0729
  0
LINE
  8
0
 10
-2.85316
 20
-24.0729
 11
-2.78932
 21
-23.8956
  0
LINE
  8
0
 10
-2.78932
 20
-23.8956
 11
-2.71448
 21
-23.7227
  0
LINE
  8
0
 10
-2.71448
 20
-23.7227
 11
-2.62891
 21
-23.5547
  0
LINE
  8
0
 10
-2.62891
 20
-23.5547
 11
-2.53297
 21
-23.3925
  0
LINE
  8
0
 10
-2.53297
 20
-23.3925
 11
-2.42705
 21
-23.2366
  0
LINE
  8
0
 10
-2.42705
 20
-23.2366
 11
-2.31154
 21
-23.0877
  0
LINE
  8
0
 10
-2.31154
 20
-23.0877
 11
-2.1869
 21
-22.9464
  0
LINE
  8
0
 10
-2.1869
 20
-22.9464
 11
-2.05363
 21
-22.8131
  0
LINE
  8
0
 10
-2.05363
 20
-22.8131
 11
-1.91226
 21
-22.6884
  0
LINE
  8
0
 10
-1.91226
 20
-22.6884
 11
-1.76335
 21
-22.5729
  0
LINE
  8
0
 10
-1.76335
 20
-22.5729
 11
-1.60747
 21
-22.467
  0
LINE
  8
0
 10
-1.60747
 20
-22.467
 11
-1.44525
 21
-22.3711
  0
LINE
  8
0
 10
-1.44525
 20
-22.3711
 11
-1.27733
 21
-22.2855
  0
LINE
  8
0
 10
-1.27733
 20
-22.2855
 11
-1.10437
 21
-22.2107
  0
LINE
  8
0
 10
-1.10437
 20
-22.2107
 11
-0.927048
 21
-22.1468
  0
LINE
  8
0
 10
-0.927048
 20
-22.1468
 11
-0.746063
 21
-22.0942
  0
LINE
  8
0
 10
-0.746063
 20
-22.0942
 11
-0.562134
 21
-22.0531
  0
LINE
  8
0
 10
-0.562134
 20
-22.0531
 11
-0.375992
 21
-22.0237
  0
LINE
  8
0
 10
-0.375992
 20
-22.0237
 11
-0.18837
 21
-22.0059
  0
LINE
  8
0
 10
-0.18837
 20
-22.0059
 11
0
 21
-22
  0
LINE
  8
0
 10
0
 20
-22
 11
0.18837
 21
-22.0059
  0
LINE
  8
0
 10
0.18837
 20
-22.0059
 11
0.375992
 21
-22.0237
  0
LINE
  8
0
 10
0.375992
 20
-22.0237
 11
0.562134
 21
-22.0531
  0
LINE
  8
0
 10
0.562134
 20
-22.0531
 11
0.746063
 21
-22.0942
  0
LINE
  8
0
 10
0.746063
 20
-22.0942
 11
0.927048
 21
-22.1468
  0
LINE
  8
0
 10
0.927048
 20
-22.1468
 11
1.10437
 21
-22.2107
  0
LINE
  8
0
 10
1.10437
 20
-22.2107
 11
1.27733
 21
-22.2855
  0
LINE
  8
0
 10
1.27733
 20
-22.2855
 11
1.44525
 21
-22.3711
  0
LINE
  8
0
 10
1.44525
 20
-22.3711
 11
1.60747
 21
-22.467
  0
LINE
  8
0
 10
1.60747
 20
-22.467
 11
1.76335
 21
-22.5729
  0
LINE
  8
0
 10
1.76335
 20
-22.5729
 11
1.91226
 21
-22.6884
  0
LINE
  8
0
 10
1.91226
 20
-22.6884
 11
2.05363
 21
-22.8131
  0
LINE
  8
0
 10
2.05363
 20
-22.8131
 11
2.1869
 21
-22.9464
  0
LINE
  8
0
 10
2.1869
 20
-22.9464
 11
2.31154
 21
-23.0877
  0
LINE
  8
0
 10
2.31154
 20
-23.0877
 11
2.42705
 21
-23.2366
  0
LINE
  8
0
 10
2.42705
 20
-23.2366
 11
2.53297
 21
-23.3925
  0
LINE
  8
0
 10
2.53297
 20
-23.3925
 11
2.62891
 21
-23.5547
  0
LINE
  8
0
 10
2.62891
 20
-23.5547
 11
2.71448
 21
-23.7227
  0
LINE
  8
0
 10
2.71448
 20
-23.7227
 11
2.78932
 21
-23.8956
  0
LINE
  8
0
 10
2.78932
 20
-23.8956
 11
2.85316
 21
-24.0729
  0
LINE
  8
0
 10
2.85316
 20
-24.0729
 11
2.90575
 21
-24.2539
  0
LINE
  8
0
 10
2.90575
 20
-24.2539
 11
2.94685
 21
-24.4379
  0
LINE
  8
0
 10
2.94685
 20
-24.4379
 11
2.97633
 21
-24.624
  0
LINE
  8
0
 10
2.97633
 20
-24.624
 11
2.99408
 21
-24.8116
  0
LINE
  8
0
 10
2.99408
 20
-24.8116
 11
3
 21
-25
  0
LINE
  8
0
 10
3
 20
-25
 11
2.99408
 21
-25.1884
  0
LINE
  8
0
 10
2.99408
 20
-25.1884
 11
2.97633
 21
-25.376
  0
LINE
  8
0
 10
2.97633
 20
-25.376
 11
2.94685
 21
-25.5621
  0
LINE
  8
0
 10
2.94685
 20
-25.5621
 11
2.90575
 21
-25.7461
  0
LINE
  8
0
 10
2.90575
 20
-25.7461
 11
2.85316
 21
-25.927
  0
LINE
  8
0
 10
2.85316
 20
-25.927
 11
2.78932
 21
-26.1044
  0
LINE
  8
0
 10
2.78932
 20
-26.1044
 11
2.71448
 21
-26.2773
  0
LINE
  8
0
 10
2.71448
 20
-26.2773
 11
2.62891
 21
-26.4453
  0
LINE
  8
0
 10
2.62891
 20
-26.4453
 11
2.53297
 21
-26.6075
  0
LINE
  8
0
 10
2.53297
 20
-26.6075
 11
2.42705
 21
-26.7634
  0
LINE
  8
0
 10
2.42705
 20
-26.7634
 11
2.31154
 21
-26.9123
  0
LINE
  8
0
 10
2.31154
 20
-26.9123
 11
2.1869
 21
-27.0536
  0
LINE
  8
0
 10
2.1869
 20
-27.0536
 11
2.05363
 21
-27.1869
  0
LINE
  8
0
 10
2.05363
 20
-27.1869
 11
1.91226
 21
-27.3115
  0
LINE
  8
0
 10
1.91226
 20
-27.3115
 11
1.76335
 21
-27.427
  0
LINE
  8
0
 10
1.76335
 20
-27.427
 11
1.60747
 21
-27.533
  0
LINE
  8
0
 10
1.60747
 20
-27.533
 11
1.44525
 21
-27.6289
  0
LINE
  8
0
 10
1.44525
 20
-27.6289
 11
1.27733
 21
-27.7145
  0
LINE
  8
0
 10
1.27733
 20
-27.7145
 11
1.10437
 21
-27.7893
  0
LINE
  8
0
 10
1.10437
 20
-27.7893
 11
0.927048
 21
-27.8532
  0
LINE
  8
0
 10
0.927048
 20
-27.8532
 11
0.746063
 21
-27.9057
  0
LINE
  8
0
 10
0.746063
 20
-27.9057
 11
0.562134
 21
-27.9469
  0
LINE
  8
0
 10
0.562134
 20
-27.9469
 11
0.375992
 21
-27.9763
  0
LINE
  8
0
 10
0.375992
 20
-27.9763
 11
0.18837
 21
-27.9941
  0
LINE
  8
0
 10
0.18837
 20
-27.9941
 11
0
 21
-28
  0
LINE
  8
0
 10
0
 20
-28
 11
-0.18837
 21
-27.9941
  0
LINE
  8
0
 10
-175.188
 20
-42.9941
 11
-175.376
 21
-42.9763
  0
LINE
  8
0
 10
-175.376
 20
-42.9763
 11
-175.562
 21
-42.9469
  0
LINE
  8
0
 10
-175.562
 20
-42.9469
 11
-175.746
 21
-42.9057
  0
LINE
  8
0
 10
-175.746
 20
-42.9057
 11
-175.927
 21
-42.8532
  0
LINE
  8
0
 10
-175.927
 20
-42.8532
 11
-176.104
 21
-42.7893
  0
LINE
  8
0
 10
-176.104
 20
-42.7893
 11
-176.277
 21
-42.7145
  0
LINE
  8
0
 10
-176.277
 20
-42.7145
 11
-176.445
 21
-42.6289
  0
LINE
  8
0
 10
-176.445
 20
-42.6289
 11
-176.607
 21
-42.533
  0
LINE
  8
0
 10
-176.607
 20
-42.533
 11
-176.763
 21
-42.427
  0
LINE
  8
0
 10
-176.763
 20
-42.427
 11
-176.912
 21
-42.3115
  0
LINE
  8
0
 10
-176.912
 20
-42.3115
 11
-177.054
 21
-42.1869
  0
LINE
  8
0
 10
-177.054
 20
-42.1869
 11
-177.187
 21
-42.0536
  0
LINE
  8
0
 10
-177.187
 20
-42.0536
 11
-177.312
 21
-41.9123
  0
LINE
  8
0
 10
-177.312
 20
-41.9123
 11
-177.427
 21
-41.7634
  0
LINE
  8
0
 10
-177.427
 20
-41.7634
 11
-177.533
 21
-41.6075
  0
LINE
  8
0
 10
-177.533
 20
-41.6075
 11
-177.629
 21
-41.4453
  0
LINE
  8
0
 10
-177.629
 20
-41.4453
 11
-177.714
 21
-41.2773
  0
LINE
  8
0
 10
-177.714
 20
-41.2773
 11
-177.789
 21
-41.1044
  0
LINE
  8
0
 10
-177.789
 20
-41.1044
 11
-177.853
 21
-40.927
  0
LINE
  8
0
 10
-177.853
 20
-40.927
 11
-177.906
 21
-40.7461
  0
LINE
  8
0
 10
-177.906
 20
-40.7461
 11
-177.947
 21
-40.5621
  0
LINE
  8
0
 10
-177.947
 20
-40.5621
 11
-177.976
 21
-40.376
  0
LINE
  8
0
 10
-177.976
 20
-40.376
 11
-177.994
 21
-40.1884
  0
LINE
  8
0
 10
-177.994
 20
-40.1884
 11
-178
 21
-40
  0
LINE
  8
0
 10
-178
 20
-40
 11
-177.994
 21
-39.8116
  0
LINE
  8
0
 10
-177.994
 20
-39.8116
 11
-177.976
 21
-39.624
  0
LINE
  8
0
 10
-177.976
 20
-39.624
 11
-177.947
 21
-39.4379
  0
LINE
  8
0
 10
-177.947
 20
-39.4379
 11
-177.906
 21
-39.2539
  0
LINE
  8
0
 10
-177.906
 20
-39.2539
 11
-177.853
 21
-39.0729
  0
LINE
  8
0
 10
-177.853
 20
-39.0729
 11
-177.789
 21
-38.8956
  0
LINE
  8
0
 10
-177.789
 20
-38.8956
 11
-177.714
 21
-38.7227
  0
LINE
  8
0
 10
-177.714
 20
-38.7227
 11
-177.629
 21
-38.5547
  0
LINE
  8
0
 10
-177.629
 20
-38.5547
 11
-177.533
 21
-38.3925
  0
LINE
  8
0
 10
-177.533
 20
-38.3925
 11
-177.427
 21
-38.2366
  0
LINE
  8
0
 10
-177.427
 20
-38.2366
 11
-177.312
 21
-38.0877
  0
LINE
  8
0
 10
-177.312
 20
-38.0877
 11
-177.187
 21
-37.9464
  0
LINE
  8
0
 10
-177.187
 20
-37.9464
 11
-177.054
 21
-37.8131
  0
LINE
  8
0
 10
-177.054
 20
-37.8131
 11
-176.912
 21
-37.6885
  0
LINE
  8
0
 10
-176.912
 20
-37.6885
 11
-176.763
 21
-37.5729
  0
LINE
  8
0
 10
-176.763
 20
-37.5729
 11
-176.607
 21
-37.467
  0
LINE
  8
0
 10
-176.607
 20
-37.467
 11
-176.445
 21
-37.3711
  0
LINE
  8
0
 10
-176.445
 20
-37.3711
 11
-176.277
 21
-37.2855
  0
LINE
  8
0
 10
-176.277
 20
-37.2855
 11
-176.104
 21
-37.2107
  0
LINE
  8
0
 10
-176.104
 20
-37.2107
 11
-175.927
 21
-37.1468
  0
LINE
  8
0
 10
-175.927
 20
-37.1468
 11
-175.746
 21
-37.0942
  0
LINE
  8
0
 10
-175.746
 20
-37.0942
 11
-175.562
 21
-37.0531
  0
LINE
  8
0
 10
-175.562
 20
-37.0531
 11
-175.376
 21
-37.0237
  0
LINE
  8
0
 10
-175.376
 20
-37.0237
 11
-175.188
 21
-37.0059
  0
LINE
  8
0
 10
-175.188
 20
-37.0059
 11
-175
 21
-37
  0
LINE
  8
0
 10
-175
 20
-37
 11
-174.812
 21
-37.0059
  0
LINE
  8
0
 10
-174.812
 20
-37.0059
 11
-174.624
 21
-37.0237
  0
LINE
  8
0
 10
-174.624
 20
-37.0237
 11
-174.438
 21
-37.0531
  0
LINE
  8
0
 10
-174.438
 20
-37.0531
 11
-174.254
 21
-37.0942
  0
LINE
  8
0
 10
-174.254
 20
-37.0942
 11
-174.073
 21
-37.1468
  0
LINE
  8
0
 10
-174.073
 20
-37.1468
 11
-173.896
 21
-37.2107
  0
LINE
  8
0
 10
-173.896
 20
-37.2107
 11
-173.723
 21
-37.2855
  0
LINE
  8
0
 10
-173.723
 20
-37.2855
 11
-173.555
 21
-37.3711
  0
LINE
  8
0
 10
-173.555
 20
-37.3711
 11
-173.393
 21
-37.467
  0
LINE
  8
0
 10
-173.393
 20
-37.467
 11
-173.237
 21
-37.5729
  0
LINE
  8
0
 10
-173.237
 20
-37.5729
 11
-173.088
 21
-37.6885
  0
LINE
  8
0
 10
-173.088
 20
-37.6885
 11
-172.946
 21
-37.8131
  0
LINE
  8
0
 10
-172.946
 20
-37.8131
 11
-172.813
 21
-37.9464
  0
LINE
  8
0
 10
-172.813
 20
-37.9464
 11
-172.688
 21
-38.0877
  0
LINE
  8
0
 10
-172.688
 20
-38.0877
 11
-172.573
 21
-38.2366
  0
LINE
  8
0
 10
-172.573
 20
-38.2366
 11
-172.467
 21
-38.3925
  0
LINE
  8
0
 10
-172.467
 20
-38.3925
 11
-172.371
 21
-38.5547
  0
LINE
  8
0
 10
-172.371
 20
-38.5547
 11
-172.286
 21
-38.7227
  0
LINE
  8
0
 10
-172.286
 20
-38.7227
 11
-172.211
 21
-38.8956
  0
LINE
  8
0
 10
-172.211
 20
-38.8956
 11
-172.147
 21
-39.0729
  0
LINE
  8
0
 10
-172.147
 20
-39.0729
 11
-172.094
 21
-39.2539
  0
LINE
  8
0
 10
-172.094
 20
-39.2539
 11
-172.053
 21
-39.4379
  0
LINE
  8
0
 10
-172.053
 20
-39.4379
 11
-172.024
 21
-39.624
  0
LINE
  8
0
 10
-172.024
 20
-39.624
 11
-172.006
 21
-39.8116
  0
LINE
  8
0
 10
-172.006
 20
-39.8116
 11
-172
 21
-40
  0
LINE
  8
0
 10
-172
 20
-40
 11
-172.006
 21
-40.1884
  0
LINE
  8
0
 10
-172.006
 20
-40.1884
 11
-172.024
 21
-40.376
  0
LINE
  8
0
 10
-172.024
 20
-40.376
 11
-172.053
 21
-40.5621
  0
LINE
  8
0
 10
-172.053
 20
-40.5621
 11
-172.094
 21
-40.7461
  0
LINE
  8
0
 10
-172.094
 20
-40.7461
 11
-172.147
 21
-40.927
  0
LINE
  8
0
 10
-172.147
 20
-40.927
 11
-172.211
 21
-41.1044
  0
LINE
  8
0
 10
-172.211
 20
-41.1044
 11
-172.286
 21
-41.2773
  0
LINE
  8
0
 10
-172.286
 20
-41.2773
 11
-172.371
 21
-41.4453
  0
LINE
  8
0
 10
-172.371
 20
-41.4453
 11
-172.467
 21
-41.6075
  0
LINE
  8
0
 10
-172.467
 20
-41.6075
 11
-172.573
 21
-41.7634
  0
LINE
  8
0
 10
-172.573
 20
-41.7634
 11
-172.688
 21
-41.9123
  0
LINE
  8
0
 10
-172.688
 20
-41.9123
 11
-172.813
 21
-42.0536
  0
LINE
  8
0
 10
-172.813
 20
-42.0536
 11
-172.946
 21
-42.1869
  0
LINE
  8
0
 10
-172.946
 20
-42.1869
 11
-173.088
 21
-42.3115
  0
LINE
  8
0
 10
-173.088
 20
-42.3115
 11
-173.237
 21
-42.427
  0
LINE
  8
0
 10
-173.237
 20
-42.427
 11
-173.393
 21
-42.533
  0
LINE
  8
0
 10
-173.393
 20
-42.533
 11
-173.555
 21
-42.6289
  0
LINE
  8
0
 10
-173.555
 20
-42.6289
 11
-173.723
 21
-42.7145
  0
LINE
  8
0
 10
-173.723
 20
-42.7145
 11
-173.896
 21
-42.7893
  0
LINE
  8
0
 10
-173.896
 20
-42.7893
 11
-174.073
 21
-42.8532
  0
LINE
  8
0
 10
-174.073
 20
-42.8532
 11
-174.254
 21
-42.9057
  0
LINE
  8
0
 10
-174.254
 20
-42.9057
 11
-174.438
 21
-42.9469
  0
LINE
  8
0
 10
-174.438
 20
-42.9469
 11
-174.624
 21
-42.9763
  0
LINE
  8
0
 10
-174.624
 20
-42.9763
 11
-174.812
 21
-42.9941
  0
LINE
  8
0
 10
-174.812
 20
-42.9941
 11
-175
 21
-43
  0
LINE
  8
0
 10
-175
 20
-43
 11
-175.188
 21
-42.9941
  0
LINE
  8
0
 10
174.812
 20
-42.9941
 11
174.624
 21
-42.9763
  0
LINE
  8
0
 10
174.624
 20
-42.9763
 11
174.438
 21
-42.9469
  0
LINE
  8
0
 10
174.438
 20
-42.9469
 11
174.254
 21
-42.9057
  0
LINE
  8
0
 10
174.254
 20
-42.9057
 11
174.073
 21
-42.8532
  0
LINE
  8
0
 10
174.073
 20
-42.8532
 11
173.896
 21
-42.7893
  0
LINE
  8
0
 10
173.896
 20
-42.7893
 11
173.723
 21
-42.7145
  0
LINE
  8
0
 10
173.723
 20
-42.7145
 11
173.555
 21
-42.6289
  0
LINE
  8
0
 10
173.555
 20
-42.6289
 11
173.393
 21
-42.533
  0
LINE
  8
0
 10
173.393
 20
-42.533
 11
173.237
 21
-42.427
  0
LINE
  8
0
 10
173.237
 20
-42.427
 11
173.088
 21
-42.3115
  0
LINE
  8
0
 10
173.088
 20
-42.3115
 11
172.946
 21
-42.1869
  0
LINE
  8
0
 10
172.946
 20
-42.1869
 11
172.813
 21
-42.0536
  0
LINE
  8
0
 10
172.813
 20
-42.0536
 11
172.688
 21
-41.9123
  0
LINE
  8
0
 10
172.688
 20
-41.9123
 11
172.573
 21
-41.7634
  0
LINE
  8
0
 10
172.573
 20
-41.7634
 11
172.467
 21
-41.6075
  0
LINE
  8
0
 10
172.467
 20
-41.6075
 11
172.371
 21
-41.4453
  0
LINE
  8
0
 10
172.371
 20
-41.4453
 11
172.286
 21
-41.2773
  0
LINE
  8
0
 10
172.286
 20
-41.2773
 11
172.211
 21
-41.1044
  0
LINE
  8
0
 10
172.211
 20
-41.1044
 11
172.147
 21
-40.927
  0
LINE
  8
0
 10
172.147
 20
-40.927
 11
172.094
 21
-40.7461
  0
LINE
  8
0
 10
172.094
 20
-40.7461
 11
172.053
 21
-40.5621
  0
LINE
  8
0
 10
172.053
 20
-40.5621
 11
172.024
 21
-40.376
  0
LINE
  8
0
 10
172.024
 20
-40.376
 11
172.006
 21
-40.1884
  0
LINE
  8
0
 10
172.006
 20
-40.1884
 11
172
 21
-40
  0
LINE
  8
0
 10
172
 20
-40
 11
172.006
 21
-39.8116
  0
LINE
  8
0
 10
172.006
 20
-39.8116
 11
172.024
 21
-39.624
  0
LINE
  8
0
 10
172.024
 20
-39.624
 11
172.053
 21
-39.4379
  0
LINE
  8
0
 10
172.053
 20
-39.4379
 11
172.094
 21
-39.2539
  0
LINE
  8
0
 10
172.094
 20
-39.2539
 11
172.147
 21
-39.0729
  0
LINE
  8
0
 10
172.147
 20
-39.0729
 11
172.211
 21
-38.8956
  0
LINE
  8
0
 10
172.211
 20
-38.8956
 11
172.286
 21
-38.7227
  0
LINE
  8
0
 10
172.286
 20
-38.7227
 11
172.371
 21
-38.5547
  0
LINE
  8
0
 10
172.371
 20
-38.5547
 11
172.467
 21
-38.3925
  0
LINE
  8
0
 10
172.467
 20
-38.3925
 11
172.573
 21
-38.2366
  0
LINE
  8
0
 10
172.573
 20
-38.2366
 11
172.688
 21
-38.0877
  0
LINE
  8
0
 10
172.688
 20
-38.0877
 11
172.813
 21
-37.9464
  0
LINE
  8
0
 10
172.813
 20
-37.9464
 11
172.946
 21
-37.8131
  0
LINE
  8
0
 10
172.946
 20
-37.8131
 11
173.088
 21
-37.6885
  0
LINE
  8
0
 10
173.088
 20
-37.6885
 11
173.237
 21
-37.5729
  0
LINE
  8
0
 10
173.237
 20
-37.5729
 11
173.393
 21
-37.467
  0
LINE
  8
0
 10
173.393
 20
-37.467
 11
173.555
 21
-37.3711
  0
LINE
  8
0
 10
173.555
 20
-37.3711
 11
173.723
 21
-37.2855
  0
LINE
  8
0
 10
173.723
 20
-37.2855
 11
173.896
 21
-37.2107
  0
LINE
  8
0
 10
173.896
 20
-37.2107
 11
174.073
 21
-37.1468
  0
LINE
  8
0
 10
174.073
 20
-37.1468
 11
174.254
 21
-37.0942
  0
LINE
  8
0
 10
174.254
 20
-37.0942
 11
174.438
 21
-37.0531
  0
LINE
  8
0
 10
174.438
 20
-37.0531
 11
174.624
 21
-37.0237
  0
LINE
  8
0
 10
174.624
 20
-37.0237
 11
174.812
 21
-37.0059
  0
LINE
  8
0
 10
174.812
 20
-37.0059
 11
175
 21
-37
  0
LINE
  8
0
 10
175
 20
-37
 11
175.188
 21
-37.0059
  0
LINE
  8
0
 10
175.188
 20
-37.0059
 11
175.376
 21
-37.0237
  0
LINE
  8
0
 10
175.376
 20
-37.0237
 11
175.562
 21
-37.0531
  0
LINE
  8
0
 10
175.562
 20
-37.0531
 11
175.746
 21
-37.0942
  0
LINE
  8
0
 10
175.746
 20
-37.0942
 11
175.927
 21
-37.1468
  0
LINE
  8
0
 10
175.927
 20
-37.1468
 11
176.104
 21
-37.2107
  0
LINE
  8
0
 10
176.104
 20
-37.2107
 11
176.277
 21
-37.2855
  0
LINE
  8
0
 10
176.277
 20
-37.2855
 11
176.445
 21
-37.3711
  0
LINE
  8
0
 10
176.445
 20
-37.3711
 11
176.607
 21
-37.467
  0
LINE
  8
0
 10
176.607
 20
-37.467
 11
176.763
 21
-37.5729
  0
LINE
  8
0
 10
176.763
 20
-37.5729
 11
176.912
 21
-37.6885
  0
LINE
  8
0
 10
176.912
 20
-37.6885
 11
177.054
 21
-37.8131
  0
LINE
  8
0
 10
177.054
 20
-37.8131
 11
177.187
 21
-37.9464
  0
LINE
  8
0
 10
177.187
 20
-37.9464
 11
177.312
 21
-38.0877
  0
LINE
  8
0
 10
177.312
 20
-38.0877
 11
177.427
 21
-38.2366
  0
LINE
  8
0
 10
177.427
 20
-38.2366
 11
177.533
 21
-38.3925
  0
LINE
  8
0
 10
177.533
 20
-38.3925
 11
177.629
 21
-38.5547
  0
LINE
  8
0
 10
177.629
 20
-38.5547
 11
177.714
 21
-38.7227
  0
LINE
  8
0
 10
177.714
 20
-38.7227
 11
177.789
 21
-38.8956
  0
LINE
  8
0
 10
177.789
 20
-38.8956
 11
177.853
 21
-39.0729
  0
LINE
  8
0
 10
177.853
 20
-39.0729
 11
177.906
 21
-39.2539
  0
LINE
  8
0
 10
177.906
 20
-39.2539
 11
177.947
 21
-39.4379
  0
LINE
  8
0
 10
177.947
 20
-39.4379
 11
177.976
 21
-39.624
  0
LINE
  8
0
 10
177.976
 20
-39.624
 11
177.994
 21
-39.8116
  0
LINE
  8
0
 10
177.994
 20
-39.8116
 11
178
 21
-40
  0
LINE
  8
0
 10
178
 20
-40
 11
177.994
 21
-40.1884
  0
LINE
  8
0
 10
177.994
 20
-40.1884
 11
177.976
 21
-40.376
  0
LINE
  8
0
 10
177.976
 20
-40.376
 11
177.947
 21
-40.5621
  0
LINE
  8
0
 10
177.947
 20
-40.5621
 11
177.906
 21
-40.7461
  0
LINE
  8
0
 10
177.906
 20
-40.7461
 11
177.853
 21
-40.927
  0
LINE
  8
0
 10
177.853
 20
-40.927
 11
177.789
 21
-41.1044
  0
LINE
  8
0
 10
177.789
 20
-41.1044
 11
177.714
 21
-41.2773
  0
LINE
  8
0
 10
177.714
 20
-41.2773
 11
177.629
 21
-41.4453
  0
LINE
  8
0
 10
177.629
 20
-41.4453
 11
177.533
 21
-41.6075
  0
LINE
  8
0
 10
177.533
 20
-41.6075
 11
177.427
 21
-41.7634
  0
LINE
  8
0
 10
177.427
 20
-41.7634
 11
177.312
 21
-41.9123
  0
LINE
  8
0
 10
177.312
 20
-41.9123
 11
177.187
 21
-42.0536
  0
LINE
  8
0
 10
177.187
 20
-42.0536
 11
177.054
 21
-42.1869
  0
LINE
  8
0
 10
177.054
 20
-42.1869
 11
176.912
 21
-42.3115
  0
LINE
  8
0
 10
176.912
 20
-42.3115
 11
176.763
 21
-42.427
  0
LINE
  8
0
 10
176.763
 20
-42.427
 11
176.607
 21
-42.533
  0
LINE
  8
0
 10
176.607
 20
-42.533
 11
176.445
 21
-42.6289
  0
LINE
  8
0
 10
176.445
 20
-42.6289
 11
176.277
 21
-42.7145
  0
LINE
  8
0
 10
176.277
 20
-42.7145
 11
176.104
 21
-42.7893
  0
LINE
  8
0
 10
176.104
 20
-42.7893
 11
175.927
 21
-42.8532
  0
LINE
  8
0
 10
175.927
 20
-42.8532
 11
175.746
 21
-42.9057
  0
LINE
  8
0
 10
175.746
 20
-42.9057
 11
175.562
 21
-42.9469
  0
LINE
  8
0
 10
175.562
 20
-42.9469
 11
175.376
 21
-42.9763
  0
LINE
  8
0
 10
175.376
 20
-42.9763
 11
175.188
 21
-42.9941
  0
LINE
  8
0
 10
175.188
 20
-42.9941
 11
175
 21
-43
  0
LINE
  8
0
 10
175
 20
-43
 11
174.812
 21
-42.9941
  0
ENDSEC
  0
SECTION
  2
OBJECTS
  0
DICTIONARY
  0
ENDSEC
  0
EOF
