  0
SECTION
  2
BLOCKS
  0
ENDSEC
  0
SECTION
  2
ENTITIES
  0
LINE
  8
0
 10
255
 20
150
 11
85
 21
150
  0
LINE
  8
0
 10
85
 20
150
 11
85
 21
75
  0
LINE
  8
0
 10
85
 20
75
 11
-85
 21
75
  0
LINE
  8
0
 10
-85
 20
75
 11
-85
 21
150
  0
LINE
  8
0
 10
-85
 20
150
 11
-255
 21
150
  0
LINE
  8
0
 10
-255
 20
150
 11
-255
 21
-75
  0
LINE
  8
0
 10
-255
 20
-75
 11
255
 21
-75
  0
LINE
  8
0
 10
255
 20
-75
 11
255
 21
150
  0
LINE
  8
0
 10
-0.18837
 20
34.5059
 11
-0.375992
 21
34.5237
  0
LINE
  8
0
 10
-0.375992
 20
34.5237
 11
-0.562134
 21
34.5531
  0
LINE
  8
0
 10
-0.562134
 20
34.5531
 11
-0.746063
 21
34.5942
  0
LINE
  8
0
 10
-0.746063
 20
34.5942
 11
-0.927048
 21
34.6468
  0
LINE
  8
0
 10
-0.927048
 20
34.6468
 11
-1.10437
 21
34.7107
  0
LINE
  8
0
 10
-1.10437
 20
34.7107
 11
-1.27733
 21
34.7855
  0
LINE
  8
0
 10
-1.27733
 20
34.7855
 11
-1.44525
 21
34.8711
  0
LINE
  8
0
 10
-1.44525
 20
34.8711
 11
-1.60747
 21
34.967
  0
LINE
  8
0
 10
-1.60747
 20
34.967
 11
-1.76335
 21
35.0729
  0
LINE
  8
0
 10
-1.76335
 20
35.0729
 11
-1.91226
 21
35.1885
  0
LINE
  8
0
 10
-1.91226
 20
35.1885
 11
-2.05363
 21
35.3131
  0
LINE
  8
0
 10
-2.05363
 20
35.3131
 11
-2.1869
 21
35.4464
  0
LINE
  8
0
 10
-2.1869
 20
35.4464
 11
-2.31154
 21
35.5877
  0
LINE
  8
0
 10
-2.31154
 20
35.5877
 11
-2.42705
 21
35.7366
  0
LINE
  8
0
 10
-2.42705
 20
35.7366
 11
-2.53297
 21
35.8925
  0
LINE
  8
0
 10
-2.53297
 20
35.8925
 11
-2.62891
 21
36.0547
  0
LINE
  8
0
 10
-2.62891
 20
36.0547
 11
-2.71448
 21
36.2227
  0
LINE
  8
0
 10
-2.71448
 20
36.2227
 11
-2.78932
 21
36.3956
  0
LINE
  8
0
 10
-2.78932
 20
36.3956
 11
-2.85316
 21
36.5729
  0
LINE
  8
0
 10
-2.85316
 20
36.5729
 11
-2.90575
 21
36.7539
  0
LINE
  8
0
 10
-2.90575
 20
36.7539
 11
-2.94685
 21
36.9379
  0
LINE
  8
0
 10
-2.94685
 20
36.9379
 11
-2.97633
 21
37.124
  0
LINE
  8
0
 10
-2.97633
 20
37.124
 11
-2.99408
 21
37.3116
  0
LINE
  8
0
 10
-2.99408
 20
37.3116
 11
-3
 21
37.5
  0
LINE
  8
0
 10
-3
 20
37.5
 11
-2.99408
 21
37.6884
  0
LINE
  8
0
 10
-2.99408
 20
37.6884
 11
-2.97633
 21
37.876
  0
LINE
  8
0
 10
-2.97633
 20
37.876
 11
-2.94685
 21
38.0621
  0
LINE
  8
0
 10
-2.94685
 20
38.0621
 11
-2.90575
 21
38.2461
  0
LINE
  8
0
 10
-2.90575
 20
38.2461
 11
-2.85316
 21
38.427
  0
LINE
  8
0
 10
-2.85316
 20
38.427
 11
-2.78932
 21
38.6044
  0
LINE
  8
0
 10
-2.78932
 20
38.6044
 11
-2.71448
 21
38.7773
  0
LINE
  8
0
 10
-2.71448
 20
38.7773
 11
-2.62891
 21
38.9453
  0
LINE
  8
0
 10
-2.62891
 20
38.9453
 11
-2.53297
 21
39.1075
  0
LINE
  8
0
 10
-2.53297
 20
39.1075
 11
-2.42705
 21
39.2634
  0
LINE
  8
0
 10
-2.42705
 20
39.2634
 11
-2.31154
 21
39.4123
  0
LINE
  8
0
 10
-2.31154
 20
39.4123
 11
-2.1869
 21
39.5536
  0
LINE
  8
0
 10
-2.1869
 20
39.5536
 11
-2.05363
 21
39.6869
  0
LINE
  8
0
 10
-2.05363
 20
39.6869
 11
-1.91226
 21
39.8115
  0
LINE
  8
0
 10
-1.91226
 20
39.8115
 11
-1.76335
 21
39.927
  0
LINE
  8
0
 10
-1.76335
 20
39.927
 11
-1.60747
 21
40.033
  0
LINE
  8
0
 10
-1.60747
 20
40.033
 11
-1.44525
 21
40.1289
  0
LINE
  8
0
 10
-1.44525
 20
40.1289
 11
-1.27733
 21
40.2145
  0
LINE
  8
0
 10
-1.27733
 20
40.2145
 11
-1.10437
 21
40.2893
  0
LINE
  8
0
 10
-1.10437
 20
40.2893
 11
-0.927048
 21
40.3532
  0
LINE
  8
0
 10
-0.927048
 20
40.3532
 11
-0.746063
 21
40.4057
  0
LINE
  8
0
 10
-0.746063
 20
40.4057
 11
-0.562134
 21
40.4469
  0
LINE
  8
0
 10
-0.562134
 20
40.4469
 11
-0.375992
 21
40.4763
  0
LINE
  8
0
 10
-0.375992
 20
40.4763
 11
-0.18837
 21
40.4941
  0
LINE
  8
0
 10
-0.18837
 20
40.4941
 11
0
 21
40.5
  0
LINE
  8
0
 10
0
 20
40.5
 11
0.18837
 21
40.4941
  0
LINE
  8
0
 10
0.18837
 20
40.4941
 11
0.375992
 21
40.4763
  0
LINE
  8
0
 10
0.375992
 20
40.4763
 11
0.562134
 21
40.4469
  0
LINE
  8
0
 10
0.562134
 20
40.4469
 11
0.746063
 21
40.4057
  0
LINE
  8
0
 10
0.746063
 20
40.4057
 11
0.927048
 21
40.3532
  0
LINE
  8
0
 10
0.927048
 20
40.3532
 11
1.10437
 21
40.2893
  0
LINE
  8
0
 10
1.10437
 20
40.2893
 11
1.27733
 21
40.2145
  0
LINE
  8
0
 10
1.27733
 20
40.2145
 11
1.44525
 21
40.1289
  0
LINE
  8
0
 10
1.44525
 20
40.1289
 11
1.60747
 21
40.033
  0
LINE
  8
0
 10
1.60747
 20
40.033
 11
1.76335
 21
39.927
  0
LINE
  8
0
 10
1.76335
 20
39.927
 11
1.91226
 21
39.8115
  0
LINE
  8
0
 10
1.91226
 20
39.8115
 11
2.05363
 21
39.6869
  0
LINE
  8
0
 10
2.05363
 20
39.6869
 11
2.1869
 21
39.5536
  0
LINE
  8
0
 10
2.1869
 20
39.5536
 11
2.31154
 21
39.4123
  0
LINE
  8
0
 10
2.31154
 20
39.4123
 11
2.42705
 21
39.2634
  0
LINE
  8
0
 10
2.42705
 20
39.2634
 11
2.53297
 21
39.1075
  0
LINE
  8
0
 10
2.53297
 20
39.1075
 11
2.62891
 21
38.9453
  0
LINE
  8
0
 10
2.62891
 20
38.9453
 11
2.71448
 21
38.7773
  0
LINE
  8
0
 10
2.71448
 20
38.7773
 11
2.78932
 21
38.6044
  0
LINE
  8
0
 10
2.78932
 20
38.6044
 11
2.85316
 21
38.427
  0
LINE
  8
0
 10
2.85316
 20
38.427
 11
2.90575
 21
38.2461
  0
LINE
  8
0
 10
2.90575
 20
38.2461
 11
2.94685
 21
38.0621
  0
LINE
  8
0
 10
2.94685
 20
38.0621
 11
2.97633
 21
37.876
  0
LINE
  8
0
 10
2.97633
 20
37.876
 11
2.99408
 21
37.6884
  0
LINE
  8
0
 10
2.99408
 20
37.6884
 11
3
 21
37.5
  0
LINE
  8
0
 10
3
 20
37.5
 11
2.99408
 21
37.3116
  0
LINE
  8
0
 10
2.99408
 20
37.3116
 11
2.97633
 21
37.124
  0
LINE
  8
0
 10
2.97633
 20
37.124
 11
2.94685
 21
36.9379
  0
LINE
  8
0
 10
2.94685
 20
36.9379
 11
2.90575
 21
36.7539
  0
LINE
  8
0
 10
2.90575
 20
36.7539
 11
2.85316
 21
36.5729
  0
LINE
  8
0
 10
2.85316
 20
36.5729
 11
2.78932
 21
36.3956
  0
LINE
  8
0
 10
2.78932
 20
36.3956
 11
2.71448
 21
36.2227
  0
LINE
  8
0
 10
2.71448
 20
36.2227
 11
2.62891
 21
36.0547
  0
LINE
  8
0
 10
2.62891
 20
36.0547
 11
2.53297
 21
35.8925
  0
LINE
  8
0
 10
2.53297
 20
35.8925
 11
2.42705
 21
35.7366
  0
LINE
  8
0
 10
2.42705
 20
35.7366
 11
2.31154
 21
35.5877
  0
LINE
  8
0
 10
2.31154
 20
35.5877
 11
2.1869
 21
35.4464
  0
LINE
  8
0
 10
2.1869
 20
35.4464
 11
2.05363
 21
35.3131
  0
LINE
  8
0
 10
2.05363
 20
35.3131
 11
1.91226
 21
35.1885
  0
LINE
  8
0
 10
1.91226
 20
35.1885
 11
1.76335
 21
35.0729
  0
LINE
  8
0
 10
1.76335
 20
35.0729
 11
1.60747
 21
34.967
  0
LINE
  8
0
 10
1.60747
 20
34.967
 11
1.44525
 21
34.8711
  0
LINE
  8
0
 10
1.44525
 20
34.8711
 11
1.27733
 21
34.7855
  0
LINE
  8
0
 10
1.27733
 20
34.7855
 11
1.10437
 21
34.7107
  0
LINE
  8
0
 10
1.10437
 20
34.7107
 11
0.927048
 21
34.6468
  0
LINE
  8
0
 10
0.927048
 20
34.6468
 11
0.746063
 21
34.5942
  0
LINE
  8
0
 10
0.746063
 20
34.5942
 11
0.562134
 21
34.5531
  0
LINE
  8
0
 10
0.562134
 20
34.5531
 11
0.375992
 21
34.5237
  0
LINE
  8
0
 10
0.375992
 20
34.5237
 11
0.18837
 21
34.5059
  0
LINE
  8
0
 10
0.18837
 20
34.5059
 11
0
 21
34.5
  0
LINE
  8
0
 10
0
 20
34.5
 11
-0.18837
 21
34.5059
  0
LINE
  8
0
 10
58.2857
 20
-37.5
 11
58.2857
 21
5.35713
  0
LINE
  8
0
 10
58.2857
 20
5.35713
 11
204
 21
5.35713
  0
LINE
  8
0
 10
204
 20
5.35713
 11
204
 21
-37.5
  0
LINE
  8
0
 10
204
 20
-37.5
 11
58.2857
 21
-37.5
  0
LINE
  8
0
 10
-204
 20
-37.5
 11
-204
 21
5.35713
  0
LINE
  8
0
 10
-204
 20
5.35713
 11
-58.2857
 21
5.35713
  0
LINE
  8
0
 10
-58.2857
 20
5.35713
 11
-58.2857
 21
-37.5
  0
LINE
  8
0
 10
-58.2857
 20
-37.5
 11
-204
 21
-37.5
  0
LINE
  8
0
 10
-0.18837
 20
-40.4941
 11
-0.375992
 21
-40.4763
  0
LINE
  8
0
 10
-0.375992
 20
-40.4763
 11
-0.562134
 21
-40.4469
  0
LINE
  8
0
 10
-0.562134
 20
-40.4469
 11
-0.746063
 21
-40.4057
  0
LINE
  8
0
 10
-0.746063
 20
-40.4057
 11
-0.927048
 21
-40.3532
  0
LINE
  8
0
 10
-0.927048
 20
-40.3532
 11
-1.10437
 21
-40.2893
  0
LINE
  8
0
 10
-1.10437
 20
-40.2893
 11
-1.27733
 21
-40.2145
  0
LINE
  8
0
 10
-1.27733
 20
-40.2145
 11
-1.44525
 21
-40.1289
  0
LINE
  8
0
 10
-1.44525
 20
-40.1289
 11
-1.60747
 21
-40.033
  0
LINE
  8
0
 10
-1.60747
 20
-40.033
 11
-1.76335
 21
-39.927
  0
LINE
  8
0
 10
-1.76335
 20
-39.927
 11
-1.91226
 21
-39.8115
  0
LINE
  8
0
 10
-1.91226
 20
-39.8115
 11
-2.05363
 21
-39.6869
  0
LINE
  8
0
 10
-2.05363
 20
-39.6869
 11
-2.1869
 21
-39.5536
  0
LINE
  8
0
 10
-2.1869
 20
-39.5536
 11
-2.31154
 21
-39.4123
  0
LINE
  8
0
 10
-2.31154
 20
-39.4123
 11
-2.42705
 21
-39.2634
  0
LINE
  8
0
 10
-2.42705
 20
-39.2634
 11
-2.53297
 21
-39.1075
  0
LINE
  8
0
 10
-2.53297
 20
-39.1075
 11
-2.62891
 21
-38.9453
  0
LINE
  8
0
 10
-2.62891
 20
-38.9453
 11
-2.71448
 21
-38.7773
  0
LINE
  8
0
 10
-2.71448
 20
-38.7773
 11
-2.78932
 21
-38.6044
  0
LINE
  8
0
 10
-2.78932
 20
-38.6044
 11
-2.85316
 21
-38.427
  0
LINE
  8
0
 10
-2.85316
 20
-38.427
 11
-2.90575
 21
-38.2461
  0
LINE
  8
0
 10
-2.90575
 20
-38.2461
 11
-2.94685
 21
-38.0621
  0
LINE
  8
0
 10
-2.94685
 20
-38.0621
 11
-2.97633
 21
-37.876
  0
LINE
  8
0
 10
-2.97633
 20
-37.876
 11
-2.99408
 21
-37.6884
  0
LINE
  8
0
 10
-2.99408
 20
-37.6884
 11
-3
 21
-37.5
  0
LINE
  8
0
 10
-3
 20
-37.5
 11
-2.99408
 21
-37.3116
  0
LINE
  8
0
 10
-2.99408
 20
-37.3116
 11
-2.97633
 21
-37.124
  0
LINE
  8
0
 10
-2.97633
 20
-37.124
 11
-2.94685
 21
-36.9379
  0
LINE
  8
0
 10
-2.94685
 20
-36.9379
 11
-2.90575
 21
-36.7539
  0
LINE
  8
0
 10
-2.90575
 20
-36.7539
 11
-2.85316
 21
-36.5729
  0
LINE
  8
0
 10
-2.85316
 20
-36.5729
 11
-2.78932
 21
-36.3956
  0
LINE
  8
0
 10
-2.78932
 20
-36.3956
 11
-2.71448
 21
-36.2227
  0
LINE
  8
0
 10
-2.71448
 20
-36.2227
 11
-2.62891
 21
-36.0547
  0
LINE
  8
0
 10
-2.62891
 20
-36.0547
 11
-2.53297
 21
-35.8925
  0
LINE
  8
0
 10
-2.53297
 20
-35.8925
 11
-2.42705
 21
-35.7366
  0
LINE
  8
0
 10
-2.42705
 20
-35.7366
 11
-2.31154
 21
-35.5877
  0
LINE
  8
0
 10
-2.31154
 20
-35.5877
 11
-2.1869
 21
-35.4464
  0
LINE
  8
0
 10
-2.1869
 20
-35.4464
 11
-2.05363
 21
-35.3131
  0
LINE
  8
0
 10
-2.05363
 20
-35.3131
 11
-1.91226
 21
-35.1885
  0
LINE
  8
0
 10
-1.91226
 20
-35.1885
 11
-1.76335
 21
-35.0729
  0
LINE
  8
0
 10
-1.76335
 20
-35.0729
 11
-1.60747
 21
-34.967
  0
LINE
  8
0
 10
-1.60747
 20
-34.967
 11
-1.44525
 21
-34.8711
  0
LINE
  8
0
 10
-1.44525
 20
-34.8711
 11
-1.27733
 21
-34.7855
  0
LINE
  8
0
 10
-1.27733
 20
-34.7855
 11
-1.10437
 21
-34.7107
  0
LINE
  8
0
 10
-1.10437
 20
-34.7107
 11
-0.927048
 21
-34.6468
  0
LINE
  8
0
 10
-0.927048
 20
-34.6468
 11
-0.746063
 21
-34.5942
  0
LINE
  8
0
 10
-0.746063
 20
-34.5942
 11
-0.562134
 21
-34.5531
  0
LINE
  8
0
 10
-0.562134
 20
-34.5531
 11
-0.375992
 21
-34.5237
  0
LINE
  8
0
 10
-0.375992
 20
-34.5237
 11
-0.18837
 21
-34.5059
  0
LINE
  8
0
 10
-0.18837
 20
-34.5059
 11
0
 21
-34.5
  0
LINE
  8
0
 10
0
 20
-34.5
 11
0.18837
 21
-34.5059
  0
LINE
  8
0
 10
0.18837
 20
-34.5059
 11
0.375992
 21
-34.5237
  0
LINE
  8
0
 10
0.375992
 20
-34.5237
 11
0.562134
 21
-34.5531
  0
LINE
  8
0
 10
0.562134
 20
-34.5531
 11
0.746063
 21
-34.5942
  0
LINE
  8
0
 10
0.746063
 20
-34.5942
 11
0.927048
 21
-34.6468
  0
LINE
  8
0
 10
0.927048
 20
-34.6468
 11
1.10437
 21
-34.7107
  0
LINE
  8
0
 10
1.10437
 20
-34.7107
 11
1.27733
 21
-34.7855
  0
LINE
  8
0
 10
1.27733
 20
-34.7855
 11
1.44525
 21
-34.8711
  0
LINE
  8
0
 10
1.44525
 20
-34.8711
 11
1.60747
 21
-34.967
  0
LINE
  8
0
 10
1.60747
 20
-34.967
 11
1.76335
 21
-35.0729
  0
LINE
  8
0
 10
1.76335
 20
-35.0729
 11
1.91226
 21
-35.1885
  0
LINE
  8
0
 10
1.91226
 20
-35.1885
 11
2.05363
 21
-35.3131
  0
LINE
  8
0
 10
2.05363
 20
-35.3131
 11
2.1869
 21
-35.4464
  0
LINE
  8
0
 10
2.1869
 20
-35.4464
 11
2.31154
 21
-35.5877
  0
LINE
  8
0
 10
2.31154
 20
-35.5877
 11
2.42705
 21
-35.7366
  0
LINE
  8
0
 10
2.42705
 20
-35.7366
 11
2.53297
 21
-35.8925
  0
LINE
  8
0
 10
2.53297
 20
-35.8925
 11
2.62891
 21
-36.0547
  0
LINE
  8
0
 10
2.62891
 20
-36.0547
 11
2.71448
 21
-36.2227
  0
LINE
  8
0
 10
2.71448
 20
-36.2227
 11
2.78932
 21
-36.3956
  0
LINE
  8
0
 10
2.78932
 20
-36.3956
 11
2.85316
 21
-36.5729
  0
LINE
  8
0
 10
2.85316
 20
-36.5729
 11
2.90575
 21
-36.7539
  0
LINE
  8
0
 10
2.90575
 20
-36.7539
 11
2.94685
 21
-36.9379
  0
LINE
  8
0
 10
2.94685
 20
-36.9379
 11
2.97633
 21
-37.124
  0
LINE
  8
0
 10
2.97633
 20
-37.124
 11
2.99408
 21
-37.3116
  0
LINE
  8
0
 10
2.99408
 20
-37.3116
 11
3
 21
-37.5
  0
LINE
  8
0
 10
3
 20
-37.5
 11
2.99408
 21
-37.6884
  0
LINE
  8
0
 10
2.99408
 20
-37.6884
 11
2.97633
 21
-37.876
  0
LINE
  8
0
 10
2.97633
 20
-37.876
 11
2.94685
 21
-38.0621
  0
LINE
  8
0
 10
2.94685
 20
-38.0621
 11
2.90575
 21
-38.2461
  0
LINE
  8
0
 10
2.90575
 20
-38.2461
 11
2.85316
 21
-38.427
  0
LINE
  8
0
 10
2.85316
 20
-38.427
 11
2.78932
 21
-38.6044
  0
LINE
  8
0
 10
2.78932
 20
-38.6044
 11
2.71448
 21
-38.7773
  0
LINE
  8
0
 10
2.71448
 20
-38.7773
 11
2.62891
 21
-38.9453
  0
LINE
  8
0
 10
2.62891
 20
-38.9453
 11
2.53297
 21
-39.1075
  0
LINE
  8
0
 10
2.53297
 20
-39.1075
 11
2.42705
 21
-39.2634
  0
LINE
  8
0
 10
2.42705
 20
-39.2634
 11
2.31154
 21
-39.4123
  0
LINE
  8
0
 10
2.31154
 20
-39.4123
 11
2.1869
 21
-39.5536
  0
LINE
  8
0
 10
2.1869
 20
-39.5536
 11
2.05363
 21
-39.6869
  0
LINE
  8
0
 10
2.05363
 20
-39.6869
 11
1.91226
 21
-39.8115
  0
LINE
  8
0
 10
1.91226
 20
-39.8115
 11
1.76335
 21
-39.927
  0
LINE
  8
0
 10
1.76335
 20
-39.927
 11
1.60747
 21
-40.033
  0
LINE
  8
0
 10
1.60747
 20
-40.033
 11
1.44525
 21
-40.1289
  0
LINE
  8
0
 10
1.44525
 20
-40.1289
 11
1.27733
 21
-40.2145
  0
LINE
  8
0
 10
1.27733
 20
-40.2145
 11
1.10437
 21
-40.2893
  0
LINE
  8
0
 10
1.10437
 20
-40.2893
 11
0.927048
 21
-40.3532
  0
LINE
  8
0
 10
0.927048
 20
-40.3532
 11
0.746063
 21
-40.4057
  0
LINE
  8
0
 10
0.746063
 20
-40.4057
 11
0.562134
 21
-40.4469
  0
LINE
  8
0
 10
0.562134
 20
-40.4469
 11
0.375992
 21
-40.4763
  0
LINE
  8
0
 10
0.375992
 20
-40.4763
 11
0.18837
 21
-40.4941
  0
LINE
  8
0
 10
0.18837
 20
-40.4941
 11
0
 21
-40.5
  0
LINE
  8
0
 10
0
 20
-40.5
 11
-0.18837
 21
-40.4941
  0
LINE
  8
0
 10
-245.188
 20
-67.9941
 11
-245.376
 21
-67.9763
  0
LINE
  8
0
 10
-245.376
 20
-67.9763
 11
-245.562
 21
-67.9469
  0
LINE
  8
0
 10
-245.562
 20
-67.9469
 11
-245.746
 21
-67.9057
  0
LINE
  8
0
 10
-245.746
 20
-67.9057
 11
-245.927
 21
-67.8532
  0
LINE
  8
0
 10
-245.927
 20
-67.8532
 11
-246.104
 21
-67.7893
  0
LINE
  8
0
 10
-246.104
 20
-67.7893
 11
-246.277
 21
-67.7145
  0
LINE
  8
0
 10
-246.277
 20
-67.7145
 11
-246.445
 21
-67.6289
  0
LINE
  8
0
 10
-246.445
 20
-67.6289
 11
-246.607
 21
-67.533
  0
LINE
  8
0
 10
-246.607
 20
-67.533
 11
-246.763
 21
-67.427
  0
LINE
  8
0
 10
-246.763
 20
-67.427
 11
-246.912
 21
-67.3115
  0
LINE
  8
0
 10
-246.912
 20
-67.3115
 11
-247.054
 21
-67.1869
  0
LINE
  8
0
 10
-247.054
 20
-67.1869
 11
-247.187
 21
-67.0536
  0
LINE
  8
0
 10
-247.187
 20
-67.0536
 11
-247.312
 21
-66.9123
  0
LINE
  8
0
 10
-247.312
 20
-66.9123
 11
-247.427
 21
-66.7634
  0
LINE
  8
0
 10
-247.427
 20
-66.7634
 11
-247.533
 21
-66.6075
  0
LINE
  8
0
 10
-247.533
 20
-66.6075
 11
-247.629
 21
-66.4453
  0
LINE
  8
0
 10
-247.629
 20
-66.4453
 11
-247.714
 21
-66.2773
  0
LINE
  8
0
 10
-247.714
 20
-66.2773
 11
-247.789
 21
-66.1044
  0
LINE
  8
0
 10
-247.789
 20
-66.1044
 11
-247.853
 21
-65.927
  0
LINE
  8
0
 10
-247.853
 20
-65.927
 11
-247.906
 21
-65.7461
  0
LINE
  8
0
 10
-247.906
 20
-65.7461
 11
-247.947
 21
-65.5621
  0
LINE
  8
0
 10
-247.947
 20
-65.5621
 11
-247.976
 21
-65.376
  0
LINE
  8
0
 10
-247.976
 20
-65.376
 11
-247.994
 21
-65.1884
  0
LINE
  8
0
 10
-247.994
 20
-65.1884
 11
-248
 21
-65
  0
LINE
  8
0
 10
-248
 20
-65
 11
-247.994
 21
-64.8116
  0
LINE
  8
0
 10
-247.994
 20
-64.8116
 11
-247.976
 21
-64.624
  0
LINE
  8
0
 10
-247.976
 20
-64.624
 11
-247.947
 21
-64.4379
  0
LINE
  8
0
 10
-247.947
 20
-64.4379
 11
-247.906
 21
-64.2539
  0
LINE
  8
0
 10
-247.906
 20
-64.2539
 11
-247.853
 21
-64.073
  0
LINE
  8
0
 10
-247.853
 20
-64.073
 11
-247.789
 21
-63.8956
  0
LINE
  8
0
 10
-247.789
 20
-63.8956
 11
-247.714
 21
-63.7227
  0
LINE
  8
0
 10
-247.714
 20
-63.7227
 11
-247.629
 21
-63.5547
  0
LINE
  8
0
 10
-247.629
 20
-63.5547
 11
-247.533
 21
-63.3925
  0
LINE
  8
0
 10
-247.533
 20
-63.3925
 11
-247.427
 21
-63.2366
  0
LINE
  8
0
 10
-247.427
 20
-63.2366
 11
-247.312
 21
-63.0877
  0
LINE
  8
0
 10
-247.312
 20
-63.0877
 11
-247.187
 21
-62.9464
  0
LINE
  8
0
 10
-247.187
 20
-62.9464
 11
-247.054
 21
-62.8131
  0
LINE
  8
0
 10
-247.054
 20
-62.8131
 11
-246.912
 21
-62.6885
  0
LINE
  8
0
 10
-246.912
 20
-62.6885
 11
-246.763
 21
-62.5729
  0
LINE
  8
0
 10
-246.763
 20
-62.5729
 11
-246.607
 21
-62.467
  0
LINE
  8
0
 10
-246.607
 20
-62.467
 11
-246.445
 21
-62.3711
  0
LINE
  8
0
 10
-246.445
 20
-62.3711
 11
-246.277
 21
-62.2855
  0
LINE
  8
0
 10
-246.277
 20
-62.2855
 11
-246.104
 21
-62.2107
  0
LINE
  8
0
 10
-246.104
 20
-62.2107
 11
-245.927
 21
-62.1468
  0
LINE
  8
0
 10
-245.927
 20
-62.1468
 11
-245.746
 21
-62.0942
  0
LINE
  8
0
 10
-245.746
 20
-62.0942
 11
-245.562
 21
-62.0531
  0
LINE
  8
0
 10
-245.562
 20
-62.0531
 11
-245.376
 21
-62.0237
  0
LINE
  8
0
 10
-245.376
 20
-62.0237
 11
-245.188
 21
-62.0059
  0
LINE
  8
0
 10
-245.188
 20
-62.0059
 11
-245
 21
-62
  0
LINE
  8
0
 10
-245
 20
-62
 11
-244.812
 21
-62.0059
  0
LINE
  8
0
 10
-244.812
 20
-62.0059
 11
-244.624
 21
-62.0237
  0
LINE
  8
0
 10
-244.624
 20
-62.0237
 11
-244.438
 21
-62.0531
  0
LINE
  8
0
 10
-244.438
 20
-62.0531
 11
-244.254
 21
-62.0942
  0
LINE
  8
0
 10
-244.254
 20
-62.0942
 11
-244.073
 21
-62.1468
  0
LINE
  8
0
 10
-244.073
 20
-62.1468
 11
-243.896
 21
-62.2107
  0
LINE
  8
0
 10
-243.896
 20
-62.2107
 11
-243.723
 21
-62.2855
  0
LINE
  8
0
 10
-243.723
 20
-62.2855
 11
-243.555
 21
-62.3711
  0
LINE
  8
0
 10
-243.555
 20
-62.3711
 11
-243.393
 21
-62.467
  0
LINE
  8
0
 10
-243.393
 20
-62.467
 11
-243.237
 21
-62.5729
  0
LINE
  8
0
 10
-243.237
 20
-62.5729
 11
-243.088
 21
-62.6885
  0
LINE
  8
0
 10
-243.088
 20
-62.6885
 11
-242.946
 21
-62.8131
  0
LINE
  8
0
 10
-242.946
 20
-62.8131
 11
-242.813
 21
-62.9464
  0
LINE
  8
0
 10
-242.813
 20
-62.9464
 11
-242.688
 21
-63.0877
  0
LINE
  8
0
 10
-242.688
 20
-63.0877
 11
-242.573
 21
-63.2366
  0
LINE
  8
0
 10
-242.573
 20
-63.2366
 11
-242.467
 21
-63.3925
  0
LINE
  8
0
 10
-242.467
 20
-63.3925
 11
-242.371
 21
-63.5547
  0
LINE
  8
0
 10
-242.371
 20
-63.5547
 11
-242.286
 21
-63.7227
  0
LINE
  8
0
 10
-242.286
 20
-63.7227
 11
-242.211
 21
-63.8956
  0
LINE
  8
0
 10
-242.211
 20
-63.8956
 11
-242.147
 21
-64.073
  0
LINE
  8
0
 10
-242.147
 20
-64.073
 11
-242.094
 21
-64.2539
  0
LINE
  8
0
 10
-242.094
 20
-64.2539
 11
-242.053
 21
-64.4379
  0
LINE
  8
0
 10
-242.053
 20
-64.4379
 11
-242.024
 21
-64.624
  0
LINE
  8
0
 10
-242.024
 20
-64.624
 11
-242.006
 21
-64.8116
  0
LINE
  8
0
 10
-242.006
 20
-64.8116
 11
-242
 21
-65
  0
LINE
  8
0
 10
-242
 20
-65
 11
-242.006
 21
-65.1884
  0
LINE
  8
0
 10
-242.006
 20
-65.1884
 11
-242.024
 21
-65.376
  0
LINE
  8
0
 10
-242.024
 20
-65.376
 11
-242.053
 21
-65.5621
  0
LINE
  8
0
 10
-242.053
 20
-65.5621
 11
-242.094
 21
-65.7461
  0
LINE
  8
0
 10
-242.094
 20
-65.7461
 11
-242.147
 21
-65.927
  0
LINE
  8
0
 10
-242.147
 20
-65.927
 11
-242.211
 21
-66.1044
  0
LINE
  8
0
 10
-242.211
 20
-66.1044
 11
-242.286
 21
-66.2773
  0
LINE
  8
0
 10
-242.286
 20
-66.2773
 11
-242.371
 21
-66.4453
  0
LINE
  8
0
 10
-242.371
 20
-66.4453
 11
-242.467
 21
-66.6075
  0
LINE
  8
0
 10
-242.467
 20
-66.6075
 11
-242.573
 21
-66.7634
  0
LINE
  8
0
 10
-242.573
 20
-66.7634
 11
-242.688
 21
-66.9123
  0
LINE
  8
0
 10
-242.688
 20
-66.9123
 11
-242.813
 21
-67.0536
  0
LINE
  8
0
 10
-242.813
 20
-67.0536
 11
-242.946
 21
-67.1869
  0
LINE
  8
0
 10
-242.946
 20
-67.1869
 11
-243.088
 21
-67.3115
  0
LINE
  8
0
 10
-243.088
 20
-67.3115
 11
-243.237
 21
-67.427
  0
LINE
  8
0
 10
-243.237
 20
-67.427
 11
-243.393
 21
-67.533
  0
LINE
  8
0
 10
-243.393
 20
-67.533
 11
-243.555
 21
-67.6289
  0
LINE
  8
0
 10
-243.555
 20
-67.6289
 11
-243.723
 21
-67.7145
  0
LINE
  8
0
 10
-243.723
 20
-67.7145
 11
-243.896
 21
-67.7893
  0
LINE
  8
0
 10
-243.896
 20
-67.7893
 11
-244.073
 21
-67.8532
  0
LINE
  8
0
 10
-244.073
 20
-67.8532
 11
-244.254
 21
-67.9057
  0
LINE
  8
0
 10
-244.254
 20
-67.9057
 11
-244.438
 21
-67.9469
  0
LINE
  8
0
 10
-244.438
 20
-67.9469
 11
-244.624
 21
-67.9763
  0
LINE
  8
0
 10
-244.624
 20
-67.9763
 11
-244.812
 21
-67.9941
  0
LINE
  8
0
 10
-244.812
 20
-67.9941
 11
-245
 21
-68
  0
LINE
  8
0
 10
-245
 20
-68
 11
-245.188
 21
-67.9941
  0
LINE
  8
0
 10
244.812
 20
-67.9941
 11
244.624
 21
-67.9763
  0
LINE
  8
0
 10
244.624
 20
-67.9763
 11
244.438
 21
-67.9469
  0
LINE
  8
0
 10
244.438
 20
-67.9469
 11
244.254
 21
-67.9057
  0
LINE
  8
0
 10
244.254
 20
-67.9057
 11
244.073
 21
-67.8532
  0
LINE
  8
0
 10
244.073
 20
-67.8532
 11
243.896
 21
-67.7893
  0
LINE
  8
0
 10
243.896
 20
-67.7893
 11
243.723
 21
-67.7145
  0
LINE
  8
0
 10
243.723
 20
-67.7145
 11
243.555
 21
-67.6289
  0
LINE
  8
0
 10
243.555
 20
-67.6289
 11
243.393
 21
-67.533
  0
LINE
  8
0
 10
243.393
 20
-67.533
 11
243.237
 21
-67.427
  0
LINE
  8
0
 10
243.237
 20
-67.427
 11
243.088
 21
-67.3115
  0
LINE
  8
0
 10
243.088
 20
-67.3115
 11
242.946
 21
-67.1869
  0
LINE
  8
0
 10
242.946
 20
-67.1869
 11
242.813
 21
-67.0536
  0
LINE
  8
0
 10
242.813
 20
-67.0536
 11
242.688
 21
-66.9123
  0
LINE
  8
0
 10
242.688
 20
-66.9123
 11
242.573
 21
-66.7634
  0
LINE
  8
0
 10
242.573
 20
-66.7634
 11
242.467
 21
-66.6075
  0
LINE
  8
0
 10
242.467
 20
-66.6075
 11
242.371
 21
-66.4453
  0
LINE
  8
0
 10
242.371
 20
-66.4453
 11
242.286
 21
-66.2773
  0
LINE
  8
0
 10
242.286
 20
-66.2773
 11
242.211
 21
-66.1044
  0
LINE
  8
0
 10
242.211
 20
-66.1044
 11
242.147
 21
-65.927
  0
LINE
  8
0
 10
242.147
 20
-65.927
 11
242.094
 21
-65.7461
  0
LINE
  8
0
 10
242.094
 20
-65.7461
 11
242.053
 21
-65.5621
  0
LINE
  8
0
 10
242.053
 20
-65.5621
 11
242.024
 21
-65.376
  0
LINE
  8
0
 10
242.024
 20
-65.376
 11
242.006
 21
-65.1884
  0
LINE
  8
0
 10
242.006
 20
-65.1884
 11
242
 21
-65
  0
LINE
  8
0
 10
242
 20
-65
 11
242.006
 21
-64.8116
  0
LINE
  8
0
 10
242.006
 20
-64.8116
 11
242.024
 21
-64.624
  0
LINE
  8
0
 10
242.024
 20
-64.624
 11
242.053
 21
-64.4379
  0
LINE
  8
0
 10
242.053
 20
-64.4379
 11
242.094
 21
-64.2539
  0
LINE
  8
0
 10
242.094
 20
-64.2539
 11
242.147
 21
-64.073
  0
LINE
  8
0
 10
242.147
 20
-64.073
 11
242.211
 21
-63.8956
  0
LINE
  8
0
 10
242.211
 20
-63.8956
 11
242.286
 21
-63.7227
  0
LINE
  8
0
 10
242.286
 20
-63.7227
 11
242.371
 21
-63.5547
  0
LINE
  8
0
 10
242.371
 20
-63.5547
 11
242.467
 21
-63.3925
  0
LINE
  8
0
 10
242.467
 20
-63.3925
 11
242.573
 21
-63.2366
  0
LINE
  8
0
 10
242.573
 20
-63.2366
 11
242.688
 21
-63.0877
  0
LINE
  8
0
 10
242.688
 20
-63.0877
 11
242.813
 21
-62.9464
  0
LINE
  8
0
 10
242.813
 20
-62.9464
 11
242.946
 21
-62.8131
  0
LINE
  8
0
 10
242.946
 20
-62.8131
 11
243.088
 21
-62.6885
  0
LINE
  8
0
 10
243.088
 20
-62.6885
 11
243.237
 21
-62.5729
  0
LINE
  8
0
 10
243.237
 20
-62.5729
 11
243.393
 21
-62.467
  0
LINE
  8
0
 10
243.393
 20
-62.467
 11
243.555
 21
-62.3711
  0
LINE
  8
0
 10
243.555
 20
-62.3711
 11
243.723
 21
-62.2855
  0
LINE
  8
0
 10
243.723
 20
-62.2855
 11
243.896
 21
-62.2107
  0
LINE
  8
0
 10
243.896
 20
-62.2107
 11
244.073
 21
-62.1468
  0
LINE
  8
0
 10
244.073
 20
-62.1468
 11
244.254
 21
-62.0942
  0
LINE
  8
0
 10
244.254
 20
-62.0942
 11
244.438
 21
-62.0531
  0
LINE
  8
0
 10
244.438
 20
-62.0531
 11
244.624
 21
-62.0237
  0
LINE
  8
0
 10
244.624
 20
-62.0237
 11
244.812
 21
-62.0059
  0
LINE
  8
0
 10
244.812
 20
-62.0059
 11
245
 21
-62
  0
LINE
  8
0
 10
245
 20
-62
 11
245.188
 21
-62.0059
  0
LINE
  8
0
 10
245.188
 20
-62.0059
 11
245.376
 21
-62.0237
  0
LINE
  8
0
 10
245.376
 20
-62.0237
 11
245.562
 21
-62.0531
  0
LINE
  8
0
 10
245.562
 20
-62.0531
 11
245.746
 21
-62.0942
  0
LINE
  8
0
 10
245.746
 20
-62.0942
 11
245.927
 21
-62.1468
  0
LINE
  8
0
 10
245.927
 20
-62.1468
 11
246.104
 21
-62.2107
  0
LINE
  8
0
 10
246.104
 20
-62.2107
 11
246.277
 21
-62.2855
  0
LINE
  8
0
 10
246.277
 20
-62.2855
 11
246.445
 21
-62.3711
  0
LINE
  8
0
 10
246.445
 20
-62.3711
 11
246.607
 21
-62.467
  0
LINE
  8
0
 10
246.607
 20
-62.467
 11
246.763
 21
-62.5729
  0
LINE
  8
0
 10
246.763
 20
-62.5729
 11
246.912
 21
-62.6885
  0
LINE
  8
0
 10
246.912
 20
-62.6885
 11
247.054
 21
-62.8131
  0
LINE
  8
0
 10
247.054
 20
-62.8131
 11
247.187
 21
-62.9464
  0
LINE
  8
0
 10
247.187
 20
-62.9464
 11
247.312
 21
-63.0877
  0
LINE
  8
0
 10
247.312
 20
-63.0877
 11
247.427
 21
-63.2366
  0
LINE
  8
0
 10
247.427
 20
-63.2366
 11
247.533
 21
-63.3925
  0
LINE
  8
0
 10
247.533
 20
-63.3925
 11
247.629
 21
-63.5547
  0
LINE
  8
0
 10
247.629
 20
-63.5547
 11
247.714
 21
-63.7227
  0
LINE
  8
0
 10
247.714
 20
-63.7227
 11
247.789
 21
-63.8956
  0
LINE
  8
0
 10
247.789
 20
-63.8956
 11
247.853
 21
-64.073
  0
LINE
  8
0
 10
247.853
 20
-64.073
 11
247.906
 21
-64.2539
  0
LINE
  8
0
 10
247.906
 20
-64.2539
 11
247.947
 21
-64.4379
  0
LINE
  8
0
 10
247.947
 20
-64.4379
 11
247.976
 21
-64.624
  0
LINE
  8
0
 10
247.976
 20
-64.624
 11
247.994
 21
-64.8116
  0
LINE
  8
0
 10
247.994
 20
-64.8116
 11
248
 21
-65
  0
LINE
  8
0
 10
248
 20
-65
 11
247.994
 21
-65.1884
  0
LINE
  8
0
 10
247.994
 20
-65.1884
 11
247.976
 21
-65.376
  0
LINE
  8
0
 10
247.976
 20
-65.376
 11
247.947
 21
-65.5621
  0
LINE
  8
0
 10
247.947
 20
-65.5621
 11
247.906
 21
-65.7461
  0
LINE
  8
0
 10
247.906
 20
-65.7461
 11
247.853
 21
-65.927
  0
LINE
  8
0
 10
247.853
 20
-65.927
 11
247.789
 21
-66.1044
  0
LINE
  8
0
 10
247.789
 20
-66.1044
 11
247.714
 21
-66.2773
  0
LINE
  8
0
 10
247.714
 20
-66.2773
 11
247.629
 21
-66.4453
  0
LINE
  8
0
 10
247.629
 20
-66.4453
 11
247.533
 21
-66.6075
  0
LINE
  8
0
 10
247.533
 20
-66.6075
 11
247.427
 21
-66.7634
  0
LINE
  8
0
 10
247.427
 20
-66.7634
 11
247.312
 21
-66.9123
  0
LINE
  8
0
 10
247.312
 20
-66.9123
 11
247.187
 21
-67.0536
  0
LINE
  8
0
 10
247.187
 20
-67.0536
 11
247.054
 21
-67.1869
  0
LINE
  8
0
 10
247.054
 20
-67.1869
 11
246.912
 21
-67.3115
  0
LINE
  8
0
 10
246.912
 20
-67.3115
 11
246.763
 21
-67.427
  0
LINE
  8
0
 10
246.763
 20
-67.427
 11
246.607
 21
-67.533
  0
LINE
  8
0
 10
246.607
 20
-67.533
 11
246.445
 21
-67.6289
  0
LINE
  8
0
 10
246.445
 20
-67.6289
 11
246.277
 21
-67.7145
  0
LINE
  8
0
 10
246.277
 20
-67.7145
 11
246.104
 21
-67.7893
  0
LINE
  8
0
 10
246.104
 20
-67.7893
 11
245.927
 21
-67.8532
  0
LINE
  8
0
 10
245.927
 20
-67.8532
 11
245.746
 21
-67.9057
  0
LINE
  8
0
 10
245.746
 20
-67.9057
 11
245.562
 21
-67.9469
  0
LINE
  8
0
 10
245.562
 20
-67.9469
 11
245.376
 21
-67.9763
  0
LINE
  8
0
 10
245.376
 20
-67.9763
 11
245.188
 21
-67.9941
  0
LINE
  8
0
 10
245.188
 20
-67.9941
 11
245
 21
-68
  0
LINE
  8
0
 10
245
 20
-68
 11
244.812
 21
-67.9941
  0
ENDSEC
  0
SECTION
  2
OBJECTS
  0
DICTIONARY
  0
ENDSEC
  0
EOF
