  0
SECTION
  2
BLOCKS
  0
ENDSEC
  0
SECTION
  2
ENTITIES
  0
LINE
  8
0
 10
275
 20
85
 11
224.352
 21
85
  0
LINE
  8
0
 10
224.352
 20
85
 11
223.146
 21
88.3499
  0
LINE
  8
0
 10
223.146
 20
88.3499
 11
217.158
 21
102.187
  0
LINE
  8
0
 10
217.158
 20
102.187
 11
210.314
 21
115.621
  0
LINE
  8
0
 10
210.314
 20
115.621
 11
202.639
 21
128.598
  0
LINE
  8
0
 10
202.639
 20
128.598
 11
194.164
 21
141.068
  0
LINE
  8
0
 10
194.164
 20
141.068
 11
184.923
 21
152.982
  0
LINE
  8
0
 10
184.923
 20
152.982
 11
174.952
 21
164.291
  0
LINE
  8
0
 10
174.952
 20
164.291
 11
164.291
 21
174.952
  0
LINE
  8
0
 10
164.291
 20
174.952
 11
152.982
 21
184.923
  0
LINE
  8
0
 10
152.982
 20
184.923
 11
141.068
 21
194.164
  0
LINE
  8
0
 10
141.068
 20
194.164
 11
128.598
 21
202.639
  0
LINE
  8
0
 10
128.598
 20
202.639
 11
115.621
 21
210.314
  0
LINE
  8
0
 10
115.621
 20
210.314
 11
102.187
 21
217.158
  0
LINE
  8
0
 10
102.187
 20
217.158
 11
88.3499
 21
223.146
  0
LINE
  8
0
 10
88.3499
 20
223.146
 11
74.1641
 21
228.254
  0
LINE
  8
0
 10
74.1641
 20
228.254
 11
59.6856
 21
232.46
  0
LINE
  8
0
 10
59.6856
 20
232.46
 11
44.9715
 21
235.749
  0
LINE
  8
0
 10
44.9715
 20
235.749
 11
30.08
 21
238.108
  0
LINE
  8
0
 10
30.08
 20
238.108
 11
15.0697
 21
239.526
  0
LINE
  8
0
 10
15.0697
 20
239.526
 11
0
 21
240
  0
LINE
  8
0
 10
0
 20
240
 11
-15.0697
 21
239.526
  0
LINE
  8
0
 10
-15.0697
 20
239.526
 11
-30.08
 21
238.108
  0
LINE
  8
0
 10
-30.08
 20
238.108
 11
-44.9715
 21
235.749
  0
LINE
  8
0
 10
-44.9715
 20
235.749
 11
-59.6856
 21
232.46
  0
LINE
  8
0
 10
-59.6856
 20
232.46
 11
-74.1641
 21
228.254
  0
LINE
  8
0
 10
-74.1641
 20
228.254
 11
-88.3499
 21
223.146
  0
LINE
  8
0
 10
-88.3499
 20
223.146
 11
-102.187
 21
217.158
  0
LINE
  8
0
 10
-102.187
 20
217.158
 11
-115.621
 21
210.314
  0
LINE
  8
0
 10
-115.621
 20
210.314
 11
-128.598
 21
202.639
  0
LINE
  8
0
 10
-128.598
 20
202.639
 11
-141.068
 21
194.164
  0
LINE
  8
0
 10
-141.068
 20
194.164
 11
-152.982
 21
184.923
  0
LINE
  8
0
 10
-152.982
 20
184.923
 11
-164.291
 21
174.952
  0
LINE
  8
0
 10
-164.291
 20
174.952
 11
-174.952
 21
164.291
  0
LINE
  8
0
 10
-174.952
 20
164.291
 11
-184.923
 21
152.982
  0
LINE
  8
0
 10
-184.923
 20
152.982
 11
-194.164
 21
141.068
  0
LINE
  8
0
 10
-194.164
 20
141.068
 11
-202.639
 21
128.598
  0
LINE
  8
0
 10
-202.639
 20
128.598
 11
-210.314
 21
115.621
  0
LINE
  8
0
 10
-210.314
 20
115.621
 11
-217.158
 21
102.187
  0
LINE
  8
0
 10
-217.158
 20
102.187
 11
-223.146
 21
88.3499
  0
LINE
  8
0
 10
-223.146
 20
88.3499
 11
-224.352
 21
85
  0
LINE
  8
0
 10
-224.352
 20
85
 11
-275
 21
85
  0
LINE
  8
0
 10
-275
 20
85
 11
-275
 21
-85
  0
LINE
  8
0
 10
-275
 20
-85
 11
-224.352
 21
-85
  0
LINE
  8
0
 10
-224.352
 20
-85
 11
-223.146
 21
-88.3499
  0
LINE
  8
0
 10
-223.146
 20
-88.3499
 11
-217.158
 21
-102.187
  0
LINE
  8
0
 10
-217.158
 20
-102.187
 11
-210.314
 21
-115.621
  0
LINE
  8
0
 10
-210.314
 20
-115.621
 11
-202.639
 21
-128.598
  0
LINE
  8
0
 10
-202.639
 20
-128.598
 11
-194.164
 21
-141.068
  0
LINE
  8
0
 10
-194.164
 20
-141.068
 11
-184.923
 21
-152.982
  0
LINE
  8
0
 10
-184.923
 20
-152.982
 11
-174.952
 21
-164.291
  0
LINE
  8
0
 10
-174.952
 20
-164.291
 11
-164.291
 21
-174.952
  0
LINE
  8
0
 10
-164.291
 20
-174.952
 11
-152.982
 21
-184.923
  0
LINE
  8
0
 10
-152.982
 20
-184.923
 11
-141.068
 21
-194.164
  0
LINE
  8
0
 10
-141.068
 20
-194.164
 11
-128.598
 21
-202.639
  0
LINE
  8
0
 10
-128.598
 20
-202.639
 11
-115.621
 21
-210.314
  0
LINE
  8
0
 10
-115.621
 20
-210.314
 11
-102.187
 21
-217.158
  0
LINE
  8
0
 10
-102.187
 20
-217.158
 11
-88.3499
 21
-223.146
  0
LINE
  8
0
 10
-88.3499
 20
-223.146
 11
-74.1641
 21
-228.254
  0
LINE
  8
0
 10
-74.1641
 20
-228.254
 11
-59.6856
 21
-232.46
  0
LINE
  8
0
 10
-59.6856
 20
-232.46
 11
-44.9715
 21
-235.749
  0
LINE
  8
0
 10
-44.9715
 20
-235.749
 11
-30.08
 21
-238.108
  0
LINE
  8
0
 10
-30.08
 20
-238.108
 11
-15.0697
 21
-239.526
  0
LINE
  8
0
 10
-15.0697
 20
-239.526
 11
0
 21
-240
  0
LINE
  8
0
 10
0
 20
-240
 11
15.0697
 21
-239.526
  0
LINE
  8
0
 10
15.0697
 20
-239.526
 11
30.08
 21
-238.108
  0
LINE
  8
0
 10
30.08
 20
-238.108
 11
44.9715
 21
-235.749
  0
LINE
  8
0
 10
44.9715
 20
-235.749
 11
59.6856
 21
-232.46
  0
LINE
  8
0
 10
59.6856
 20
-232.46
 11
74.1641
 21
-228.254
  0
LINE
  8
0
 10
74.1641
 20
-228.254
 11
88.3499
 21
-223.146
  0
LINE
  8
0
 10
88.3499
 20
-223.146
 11
102.187
 21
-217.158
  0
LINE
  8
0
 10
102.187
 20
-217.158
 11
115.621
 21
-210.314
  0
LINE
  8
0
 10
115.621
 20
-210.314
 11
128.598
 21
-202.639
  0
LINE
  8
0
 10
128.598
 20
-202.639
 11
141.068
 21
-194.164
  0
LINE
  8
0
 10
141.068
 20
-194.164
 11
152.982
 21
-184.923
  0
LINE
  8
0
 10
152.982
 20
-184.923
 11
164.291
 21
-174.952
  0
LINE
  8
0
 10
164.291
 20
-174.952
 11
174.952
 21
-164.291
  0
LINE
  8
0
 10
174.952
 20
-164.291
 11
184.923
 21
-152.982
  0
LINE
  8
0
 10
184.923
 20
-152.982
 11
194.164
 21
-141.068
  0
LINE
  8
0
 10
194.164
 20
-141.068
 11
202.639
 21
-128.598
  0
LINE
  8
0
 10
202.639
 20
-128.598
 11
210.314
 21
-115.621
  0
LINE
  8
0
 10
210.314
 20
-115.621
 11
217.158
 21
-102.187
  0
LINE
  8
0
 10
217.158
 20
-102.187
 11
223.146
 21
-88.3499
  0
LINE
  8
0
 10
223.146
 20
-88.3499
 11
224.352
 21
-85
  0
LINE
  8
0
 10
224.352
 20
-85
 11
275
 21
-85
  0
LINE
  8
0
 10
275
 20
-85
 11
275
 21
85
  0
LINE
  8
0
 10
-125.75
 20
-104.75
 11
-134.5
 21
-104.75
  0
LINE
  8
0
 10
-134.5
 20
-104.75
 11
-134.5
 21
-113
  0
LINE
  8
0
 10
-134.5
 20
-113
 11
-135
 21
-113
  0
LINE
  8
0
 10
-135
 20
-113
 11
-135
 21
-104.25
  0
LINE
  8
0
 10
-135
 20
-104.25
 11
-126.25
 21
-104.25
  0
LINE
  8
0
 10
-126.25
 20
-104.25
 11
-126.25
 21
-85
  0
LINE
  8
0
 10
-126.25
 20
-85
 11
-125.75
 21
-85
  0
LINE
  8
0
 10
-125.75
 20
-85
 11
-125.75
 21
-104.75
  0
LINE
  8
0
 10
-231.219
 20
72.0059
 11
-231.406
 21
72.0237
  0
LINE
  8
0
 10
-231.406
 20
72.0237
 11
-231.592
 21
72.0531
  0
LINE
  8
0
 10
-231.592
 20
72.0531
 11
-231.776
 21
72.0943
  0
LINE
  8
0
 10
-231.776
 20
72.0943
 11
-231.957
 21
72.1468
  0
LINE
  8
0
 10
-231.957
 20
72.1468
 11
-232.135
 21
72.2107
  0
LINE
  8
0
 10
-232.135
 20
72.2107
 11
-232.308
 21
72.2855
  0
LINE
  8
0
 10
-232.308
 20
72.2855
 11
-232.476
 21
72.3711
  0
LINE
  8
0
 10
-232.476
 20
72.3711
 11
-232.638
 21
72.467
  0
LINE
  8
0
 10
-232.638
 20
72.467
 11
-232.794
 21
72.573
  0
LINE
  8
0
 10
-232.794
 20
72.573
 11
-232.943
 21
72.6885
  0
LINE
  8
0
 10
-232.943
 20
72.6885
 11
-233.084
 21
72.8131
  0
LINE
  8
0
 10
-233.084
 20
72.8131
 11
-233.217
 21
72.9464
  0
LINE
  8
0
 10
-233.217
 20
72.9464
 11
-233.342
 21
73.0877
  0
LINE
  8
0
 10
-233.342
 20
73.0877
 11
-233.457
 21
73.2366
  0
LINE
  8
0
 10
-233.457
 20
73.2366
 11
-233.563
 21
73.3925
  0
LINE
  8
0
 10
-233.563
 20
73.3925
 11
-233.659
 21
73.5547
  0
LINE
  8
0
 10
-233.659
 20
73.5547
 11
-233.745
 21
73.7227
  0
LINE
  8
0
 10
-233.745
 20
73.7227
 11
-233.82
 21
73.8956
  0
LINE
  8
0
 10
-233.82
 20
73.8956
 11
-233.883
 21
74.073
  0
LINE
  8
0
 10
-233.883
 20
74.073
 11
-233.936
 21
74.2539
  0
LINE
  8
0
 10
-233.936
 20
74.2539
 11
-233.977
 21
74.4379
  0
LINE
  8
0
 10
-233.977
 20
74.4379
 11
-234.007
 21
74.624
  0
LINE
  8
0
 10
-234.007
 20
74.624
 11
-234.024
 21
74.8116
  0
LINE
  8
0
 10
-234.024
 20
74.8116
 11
-234.03
 21
75
  0
LINE
  8
0
 10
-234.03
 20
75
 11
-234.024
 21
75.1884
  0
LINE
  8
0
 10
-234.024
 20
75.1884
 11
-234.007
 21
75.376
  0
LINE
  8
0
 10
-234.007
 20
75.376
 11
-233.977
 21
75.5621
  0
LINE
  8
0
 10
-233.977
 20
75.5621
 11
-233.936
 21
75.7461
  0
LINE
  8
0
 10
-233.936
 20
75.7461
 11
-233.883
 21
75.927
  0
LINE
  8
0
 10
-233.883
 20
75.927
 11
-233.82
 21
76.1044
  0
LINE
  8
0
 10
-233.82
 20
76.1044
 11
-233.745
 21
76.2773
  0
LINE
  8
0
 10
-233.745
 20
76.2773
 11
-233.659
 21
76.4453
  0
LINE
  8
0
 10
-233.659
 20
76.4453
 11
-233.563
 21
76.6075
  0
LINE
  8
0
 10
-233.563
 20
76.6075
 11
-233.457
 21
76.7634
  0
LINE
  8
0
 10
-233.457
 20
76.7634
 11
-233.342
 21
76.9123
  0
LINE
  8
0
 10
-233.342
 20
76.9123
 11
-233.217
 21
77.0536
  0
LINE
  8
0
 10
-233.217
 20
77.0536
 11
-233.084
 21
77.1869
  0
LINE
  8
0
 10
-233.084
 20
77.1869
 11
-232.943
 21
77.3115
  0
LINE
  8
0
 10
-232.943
 20
77.3115
 11
-232.794
 21
77.427
  0
LINE
  8
0
 10
-232.794
 20
77.427
 11
-232.638
 21
77.533
  0
LINE
  8
0
 10
-232.638
 20
77.533
 11
-232.476
 21
77.6289
  0
LINE
  8
0
 10
-232.476
 20
77.6289
 11
-232.308
 21
77.7145
  0
LINE
  8
0
 10
-232.308
 20
77.7145
 11
-232.135
 21
77.7893
  0
LINE
  8
0
 10
-232.135
 20
77.7893
 11
-231.957
 21
77.8532
  0
LINE
  8
0
 10
-231.957
 20
77.8532
 11
-231.776
 21
77.9057
  0
LINE
  8
0
 10
-231.776
 20
77.9057
 11
-231.592
 21
77.9469
  0
LINE
  8
0
 10
-231.592
 20
77.9469
 11
-231.406
 21
77.9763
  0
LINE
  8
0
 10
-231.406
 20
77.9763
 11
-231.219
 21
77.9941
  0
LINE
  8
0
 10
-231.219
 20
77.9941
 11
-231.03
 21
78
  0
LINE
  8
0
 10
-231.03
 20
78
 11
-230.842
 21
77.9941
  0
LINE
  8
0
 10
-230.842
 20
77.9941
 11
-230.654
 21
77.9763
  0
LINE
  8
0
 10
-230.654
 20
77.9763
 11
-230.468
 21
77.9469
  0
LINE
  8
0
 10
-230.468
 20
77.9469
 11
-230.284
 21
77.9057
  0
LINE
  8
0
 10
-230.284
 20
77.9057
 11
-230.103
 21
77.8532
  0
LINE
  8
0
 10
-230.103
 20
77.8532
 11
-229.926
 21
77.7893
  0
LINE
  8
0
 10
-229.926
 20
77.7893
 11
-229.753
 21
77.7145
  0
LINE
  8
0
 10
-229.753
 20
77.7145
 11
-229.585
 21
77.6289
  0
LINE
  8
0
 10
-229.585
 20
77.6289
 11
-229.423
 21
77.533
  0
LINE
  8
0
 10
-229.423
 20
77.533
 11
-229.267
 21
77.427
  0
LINE
  8
0
 10
-229.267
 20
77.427
 11
-229.118
 21
77.3115
  0
LINE
  8
0
 10
-229.118
 20
77.3115
 11
-228.977
 21
77.1869
  0
LINE
  8
0
 10
-228.977
 20
77.1869
 11
-228.843
 21
77.0536
  0
LINE
  8
0
 10
-228.843
 20
77.0536
 11
-228.719
 21
76.9123
  0
LINE
  8
0
 10
-228.719
 20
76.9123
 11
-228.603
 21
76.7634
  0
LINE
  8
0
 10
-228.603
 20
76.7634
 11
-228.497
 21
76.6075
  0
LINE
  8
0
 10
-228.497
 20
76.6075
 11
-228.401
 21
76.4453
  0
LINE
  8
0
 10
-228.401
 20
76.4453
 11
-228.316
 21
76.2773
  0
LINE
  8
0
 10
-228.316
 20
76.2773
 11
-228.241
 21
76.1044
  0
LINE
  8
0
 10
-228.241
 20
76.1044
 11
-228.177
 21
75.927
  0
LINE
  8
0
 10
-228.177
 20
75.927
 11
-228.125
 21
75.7461
  0
LINE
  8
0
 10
-228.125
 20
75.7461
 11
-228.083
 21
75.5621
  0
LINE
  8
0
 10
-228.083
 20
75.5621
 11
-228.054
 21
75.376
  0
LINE
  8
0
 10
-228.054
 20
75.376
 11
-228.036
 21
75.1884
  0
LINE
  8
0
 10
-228.036
 20
75.1884
 11
-228.03
 21
75
  0
LINE
  8
0
 10
-228.03
 20
75
 11
-228.036
 21
74.8116
  0
LINE
  8
0
 10
-228.036
 20
74.8116
 11
-228.054
 21
74.624
  0
LINE
  8
0
 10
-228.054
 20
74.624
 11
-228.083
 21
74.4379
  0
LINE
  8
0
 10
-228.083
 20
74.4379
 11
-228.125
 21
74.2539
  0
LINE
  8
0
 10
-228.125
 20
74.2539
 11
-228.177
 21
74.073
  0
LINE
  8
0
 10
-228.177
 20
74.073
 11
-228.241
 21
73.8956
  0
LINE
  8
0
 10
-228.241
 20
73.8956
 11
-228.316
 21
73.7227
  0
LINE
  8
0
 10
-228.316
 20
73.7227
 11
-228.401
 21
73.5547
  0
LINE
  8
0
 10
-228.401
 20
73.5547
 11
-228.497
 21
73.3925
  0
LINE
  8
0
 10
-228.497
 20
73.3925
 11
-228.603
 21
73.2366
  0
LINE
  8
0
 10
-228.603
 20
73.2366
 11
-228.719
 21
73.0877
  0
LINE
  8
0
 10
-228.719
 20
73.0877
 11
-228.843
 21
72.9464
  0
LINE
  8
0
 10
-228.843
 20
72.9464
 11
-228.977
 21
72.8131
  0
LINE
  8
0
 10
-228.977
 20
72.8131
 11
-229.118
 21
72.6885
  0
LINE
  8
0
 10
-229.118
 20
72.6885
 11
-229.267
 21
72.573
  0
LINE
  8
0
 10
-229.267
 20
72.573
 11
-229.423
 21
72.467
  0
LINE
  8
0
 10
-229.423
 20
72.467
 11
-229.585
 21
72.3711
  0
LINE
  8
0
 10
-229.585
 20
72.3711
 11
-229.753
 21
72.2855
  0
LINE
  8
0
 10
-229.753
 20
72.2855
 11
-229.926
 21
72.2107
  0
LINE
  8
0
 10
-229.926
 20
72.2107
 11
-230.103
 21
72.1468
  0
LINE
  8
0
 10
-230.103
 20
72.1468
 11
-230.284
 21
72.0943
  0
LINE
  8
0
 10
-230.284
 20
72.0943
 11
-230.468
 21
72.0531
  0
LINE
  8
0
 10
-230.468
 20
72.0531
 11
-230.654
 21
72.0237
  0
LINE
  8
0
 10
-230.654
 20
72.0237
 11
-230.842
 21
72.0059
  0
LINE
  8
0
 10
-230.842
 20
72.0059
 11
-231.03
 21
72
  0
LINE
  8
0
 10
-231.03
 20
72
 11
-231.219
 21
72.0059
  0
LINE
  8
0
 10
230.842
 20
72.0059
 11
230.654
 21
72.0237
  0
LINE
  8
0
 10
230.654
 20
72.0237
 11
230.468
 21
72.0531
  0
LINE
  8
0
 10
230.468
 20
72.0531
 11
230.284
 21
72.0943
  0
LINE
  8
0
 10
230.284
 20
72.0943
 11
230.103
 21
72.1468
  0
LINE
  8
0
 10
230.103
 20
72.1468
 11
229.926
 21
72.2107
  0
LINE
  8
0
 10
229.926
 20
72.2107
 11
229.753
 21
72.2855
  0
LINE
  8
0
 10
229.753
 20
72.2855
 11
229.585
 21
72.3711
  0
LINE
  8
0
 10
229.585
 20
72.3711
 11
229.423
 21
72.467
  0
LINE
  8
0
 10
229.423
 20
72.467
 11
229.267
 21
72.573
  0
LINE
  8
0
 10
229.267
 20
72.573
 11
229.118
 21
72.6885
  0
LINE
  8
0
 10
229.118
 20
72.6885
 11
228.977
 21
72.8131
  0
LINE
  8
0
 10
228.977
 20
72.8131
 11
228.843
 21
72.9464
  0
LINE
  8
0
 10
228.843
 20
72.9464
 11
228.719
 21
73.0877
  0
LINE
  8
0
 10
228.719
 20
73.0877
 11
228.603
 21
73.2366
  0
LINE
  8
0
 10
228.603
 20
73.2366
 11
228.497
 21
73.3925
  0
LINE
  8
0
 10
228.497
 20
73.3925
 11
228.401
 21
73.5547
  0
LINE
  8
0
 10
228.401
 20
73.5547
 11
228.316
 21
73.7227
  0
LINE
  8
0
 10
228.316
 20
73.7227
 11
228.241
 21
73.8956
  0
LINE
  8
0
 10
228.241
 20
73.8956
 11
228.177
 21
74.073
  0
LINE
  8
0
 10
228.177
 20
74.073
 11
228.125
 21
74.2539
  0
LINE
  8
0
 10
228.125
 20
74.2539
 11
228.083
 21
74.4379
  0
LINE
  8
0
 10
228.083
 20
74.4379
 11
228.054
 21
74.624
  0
LINE
  8
0
 10
228.054
 20
74.624
 11
228.036
 21
74.8116
  0
LINE
  8
0
 10
228.036
 20
74.8116
 11
228.03
 21
75
  0
LINE
  8
0
 10
228.03
 20
75
 11
228.036
 21
75.1884
  0
LINE
  8
0
 10
228.036
 20
75.1884
 11
228.054
 21
75.376
  0
LINE
  8
0
 10
228.054
 20
75.376
 11
228.083
 21
75.5621
  0
LINE
  8
0
 10
228.083
 20
75.5621
 11
228.125
 21
75.7461
  0
LINE
  8
0
 10
228.125
 20
75.7461
 11
228.177
 21
75.927
  0
LINE
  8
0
 10
228.177
 20
75.927
 11
228.241
 21
76.1044
  0
LINE
  8
0
 10
228.241
 20
76.1044
 11
228.316
 21
76.2773
  0
LINE
  8
0
 10
228.316
 20
76.2773
 11
228.401
 21
76.4453
  0
LINE
  8
0
 10
228.401
 20
76.4453
 11
228.497
 21
76.6075
  0
LINE
  8
0
 10
228.497
 20
76.6075
 11
228.603
 21
76.7634
  0
LINE
  8
0
 10
228.603
 20
76.7634
 11
228.719
 21
76.9123
  0
LINE
  8
0
 10
228.719
 20
76.9123
 11
228.843
 21
77.0536
  0
LINE
  8
0
 10
228.843
 20
77.0536
 11
228.977
 21
77.1869
  0
LINE
  8
0
 10
228.977
 20
77.1869
 11
229.118
 21
77.3115
  0
LINE
  8
0
 10
229.118
 20
77.3115
 11
229.267
 21
77.427
  0
LINE
  8
0
 10
229.267
 20
77.427
 11
229.423
 21
77.533
  0
LINE
  8
0
 10
229.423
 20
77.533
 11
229.585
 21
77.6289
  0
LINE
  8
0
 10
229.585
 20
77.6289
 11
229.753
 21
77.7145
  0
LINE
  8
0
 10
229.753
 20
77.7145
 11
229.926
 21
77.7893
  0
LINE
  8
0
 10
229.926
 20
77.7893
 11
230.103
 21
77.8532
  0
LINE
  8
0
 10
230.103
 20
77.8532
 11
230.284
 21
77.9057
  0
LINE
  8
0
 10
230.284
 20
77.9057
 11
230.468
 21
77.9469
  0
LINE
  8
0
 10
230.468
 20
77.9469
 11
230.654
 21
77.9763
  0
LINE
  8
0
 10
230.654
 20
77.9763
 11
230.842
 21
77.9941
  0
LINE
  8
0
 10
230.842
 20
77.9941
 11
231.03
 21
78
  0
LINE
  8
0
 10
231.03
 20
78
 11
231.219
 21
77.9941
  0
LINE
  8
0
 10
231.219
 20
77.9941
 11
231.406
 21
77.9763
  0
LINE
  8
0
 10
231.406
 20
77.9763
 11
231.592
 21
77.9469
  0
LINE
  8
0
 10
231.592
 20
77.9469
 11
231.776
 21
77.9057
  0
LINE
  8
0
 10
231.776
 20
77.9057
 11
231.957
 21
77.8532
  0
LINE
  8
0
 10
231.957
 20
77.8532
 11
232.135
 21
77.7893
  0
LINE
  8
0
 10
232.135
 20
77.7893
 11
232.308
 21
77.7145
  0
LINE
  8
0
 10
232.308
 20
77.7145
 11
232.476
 21
77.6289
  0
LINE
  8
0
 10
232.476
 20
77.6289
 11
232.638
 21
77.533
  0
LINE
  8
0
 10
232.638
 20
77.533
 11
232.794
 21
77.427
  0
LINE
  8
0
 10
232.794
 20
77.427
 11
232.943
 21
77.3115
  0
LINE
  8
0
 10
232.943
 20
77.3115
 11
233.084
 21
77.1869
  0
LINE
  8
0
 10
233.084
 20
77.1869
 11
233.217
 21
77.0536
  0
LINE
  8
0
 10
233.217
 20
77.0536
 11
233.342
 21
76.9123
  0
LINE
  8
0
 10
233.342
 20
76.9123
 11
233.457
 21
76.7634
  0
LINE
  8
0
 10
233.457
 20
76.7634
 11
233.563
 21
76.6075
  0
LINE
  8
0
 10
233.563
 20
76.6075
 11
233.659
 21
76.4453
  0
LINE
  8
0
 10
233.659
 20
76.4453
 11
233.745
 21
76.2773
  0
LINE
  8
0
 10
233.745
 20
76.2773
 11
233.82
 21
76.1044
  0
LINE
  8
0
 10
233.82
 20
76.1044
 11
233.883
 21
75.927
  0
LINE
  8
0
 10
233.883
 20
75.927
 11
233.936
 21
75.7461
  0
LINE
  8
0
 10
233.936
 20
75.7461
 11
233.977
 21
75.5621
  0
LINE
  8
0
 10
233.977
 20
75.5621
 11
234.007
 21
75.376
  0
LINE
  8
0
 10
234.007
 20
75.376
 11
234.024
 21
75.1884
  0
LINE
  8
0
 10
234.024
 20
75.1884
 11
234.03
 21
75
  0
LINE
  8
0
 10
234.03
 20
75
 11
234.024
 21
74.8116
  0
LINE
  8
0
 10
234.024
 20
74.8116
 11
234.007
 21
74.624
  0
LINE
  8
0
 10
234.007
 20
74.624
 11
233.977
 21
74.4379
  0
LINE
  8
0
 10
233.977
 20
74.4379
 11
233.936
 21
74.2539
  0
LINE
  8
0
 10
233.936
 20
74.2539
 11
233.883
 21
74.073
  0
LINE
  8
0
 10
233.883
 20
74.073
 11
233.82
 21
73.8956
  0
LINE
  8
0
 10
233.82
 20
73.8956
 11
233.745
 21
73.7227
  0
LINE
  8
0
 10
233.745
 20
73.7227
 11
233.659
 21
73.5547
  0
LINE
  8
0
 10
233.659
 20
73.5547
 11
233.563
 21
73.3925
  0
LINE
  8
0
 10
233.563
 20
73.3925
 11
233.457
 21
73.2366
  0
LINE
  8
0
 10
233.457
 20
73.2366
 11
233.342
 21
73.0877
  0
LINE
  8
0
 10
233.342
 20
73.0877
 11
233.217
 21
72.9464
  0
LINE
  8
0
 10
233.217
 20
72.9464
 11
233.084
 21
72.8131
  0
LINE
  8
0
 10
233.084
 20
72.8131
 11
232.943
 21
72.6885
  0
LINE
  8
0
 10
232.943
 20
72.6885
 11
232.794
 21
72.573
  0
LINE
  8
0
 10
232.794
 20
72.573
 11
232.638
 21
72.467
  0
LINE
  8
0
 10
232.638
 20
72.467
 11
232.476
 21
72.3711
  0
LINE
  8
0
 10
232.476
 20
72.3711
 11
232.308
 21
72.2855
  0
LINE
  8
0
 10
232.308
 20
72.2855
 11
232.135
 21
72.2107
  0
LINE
  8
0
 10
232.135
 20
72.2107
 11
231.957
 21
72.1468
  0
LINE
  8
0
 10
231.957
 20
72.1468
 11
231.776
 21
72.0943
  0
LINE
  8
0
 10
231.776
 20
72.0943
 11
231.592
 21
72.0531
  0
LINE
  8
0
 10
231.592
 20
72.0531
 11
231.406
 21
72.0237
  0
LINE
  8
0
 10
231.406
 20
72.0237
 11
231.219
 21
72.0059
  0
LINE
  8
0
 10
231.219
 20
72.0059
 11
231.03
 21
72
  0
LINE
  8
0
 10
231.03
 20
72
 11
230.842
 21
72.0059
  0
LINE
  8
0
 10
21.4622
 20
9.50591
 11
21.2746
 21
9.52365
  0
LINE
  8
0
 10
21.2746
 20
9.52365
 11
21.0885
 21
9.55313
  0
LINE
  8
0
 10
21.0885
 20
9.55313
 11
20.9046
 21
9.59424
  0
LINE
  8
0
 10
20.9046
 20
9.59424
 11
20.7236
 21
9.64682
  0
LINE
  8
0
 10
20.7236
 20
9.64682
 11
20.5462
 21
9.71066
  0
LINE
  8
0
 10
20.5462
 20
9.71066
 11
20.3733
 21
9.78551
  0
LINE
  8
0
 10
20.3733
 20
9.78551
 11
20.2054
 21
9.87108
  0
LINE
  8
0
 10
20.2054
 20
9.87108
 11
20.0432
 21
9.96701
  0
LINE
  8
0
 10
20.0432
 20
9.96701
 11
19.8873
 21
10.0729
  0
LINE
  8
0
 10
19.8873
 20
10.0729
 11
19.7384
 21
10.1884
  0
LINE
  8
0
 10
19.7384
 20
10.1884
 11
19.597
 21
10.3131
  0
LINE
  8
0
 10
19.597
 20
10.3131
 11
19.4637
 21
10.4464
  0
LINE
  8
0
 10
19.4637
 20
10.4464
 11
19.3391
 21
10.5877
  0
LINE
  8
0
 10
19.3391
 20
10.5877
 11
19.2236
 21
10.7366
  0
LINE
  8
0
 10
19.2236
 20
10.7366
 11
19.1176
 21
10.8925
  0
LINE
  8
0
 10
19.1176
 20
10.8925
 11
19.0217
 21
11.0547
  0
LINE
  8
0
 10
19.0217
 20
11.0547
 11
18.9361
 21
11.2227
  0
LINE
  8
0
 10
18.9361
 20
11.2227
 11
18.8613
 21
11.3956
  0
LINE
  8
0
 10
18.8613
 20
11.3956
 11
18.7975
 21
11.5729
  0
LINE
  8
0
 10
18.7975
 20
11.5729
 11
18.7449
 21
11.7539
  0
LINE
  8
0
 10
18.7449
 20
11.7539
 11
18.7038
 21
11.9379
  0
LINE
  8
0
 10
18.7038
 20
11.9379
 11
18.6743
 21
12.124
  0
LINE
  8
0
 10
18.6743
 20
12.124
 11
18.6566
 21
12.3116
  0
LINE
  8
0
 10
18.6566
 20
12.3116
 11
18.6506
 21
12.5
  0
LINE
  8
0
 10
18.6506
 20
12.5
 11
18.6566
 21
12.6884
  0
LINE
  8
0
 10
18.6566
 20
12.6884
 11
18.6743
 21
12.876
  0
LINE
  8
0
 10
18.6743
 20
12.876
 11
18.7038
 21
13.0621
  0
LINE
  8
0
 10
18.7038
 20
13.0621
 11
18.7449
 21
13.2461
  0
LINE
  8
0
 10
18.7449
 20
13.2461
 11
18.7975
 21
13.427
  0
LINE
  8
0
 10
18.7975
 20
13.427
 11
18.8613
 21
13.6044
  0
LINE
  8
0
 10
18.8613
 20
13.6044
 11
18.9361
 21
13.7773
  0
LINE
  8
0
 10
18.9361
 20
13.7773
 11
19.0217
 21
13.9453
  0
LINE
  8
0
 10
19.0217
 20
13.9453
 11
19.1176
 21
14.1075
  0
LINE
  8
0
 10
19.1176
 20
14.1075
 11
19.2236
 21
14.2634
  0
LINE
  8
0
 10
19.2236
 20
14.2634
 11
19.3391
 21
14.4123
  0
LINE
  8
0
 10
19.3391
 20
14.4123
 11
19.4637
 21
14.5536
  0
LINE
  8
0
 10
19.4637
 20
14.5536
 11
19.597
 21
14.6869
  0
LINE
  8
0
 10
19.597
 20
14.6869
 11
19.7384
 21
14.8115
  0
LINE
  8
0
 10
19.7384
 20
14.8115
 11
19.8873
 21
14.927
  0
LINE
  8
0
 10
19.8873
 20
14.927
 11
20.0432
 21
15.033
  0
LINE
  8
0
 10
20.0432
 20
15.033
 11
20.2054
 21
15.1289
  0
LINE
  8
0
 10
20.2054
 20
15.1289
 11
20.3733
 21
15.2145
  0
LINE
  8
0
 10
20.3733
 20
15.2145
 11
20.5462
 21
15.2893
  0
LINE
  8
0
 10
20.5462
 20
15.2893
 11
20.7236
 21
15.3532
  0
LINE
  8
0
 10
20.7236
 20
15.3532
 11
20.9046
 21
15.4057
  0
LINE
  8
0
 10
20.9046
 20
15.4057
 11
21.0885
 21
15.4469
  0
LINE
  8
0
 10
21.0885
 20
15.4469
 11
21.2746
 21
15.4763
  0
LINE
  8
0
 10
21.2746
 20
15.4763
 11
21.4622
 21
15.4941
  0
LINE
  8
0
 10
21.4622
 20
15.4941
 11
21.6506
 21
15.5
  0
LINE
  8
0
 10
21.6506
 20
15.5
 11
21.839
 21
15.4941
  0
LINE
  8
0
 10
21.839
 20
15.4941
 11
22.0266
 21
15.4763
  0
LINE
  8
0
 10
22.0266
 20
15.4763
 11
22.2128
 21
15.4469
  0
LINE
  8
0
 10
22.2128
 20
15.4469
 11
22.3967
 21
15.4057
  0
LINE
  8
0
 10
22.3967
 20
15.4057
 11
22.5777
 21
15.3532
  0
LINE
  8
0
 10
22.5777
 20
15.3532
 11
22.755
 21
15.2893
  0
LINE
  8
0
 10
22.755
 20
15.2893
 11
22.928
 21
15.2145
  0
LINE
  8
0
 10
22.928
 20
15.2145
 11
23.0959
 21
15.1289
  0
LINE
  8
0
 10
23.0959
 20
15.1289
 11
23.2581
 21
15.033
  0
LINE
  8
0
 10
23.2581
 20
15.033
 11
23.414
 21
14.927
  0
LINE
  8
0
 10
23.414
 20
14.927
 11
23.5629
 21
14.8115
  0
LINE
  8
0
 10
23.5629
 20
14.8115
 11
23.7043
 21
14.6869
  0
LINE
  8
0
 10
23.7043
 20
14.6869
 11
23.8375
 21
14.5536
  0
LINE
  8
0
 10
23.8375
 20
14.5536
 11
23.9622
 21
14.4123
  0
LINE
  8
0
 10
23.9622
 20
14.4123
 11
24.0777
 21
14.2634
  0
LINE
  8
0
 10
24.0777
 20
14.2634
 11
24.1836
 21
14.1075
  0
LINE
  8
0
 10
24.1836
 20
14.1075
 11
24.2795
 21
13.9453
  0
LINE
  8
0
 10
24.2795
 20
13.9453
 11
24.3651
 21
13.7773
  0
LINE
  8
0
 10
24.3651
 20
13.7773
 11
24.44
 21
13.6044
  0
LINE
  8
0
 10
24.44
 20
13.6044
 11
24.5038
 21
13.427
  0
LINE
  8
0
 10
24.5038
 20
13.427
 11
24.5564
 21
13.2461
  0
LINE
  8
0
 10
24.5564
 20
13.2461
 11
24.5975
 21
13.0621
  0
LINE
  8
0
 10
24.5975
 20
13.0621
 11
24.627
 21
12.876
  0
LINE
  8
0
 10
24.627
 20
12.876
 11
24.6447
 21
12.6884
  0
LINE
  8
0
 10
24.6447
 20
12.6884
 11
24.6506
 21
12.5
  0
LINE
  8
0
 10
24.6506
 20
12.5
 11
24.6447
 21
12.3116
  0
LINE
  8
0
 10
24.6447
 20
12.3116
 11
24.627
 21
12.124
  0
LINE
  8
0
 10
24.627
 20
12.124
 11
24.5975
 21
11.9379
  0
LINE
  8
0
 10
24.5975
 20
11.9379
 11
24.5564
 21
11.7539
  0
LINE
  8
0
 10
24.5564
 20
11.7539
 11
24.5038
 21
11.5729
  0
LINE
  8
0
 10
24.5038
 20
11.5729
 11
24.44
 21
11.3956
  0
LINE
  8
0
 10
24.44
 20
11.3956
 11
24.3651
 21
11.2227
  0
LINE
  8
0
 10
24.3651
 20
11.2227
 11
24.2795
 21
11.0547
  0
LINE
  8
0
 10
24.2795
 20
11.0547
 11
24.1836
 21
10.8925
  0
LINE
  8
0
 10
24.1836
 20
10.8925
 11
24.0777
 21
10.7366
  0
LINE
  8
0
 10
24.0777
 20
10.7366
 11
23.9622
 21
10.5877
  0
LINE
  8
0
 10
23.9622
 20
10.5877
 11
23.8375
 21
10.4464
  0
LINE
  8
0
 10
23.8375
 20
10.4464
 11
23.7043
 21
10.3131
  0
LINE
  8
0
 10
23.7043
 20
10.3131
 11
23.5629
 21
10.1884
  0
LINE
  8
0
 10
23.5629
 20
10.1884
 11
23.414
 21
10.0729
  0
LINE
  8
0
 10
23.414
 20
10.0729
 11
23.2581
 21
9.96701
  0
LINE
  8
0
 10
23.2581
 20
9.96701
 11
23.0959
 21
9.87108
  0
LINE
  8
0
 10
23.0959
 20
9.87108
 11
22.928
 21
9.78551
  0
LINE
  8
0
 10
22.928
 20
9.78551
 11
22.755
 21
9.71066
  0
LINE
  8
0
 10
22.755
 20
9.71066
 11
22.5777
 21
9.64682
  0
LINE
  8
0
 10
22.5777
 20
9.64682
 11
22.3967
 21
9.59424
  0
LINE
  8
0
 10
22.3967
 20
9.59424
 11
22.2128
 21
9.55313
  0
LINE
  8
0
 10
22.2128
 20
9.55313
 11
22.0266
 21
9.52365
  0
LINE
  8
0
 10
22.0266
 20
9.52365
 11
21.839
 21
9.50591
  0
LINE
  8
0
 10
21.839
 20
9.50591
 11
21.6506
 21
9.5
  0
LINE
  8
0
 10
21.6506
 20
9.5
 11
21.4622
 21
9.50591
  0
LINE
  8
0
 10
-21.839
 20
9.50591
 11
-22.0266
 21
9.52365
  0
LINE
  8
0
 10
-22.0266
 20
9.52365
 11
-22.2128
 21
9.55313
  0
LINE
  8
0
 10
-22.2128
 20
9.55313
 11
-22.3967
 21
9.59424
  0
LINE
  8
0
 10
-22.3967
 20
9.59424
 11
-22.5777
 21
9.64682
  0
LINE
  8
0
 10
-22.5777
 20
9.64682
 11
-22.755
 21
9.71066
  0
LINE
  8
0
 10
-22.755
 20
9.71066
 11
-22.928
 21
9.78551
  0
LINE
  8
0
 10
-22.928
 20
9.78551
 11
-23.0959
 21
9.87108
  0
LINE
  8
0
 10
-23.0959
 20
9.87108
 11
-23.2581
 21
9.96701
  0
LINE
  8
0
 10
-23.2581
 20
9.96701
 11
-23.414
 21
10.0729
  0
LINE
  8
0
 10
-23.414
 20
10.0729
 11
-23.5629
 21
10.1884
  0
LINE
  8
0
 10
-23.5629
 20
10.1884
 11
-23.7043
 21
10.3131
  0
LINE
  8
0
 10
-23.7043
 20
10.3131
 11
-23.8375
 21
10.4464
  0
LINE
  8
0
 10
-23.8375
 20
10.4464
 11
-23.9622
 21
10.5877
  0
LINE
  8
0
 10
-23.9622
 20
10.5877
 11
-24.0777
 21
10.7366
  0
LINE
  8
0
 10
-24.0777
 20
10.7366
 11
-24.1836
 21
10.8925
  0
LINE
  8
0
 10
-24.1836
 20
10.8925
 11
-24.2795
 21
11.0547
  0
LINE
  8
0
 10
-24.2795
 20
11.0547
 11
-24.3651
 21
11.2227
  0
LINE
  8
0
 10
-24.3651
 20
11.2227
 11
-24.44
 21
11.3956
  0
LINE
  8
0
 10
-24.44
 20
11.3956
 11
-24.5038
 21
11.5729
  0
LINE
  8
0
 10
-24.5038
 20
11.5729
 11
-24.5564
 21
11.7539
  0
LINE
  8
0
 10
-24.5564
 20
11.7539
 11
-24.5975
 21
11.9379
  0
LINE
  8
0
 10
-24.5975
 20
11.9379
 11
-24.627
 21
12.124
  0
LINE
  8
0
 10
-24.627
 20
12.124
 11
-24.6447
 21
12.3116
  0
LINE
  8
0
 10
-24.6447
 20
12.3116
 11
-24.6506
 21
12.5
  0
LINE
  8
0
 10
-24.6506
 20
12.5
 11
-24.6447
 21
12.6884
  0
LINE
  8
0
 10
-24.6447
 20
12.6884
 11
-24.627
 21
12.876
  0
LINE
  8
0
 10
-24.627
 20
12.876
 11
-24.5975
 21
13.0621
  0
LINE
  8
0
 10
-24.5975
 20
13.0621
 11
-24.5564
 21
13.2461
  0
LINE
  8
0
 10
-24.5564
 20
13.2461
 11
-24.5038
 21
13.427
  0
LINE
  8
0
 10
-24.5038
 20
13.427
 11
-24.44
 21
13.6044
  0
LINE
  8
0
 10
-24.44
 20
13.6044
 11
-24.3651
 21
13.7773
  0
LINE
  8
0
 10
-24.3651
 20
13.7773
 11
-24.2795
 21
13.9453
  0
LINE
  8
0
 10
-24.2795
 20
13.9453
 11
-24.1836
 21
14.1075
  0
LINE
  8
0
 10
-24.1836
 20
14.1075
 11
-24.0777
 21
14.2634
  0
LINE
  8
0
 10
-24.0777
 20
14.2634
 11
-23.9622
 21
14.4123
  0
LINE
  8
0
 10
-23.9622
 20
14.4123
 11
-23.8375
 21
14.5536
  0
LINE
  8
0
 10
-23.8375
 20
14.5536
 11
-23.7043
 21
14.6869
  0
LINE
  8
0
 10
-23.7043
 20
14.6869
 11
-23.5629
 21
14.8115
  0
LINE
  8
0
 10
-23.5629
 20
14.8115
 11
-23.414
 21
14.927
  0
LINE
  8
0
 10
-23.414
 20
14.927
 11
-23.2581
 21
15.033
  0
LINE
  8
0
 10
-23.2581
 20
15.033
 11
-23.0959
 21
15.1289
  0
LINE
  8
0
 10
-23.0959
 20
15.1289
 11
-22.928
 21
15.2145
  0
LINE
  8
0
 10
-22.928
 20
15.2145
 11
-22.755
 21
15.2893
  0
LINE
  8
0
 10
-22.755
 20
15.2893
 11
-22.5777
 21
15.3532
  0
LINE
  8
0
 10
-22.5777
 20
15.3532
 11
-22.3967
 21
15.4057
  0
LINE
  8
0
 10
-22.3967
 20
15.4057
 11
-22.2128
 21
15.4469
  0
LINE
  8
0
 10
-22.2128
 20
15.4469
 11
-22.0266
 21
15.4763
  0
LINE
  8
0
 10
-22.0266
 20
15.4763
 11
-21.839
 21
15.4941
  0
LINE
  8
0
 10
-21.839
 20
15.4941
 11
-21.6506
 21
15.5
  0
LINE
  8
0
 10
-21.6506
 20
15.5
 11
-21.4622
 21
15.4941
  0
LINE
  8
0
 10
-21.4622
 20
15.4941
 11
-21.2746
 21
15.4763
  0
LINE
  8
0
 10
-21.2746
 20
15.4763
 11
-21.0885
 21
15.4469
  0
LINE
  8
0
 10
-21.0885
 20
15.4469
 11
-20.9046
 21
15.4057
  0
LINE
  8
0
 10
-20.9046
 20
15.4057
 11
-20.7236
 21
15.3532
  0
LINE
  8
0
 10
-20.7236
 20
15.3532
 11
-20.5462
 21
15.2893
  0
LINE
  8
0
 10
-20.5462
 20
15.2893
 11
-20.3733
 21
15.2145
  0
LINE
  8
0
 10
-20.3733
 20
15.2145
 11
-20.2054
 21
15.1289
  0
LINE
  8
0
 10
-20.2054
 20
15.1289
 11
-20.0432
 21
15.033
  0
LINE
  8
0
 10
-20.0432
 20
15.033
 11
-19.8873
 21
14.927
  0
LINE
  8
0
 10
-19.8873
 20
14.927
 11
-19.7384
 21
14.8115
  0
LINE
  8
0
 10
-19.7384
 20
14.8115
 11
-19.597
 21
14.6869
  0
LINE
  8
0
 10
-19.597
 20
14.6869
 11
-19.4637
 21
14.5536
  0
LINE
  8
0
 10
-19.4637
 20
14.5536
 11
-19.3391
 21
14.4123
  0
LINE
  8
0
 10
-19.3391
 20
14.4123
 11
-19.2236
 21
14.2634
  0
LINE
  8
0
 10
-19.2236
 20
14.2634
 11
-19.1176
 21
14.1075
  0
LINE
  8
0
 10
-19.1176
 20
14.1075
 11
-19.0217
 21
13.9453
  0
LINE
  8
0
 10
-19.0217
 20
13.9453
 11
-18.9361
 21
13.7773
  0
LINE
  8
0
 10
-18.9361
 20
13.7773
 11
-18.8613
 21
13.6044
  0
LINE
  8
0
 10
-18.8613
 20
13.6044
 11
-18.7975
 21
13.427
  0
LINE
  8
0
 10
-18.7975
 20
13.427
 11
-18.7449
 21
13.2461
  0
LINE
  8
0
 10
-18.7449
 20
13.2461
 11
-18.7038
 21
13.0621
  0
LINE
  8
0
 10
-18.7038
 20
13.0621
 11
-18.6743
 21
12.876
  0
LINE
  8
0
 10
-18.6743
 20
12.876
 11
-18.6566
 21
12.6884
  0
LINE
  8
0
 10
-18.6566
 20
12.6884
 11
-18.6506
 21
12.5
  0
LINE
  8
0
 10
-18.6506
 20
12.5
 11
-18.6566
 21
12.3116
  0
LINE
  8
0
 10
-18.6566
 20
12.3116
 11
-18.6743
 21
12.124
  0
LINE
  8
0
 10
-18.6743
 20
12.124
 11
-18.7038
 21
11.9379
  0
LINE
  8
0
 10
-18.7038
 20
11.9379
 11
-18.7449
 21
11.7539
  0
LINE
  8
0
 10
-18.7449
 20
11.7539
 11
-18.7975
 21
11.5729
  0
LINE
  8
0
 10
-18.7975
 20
11.5729
 11
-18.8613
 21
11.3956
  0
LINE
  8
0
 10
-18.8613
 20
11.3956
 11
-18.9361
 21
11.2227
  0
LINE
  8
0
 10
-18.9361
 20
11.2227
 11
-19.0217
 21
11.0547
  0
LINE
  8
0
 10
-19.0217
 20
11.0547
 11
-19.1176
 21
10.8925
  0
LINE
  8
0
 10
-19.1176
 20
10.8925
 11
-19.2236
 21
10.7366
  0
LINE
  8
0
 10
-19.2236
 20
10.7366
 11
-19.3391
 21
10.5877
  0
LINE
  8
0
 10
-19.3391
 20
10.5877
 11
-19.4637
 21
10.4464
  0
LINE
  8
0
 10
-19.4637
 20
10.4464
 11
-19.597
 21
10.3131
  0
LINE
  8
0
 10
-19.597
 20
10.3131
 11
-19.7384
 21
10.1884
  0
LINE
  8
0
 10
-19.7384
 20
10.1884
 11
-19.8873
 21
10.0729
  0
LINE
  8
0
 10
-19.8873
 20
10.0729
 11
-20.0432
 21
9.96701
  0
LINE
  8
0
 10
-20.0432
 20
9.96701
 11
-20.2054
 21
9.87108
  0
LINE
  8
0
 10
-20.2054
 20
9.87108
 11
-20.3733
 21
9.78551
  0
LINE
  8
0
 10
-20.3733
 20
9.78551
 11
-20.5462
 21
9.71066
  0
LINE
  8
0
 10
-20.5462
 20
9.71066
 11
-20.7236
 21
9.64682
  0
LINE
  8
0
 10
-20.7236
 20
9.64682
 11
-20.9046
 21
9.59424
  0
LINE
  8
0
 10
-20.9046
 20
9.59424
 11
-21.0885
 21
9.55313
  0
LINE
  8
0
 10
-21.0885
 20
9.55313
 11
-21.2746
 21
9.52365
  0
LINE
  8
0
 10
-21.2746
 20
9.52365
 11
-21.4622
 21
9.50591
  0
LINE
  8
0
 10
-21.4622
 20
9.50591
 11
-21.6506
 21
9.5
  0
LINE
  8
0
 10
-21.6506
 20
9.5
 11
-21.839
 21
9.50591
  0
LINE
  8
0
 10
119.341
 20
-10.4793
 11
118.684
 21
-10.4172
  0
LINE
  8
0
 10
118.684
 20
-10.4172
 11
118.032
 21
-10.314
  0
LINE
  8
0
 10
118.032
 20
-10.314
 11
117.389
 21
-10.1701
  0
LINE
  8
0
 10
117.389
 20
-10.1701
 11
116.755
 21
-9.98608
  0
LINE
  8
0
 10
116.755
 20
-9.98608
 11
116.135
 21
-9.76265
  0
LINE
  8
0
 10
116.135
 20
-9.76265
 11
115.529
 21
-9.50067
  0
LINE
  8
0
 10
115.529
 20
-9.50067
 11
114.942
 21
-9.20122
  0
LINE
  8
0
 10
114.942
 20
-9.20122
 11
114.374
 21
-8.86543
  0
LINE
  8
0
 10
114.374
 20
-8.86543
 11
113.828
 21
-8.49467
  0
LINE
  8
0
 10
113.828
 20
-8.49467
 11
113.307
 21
-8.09038
  0
LINE
  8
0
 10
113.307
 20
-8.09038
 11
112.812
 21
-7.65416
  0
LINE
  8
0
 10
112.812
 20
-7.65416
 11
112.346
 21
-7.18774
  0
LINE
  8
0
 10
112.346
 20
-7.18774
 11
111.91
 21
-6.69295
  0
LINE
  8
0
 10
111.91
 20
-6.69295
 11
111.505
 21
-6.17174
  0
LINE
  8
0
 10
111.505
 20
-6.17174
 11
111.135
 21
-5.62617
  0
LINE
  8
0
 10
111.135
 20
-5.62617
 11
110.799
 21
-5.05841
  0
LINE
  8
0
 10
110.799
 20
-5.05841
 11
110.499
 21
-4.47067
  0
LINE
  8
0
 10
110.499
 20
-4.47067
 11
110.237
 21
-3.8653
  0
LINE
  8
0
 10
110.237
 20
-3.8653
 11
110.014
 21
-3.24467
  0
LINE
  8
0
 10
110.014
 20
-3.24467
 11
109.83
 21
-2.61124
  0
LINE
  8
0
 10
109.83
 20
-2.61124
 11
109.686
 21
-1.9675
  0
LINE
  8
0
 10
109.686
 20
-1.9675
 11
109.583
 21
-1.31599
  0
LINE
  8
0
 10
109.583
 20
-1.31599
 11
109.521
 21
-0.659286
  0
LINE
  8
0
 10
109.521
 20
-0.659286
 11
109.5
 21
0
  0
LINE
  8
0
 10
109.5
 20
0
 11
109.521
 21
0.659286
  0
LINE
  8
0
 10
109.521
 20
0.659286
 11
109.583
 21
1.31599
  0
LINE
  8
0
 10
109.583
 20
1.31599
 11
109.686
 21
1.9675
  0
LINE
  8
0
 10
109.686
 20
1.9675
 11
109.83
 21
2.61124
  0
LINE
  8
0
 10
109.83
 20
2.61124
 11
110.014
 21
3.24467
  0
LINE
  8
0
 10
110.014
 20
3.24467
 11
110.237
 21
3.8653
  0
LINE
  8
0
 10
110.237
 20
3.8653
 11
110.499
 21
4.47067
  0
LINE
  8
0
 10
110.499
 20
4.47067
 11
110.799
 21
5.05841
  0
LINE
  8
0
 10
110.799
 20
5.05841
 11
111.135
 21
5.62617
  0
LINE
  8
0
 10
111.135
 20
5.62617
 11
111.505
 21
6.17174
  0
LINE
  8
0
 10
111.505
 20
6.17174
 11
111.91
 21
6.69295
  0
LINE
  8
0
 10
111.91
 20
6.69295
 11
112.346
 21
7.18774
  0
LINE
  8
0
 10
112.346
 20
7.18774
 11
112.812
 21
7.65416
  0
LINE
  8
0
 10
112.812
 20
7.65416
 11
113.307
 21
8.09038
  0
LINE
  8
0
 10
113.307
 20
8.09038
 11
113.828
 21
8.49467
  0
LINE
  8
0
 10
113.828
 20
8.49467
 11
114.374
 21
8.86543
  0
LINE
  8
0
 10
114.374
 20
8.86543
 11
114.942
 21
9.20122
  0
LINE
  8
0
 10
114.942
 20
9.20122
 11
115.529
 21
9.50067
  0
LINE
  8
0
 10
115.529
 20
9.50067
 11
116.135
 21
9.76265
  0
LINE
  8
0
 10
116.135
 20
9.76265
 11
116.755
 21
9.98608
  0
LINE
  8
0
 10
116.755
 20
9.98608
 11
117.389
 21
10.1701
  0
LINE
  8
0
 10
117.389
 20
10.1701
 11
118.032
 21
10.314
  0
LINE
  8
0
 10
118.032
 20
10.314
 11
118.684
 21
10.4172
  0
LINE
  8
0
 10
118.684
 20
10.4172
 11
119.341
 21
10.4793
  0
LINE
  8
0
 10
119.341
 20
10.4793
 11
120
 21
10.5
  0
LINE
  8
0
 10
120
 20
10.5
 11
120.659
 21
10.4793
  0
LINE
  8
0
 10
120.659
 20
10.4793
 11
121.316
 21
10.4172
  0
LINE
  8
0
 10
121.316
 20
10.4172
 11
121.967
 21
10.314
  0
LINE
  8
0
 10
121.967
 20
10.314
 11
122.611
 21
10.1701
  0
LINE
  8
0
 10
122.611
 20
10.1701
 11
123.245
 21
9.98608
  0
LINE
  8
0
 10
123.245
 20
9.98608
 11
123.865
 21
9.76265
  0
LINE
  8
0
 10
123.865
 20
9.76265
 11
124.471
 21
9.50067
  0
LINE
  8
0
 10
124.471
 20
9.50067
 11
125.058
 21
9.20122
  0
LINE
  8
0
 10
125.058
 20
9.20122
 11
125.626
 21
8.86543
  0
LINE
  8
0
 10
125.626
 20
8.86543
 11
126.172
 21
8.49467
  0
LINE
  8
0
 10
126.172
 20
8.49467
 11
126.693
 21
8.09038
  0
LINE
  8
0
 10
126.693
 20
8.09038
 11
127.188
 21
7.65416
  0
LINE
  8
0
 10
127.188
 20
7.65416
 11
127.654
 21
7.18774
  0
LINE
  8
0
 10
127.654
 20
7.18774
 11
128.09
 21
6.69295
  0
LINE
  8
0
 10
128.09
 20
6.69295
 11
128.495
 21
6.17174
  0
LINE
  8
0
 10
128.495
 20
6.17174
 11
128.865
 21
5.62617
  0
LINE
  8
0
 10
128.865
 20
5.62617
 11
129.201
 21
5.05841
  0
LINE
  8
0
 10
129.201
 20
5.05841
 11
129.501
 21
4.47067
  0
LINE
  8
0
 10
129.501
 20
4.47067
 11
129.763
 21
3.8653
  0
LINE
  8
0
 10
129.763
 20
3.8653
 11
129.986
 21
3.24467
  0
LINE
  8
0
 10
129.986
 20
3.24467
 11
130.17
 21
2.61124
  0
LINE
  8
0
 10
130.17
 20
2.61124
 11
130.314
 21
1.9675
  0
LINE
  8
0
 10
130.314
 20
1.9675
 11
130.417
 21
1.31599
  0
LINE
  8
0
 10
130.417
 20
1.31599
 11
130.479
 21
0.659286
  0
LINE
  8
0
 10
130.479
 20
0.659286
 11
130.5
 21
0
  0
LINE
  8
0
 10
130.5
 20
0
 11
130.479
 21
-0.659286
  0
LINE
  8
0
 10
130.479
 20
-0.659286
 11
130.417
 21
-1.31599
  0
LINE
  8
0
 10
130.417
 20
-1.31599
 11
130.314
 21
-1.9675
  0
LINE
  8
0
 10
130.314
 20
-1.9675
 11
130.17
 21
-2.61124
  0
LINE
  8
0
 10
130.17
 20
-2.61124
 11
129.986
 21
-3.24467
  0
LINE
  8
0
 10
129.986
 20
-3.24467
 11
129.763
 21
-3.8653
  0
LINE
  8
0
 10
129.763
 20
-3.8653
 11
129.501
 21
-4.47067
  0
LINE
  8
0
 10
129.501
 20
-4.47067
 11
129.201
 21
-5.05841
  0
LINE
  8
0
 10
129.201
 20
-5.05841
 11
128.865
 21
-5.62617
  0
LINE
  8
0
 10
128.865
 20
-5.62617
 11
128.495
 21
-6.17174
  0
LINE
  8
0
 10
128.495
 20
-6.17174
 11
128.09
 21
-6.69295
  0
LINE
  8
0
 10
128.09
 20
-6.69295
 11
127.654
 21
-7.18774
  0
LINE
  8
0
 10
127.654
 20
-7.18774
 11
127.188
 21
-7.65416
  0
LINE
  8
0
 10
127.188
 20
-7.65416
 11
126.693
 21
-8.09038
  0
LINE
  8
0
 10
126.693
 20
-8.09038
 11
126.172
 21
-8.49467
  0
LINE
  8
0
 10
126.172
 20
-8.49467
 11
125.626
 21
-8.86543
  0
LINE
  8
0
 10
125.626
 20
-8.86543
 11
125.058
 21
-9.20122
  0
LINE
  8
0
 10
125.058
 20
-9.20122
 11
124.471
 21
-9.50067
  0
LINE
  8
0
 10
124.471
 20
-9.50067
 11
123.865
 21
-9.76265
  0
LINE
  8
0
 10
123.865
 20
-9.76265
 11
123.245
 21
-9.98608
  0
LINE
  8
0
 10
123.245
 20
-9.98608
 11
122.611
 21
-10.1701
  0
LINE
  8
0
 10
122.611
 20
-10.1701
 11
121.967
 21
-10.314
  0
LINE
  8
0
 10
121.967
 20
-10.314
 11
121.316
 21
-10.4172
  0
LINE
  8
0
 10
121.316
 20
-10.4172
 11
120.659
 21
-10.4793
  0
LINE
  8
0
 10
120.659
 20
-10.4793
 11
120
 21
-10.5
  0
LINE
  8
0
 10
120
 20
-10.5
 11
119.341
 21
-10.4793
  0
LINE
  8
0
 10
-0.596497
 20
-9.48125
 11
-1.19066
 21
-9.42508
  0
LINE
  8
0
 10
-1.19066
 20
-9.42508
 11
-1.78012
 21
-9.33173
  0
LINE
  8
0
 10
-1.78012
 20
-9.33173
 11
-2.36255
 21
-9.20154
  0
LINE
  8
0
 10
-2.36255
 20
-9.20154
 11
-2.93565
 21
-9.03503
  0
LINE
  8
0
 10
-2.93565
 20
-9.03503
 11
-3.49718
 21
-8.83287
  0
LINE
  8
0
 10
-3.49718
 20
-8.83287
 11
-4.04489
 21
-8.59586
  0
LINE
  8
0
 10
-4.04489
 20
-8.59586
 11
-4.57664
 21
-8.32491
  0
LINE
  8
0
 10
-4.57664
 20
-8.32491
 11
-5.09035
 21
-8.0211
  0
LINE
  8
0
 10
-5.09035
 20
-8.0211
 11
-5.58395
 21
-7.68565
  0
LINE
  8
0
 10
-5.58395
 20
-7.68565
 11
-6.05553
 21
-7.31987
  0
LINE
  8
0
 10
-6.05553
 20
-7.31987
 11
-6.50319
 21
-6.9252
  0
LINE
  8
0
 10
-6.50319
 20
-6.9252
 11
-6.9252
 21
-6.50319
  0
LINE
  8
0
 10
-6.9252
 20
-6.50319
 11
-7.31987
 21
-6.05553
  0
LINE
  8
0
 10
-7.31987
 20
-6.05553
 11
-7.68565
 21
-5.58395
  0
LINE
  8
0
 10
-7.68565
 20
-5.58395
 11
-8.0211
 21
-5.09035
  0
LINE
  8
0
 10
-8.0211
 20
-5.09035
 11
-8.32491
 21
-4.57664
  0
LINE
  8
0
 10
-8.32491
 20
-4.57664
 11
-8.59586
 21
-4.04489
  0
LINE
  8
0
 10
-8.59586
 20
-4.04489
 11
-8.83287
 21
-3.49718
  0
LINE
  8
0
 10
-8.83287
 20
-3.49718
 11
-9.03503
 21
-2.93565
  0
LINE
  8
0
 10
-9.03503
 20
-2.93565
 11
-9.20154
 21
-2.36255
  0
LINE
  8
0
 10
-9.20154
 20
-2.36255
 11
-9.33173
 21
-1.78012
  0
LINE
  8
0
 10
-9.33173
 20
-1.78012
 11
-9.42508
 21
-1.19066
  0
LINE
  8
0
 10
-9.42508
 20
-1.19066
 11
-9.48125
 21
-0.596497
  0
LINE
  8
0
 10
-9.48125
 20
-0.596497
 11
-9.5
 21
0
  0
LINE
  8
0
 10
-9.5
 20
0
 11
-9.48125
 21
0.596497
  0
LINE
  8
0
 10
-9.48125
 20
0.596497
 11
-9.42508
 21
1.19066
  0
LINE
  8
0
 10
-9.42508
 20
1.19066
 11
-9.33173
 21
1.78012
  0
LINE
  8
0
 10
-9.33173
 20
1.78012
 11
-9.20154
 21
2.36255
  0
LINE
  8
0
 10
-9.20154
 20
2.36255
 11
-9.03503
 21
2.93565
  0
LINE
  8
0
 10
-9.03503
 20
2.93565
 11
-8.83287
 21
3.49718
  0
LINE
  8
0
 10
-8.83287
 20
3.49718
 11
-8.59586
 21
4.04489
  0
LINE
  8
0
 10
-8.59586
 20
4.04489
 11
-8.32491
 21
4.57664
  0
LINE
  8
0
 10
-8.32491
 20
4.57664
 11
-8.0211
 21
5.09035
  0
LINE
  8
0
 10
-8.0211
 20
5.09035
 11
-7.68565
 21
5.58395
  0
LINE
  8
0
 10
-7.68565
 20
5.58395
 11
-7.31987
 21
6.05553
  0
LINE
  8
0
 10
-7.31987
 20
6.05553
 11
-6.9252
 21
6.50319
  0
LINE
  8
0
 10
-6.9252
 20
6.50319
 11
-6.50319
 21
6.9252
  0
LINE
  8
0
 10
-6.50319
 20
6.9252
 11
-6.05553
 21
7.31987
  0
LINE
  8
0
 10
-6.05553
 20
7.31987
 11
-5.58395
 21
7.68565
  0
LINE
  8
0
 10
-5.58395
 20
7.68565
 11
-5.09035
 21
8.0211
  0
LINE
  8
0
 10
-5.09035
 20
8.0211
 11
-4.57664
 21
8.32491
  0
LINE
  8
0
 10
-4.57664
 20
8.32491
 11
-4.04489
 21
8.59586
  0
LINE
  8
0
 10
-4.04489
 20
8.59586
 11
-3.49718
 21
8.83287
  0
LINE
  8
0
 10
-3.49718
 20
8.83287
 11
-2.93565
 21
9.03503
  0
LINE
  8
0
 10
-2.93565
 20
9.03503
 11
-2.36255
 21
9.20154
  0
LINE
  8
0
 10
-2.36255
 20
9.20154
 11
-1.78012
 21
9.33173
  0
LINE
  8
0
 10
-1.78012
 20
9.33173
 11
-1.19066
 21
9.42508
  0
LINE
  8
0
 10
-1.19066
 20
9.42508
 11
-0.596497
 21
9.48125
  0
LINE
  8
0
 10
-0.596497
 20
9.48125
 11
0
 21
9.5
  0
LINE
  8
0
 10
0
 20
9.5
 11
0.596497
 21
9.48125
  0
LINE
  8
0
 10
0.596497
 20
9.48125
 11
1.19066
 21
9.42508
  0
LINE
  8
0
 10
1.19066
 20
9.42508
 11
1.78012
 21
9.33173
  0
LINE
  8
0
 10
1.78012
 20
9.33173
 11
2.36255
 21
9.20154
  0
LINE
  8
0
 10
2.36255
 20
9.20154
 11
2.93565
 21
9.03503
  0
LINE
  8
0
 10
2.93565
 20
9.03503
 11
3.49718
 21
8.83287
  0
LINE
  8
0
 10
3.49718
 20
8.83287
 11
4.04489
 21
8.59586
  0
LINE
  8
0
 10
4.04489
 20
8.59586
 11
4.57664
 21
8.32491
  0
LINE
  8
0
 10
4.57664
 20
8.32491
 11
5.09035
 21
8.0211
  0
LINE
  8
0
 10
5.09035
 20
8.0211
 11
5.58395
 21
7.68565
  0
LINE
  8
0
 10
5.58395
 20
7.68565
 11
6.05553
 21
7.31987
  0
LINE
  8
0
 10
6.05553
 20
7.31987
 11
6.50319
 21
6.9252
  0
LINE
  8
0
 10
6.50319
 20
6.9252
 11
6.9252
 21
6.50319
  0
LINE
  8
0
 10
6.9252
 20
6.50319
 11
7.31987
 21
6.05553
  0
LINE
  8
0
 10
7.31987
 20
6.05553
 11
7.68565
 21
5.58395
  0
LINE
  8
0
 10
7.68565
 20
5.58395
 11
8.0211
 21
5.09035
  0
LINE
  8
0
 10
8.0211
 20
5.09035
 11
8.32491
 21
4.57664
  0
LINE
  8
0
 10
8.32491
 20
4.57664
 11
8.59586
 21
4.04489
  0
LINE
  8
0
 10
8.59586
 20
4.04489
 11
8.83287
 21
3.49718
  0
LINE
  8
0
 10
8.83287
 20
3.49718
 11
9.03503
 21
2.93565
  0
LINE
  8
0
 10
9.03503
 20
2.93565
 11
9.20154
 21
2.36255
  0
LINE
  8
0
 10
9.20154
 20
2.36255
 11
9.33173
 21
1.78012
  0
LINE
  8
0
 10
9.33173
 20
1.78012
 11
9.42508
 21
1.19066
  0
LINE
  8
0
 10
9.42508
 20
1.19066
 11
9.48125
 21
0.596497
  0
LINE
  8
0
 10
9.48125
 20
0.596497
 11
9.5
 21
0
  0
LINE
  8
0
 10
9.5
 20
0
 11
9.48125
 21
-0.596497
  0
LINE
  8
0
 10
9.48125
 20
-0.596497
 11
9.42508
 21
-1.19066
  0
LINE
  8
0
 10
9.42508
 20
-1.19066
 11
9.33173
 21
-1.78012
  0
LINE
  8
0
 10
9.33173
 20
-1.78012
 11
9.20154
 21
-2.36255
  0
LINE
  8
0
 10
9.20154
 20
-2.36255
 11
9.03503
 21
-2.93565
  0
LINE
  8
0
 10
9.03503
 20
-2.93565
 11
8.83287
 21
-3.49718
  0
LINE
  8
0
 10
8.83287
 20
-3.49718
 11
8.59586
 21
-4.04489
  0
LINE
  8
0
 10
8.59586
 20
-4.04489
 11
8.32491
 21
-4.57664
  0
LINE
  8
0
 10
8.32491
 20
-4.57664
 11
8.0211
 21
-5.09035
  0
LINE
  8
0
 10
8.0211
 20
-5.09035
 11
7.68565
 21
-5.58395
  0
LINE
  8
0
 10
7.68565
 20
-5.58395
 11
7.31987
 21
-6.05553
  0
LINE
  8
0
 10
7.31987
 20
-6.05553
 11
6.9252
 21
-6.50319
  0
LINE
  8
0
 10
6.9252
 20
-6.50319
 11
6.50319
 21
-6.9252
  0
LINE
  8
0
 10
6.50319
 20
-6.9252
 11
6.05553
 21
-7.31987
  0
LINE
  8
0
 10
6.05553
 20
-7.31987
 11
5.58395
 21
-7.68565
  0
LINE
  8
0
 10
5.58395
 20
-7.68565
 11
5.09035
 21
-8.0211
  0
LINE
  8
0
 10
5.09035
 20
-8.0211
 11
4.57664
 21
-8.32491
  0
LINE
  8
0
 10
4.57664
 20
-8.32491
 11
4.04489
 21
-8.59586
  0
LINE
  8
0
 10
4.04489
 20
-8.59586
 11
3.49718
 21
-8.83287
  0
LINE
  8
0
 10
3.49718
 20
-8.83287
 11
2.93565
 21
-9.03503
  0
LINE
  8
0
 10
2.93565
 20
-9.03503
 11
2.36255
 21
-9.20154
  0
LINE
  8
0
 10
2.36255
 20
-9.20154
 11
1.78012
 21
-9.33173
  0
LINE
  8
0
 10
1.78012
 20
-9.33173
 11
1.19066
 21
-9.42508
  0
LINE
  8
0
 10
1.19066
 20
-9.42508
 11
0.596497
 21
-9.48125
  0
LINE
  8
0
 10
0.596497
 20
-9.48125
 11
0
 21
-9.5
  0
LINE
  8
0
 10
0
 20
-9.5
 11
-0.596497
 21
-9.48125
  0
LINE
  8
0
 10
-0.18837
 20
-27.9941
 11
-0.375992
 21
-27.9763
  0
LINE
  8
0
 10
-0.375992
 20
-27.9763
 11
-0.562134
 21
-27.9469
  0
LINE
  8
0
 10
-0.562134
 20
-27.9469
 11
-0.746063
 21
-27.9057
  0
LINE
  8
0
 10
-0.746063
 20
-27.9057
 11
-0.927048
 21
-27.8532
  0
LINE
  8
0
 10
-0.927048
 20
-27.8532
 11
-1.10437
 21
-27.7893
  0
LINE
  8
0
 10
-1.10437
 20
-27.7893
 11
-1.27733
 21
-27.7145
  0
LINE
  8
0
 10
-1.27733
 20
-27.7145
 11
-1.44525
 21
-27.6289
  0
LINE
  8
0
 10
-1.44525
 20
-27.6289
 11
-1.60747
 21
-27.533
  0
LINE
  8
0
 10
-1.60747
 20
-27.533
 11
-1.76335
 21
-27.427
  0
LINE
  8
0
 10
-1.76335
 20
-27.427
 11
-1.91226
 21
-27.3115
  0
LINE
  8
0
 10
-1.91226
 20
-27.3115
 11
-2.05363
 21
-27.1869
  0
LINE
  8
0
 10
-2.05363
 20
-27.1869
 11
-2.1869
 21
-27.0536
  0
LINE
  8
0
 10
-2.1869
 20
-27.0536
 11
-2.31154
 21
-26.9123
  0
LINE
  8
0
 10
-2.31154
 20
-26.9123
 11
-2.42705
 21
-26.7634
  0
LINE
  8
0
 10
-2.42705
 20
-26.7634
 11
-2.53297
 21
-26.6075
  0
LINE
  8
0
 10
-2.53297
 20
-26.6075
 11
-2.62891
 21
-26.4453
  0
LINE
  8
0
 10
-2.62891
 20
-26.4453
 11
-2.71448
 21
-26.2773
  0
LINE
  8
0
 10
-2.71448
 20
-26.2773
 11
-2.78932
 21
-26.1044
  0
LINE
  8
0
 10
-2.78932
 20
-26.1044
 11
-2.85316
 21
-25.927
  0
LINE
  8
0
 10
-2.85316
 20
-25.927
 11
-2.90575
 21
-25.7461
  0
LINE
  8
0
 10
-2.90575
 20
-25.7461
 11
-2.94685
 21
-25.5621
  0
LINE
  8
0
 10
-2.94685
 20
-25.5621
 11
-2.97633
 21
-25.376
  0
LINE
  8
0
 10
-2.97633
 20
-25.376
 11
-2.99408
 21
-25.1884
  0
LINE
  8
0
 10
-2.99408
 20
-25.1884
 11
-3
 21
-25
  0
LINE
  8
0
 10
-3
 20
-25
 11
-2.99408
 21
-24.8116
  0
LINE
  8
0
 10
-2.99408
 20
-24.8116
 11
-2.97633
 21
-24.624
  0
LINE
  8
0
 10
-2.97633
 20
-24.624
 11
-2.94685
 21
-24.4379
  0
LINE
  8
0
 10
-2.94685
 20
-24.4379
 11
-2.90575
 21
-24.2539
  0
LINE
  8
0
 10
-2.90575
 20
-24.2539
 11
-2.85316
 21
-24.0729
  0
LINE
  8
0
 10
-2.85316
 20
-24.0729
 11
-2.78932
 21
-23.8956
  0
LINE
  8
0
 10
-2.78932
 20
-23.8956
 11
-2.71448
 21
-23.7227
  0
LINE
  8
0
 10
-2.71448
 20
-23.7227
 11
-2.62891
 21
-23.5547
  0
LINE
  8
0
 10
-2.62891
 20
-23.5547
 11
-2.53297
 21
-23.3925
  0
LINE
  8
0
 10
-2.53297
 20
-23.3925
 11
-2.42705
 21
-23.2366
  0
LINE
  8
0
 10
-2.42705
 20
-23.2366
 11
-2.31154
 21
-23.0877
  0
LINE
  8
0
 10
-2.31154
 20
-23.0877
 11
-2.1869
 21
-22.9464
  0
LINE
  8
0
 10
-2.1869
 20
-22.9464
 11
-2.05363
 21
-22.8131
  0
LINE
  8
0
 10
-2.05363
 20
-22.8131
 11
-1.91226
 21
-22.6884
  0
LINE
  8
0
 10
-1.91226
 20
-22.6884
 11
-1.76335
 21
-22.5729
  0
LINE
  8
0
 10
-1.76335
 20
-22.5729
 11
-1.60747
 21
-22.467
  0
LINE
  8
0
 10
-1.60747
 20
-22.467
 11
-1.44525
 21
-22.3711
  0
LINE
  8
0
 10
-1.44525
 20
-22.3711
 11
-1.27733
 21
-22.2855
  0
LINE
  8
0
 10
-1.27733
 20
-22.2855
 11
-1.10437
 21
-22.2107
  0
LINE
  8
0
 10
-1.10437
 20
-22.2107
 11
-0.927048
 21
-22.1468
  0
LINE
  8
0
 10
-0.927048
 20
-22.1468
 11
-0.746063
 21
-22.0942
  0
LINE
  8
0
 10
-0.746063
 20
-22.0942
 11
-0.562134
 21
-22.0531
  0
LINE
  8
0
 10
-0.562134
 20
-22.0531
 11
-0.375992
 21
-22.0237
  0
LINE
  8
0
 10
-0.375992
 20
-22.0237
 11
-0.18837
 21
-22.0059
  0
LINE
  8
0
 10
-0.18837
 20
-22.0059
 11
0
 21
-22
  0
LINE
  8
0
 10
0
 20
-22
 11
0.18837
 21
-22.0059
  0
LINE
  8
0
 10
0.18837
 20
-22.0059
 11
0.375992
 21
-22.0237
  0
LINE
  8
0
 10
0.375992
 20
-22.0237
 11
0.562134
 21
-22.0531
  0
LINE
  8
0
 10
0.562134
 20
-22.0531
 11
0.746063
 21
-22.0942
  0
LINE
  8
0
 10
0.746063
 20
-22.0942
 11
0.927048
 21
-22.1468
  0
LINE
  8
0
 10
0.927048
 20
-22.1468
 11
1.10437
 21
-22.2107
  0
LINE
  8
0
 10
1.10437
 20
-22.2107
 11
1.27733
 21
-22.2855
  0
LINE
  8
0
 10
1.27733
 20
-22.2855
 11
1.44525
 21
-22.3711
  0
LINE
  8
0
 10
1.44525
 20
-22.3711
 11
1.60747
 21
-22.467
  0
LINE
  8
0
 10
1.60747
 20
-22.467
 11
1.76335
 21
-22.5729
  0
LINE
  8
0
 10
1.76335
 20
-22.5729
 11
1.91226
 21
-22.6884
  0
LINE
  8
0
 10
1.91226
 20
-22.6884
 11
2.05363
 21
-22.8131
  0
LINE
  8
0
 10
2.05363
 20
-22.8131
 11
2.1869
 21
-22.9464
  0
LINE
  8
0
 10
2.1869
 20
-22.9464
 11
2.31154
 21
-23.0877
  0
LINE
  8
0
 10
2.31154
 20
-23.0877
 11
2.42705
 21
-23.2366
  0
LINE
  8
0
 10
2.42705
 20
-23.2366
 11
2.53297
 21
-23.3925
  0
LINE
  8
0
 10
2.53297
 20
-23.3925
 11
2.62891
 21
-23.5547
  0
LINE
  8
0
 10
2.62891
 20
-23.5547
 11
2.71448
 21
-23.7227
  0
LINE
  8
0
 10
2.71448
 20
-23.7227
 11
2.78932
 21
-23.8956
  0
LINE
  8
0
 10
2.78932
 20
-23.8956
 11
2.85316
 21
-24.0729
  0
LINE
  8
0
 10
2.85316
 20
-24.0729
 11
2.90575
 21
-24.2539
  0
LINE
  8
0
 10
2.90575
 20
-24.2539
 11
2.94685
 21
-24.4379
  0
LINE
  8
0
 10
2.94685
 20
-24.4379
 11
2.97633
 21
-24.624
  0
LINE
  8
0
 10
2.97633
 20
-24.624
 11
2.99408
 21
-24.8116
  0
LINE
  8
0
 10
2.99408
 20
-24.8116
 11
3
 21
-25
  0
LINE
  8
0
 10
3
 20
-25
 11
2.99408
 21
-25.1884
  0
LINE
  8
0
 10
2.99408
 20
-25.1884
 11
2.97633
 21
-25.376
  0
LINE
  8
0
 10
2.97633
 20
-25.376
 11
2.94685
 21
-25.5621
  0
LINE
  8
0
 10
2.94685
 20
-25.5621
 11
2.90575
 21
-25.7461
  0
LINE
  8
0
 10
2.90575
 20
-25.7461
 11
2.85316
 21
-25.927
  0
LINE
  8
0
 10
2.85316
 20
-25.927
 11
2.78932
 21
-26.1044
  0
LINE
  8
0
 10
2.78932
 20
-26.1044
 11
2.71448
 21
-26.2773
  0
LINE
  8
0
 10
2.71448
 20
-26.2773
 11
2.62891
 21
-26.4453
  0
LINE
  8
0
 10
2.62891
 20
-26.4453
 11
2.53297
 21
-26.6075
  0
LINE
  8
0
 10
2.53297
 20
-26.6075
 11
2.42705
 21
-26.7634
  0
LINE
  8
0
 10
2.42705
 20
-26.7634
 11
2.31154
 21
-26.9123
  0
LINE
  8
0
 10
2.31154
 20
-26.9123
 11
2.1869
 21
-27.0536
  0
LINE
  8
0
 10
2.1869
 20
-27.0536
 11
2.05363
 21
-27.1869
  0
LINE
  8
0
 10
2.05363
 20
-27.1869
 11
1.91226
 21
-27.3115
  0
LINE
  8
0
 10
1.91226
 20
-27.3115
 11
1.76335
 21
-27.427
  0
LINE
  8
0
 10
1.76335
 20
-27.427
 11
1.60747
 21
-27.533
  0
LINE
  8
0
 10
1.60747
 20
-27.533
 11
1.44525
 21
-27.6289
  0
LINE
  8
0
 10
1.44525
 20
-27.6289
 11
1.27733
 21
-27.7145
  0
LINE
  8
0
 10
1.27733
 20
-27.7145
 11
1.10437
 21
-27.7893
  0
LINE
  8
0
 10
1.10437
 20
-27.7893
 11
0.927048
 21
-27.8532
  0
LINE
  8
0
 10
0.927048
 20
-27.8532
 11
0.746063
 21
-27.9057
  0
LINE
  8
0
 10
0.746063
 20
-27.9057
 11
0.562134
 21
-27.9469
  0
LINE
  8
0
 10
0.562134
 20
-27.9469
 11
0.375992
 21
-27.9763
  0
LINE
  8
0
 10
0.375992
 20
-27.9763
 11
0.18837
 21
-27.9941
  0
LINE
  8
0
 10
0.18837
 20
-27.9941
 11
0
 21
-28
  0
LINE
  8
0
 10
0
 20
-28
 11
-0.18837
 21
-27.9941
  0
LINE
  8
0
 10
-100.132
 20
-45.4292
 11
-100.263
 21
-45.4168
  0
LINE
  8
0
 10
-100.263
 20
-45.4168
 11
-100.393
 21
-45.3961
  0
LINE
  8
0
 10
-100.393
 20
-45.3961
 11
-100.522
 21
-45.3674
  0
LINE
  8
0
 10
-100.522
 20
-45.3674
 11
-100.649
 21
-45.3306
  0
LINE
  8
0
 10
-100.649
 20
-45.3306
 11
-100.773
 21
-45.2859
  0
LINE
  8
0
 10
-100.773
 20
-45.2859
 11
-100.894
 21
-45.2335
  0
LINE
  8
0
 10
-100.894
 20
-45.2335
 11
-101.012
 21
-45.1736
  0
LINE
  8
0
 10
-101.012
 20
-45.1736
 11
-101.125
 21
-45.1064
  0
LINE
  8
0
 10
-101.125
 20
-45.1064
 11
-101.234
 21
-45.0323
  0
LINE
  8
0
 10
-101.234
 20
-45.0323
 11
-101.339
 21
-44.9514
  0
LINE
  8
0
 10
-101.339
 20
-44.9514
 11
-101.438
 21
-44.8642
  0
LINE
  8
0
 10
-101.438
 20
-44.8642
 11
-101.531
 21
-44.7709
  0
LINE
  8
0
 10
-101.531
 20
-44.7709
 11
-101.618
 21
-44.6719
  0
LINE
  8
0
 10
-101.618
 20
-44.6719
 11
-101.699
 21
-44.5677
  0
LINE
  8
0
 10
-101.699
 20
-44.5677
 11
-101.773
 21
-44.4586
  0
LINE
  8
0
 10
-101.773
 20
-44.4586
 11
-101.84
 21
-44.345
  0
LINE
  8
0
 10
-101.84
 20
-44.345
 11
-101.9
 21
-44.2275
  0
LINE
  8
0
 10
-101.9
 20
-44.2275
 11
-101.953
 21
-44.1064
  0
LINE
  8
0
 10
-101.953
 20
-44.1064
 11
-101.997
 21
-43.9823
  0
LINE
  8
0
 10
-101.997
 20
-43.9823
 11
-102.034
 21
-43.8556
  0
LINE
  8
0
 10
-102.034
 20
-43.8556
 11
-102.063
 21
-43.7268
  0
LINE
  8
0
 10
-102.063
 20
-43.7268
 11
-102.083
 21
-43.5965
  0
LINE
  8
0
 10
-102.083
 20
-43.5965
 11
-102.096
 21
-43.4652
  0
LINE
  8
0
 10
-102.096
 20
-43.4652
 11
-102.1
 21
-43.3333
  0
LINE
  8
0
 10
-102.1
 20
-43.3333
 11
-102.096
 21
-43.2015
  0
LINE
  8
0
 10
-102.096
 20
-43.2015
 11
-102.083
 21
-43.0701
  0
LINE
  8
0
 10
-102.083
 20
-43.0701
 11
-102.063
 21
-42.9398
  0
LINE
  8
0
 10
-102.063
 20
-42.9398
 11
-102.034
 21
-42.8111
  0
LINE
  8
0
 10
-102.034
 20
-42.8111
 11
-101.997
 21
-42.6844
  0
LINE
  8
0
 10
-101.997
 20
-42.6844
 11
-101.953
 21
-42.5603
  0
LINE
  8
0
 10
-101.953
 20
-42.5603
 11
-101.9
 21
-42.4392
  0
LINE
  8
0
 10
-101.9
 20
-42.4392
 11
-101.84
 21
-42.3216
  0
LINE
  8
0
 10
-101.84
 20
-42.3216
 11
-101.773
 21
-42.2081
  0
LINE
  8
0
 10
-101.773
 20
-42.2081
 11
-101.699
 21
-42.099
  0
LINE
  8
0
 10
-101.699
 20
-42.099
 11
-101.618
 21
-41.9947
  0
LINE
  8
0
 10
-101.618
 20
-41.9947
 11
-101.531
 21
-41.8958
  0
LINE
  8
0
 10
-101.531
 20
-41.8958
 11
-101.438
 21
-41.8025
  0
LINE
  8
0
 10
-101.438
 20
-41.8025
 11
-101.339
 21
-41.7153
  0
LINE
  8
0
 10
-101.339
 20
-41.7153
 11
-101.234
 21
-41.6344
  0
LINE
  8
0
 10
-101.234
 20
-41.6344
 11
-101.125
 21
-41.5602
  0
LINE
  8
0
 10
-101.125
 20
-41.5602
 11
-101.012
 21
-41.4931
  0
LINE
  8
0
 10
-101.012
 20
-41.4931
 11
-100.894
 21
-41.4332
  0
LINE
  8
0
 10
-100.894
 20
-41.4332
 11
-100.773
 21
-41.3808
  0
LINE
  8
0
 10
-100.773
 20
-41.3808
 11
-100.649
 21
-41.3361
  0
LINE
  8
0
 10
-100.649
 20
-41.3361
 11
-100.522
 21
-41.2993
  0
LINE
  8
0
 10
-100.522
 20
-41.2993
 11
-100.393
 21
-41.2705
  0
LINE
  8
0
 10
-100.393
 20
-41.2705
 11
-100.263
 21
-41.2499
  0
LINE
  8
0
 10
-100.263
 20
-41.2499
 11
-100.132
 21
-41.2375
  0
LINE
  8
0
 10
-100.132
 20
-41.2375
 11
-100
 21
-41.2333
  0
LINE
  8
0
 10
-100
 20
-41.2333
 11
-99.8681
 21
-41.2375
  0
LINE
  8
0
 10
-99.8681
 20
-41.2375
 11
-99.7368
 21
-41.2499
  0
LINE
  8
0
 10
-99.7368
 20
-41.2499
 11
-99.6065
 21
-41.2705
  0
LINE
  8
0
 10
-99.6065
 20
-41.2705
 11
-99.4778
 21
-41.2993
  0
LINE
  8
0
 10
-99.4778
 20
-41.2993
 11
-99.3511
 21
-41.3361
  0
LINE
  8
0
 10
-99.3511
 20
-41.3361
 11
-99.2269
 21
-41.3808
  0
LINE
  8
0
 10
-99.2269
 20
-41.3808
 11
-99.1059
 21
-41.4332
  0
LINE
  8
0
 10
-99.1059
 20
-41.4332
 11
-98.9883
 21
-41.4931
  0
LINE
  8
0
 10
-98.9883
 20
-41.4931
 11
-98.8748
 21
-41.5602
  0
LINE
  8
0
 10
-98.8748
 20
-41.5602
 11
-98.7656
 21
-41.6344
  0
LINE
  8
0
 10
-98.7656
 20
-41.6344
 11
-98.6614
 21
-41.7153
  0
LINE
  8
0
 10
-98.6614
 20
-41.7153
 11
-98.5625
 21
-41.8025
  0
LINE
  8
0
 10
-98.5625
 20
-41.8025
 11
-98.4692
 21
-41.8958
  0
LINE
  8
0
 10
-98.4692
 20
-41.8958
 11
-98.3819
 21
-41.9947
  0
LINE
  8
0
 10
-98.3819
 20
-41.9947
 11
-98.3011
 21
-42.099
  0
LINE
  8
0
 10
-98.3011
 20
-42.099
 11
-98.2269
 21
-42.2081
  0
LINE
  8
0
 10
-98.2269
 20
-42.2081
 11
-98.1598
 21
-42.3216
  0
LINE
  8
0
 10
-98.1598
 20
-42.3216
 11
-98.0999
 21
-42.4392
  0
LINE
  8
0
 10
-98.0999
 20
-42.4392
 11
-98.0475
 21
-42.5603
  0
LINE
  8
0
 10
-98.0475
 20
-42.5603
 11
-98.0028
 21
-42.6844
  0
LINE
  8
0
 10
-98.0028
 20
-42.6844
 11
-97.966
 21
-42.8111
  0
LINE
  8
0
 10
-97.966
 20
-42.8111
 11
-97.9372
 21
-42.9398
  0
LINE
  8
0
 10
-97.9372
 20
-42.9398
 11
-97.9165
 21
-43.0701
  0
LINE
  8
0
 10
-97.9165
 20
-43.0701
 11
-97.9041
 21
-43.2015
  0
LINE
  8
0
 10
-97.9041
 20
-43.2015
 11
-97.9
 21
-43.3333
  0
LINE
  8
0
 10
-97.9
 20
-43.3333
 11
-97.9041
 21
-43.4652
  0
LINE
  8
0
 10
-97.9041
 20
-43.4652
 11
-97.9165
 21
-43.5965
  0
LINE
  8
0
 10
-97.9165
 20
-43.5965
 11
-97.9372
 21
-43.7268
  0
LINE
  8
0
 10
-97.9372
 20
-43.7268
 11
-97.966
 21
-43.8556
  0
LINE
  8
0
 10
-97.966
 20
-43.8556
 11
-98.0028
 21
-43.9823
  0
LINE
  8
0
 10
-98.0028
 20
-43.9823
 11
-98.0475
 21
-44.1064
  0
LINE
  8
0
 10
-98.0475
 20
-44.1064
 11
-98.0999
 21
-44.2275
  0
LINE
  8
0
 10
-98.0999
 20
-44.2275
 11
-98.1598
 21
-44.345
  0
LINE
  8
0
 10
-98.1598
 20
-44.345
 11
-98.2269
 21
-44.4586
  0
LINE
  8
0
 10
-98.2269
 20
-44.4586
 11
-98.3011
 21
-44.5677
  0
LINE
  8
0
 10
-98.3011
 20
-44.5677
 11
-98.3819
 21
-44.6719
  0
LINE
  8
0
 10
-98.3819
 20
-44.6719
 11
-98.4692
 21
-44.7709
  0
LINE
  8
0
 10
-98.4692
 20
-44.7709
 11
-98.5625
 21
-44.8642
  0
LINE
  8
0
 10
-98.5625
 20
-44.8642
 11
-98.6614
 21
-44.9514
  0
LINE
  8
0
 10
-98.6614
 20
-44.9514
 11
-98.7656
 21
-45.0323
  0
LINE
  8
0
 10
-98.7656
 20
-45.0323
 11
-98.8748
 21
-45.1064
  0
LINE
  8
0
 10
-98.8748
 20
-45.1064
 11
-98.9883
 21
-45.1736
  0
LINE
  8
0
 10
-98.9883
 20
-45.1736
 11
-99.1059
 21
-45.2335
  0
LINE
  8
0
 10
-99.1059
 20
-45.2335
 11
-99.2269
 21
-45.2859
  0
LINE
  8
0
 10
-99.2269
 20
-45.2859
 11
-99.3511
 21
-45.3306
  0
LINE
  8
0
 10
-99.3511
 20
-45.3306
 11
-99.4778
 21
-45.3674
  0
LINE
  8
0
 10
-99.4778
 20
-45.3674
 11
-99.6065
 21
-45.3961
  0
LINE
  8
0
 10
-99.6065
 20
-45.3961
 11
-99.7368
 21
-45.4168
  0
LINE
  8
0
 10
-99.7368
 20
-45.4168
 11
-99.8681
 21
-45.4292
  0
LINE
  8
0
 10
-99.8681
 20
-45.4292
 11
-100
 21
-45.4333
  0
LINE
  8
0
 10
-100
 20
-45.4333
 11
-100.132
 21
-45.4292
  0
LINE
  8
0
 10
-135.132
 20
-45.4292
 11
-135.263
 21
-45.4168
  0
LINE
  8
0
 10
-135.263
 20
-45.4168
 11
-135.393
 21
-45.3961
  0
LINE
  8
0
 10
-135.393
 20
-45.3961
 11
-135.522
 21
-45.3674
  0
LINE
  8
0
 10
-135.522
 20
-45.3674
 11
-135.649
 21
-45.3306
  0
LINE
  8
0
 10
-135.649
 20
-45.3306
 11
-135.773
 21
-45.2859
  0
LINE
  8
0
 10
-135.773
 20
-45.2859
 11
-135.894
 21
-45.2335
  0
LINE
  8
0
 10
-135.894
 20
-45.2335
 11
-136.012
 21
-45.1736
  0
LINE
  8
0
 10
-136.012
 20
-45.1736
 11
-136.125
 21
-45.1064
  0
LINE
  8
0
 10
-136.125
 20
-45.1064
 11
-136.234
 21
-45.0323
  0
LINE
  8
0
 10
-136.234
 20
-45.0323
 11
-136.339
 21
-44.9514
  0
LINE
  8
0
 10
-136.339
 20
-44.9514
 11
-136.438
 21
-44.8642
  0
LINE
  8
0
 10
-136.438
 20
-44.8642
 11
-136.531
 21
-44.7709
  0
LINE
  8
0
 10
-136.531
 20
-44.7709
 11
-136.618
 21
-44.6719
  0
LINE
  8
0
 10
-136.618
 20
-44.6719
 11
-136.699
 21
-44.5677
  0
LINE
  8
0
 10
-136.699
 20
-44.5677
 11
-136.773
 21
-44.4586
  0
LINE
  8
0
 10
-136.773
 20
-44.4586
 11
-136.84
 21
-44.345
  0
LINE
  8
0
 10
-136.84
 20
-44.345
 11
-136.9
 21
-44.2275
  0
LINE
  8
0
 10
-136.9
 20
-44.2275
 11
-136.953
 21
-44.1064
  0
LINE
  8
0
 10
-136.953
 20
-44.1064
 11
-136.997
 21
-43.9823
  0
LINE
  8
0
 10
-136.997
 20
-43.9823
 11
-137.034
 21
-43.8556
  0
LINE
  8
0
 10
-137.034
 20
-43.8556
 11
-137.063
 21
-43.7268
  0
LINE
  8
0
 10
-137.063
 20
-43.7268
 11
-137.083
 21
-43.5965
  0
LINE
  8
0
 10
-137.083
 20
-43.5965
 11
-137.096
 21
-43.4652
  0
LINE
  8
0
 10
-137.096
 20
-43.4652
 11
-137.1
 21
-43.3333
  0
LINE
  8
0
 10
-137.1
 20
-43.3333
 11
-137.096
 21
-43.2015
  0
LINE
  8
0
 10
-137.096
 20
-43.2015
 11
-137.083
 21
-43.0701
  0
LINE
  8
0
 10
-137.083
 20
-43.0701
 11
-137.063
 21
-42.9398
  0
LINE
  8
0
 10
-137.063
 20
-42.9398
 11
-137.034
 21
-42.8111
  0
LINE
  8
0
 10
-137.034
 20
-42.8111
 11
-136.997
 21
-42.6844
  0
LINE
  8
0
 10
-136.997
 20
-42.6844
 11
-136.953
 21
-42.5603
  0
LINE
  8
0
 10
-136.953
 20
-42.5603
 11
-136.9
 21
-42.4392
  0
LINE
  8
0
 10
-136.9
 20
-42.4392
 11
-136.84
 21
-42.3216
  0
LINE
  8
0
 10
-136.84
 20
-42.3216
 11
-136.773
 21
-42.2081
  0
LINE
  8
0
 10
-136.773
 20
-42.2081
 11
-136.699
 21
-42.099
  0
LINE
  8
0
 10
-136.699
 20
-42.099
 11
-136.618
 21
-41.9947
  0
LINE
  8
0
 10
-136.618
 20
-41.9947
 11
-136.531
 21
-41.8958
  0
LINE
  8
0
 10
-136.531
 20
-41.8958
 11
-136.438
 21
-41.8025
  0
LINE
  8
0
 10
-136.438
 20
-41.8025
 11
-136.339
 21
-41.7153
  0
LINE
  8
0
 10
-136.339
 20
-41.7153
 11
-136.234
 21
-41.6344
  0
LINE
  8
0
 10
-136.234
 20
-41.6344
 11
-136.125
 21
-41.5602
  0
LINE
  8
0
 10
-136.125
 20
-41.5602
 11
-136.012
 21
-41.4931
  0
LINE
  8
0
 10
-136.012
 20
-41.4931
 11
-135.894
 21
-41.4332
  0
LINE
  8
0
 10
-135.894
 20
-41.4332
 11
-135.773
 21
-41.3808
  0
LINE
  8
0
 10
-135.773
 20
-41.3808
 11
-135.649
 21
-41.3361
  0
LINE
  8
0
 10
-135.649
 20
-41.3361
 11
-135.522
 21
-41.2993
  0
LINE
  8
0
 10
-135.522
 20
-41.2993
 11
-135.393
 21
-41.2705
  0
LINE
  8
0
 10
-135.393
 20
-41.2705
 11
-135.263
 21
-41.2499
  0
LINE
  8
0
 10
-135.263
 20
-41.2499
 11
-135.132
 21
-41.2375
  0
LINE
  8
0
 10
-135.132
 20
-41.2375
 11
-135
 21
-41.2333
  0
LINE
  8
0
 10
-135
 20
-41.2333
 11
-134.868
 21
-41.2375
  0
LINE
  8
0
 10
-134.868
 20
-41.2375
 11
-134.737
 21
-41.2499
  0
LINE
  8
0
 10
-134.737
 20
-41.2499
 11
-134.607
 21
-41.2705
  0
LINE
  8
0
 10
-134.607
 20
-41.2705
 11
-134.478
 21
-41.2993
  0
LINE
  8
0
 10
-134.478
 20
-41.2993
 11
-134.351
 21
-41.3361
  0
LINE
  8
0
 10
-134.351
 20
-41.3361
 11
-134.227
 21
-41.3808
  0
LINE
  8
0
 10
-134.227
 20
-41.3808
 11
-134.106
 21
-41.4332
  0
LINE
  8
0
 10
-134.106
 20
-41.4332
 11
-133.988
 21
-41.4931
  0
LINE
  8
0
 10
-133.988
 20
-41.4931
 11
-133.875
 21
-41.5602
  0
LINE
  8
0
 10
-133.875
 20
-41.5602
 11
-133.766
 21
-41.6344
  0
LINE
  8
0
 10
-133.766
 20
-41.6344
 11
-133.661
 21
-41.7153
  0
LINE
  8
0
 10
-133.661
 20
-41.7153
 11
-133.562
 21
-41.8025
  0
LINE
  8
0
 10
-133.562
 20
-41.8025
 11
-133.469
 21
-41.8958
  0
LINE
  8
0
 10
-133.469
 20
-41.8958
 11
-133.382
 21
-41.9947
  0
LINE
  8
0
 10
-133.382
 20
-41.9947
 11
-133.301
 21
-42.099
  0
LINE
  8
0
 10
-133.301
 20
-42.099
 11
-133.227
 21
-42.2081
  0
LINE
  8
0
 10
-133.227
 20
-42.2081
 11
-133.16
 21
-42.3216
  0
LINE
  8
0
 10
-133.16
 20
-42.3216
 11
-133.1
 21
-42.4392
  0
LINE
  8
0
 10
-133.1
 20
-42.4392
 11
-133.047
 21
-42.5603
  0
LINE
  8
0
 10
-133.047
 20
-42.5603
 11
-133.003
 21
-42.6844
  0
LINE
  8
0
 10
-133.003
 20
-42.6844
 11
-132.966
 21
-42.8111
  0
LINE
  8
0
 10
-132.966
 20
-42.8111
 11
-132.937
 21
-42.9398
  0
LINE
  8
0
 10
-132.937
 20
-42.9398
 11
-132.917
 21
-43.0701
  0
LINE
  8
0
 10
-132.917
 20
-43.0701
 11
-132.904
 21
-43.2015
  0
LINE
  8
0
 10
-132.904
 20
-43.2015
 11
-132.9
 21
-43.3333
  0
LINE
  8
0
 10
-132.9
 20
-43.3333
 11
-132.904
 21
-43.4652
  0
LINE
  8
0
 10
-132.904
 20
-43.4652
 11
-132.917
 21
-43.5965
  0
LINE
  8
0
 10
-132.917
 20
-43.5965
 11
-132.937
 21
-43.7268
  0
LINE
  8
0
 10
-132.937
 20
-43.7268
 11
-132.966
 21
-43.8556
  0
LINE
  8
0
 10
-132.966
 20
-43.8556
 11
-133.003
 21
-43.9823
  0
LINE
  8
0
 10
-133.003
 20
-43.9823
 11
-133.047
 21
-44.1064
  0
LINE
  8
0
 10
-133.047
 20
-44.1064
 11
-133.1
 21
-44.2275
  0
LINE
  8
0
 10
-133.1
 20
-44.2275
 11
-133.16
 21
-44.345
  0
LINE
  8
0
 10
-133.16
 20
-44.345
 11
-133.227
 21
-44.4586
  0
LINE
  8
0
 10
-133.227
 20
-44.4586
 11
-133.301
 21
-44.5677
  0
LINE
  8
0
 10
-133.301
 20
-44.5677
 11
-133.382
 21
-44.6719
  0
LINE
  8
0
 10
-133.382
 20
-44.6719
 11
-133.469
 21
-44.7709
  0
LINE
  8
0
 10
-133.469
 20
-44.7709
 11
-133.562
 21
-44.8642
  0
LINE
  8
0
 10
-133.562
 20
-44.8642
 11
-133.661
 21
-44.9514
  0
LINE
  8
0
 10
-133.661
 20
-44.9514
 11
-133.766
 21
-45.0323
  0
LINE
  8
0
 10
-133.766
 20
-45.0323
 11
-133.875
 21
-45.1064
  0
LINE
  8
0
 10
-133.875
 20
-45.1064
 11
-133.988
 21
-45.1736
  0
LINE
  8
0
 10
-133.988
 20
-45.1736
 11
-134.106
 21
-45.2335
  0
LINE
  8
0
 10
-134.106
 20
-45.2335
 11
-134.227
 21
-45.2859
  0
LINE
  8
0
 10
-134.227
 20
-45.2859
 11
-134.351
 21
-45.3306
  0
LINE
  8
0
 10
-134.351
 20
-45.3306
 11
-134.478
 21
-45.3674
  0
LINE
  8
0
 10
-134.478
 20
-45.3674
 11
-134.607
 21
-45.3961
  0
LINE
  8
0
 10
-134.607
 20
-45.3961
 11
-134.737
 21
-45.4168
  0
LINE
  8
0
 10
-134.737
 20
-45.4168
 11
-134.868
 21
-45.4292
  0
LINE
  8
0
 10
-134.868
 20
-45.4292
 11
-135
 21
-45.4333
  0
LINE
  8
0
 10
-135
 20
-45.4333
 11
-135.132
 21
-45.4292
  0
LINE
  8
0
 10
-231.219
 20
-77.9941
 11
-231.406
 21
-77.9763
  0
LINE
  8
0
 10
-231.406
 20
-77.9763
 11
-231.592
 21
-77.9469
  0
LINE
  8
0
 10
-231.592
 20
-77.9469
 11
-231.776
 21
-77.9057
  0
LINE
  8
0
 10
-231.776
 20
-77.9057
 11
-231.957
 21
-77.8532
  0
LINE
  8
0
 10
-231.957
 20
-77.8532
 11
-232.135
 21
-77.7893
  0
LINE
  8
0
 10
-232.135
 20
-77.7893
 11
-232.308
 21
-77.7145
  0
LINE
  8
0
 10
-232.308
 20
-77.7145
 11
-232.476
 21
-77.6289
  0
LINE
  8
0
 10
-232.476
 20
-77.6289
 11
-232.638
 21
-77.533
  0
LINE
  8
0
 10
-232.638
 20
-77.533
 11
-232.794
 21
-77.427
  0
LINE
  8
0
 10
-232.794
 20
-77.427
 11
-232.943
 21
-77.3115
  0
LINE
  8
0
 10
-232.943
 20
-77.3115
 11
-233.084
 21
-77.1869
  0
LINE
  8
0
 10
-233.084
 20
-77.1869
 11
-233.217
 21
-77.0536
  0
LINE
  8
0
 10
-233.217
 20
-77.0536
 11
-233.342
 21
-76.9123
  0
LINE
  8
0
 10
-233.342
 20
-76.9123
 11
-233.457
 21
-76.7634
  0
LINE
  8
0
 10
-233.457
 20
-76.7634
 11
-233.563
 21
-76.6075
  0
LINE
  8
0
 10
-233.563
 20
-76.6075
 11
-233.659
 21
-76.4453
  0
LINE
  8
0
 10
-233.659
 20
-76.4453
 11
-233.745
 21
-76.2773
  0
LINE
  8
0
 10
-233.745
 20
-76.2773
 11
-233.82
 21
-76.1044
  0
LINE
  8
0
 10
-233.82
 20
-76.1044
 11
-233.883
 21
-75.927
  0
LINE
  8
0
 10
-233.883
 20
-75.927
 11
-233.936
 21
-75.7461
  0
LINE
  8
0
 10
-233.936
 20
-75.7461
 11
-233.977
 21
-75.5621
  0
LINE
  8
0
 10
-233.977
 20
-75.5621
 11
-234.007
 21
-75.376
  0
LINE
  8
0
 10
-234.007
 20
-75.376
 11
-234.024
 21
-75.1884
  0
LINE
  8
0
 10
-234.024
 20
-75.1884
 11
-234.03
 21
-75
  0
LINE
  8
0
 10
-234.03
 20
-75
 11
-234.024
 21
-74.8116
  0
LINE
  8
0
 10
-234.024
 20
-74.8116
 11
-234.007
 21
-74.624
  0
LINE
  8
0
 10
-234.007
 20
-74.624
 11
-233.977
 21
-74.4379
  0
LINE
  8
0
 10
-233.977
 20
-74.4379
 11
-233.936
 21
-74.2539
  0
LINE
  8
0
 10
-233.936
 20
-74.2539
 11
-233.883
 21
-74.073
  0
LINE
  8
0
 10
-233.883
 20
-74.073
 11
-233.82
 21
-73.8956
  0
LINE
  8
0
 10
-233.82
 20
-73.8956
 11
-233.745
 21
-73.7227
  0
LINE
  8
0
 10
-233.745
 20
-73.7227
 11
-233.659
 21
-73.5547
  0
LINE
  8
0
 10
-233.659
 20
-73.5547
 11
-233.563
 21
-73.3925
  0
LINE
  8
0
 10
-233.563
 20
-73.3925
 11
-233.457
 21
-73.2366
  0
LINE
  8
0
 10
-233.457
 20
-73.2366
 11
-233.342
 21
-73.0877
  0
LINE
  8
0
 10
-233.342
 20
-73.0877
 11
-233.217
 21
-72.9464
  0
LINE
  8
0
 10
-233.217
 20
-72.9464
 11
-233.084
 21
-72.8131
  0
LINE
  8
0
 10
-233.084
 20
-72.8131
 11
-232.943
 21
-72.6885
  0
LINE
  8
0
 10
-232.943
 20
-72.6885
 11
-232.794
 21
-72.573
  0
LINE
  8
0
 10
-232.794
 20
-72.573
 11
-232.638
 21
-72.467
  0
LINE
  8
0
 10
-232.638
 20
-72.467
 11
-232.476
 21
-72.3711
  0
LINE
  8
0
 10
-232.476
 20
-72.3711
 11
-232.308
 21
-72.2855
  0
LINE
  8
0
 10
-232.308
 20
-72.2855
 11
-232.135
 21
-72.2107
  0
LINE
  8
0
 10
-232.135
 20
-72.2107
 11
-231.957
 21
-72.1468
  0
LINE
  8
0
 10
-231.957
 20
-72.1468
 11
-231.776
 21
-72.0943
  0
LINE
  8
0
 10
-231.776
 20
-72.0943
 11
-231.592
 21
-72.0531
  0
LINE
  8
0
 10
-231.592
 20
-72.0531
 11
-231.406
 21
-72.0237
  0
LINE
  8
0
 10
-231.406
 20
-72.0237
 11
-231.219
 21
-72.0059
  0
LINE
  8
0
 10
-231.219
 20
-72.0059
 11
-231.03
 21
-72
  0
LINE
  8
0
 10
-231.03
 20
-72
 11
-230.842
 21
-72.0059
  0
LINE
  8
0
 10
-230.842
 20
-72.0059
 11
-230.654
 21
-72.0237
  0
LINE
  8
0
 10
-230.654
 20
-72.0237
 11
-230.468
 21
-72.0531
  0
LINE
  8
0
 10
-230.468
 20
-72.0531
 11
-230.284
 21
-72.0943
  0
LINE
  8
0
 10
-230.284
 20
-72.0943
 11
-230.103
 21
-72.1468
  0
LINE
  8
0
 10
-230.103
 20
-72.1468
 11
-229.926
 21
-72.2107
  0
LINE
  8
0
 10
-229.926
 20
-72.2107
 11
-229.753
 21
-72.2855
  0
LINE
  8
0
 10
-229.753
 20
-72.2855
 11
-229.585
 21
-72.3711
  0
LINE
  8
0
 10
-229.585
 20
-72.3711
 11
-229.423
 21
-72.467
  0
LINE
  8
0
 10
-229.423
 20
-72.467
 11
-229.267
 21
-72.573
  0
LINE
  8
0
 10
-229.267
 20
-72.573
 11
-229.118
 21
-72.6885
  0
LINE
  8
0
 10
-229.118
 20
-72.6885
 11
-228.977
 21
-72.8131
  0
LINE
  8
0
 10
-228.977
 20
-72.8131
 11
-228.843
 21
-72.9464
  0
LINE
  8
0
 10
-228.843
 20
-72.9464
 11
-228.719
 21
-73.0877
  0
LINE
  8
0
 10
-228.719
 20
-73.0877
 11
-228.603
 21
-73.2366
  0
LINE
  8
0
 10
-228.603
 20
-73.2366
 11
-228.497
 21
-73.3925
  0
LINE
  8
0
 10
-228.497
 20
-73.3925
 11
-228.401
 21
-73.5547
  0
LINE
  8
0
 10
-228.401
 20
-73.5547
 11
-228.316
 21
-73.7227
  0
LINE
  8
0
 10
-228.316
 20
-73.7227
 11
-228.241
 21
-73.8956
  0
LINE
  8
0
 10
-228.241
 20
-73.8956
 11
-228.177
 21
-74.073
  0
LINE
  8
0
 10
-228.177
 20
-74.073
 11
-228.125
 21
-74.2539
  0
LINE
  8
0
 10
-228.125
 20
-74.2539
 11
-228.083
 21
-74.4379
  0
LINE
  8
0
 10
-228.083
 20
-74.4379
 11
-228.054
 21
-74.624
  0
LINE
  8
0
 10
-228.054
 20
-74.624
 11
-228.036
 21
-74.8116
  0
LINE
  8
0
 10
-228.036
 20
-74.8116
 11
-228.03
 21
-75
  0
LINE
  8
0
 10
-228.03
 20
-75
 11
-228.036
 21
-75.1884
  0
LINE
  8
0
 10
-228.036
 20
-75.1884
 11
-228.054
 21
-75.376
  0
LINE
  8
0
 10
-228.054
 20
-75.376
 11
-228.083
 21
-75.5621
  0
LINE
  8
0
 10
-228.083
 20
-75.5621
 11
-228.125
 21
-75.7461
  0
LINE
  8
0
 10
-228.125
 20
-75.7461
 11
-228.177
 21
-75.927
  0
LINE
  8
0
 10
-228.177
 20
-75.927
 11
-228.241
 21
-76.1044
  0
LINE
  8
0
 10
-228.241
 20
-76.1044
 11
-228.316
 21
-76.2773
  0
LINE
  8
0
 10
-228.316
 20
-76.2773
 11
-228.401
 21
-76.4453
  0
LINE
  8
0
 10
-228.401
 20
-76.4453
 11
-228.497
 21
-76.6075
  0
LINE
  8
0
 10
-228.497
 20
-76.6075
 11
-228.603
 21
-76.7634
  0
LINE
  8
0
 10
-228.603
 20
-76.7634
 11
-228.719
 21
-76.9123
  0
LINE
  8
0
 10
-228.719
 20
-76.9123
 11
-228.843
 21
-77.0536
  0
LINE
  8
0
 10
-228.843
 20
-77.0536
 11
-228.977
 21
-77.1869
  0
LINE
  8
0
 10
-228.977
 20
-77.1869
 11
-229.118
 21
-77.3115
  0
LINE
  8
0
 10
-229.118
 20
-77.3115
 11
-229.267
 21
-77.427
  0
LINE
  8
0
 10
-229.267
 20
-77.427
 11
-229.423
 21
-77.533
  0
LINE
  8
0
 10
-229.423
 20
-77.533
 11
-229.585
 21
-77.6289
  0
LINE
  8
0
 10
-229.585
 20
-77.6289
 11
-229.753
 21
-77.7145
  0
LINE
  8
0
 10
-229.753
 20
-77.7145
 11
-229.926
 21
-77.7893
  0
LINE
  8
0
 10
-229.926
 20
-77.7893
 11
-230.103
 21
-77.8532
  0
LINE
  8
0
 10
-230.103
 20
-77.8532
 11
-230.284
 21
-77.9057
  0
LINE
  8
0
 10
-230.284
 20
-77.9057
 11
-230.468
 21
-77.9469
  0
LINE
  8
0
 10
-230.468
 20
-77.9469
 11
-230.654
 21
-77.9763
  0
LINE
  8
0
 10
-230.654
 20
-77.9763
 11
-230.842
 21
-77.9941
  0
LINE
  8
0
 10
-230.842
 20
-77.9941
 11
-231.03
 21
-78
  0
LINE
  8
0
 10
-231.03
 20
-78
 11
-231.219
 21
-77.9941
  0
LINE
  8
0
 10
230.842
 20
-77.9941
 11
230.654
 21
-77.9763
  0
LINE
  8
0
 10
230.654
 20
-77.9763
 11
230.468
 21
-77.9469
  0
LINE
  8
0
 10
230.468
 20
-77.9469
 11
230.284
 21
-77.9057
  0
LINE
  8
0
 10
230.284
 20
-77.9057
 11
230.103
 21
-77.8532
  0
LINE
  8
0
 10
230.103
 20
-77.8532
 11
229.926
 21
-77.7893
  0
LINE
  8
0
 10
229.926
 20
-77.7893
 11
229.753
 21
-77.7145
  0
LINE
  8
0
 10
229.753
 20
-77.7145
 11
229.585
 21
-77.6289
  0
LINE
  8
0
 10
229.585
 20
-77.6289
 11
229.423
 21
-77.533
  0
LINE
  8
0
 10
229.423
 20
-77.533
 11
229.267
 21
-77.427
  0
LINE
  8
0
 10
229.267
 20
-77.427
 11
229.118
 21
-77.3115
  0
LINE
  8
0
 10
229.118
 20
-77.3115
 11
228.977
 21
-77.1869
  0
LINE
  8
0
 10
228.977
 20
-77.1869
 11
228.843
 21
-77.0536
  0
LINE
  8
0
 10
228.843
 20
-77.0536
 11
228.719
 21
-76.9123
  0
LINE
  8
0
 10
228.719
 20
-76.9123
 11
228.603
 21
-76.7634
  0
LINE
  8
0
 10
228.603
 20
-76.7634
 11
228.497
 21
-76.6075
  0
LINE
  8
0
 10
228.497
 20
-76.6075
 11
228.401
 21
-76.4453
  0
LINE
  8
0
 10
228.401
 20
-76.4453
 11
228.316
 21
-76.2773
  0
LINE
  8
0
 10
228.316
 20
-76.2773
 11
228.241
 21
-76.1044
  0
LINE
  8
0
 10
228.241
 20
-76.1044
 11
228.177
 21
-75.927
  0
LINE
  8
0
 10
228.177
 20
-75.927
 11
228.125
 21
-75.7461
  0
LINE
  8
0
 10
228.125
 20
-75.7461
 11
228.083
 21
-75.5621
  0
LINE
  8
0
 10
228.083
 20
-75.5621
 11
228.054
 21
-75.376
  0
LINE
  8
0
 10
228.054
 20
-75.376
 11
228.036
 21
-75.1884
  0
LINE
  8
0
 10
228.036
 20
-75.1884
 11
228.03
 21
-75
  0
LINE
  8
0
 10
228.03
 20
-75
 11
228.036
 21
-74.8116
  0
LINE
  8
0
 10
228.036
 20
-74.8116
 11
228.054
 21
-74.624
  0
LINE
  8
0
 10
228.054
 20
-74.624
 11
228.083
 21
-74.4379
  0
LINE
  8
0
 10
228.083
 20
-74.4379
 11
228.125
 21
-74.2539
  0
LINE
  8
0
 10
228.125
 20
-74.2539
 11
228.177
 21
-74.073
  0
LINE
  8
0
 10
228.177
 20
-74.073
 11
228.241
 21
-73.8956
  0
LINE
  8
0
 10
228.241
 20
-73.8956
 11
228.316
 21
-73.7227
  0
LINE
  8
0
 10
228.316
 20
-73.7227
 11
228.401
 21
-73.5547
  0
LINE
  8
0
 10
228.401
 20
-73.5547
 11
228.497
 21
-73.3925
  0
LINE
  8
0
 10
228.497
 20
-73.3925
 11
228.603
 21
-73.2366
  0
LINE
  8
0
 10
228.603
 20
-73.2366
 11
228.719
 21
-73.0877
  0
LINE
  8
0
 10
228.719
 20
-73.0877
 11
228.843
 21
-72.9464
  0
LINE
  8
0
 10
228.843
 20
-72.9464
 11
228.977
 21
-72.8131
  0
LINE
  8
0
 10
228.977
 20
-72.8131
 11
229.118
 21
-72.6885
  0
LINE
  8
0
 10
229.118
 20
-72.6885
 11
229.267
 21
-72.573
  0
LINE
  8
0
 10
229.267
 20
-72.573
 11
229.423
 21
-72.467
  0
LINE
  8
0
 10
229.423
 20
-72.467
 11
229.585
 21
-72.3711
  0
LINE
  8
0
 10
229.585
 20
-72.3711
 11
229.753
 21
-72.2855
  0
LINE
  8
0
 10
229.753
 20
-72.2855
 11
229.926
 21
-72.2107
  0
LINE
  8
0
 10
229.926
 20
-72.2107
 11
230.103
 21
-72.1468
  0
LINE
  8
0
 10
230.103
 20
-72.1468
 11
230.284
 21
-72.0943
  0
LINE
  8
0
 10
230.284
 20
-72.0943
 11
230.468
 21
-72.0531
  0
LINE
  8
0
 10
230.468
 20
-72.0531
 11
230.654
 21
-72.0237
  0
LINE
  8
0
 10
230.654
 20
-72.0237
 11
230.842
 21
-72.0059
  0
LINE
  8
0
 10
230.842
 20
-72.0059
 11
231.03
 21
-72
  0
LINE
  8
0
 10
231.03
 20
-72
 11
231.219
 21
-72.0059
  0
LINE
  8
0
 10
231.219
 20
-72.0059
 11
231.406
 21
-72.0237
  0
LINE
  8
0
 10
231.406
 20
-72.0237
 11
231.592
 21
-72.0531
  0
LINE
  8
0
 10
231.592
 20
-72.0531
 11
231.776
 21
-72.0943
  0
LINE
  8
0
 10
231.776
 20
-72.0943
 11
231.957
 21
-72.1468
  0
LINE
  8
0
 10
231.957
 20
-72.1468
 11
232.135
 21
-72.2107
  0
LINE
  8
0
 10
232.135
 20
-72.2107
 11
232.308
 21
-72.2855
  0
LINE
  8
0
 10
232.308
 20
-72.2855
 11
232.476
 21
-72.3711
  0
LINE
  8
0
 10
232.476
 20
-72.3711
 11
232.638
 21
-72.467
  0
LINE
  8
0
 10
232.638
 20
-72.467
 11
232.794
 21
-72.573
  0
LINE
  8
0
 10
232.794
 20
-72.573
 11
232.943
 21
-72.6885
  0
LINE
  8
0
 10
232.943
 20
-72.6885
 11
233.084
 21
-72.8131
  0
LINE
  8
0
 10
233.084
 20
-72.8131
 11
233.217
 21
-72.9464
  0
LINE
  8
0
 10
233.217
 20
-72.9464
 11
233.342
 21
-73.0877
  0
LINE
  8
0
 10
233.342
 20
-73.0877
 11
233.457
 21
-73.2366
  0
LINE
  8
0
 10
233.457
 20
-73.2366
 11
233.563
 21
-73.3925
  0
LINE
  8
0
 10
233.563
 20
-73.3925
 11
233.659
 21
-73.5547
  0
LINE
  8
0
 10
233.659
 20
-73.5547
 11
233.745
 21
-73.7227
  0
LINE
  8
0
 10
233.745
 20
-73.7227
 11
233.82
 21
-73.8956
  0
LINE
  8
0
 10
233.82
 20
-73.8956
 11
233.883
 21
-74.073
  0
LINE
  8
0
 10
233.883
 20
-74.073
 11
233.936
 21
-74.2539
  0
LINE
  8
0
 10
233.936
 20
-74.2539
 11
233.977
 21
-74.4379
  0
LINE
  8
0
 10
233.977
 20
-74.4379
 11
234.007
 21
-74.624
  0
LINE
  8
0
 10
234.007
 20
-74.624
 11
234.024
 21
-74.8116
  0
LINE
  8
0
 10
234.024
 20
-74.8116
 11
234.03
 21
-75
  0
LINE
  8
0
 10
234.03
 20
-75
 11
234.024
 21
-75.1884
  0
LINE
  8
0
 10
234.024
 20
-75.1884
 11
234.007
 21
-75.376
  0
LINE
  8
0
 10
234.007
 20
-75.376
 11
233.977
 21
-75.5621
  0
LINE
  8
0
 10
233.977
 20
-75.5621
 11
233.936
 21
-75.7461
  0
LINE
  8
0
 10
233.936
 20
-75.7461
 11
233.883
 21
-75.927
  0
LINE
  8
0
 10
233.883
 20
-75.927
 11
233.82
 21
-76.1044
  0
LINE
  8
0
 10
233.82
 20
-76.1044
 11
233.745
 21
-76.2773
  0
LINE
  8
0
 10
233.745
 20
-76.2773
 11
233.659
 21
-76.4453
  0
LINE
  8
0
 10
233.659
 20
-76.4453
 11
233.563
 21
-76.6075
  0
LINE
  8
0
 10
233.563
 20
-76.6075
 11
233.457
 21
-76.7634
  0
LINE
  8
0
 10
233.457
 20
-76.7634
 11
233.342
 21
-76.9123
  0
LINE
  8
0
 10
233.342
 20
-76.9123
 11
233.217
 21
-77.0536
  0
LINE
  8
0
 10
233.217
 20
-77.0536
 11
233.084
 21
-77.1869
  0
LINE
  8
0
 10
233.084
 20
-77.1869
 11
232.943
 21
-77.3115
  0
LINE
  8
0
 10
232.943
 20
-77.3115
 11
232.794
 21
-77.427
  0
LINE
  8
0
 10
232.794
 20
-77.427
 11
232.638
 21
-77.533
  0
LINE
  8
0
 10
232.638
 20
-77.533
 11
232.476
 21
-77.6289
  0
LINE
  8
0
 10
232.476
 20
-77.6289
 11
232.308
 21
-77.7145
  0
LINE
  8
0
 10
232.308
 20
-77.7145
 11
232.135
 21
-77.7893
  0
LINE
  8
0
 10
232.135
 20
-77.7893
 11
231.957
 21
-77.8532
  0
LINE
  8
0
 10
231.957
 20
-77.8532
 11
231.776
 21
-77.9057
  0
LINE
  8
0
 10
231.776
 20
-77.9057
 11
231.592
 21
-77.9469
  0
LINE
  8
0
 10
231.592
 20
-77.9469
 11
231.406
 21
-77.9763
  0
LINE
  8
0
 10
231.406
 20
-77.9763
 11
231.219
 21
-77.9941
  0
LINE
  8
0
 10
231.219
 20
-77.9941
 11
231.03
 21
-78
  0
LINE
  8
0
 10
231.03
 20
-78
 11
230.842
 21
-77.9941
  0
LINE
  8
0
 10
-135.132
 20
-79.0959
 11
-135.263
 21
-79.0834
  0
LINE
  8
0
 10
-135.263
 20
-79.0834
 11
-135.393
 21
-79.0628
  0
LINE
  8
0
 10
-135.393
 20
-79.0628
 11
-135.522
 21
-79.034
  0
LINE
  8
0
 10
-135.522
 20
-79.034
 11
-135.649
 21
-78.9972
  0
LINE
  8
0
 10
-135.649
 20
-78.9972
 11
-135.773
 21
-78.9525
  0
LINE
  8
0
 10
-135.773
 20
-78.9525
 11
-135.894
 21
-78.9001
  0
LINE
  8
0
 10
-135.894
 20
-78.9001
 11
-136.012
 21
-78.8402
  0
LINE
  8
0
 10
-136.012
 20
-78.8402
 11
-136.125
 21
-78.7731
  0
LINE
  8
0
 10
-136.125
 20
-78.7731
 11
-136.234
 21
-78.6989
  0
LINE
  8
0
 10
-136.234
 20
-78.6989
 11
-136.339
 21
-78.6181
  0
LINE
  8
0
 10
-136.339
 20
-78.6181
 11
-136.438
 21
-78.5308
  0
LINE
  8
0
 10
-136.438
 20
-78.5308
 11
-136.531
 21
-78.4375
  0
LINE
  8
0
 10
-136.531
 20
-78.4375
 11
-136.618
 21
-78.3386
  0
LINE
  8
0
 10
-136.618
 20
-78.3386
 11
-136.699
 21
-78.2343
  0
LINE
  8
0
 10
-136.699
 20
-78.2343
 11
-136.773
 21
-78.1252
  0
LINE
  8
0
 10
-136.773
 20
-78.1252
 11
-136.84
 21
-78.0117
  0
LINE
  8
0
 10
-136.84
 20
-78.0117
 11
-136.9
 21
-77.8941
  0
LINE
  8
0
 10
-136.9
 20
-77.8941
 11
-136.953
 21
-77.7731
  0
LINE
  8
0
 10
-136.953
 20
-77.7731
 11
-136.997
 21
-77.6489
  0
LINE
  8
0
 10
-136.997
 20
-77.6489
 11
-137.034
 21
-77.5222
  0
LINE
  8
0
 10
-137.034
 20
-77.5222
 11
-137.063
 21
-77.3935
  0
LINE
  8
0
 10
-137.063
 20
-77.3935
 11
-137.083
 21
-77.2632
  0
LINE
  8
0
 10
-137.083
 20
-77.2632
 11
-137.096
 21
-77.1319
  0
LINE
  8
0
 10
-137.096
 20
-77.1319
 11
-137.1
 21
-77
  0
LINE
  8
0
 10
-137.1
 20
-77
 11
-137.096
 21
-76.8681
  0
LINE
  8
0
 10
-137.096
 20
-76.8681
 11
-137.083
 21
-76.7368
  0
LINE
  8
0
 10
-137.083
 20
-76.7368
 11
-137.063
 21
-76.6065
  0
LINE
  8
0
 10
-137.063
 20
-76.6065
 11
-137.034
 21
-76.4778
  0
LINE
  8
0
 10
-137.034
 20
-76.4778
 11
-136.997
 21
-76.3511
  0
LINE
  8
0
 10
-136.997
 20
-76.3511
 11
-136.953
 21
-76.2269
  0
LINE
  8
0
 10
-136.953
 20
-76.2269
 11
-136.9
 21
-76.1059
  0
LINE
  8
0
 10
-136.9
 20
-76.1059
 11
-136.84
 21
-75.9883
  0
LINE
  8
0
 10
-136.84
 20
-75.9883
 11
-136.773
 21
-75.8748
  0
LINE
  8
0
 10
-136.773
 20
-75.8748
 11
-136.699
 21
-75.7656
  0
LINE
  8
0
 10
-136.699
 20
-75.7656
 11
-136.618
 21
-75.6614
  0
LINE
  8
0
 10
-136.618
 20
-75.6614
 11
-136.531
 21
-75.5625
  0
LINE
  8
0
 10
-136.531
 20
-75.5625
 11
-136.438
 21
-75.4692
  0
LINE
  8
0
 10
-136.438
 20
-75.4692
 11
-136.339
 21
-75.3819
  0
LINE
  8
0
 10
-136.339
 20
-75.3819
 11
-136.234
 21
-75.3011
  0
LINE
  8
0
 10
-136.234
 20
-75.3011
 11
-136.125
 21
-75.2269
  0
LINE
  8
0
 10
-136.125
 20
-75.2269
 11
-136.012
 21
-75.1598
  0
LINE
  8
0
 10
-136.012
 20
-75.1598
 11
-135.894
 21
-75.0999
  0
LINE
  8
0
 10
-135.894
 20
-75.0999
 11
-135.773
 21
-75.0475
  0
LINE
  8
0
 10
-135.773
 20
-75.0475
 11
-135.649
 21
-75.0028
  0
LINE
  8
0
 10
-135.649
 20
-75.0028
 11
-135.522
 21
-74.966
  0
LINE
  8
0
 10
-135.522
 20
-74.966
 11
-135.393
 21
-74.9372
  0
LINE
  8
0
 10
-135.393
 20
-74.9372
 11
-135.263
 21
-74.9165
  0
LINE
  8
0
 10
-135.263
 20
-74.9165
 11
-135.132
 21
-74.9041
  0
LINE
  8
0
 10
-135.132
 20
-74.9041
 11
-135
 21
-74.9
  0
LINE
  8
0
 10
-135
 20
-74.9
 11
-134.868
 21
-74.9041
  0
LINE
  8
0
 10
-134.868
 20
-74.9041
 11
-134.737
 21
-74.9165
  0
LINE
  8
0
 10
-134.737
 20
-74.9165
 11
-134.607
 21
-74.9372
  0
LINE
  8
0
 10
-134.607
 20
-74.9372
 11
-134.478
 21
-74.966
  0
LINE
  8
0
 10
-134.478
 20
-74.966
 11
-134.351
 21
-75.0028
  0
LINE
  8
0
 10
-134.351
 20
-75.0028
 11
-134.227
 21
-75.0475
  0
LINE
  8
0
 10
-134.227
 20
-75.0475
 11
-134.106
 21
-75.0999
  0
LINE
  8
0
 10
-134.106
 20
-75.0999
 11
-133.988
 21
-75.1598
  0
LINE
  8
0
 10
-133.988
 20
-75.1598
 11
-133.875
 21
-75.2269
  0
LINE
  8
0
 10
-133.875
 20
-75.2269
 11
-133.766
 21
-75.3011
  0
LINE
  8
0
 10
-133.766
 20
-75.3011
 11
-133.661
 21
-75.3819
  0
LINE
  8
0
 10
-133.661
 20
-75.3819
 11
-133.562
 21
-75.4692
  0
LINE
  8
0
 10
-133.562
 20
-75.4692
 11
-133.469
 21
-75.5625
  0
LINE
  8
0
 10
-133.469
 20
-75.5625
 11
-133.382
 21
-75.6614
  0
LINE
  8
0
 10
-133.382
 20
-75.6614
 11
-133.301
 21
-75.7656
  0
LINE
  8
0
 10
-133.301
 20
-75.7656
 11
-133.227
 21
-75.8748
  0
LINE
  8
0
 10
-133.227
 20
-75.8748
 11
-133.16
 21
-75.9883
  0
LINE
  8
0
 10
-133.16
 20
-75.9883
 11
-133.1
 21
-76.1059
  0
LINE
  8
0
 10
-133.1
 20
-76.1059
 11
-133.047
 21
-76.2269
  0
LINE
  8
0
 10
-133.047
 20
-76.2269
 11
-133.003
 21
-76.3511
  0
LINE
  8
0
 10
-133.003
 20
-76.3511
 11
-132.966
 21
-76.4778
  0
LINE
  8
0
 10
-132.966
 20
-76.4778
 11
-132.937
 21
-76.6065
  0
LINE
  8
0
 10
-132.937
 20
-76.6065
 11
-132.917
 21
-76.7368
  0
LINE
  8
0
 10
-132.917
 20
-76.7368
 11
-132.904
 21
-76.8681
  0
LINE
  8
0
 10
-132.904
 20
-76.8681
 11
-132.9
 21
-77
  0
LINE
  8
0
 10
-132.9
 20
-77
 11
-132.904
 21
-77.1319
  0
LINE
  8
0
 10
-132.904
 20
-77.1319
 11
-132.917
 21
-77.2632
  0
LINE
  8
0
 10
-132.917
 20
-77.2632
 11
-132.937
 21
-77.3935
  0
LINE
  8
0
 10
-132.937
 20
-77.3935
 11
-132.966
 21
-77.5222
  0
LINE
  8
0
 10
-132.966
 20
-77.5222
 11
-133.003
 21
-77.6489
  0
LINE
  8
0
 10
-133.003
 20
-77.6489
 11
-133.047
 21
-77.7731
  0
LINE
  8
0
 10
-133.047
 20
-77.7731
 11
-133.1
 21
-77.8941
  0
LINE
  8
0
 10
-133.1
 20
-77.8941
 11
-133.16
 21
-78.0117
  0
LINE
  8
0
 10
-133.16
 20
-78.0117
 11
-133.227
 21
-78.1252
  0
LINE
  8
0
 10
-133.227
 20
-78.1252
 11
-133.301
 21
-78.2343
  0
LINE
  8
0
 10
-133.301
 20
-78.2343
 11
-133.382
 21
-78.3386
  0
LINE
  8
0
 10
-133.382
 20
-78.3386
 11
-133.469
 21
-78.4375
  0
LINE
  8
0
 10
-133.469
 20
-78.4375
 11
-133.562
 21
-78.5308
  0
LINE
  8
0
 10
-133.562
 20
-78.5308
 11
-133.661
 21
-78.6181
  0
LINE
  8
0
 10
-133.661
 20
-78.6181
 11
-133.766
 21
-78.6989
  0
LINE
  8
0
 10
-133.766
 20
-78.6989
 11
-133.875
 21
-78.7731
  0
LINE
  8
0
 10
-133.875
 20
-78.7731
 11
-133.988
 21
-78.8402
  0
LINE
  8
0
 10
-133.988
 20
-78.8402
 11
-134.106
 21
-78.9001
  0
LINE
  8
0
 10
-134.106
 20
-78.9001
 11
-134.227
 21
-78.9525
  0
LINE
  8
0
 10
-134.227
 20
-78.9525
 11
-134.351
 21
-78.9972
  0
LINE
  8
0
 10
-134.351
 20
-78.9972
 11
-134.478
 21
-79.034
  0
LINE
  8
0
 10
-134.478
 20
-79.034
 11
-134.607
 21
-79.0628
  0
LINE
  8
0
 10
-134.607
 20
-79.0628
 11
-134.737
 21
-79.0834
  0
LINE
  8
0
 10
-134.737
 20
-79.0834
 11
-134.868
 21
-79.0959
  0
LINE
  8
0
 10
-134.868
 20
-79.0959
 11
-135
 21
-79.1
  0
LINE
  8
0
 10
-135
 20
-79.1
 11
-135.132
 21
-79.0959
  0
LINE
  8
0
 10
134.868
 20
-79.0959
 11
134.737
 21
-79.0834
  0
LINE
  8
0
 10
134.737
 20
-79.0834
 11
134.607
 21
-79.0628
  0
LINE
  8
0
 10
134.607
 20
-79.0628
 11
134.478
 21
-79.034
  0
LINE
  8
0
 10
134.478
 20
-79.034
 11
134.351
 21
-78.9972
  0
LINE
  8
0
 10
134.351
 20
-78.9972
 11
134.227
 21
-78.9525
  0
LINE
  8
0
 10
134.227
 20
-78.9525
 11
134.106
 21
-78.9001
  0
LINE
  8
0
 10
134.106
 20
-78.9001
 11
133.988
 21
-78.8402
  0
LINE
  8
0
 10
133.988
 20
-78.8402
 11
133.875
 21
-78.7731
  0
LINE
  8
0
 10
133.875
 20
-78.7731
 11
133.766
 21
-78.6989
  0
LINE
  8
0
 10
133.766
 20
-78.6989
 11
133.661
 21
-78.6181
  0
LINE
  8
0
 10
133.661
 20
-78.6181
 11
133.562
 21
-78.5308
  0
LINE
  8
0
 10
133.562
 20
-78.5308
 11
133.469
 21
-78.4375
  0
LINE
  8
0
 10
133.469
 20
-78.4375
 11
133.382
 21
-78.3386
  0
LINE
  8
0
 10
133.382
 20
-78.3386
 11
133.301
 21
-78.2343
  0
LINE
  8
0
 10
133.301
 20
-78.2343
 11
133.227
 21
-78.1252
  0
LINE
  8
0
 10
133.227
 20
-78.1252
 11
133.16
 21
-78.0117
  0
LINE
  8
0
 10
133.16
 20
-78.0117
 11
133.1
 21
-77.8941
  0
LINE
  8
0
 10
133.1
 20
-77.8941
 11
133.047
 21
-77.7731
  0
LINE
  8
0
 10
133.047
 20
-77.7731
 11
133.003
 21
-77.6489
  0
LINE
  8
0
 10
133.003
 20
-77.6489
 11
132.966
 21
-77.5222
  0
LINE
  8
0
 10
132.966
 20
-77.5222
 11
132.937
 21
-77.3935
  0
LINE
  8
0
 10
132.937
 20
-77.3935
 11
132.917
 21
-77.2632
  0
LINE
  8
0
 10
132.917
 20
-77.2632
 11
132.904
 21
-77.1319
  0
LINE
  8
0
 10
132.904
 20
-77.1319
 11
132.9
 21
-77
  0
LINE
  8
0
 10
132.9
 20
-77
 11
132.904
 21
-76.8681
  0
LINE
  8
0
 10
132.904
 20
-76.8681
 11
132.917
 21
-76.7368
  0
LINE
  8
0
 10
132.917
 20
-76.7368
 11
132.937
 21
-76.6065
  0
LINE
  8
0
 10
132.937
 20
-76.6065
 11
132.966
 21
-76.4778
  0
LINE
  8
0
 10
132.966
 20
-76.4778
 11
133.003
 21
-76.3511
  0
LINE
  8
0
 10
133.003
 20
-76.3511
 11
133.047
 21
-76.2269
  0
LINE
  8
0
 10
133.047
 20
-76.2269
 11
133.1
 21
-76.1059
  0
LINE
  8
0
 10
133.1
 20
-76.1059
 11
133.16
 21
-75.9883
  0
LINE
  8
0
 10
133.16
 20
-75.9883
 11
133.227
 21
-75.8748
  0
LINE
  8
0
 10
133.227
 20
-75.8748
 11
133.301
 21
-75.7656
  0
LINE
  8
0
 10
133.301
 20
-75.7656
 11
133.382
 21
-75.6614
  0
LINE
  8
0
 10
133.382
 20
-75.6614
 11
133.469
 21
-75.5625
  0
LINE
  8
0
 10
133.469
 20
-75.5625
 11
133.562
 21
-75.4692
  0
LINE
  8
0
 10
133.562
 20
-75.4692
 11
133.661
 21
-75.3819
  0
LINE
  8
0
 10
133.661
 20
-75.3819
 11
133.766
 21
-75.3011
  0
LINE
  8
0
 10
133.766
 20
-75.3011
 11
133.875
 21
-75.2269
  0
LINE
  8
0
 10
133.875
 20
-75.2269
 11
133.988
 21
-75.1598
  0
LINE
  8
0
 10
133.988
 20
-75.1598
 11
134.106
 21
-75.0999
  0
LINE
  8
0
 10
134.106
 20
-75.0999
 11
134.227
 21
-75.0475
  0
LINE
  8
0
 10
134.227
 20
-75.0475
 11
134.351
 21
-75.0028
  0
LINE
  8
0
 10
134.351
 20
-75.0028
 11
134.478
 21
-74.966
  0
LINE
  8
0
 10
134.478
 20
-74.966
 11
134.607
 21
-74.9372
  0
LINE
  8
0
 10
134.607
 20
-74.9372
 11
134.737
 21
-74.9165
  0
LINE
  8
0
 10
134.737
 20
-74.9165
 11
134.868
 21
-74.9041
  0
LINE
  8
0
 10
134.868
 20
-74.9041
 11
135
 21
-74.9
  0
LINE
  8
0
 10
135
 20
-74.9
 11
135.132
 21
-74.9041
  0
LINE
  8
0
 10
135.132
 20
-74.9041
 11
135.263
 21
-74.9165
  0
LINE
  8
0
 10
135.263
 20
-74.9165
 11
135.393
 21
-74.9372
  0
LINE
  8
0
 10
135.393
 20
-74.9372
 11
135.522
 21
-74.966
  0
LINE
  8
0
 10
135.522
 20
-74.966
 11
135.649
 21
-75.0028
  0
LINE
  8
0
 10
135.649
 20
-75.0028
 11
135.773
 21
-75.0475
  0
LINE
  8
0
 10
135.773
 20
-75.0475
 11
135.894
 21
-75.0999
  0
LINE
  8
0
 10
135.894
 20
-75.0999
 11
136.012
 21
-75.1598
  0
LINE
  8
0
 10
136.012
 20
-75.1598
 11
136.125
 21
-75.2269
  0
LINE
  8
0
 10
136.125
 20
-75.2269
 11
136.234
 21
-75.3011
  0
LINE
  8
0
 10
136.234
 20
-75.3011
 11
136.339
 21
-75.3819
  0
LINE
  8
0
 10
136.339
 20
-75.3819
 11
136.438
 21
-75.4692
  0
LINE
  8
0
 10
136.438
 20
-75.4692
 11
136.531
 21
-75.5625
  0
LINE
  8
0
 10
136.531
 20
-75.5625
 11
136.618
 21
-75.6614
  0
LINE
  8
0
 10
136.618
 20
-75.6614
 11
136.699
 21
-75.7656
  0
LINE
  8
0
 10
136.699
 20
-75.7656
 11
136.773
 21
-75.8748
  0
LINE
  8
0
 10
136.773
 20
-75.8748
 11
136.84
 21
-75.9883
  0
LINE
  8
0
 10
136.84
 20
-75.9883
 11
136.9
 21
-76.1059
  0
LINE
  8
0
 10
136.9
 20
-76.1059
 11
136.953
 21
-76.2269
  0
LINE
  8
0
 10
136.953
 20
-76.2269
 11
136.997
 21
-76.3511
  0
LINE
  8
0
 10
136.997
 20
-76.3511
 11
137.034
 21
-76.4778
  0
LINE
  8
0
 10
137.034
 20
-76.4778
 11
137.063
 21
-76.6065
  0
LINE
  8
0
 10
137.063
 20
-76.6065
 11
137.083
 21
-76.7368
  0
LINE
  8
0
 10
137.083
 20
-76.7368
 11
137.096
 21
-76.8681
  0
LINE
  8
0
 10
137.096
 20
-76.8681
 11
137.1
 21
-77
  0
LINE
  8
0
 10
137.1
 20
-77
 11
137.096
 21
-77.1319
  0
LINE
  8
0
 10
137.096
 20
-77.1319
 11
137.083
 21
-77.2632
  0
LINE
  8
0
 10
137.083
 20
-77.2632
 11
137.063
 21
-77.3935
  0
LINE
  8
0
 10
137.063
 20
-77.3935
 11
137.034
 21
-77.5222
  0
LINE
  8
0
 10
137.034
 20
-77.5222
 11
136.997
 21
-77.6489
  0
LINE
  8
0
 10
136.997
 20
-77.6489
 11
136.953
 21
-77.7731
  0
LINE
  8
0
 10
136.953
 20
-77.7731
 11
136.9
 21
-77.8941
  0
LINE
  8
0
 10
136.9
 20
-77.8941
 11
136.84
 21
-78.0117
  0
LINE
  8
0
 10
136.84
 20
-78.0117
 11
136.773
 21
-78.1252
  0
LINE
  8
0
 10
136.773
 20
-78.1252
 11
136.699
 21
-78.2343
  0
LINE
  8
0
 10
136.699
 20
-78.2343
 11
136.618
 21
-78.3386
  0
LINE
  8
0
 10
136.618
 20
-78.3386
 11
136.531
 21
-78.4375
  0
LINE
  8
0
 10
136.531
 20
-78.4375
 11
136.438
 21
-78.5308
  0
LINE
  8
0
 10
136.438
 20
-78.5308
 11
136.339
 21
-78.6181
  0
LINE
  8
0
 10
136.339
 20
-78.6181
 11
136.234
 21
-78.6989
  0
LINE
  8
0
 10
136.234
 20
-78.6989
 11
136.125
 21
-78.7731
  0
LINE
  8
0
 10
136.125
 20
-78.7731
 11
136.012
 21
-78.8402
  0
LINE
  8
0
 10
136.012
 20
-78.8402
 11
135.894
 21
-78.9001
  0
LINE
  8
0
 10
135.894
 20
-78.9001
 11
135.773
 21
-78.9525
  0
LINE
  8
0
 10
135.773
 20
-78.9525
 11
135.649
 21
-78.9972
  0
LINE
  8
0
 10
135.649
 20
-78.9972
 11
135.522
 21
-79.034
  0
LINE
  8
0
 10
135.522
 20
-79.034
 11
135.393
 21
-79.0628
  0
LINE
  8
0
 10
135.393
 20
-79.0628
 11
135.263
 21
-79.0834
  0
LINE
  8
0
 10
135.263
 20
-79.0834
 11
135.132
 21
-79.0959
  0
LINE
  8
0
 10
135.132
 20
-79.0959
 11
135
 21
-79.1
  0
LINE
  8
0
 10
135
 20
-79.1
 11
134.868
 21
-79.0959
  0
LINE
  8
0
 10
99.8681
 20
-79.0959
 11
99.7368
 21
-79.0834
  0
LINE
  8
0
 10
99.7368
 20
-79.0834
 11
99.6065
 21
-79.0628
  0
LINE
  8
0
 10
99.6065
 20
-79.0628
 11
99.4778
 21
-79.034
  0
LINE
  8
0
 10
99.4778
 20
-79.034
 11
99.3511
 21
-78.9972
  0
LINE
  8
0
 10
99.3511
 20
-78.9972
 11
99.2269
 21
-78.9525
  0
LINE
  8
0
 10
99.2269
 20
-78.9525
 11
99.1059
 21
-78.9001
  0
LINE
  8
0
 10
99.1059
 20
-78.9001
 11
98.9883
 21
-78.8402
  0
LINE
  8
0
 10
98.9883
 20
-78.8402
 11
98.8748
 21
-78.7731
  0
LINE
  8
0
 10
98.8748
 20
-78.7731
 11
98.7656
 21
-78.6989
  0
LINE
  8
0
 10
98.7656
 20
-78.6989
 11
98.6614
 21
-78.6181
  0
LINE
  8
0
 10
98.6614
 20
-78.6181
 11
98.5625
 21
-78.5308
  0
LINE
  8
0
 10
98.5625
 20
-78.5308
 11
98.4692
 21
-78.4375
  0
LINE
  8
0
 10
98.4692
 20
-78.4375
 11
98.3819
 21
-78.3386
  0
LINE
  8
0
 10
98.3819
 20
-78.3386
 11
98.3011
 21
-78.2343
  0
LINE
  8
0
 10
98.3011
 20
-78.2343
 11
98.2269
 21
-78.1252
  0
LINE
  8
0
 10
98.2269
 20
-78.1252
 11
98.1598
 21
-78.0117
  0
LINE
  8
0
 10
98.1598
 20
-78.0117
 11
98.0999
 21
-77.8941
  0
LINE
  8
0
 10
98.0999
 20
-77.8941
 11
98.0475
 21
-77.7731
  0
LINE
  8
0
 10
98.0475
 20
-77.7731
 11
98.0028
 21
-77.6489
  0
LINE
  8
0
 10
98.0028
 20
-77.6489
 11
97.966
 21
-77.5222
  0
LINE
  8
0
 10
97.966
 20
-77.5222
 11
97.9372
 21
-77.3935
  0
LINE
  8
0
 10
97.9372
 20
-77.3935
 11
97.9165
 21
-77.2632
  0
LINE
  8
0
 10
97.9165
 20
-77.2632
 11
97.9041
 21
-77.1319
  0
LINE
  8
0
 10
97.9041
 20
-77.1319
 11
97.9
 21
-77
  0
LINE
  8
0
 10
97.9
 20
-77
 11
97.9041
 21
-76.8681
  0
LINE
  8
0
 10
97.9041
 20
-76.8681
 11
97.9165
 21
-76.7368
  0
LINE
  8
0
 10
97.9165
 20
-76.7368
 11
97.9372
 21
-76.6065
  0
LINE
  8
0
 10
97.9372
 20
-76.6065
 11
97.966
 21
-76.4778
  0
LINE
  8
0
 10
97.966
 20
-76.4778
 11
98.0028
 21
-76.3511
  0
LINE
  8
0
 10
98.0028
 20
-76.3511
 11
98.0475
 21
-76.2269
  0
LINE
  8
0
 10
98.0475
 20
-76.2269
 11
98.0999
 21
-76.1059
  0
LINE
  8
0
 10
98.0999
 20
-76.1059
 11
98.1598
 21
-75.9883
  0
LINE
  8
0
 10
98.1598
 20
-75.9883
 11
98.2269
 21
-75.8748
  0
LINE
  8
0
 10
98.2269
 20
-75.8748
 11
98.3011
 21
-75.7656
  0
LINE
  8
0
 10
98.3011
 20
-75.7656
 11
98.3819
 21
-75.6614
  0
LINE
  8
0
 10
98.3819
 20
-75.6614
 11
98.4692
 21
-75.5625
  0
LINE
  8
0
 10
98.4692
 20
-75.5625
 11
98.5625
 21
-75.4692
  0
LINE
  8
0
 10
98.5625
 20
-75.4692
 11
98.6614
 21
-75.3819
  0
LINE
  8
0
 10
98.6614
 20
-75.3819
 11
98.7656
 21
-75.3011
  0
LINE
  8
0
 10
98.7656
 20
-75.3011
 11
98.8748
 21
-75.2269
  0
LINE
  8
0
 10
98.8748
 20
-75.2269
 11
98.9883
 21
-75.1598
  0
LINE
  8
0
 10
98.9883
 20
-75.1598
 11
99.1059
 21
-75.0999
  0
LINE
  8
0
 10
99.1059
 20
-75.0999
 11
99.2269
 21
-75.0475
  0
LINE
  8
0
 10
99.2269
 20
-75.0475
 11
99.3511
 21
-75.0028
  0
LINE
  8
0
 10
99.3511
 20
-75.0028
 11
99.4778
 21
-74.966
  0
LINE
  8
0
 10
99.4778
 20
-74.966
 11
99.6065
 21
-74.9372
  0
LINE
  8
0
 10
99.6065
 20
-74.9372
 11
99.7368
 21
-74.9165
  0
LINE
  8
0
 10
99.7368
 20
-74.9165
 11
99.8681
 21
-74.9041
  0
LINE
  8
0
 10
99.8681
 20
-74.9041
 11
100
 21
-74.9
  0
LINE
  8
0
 10
100
 20
-74.9
 11
100.132
 21
-74.9041
  0
LINE
  8
0
 10
100.132
 20
-74.9041
 11
100.263
 21
-74.9165
  0
LINE
  8
0
 10
100.263
 20
-74.9165
 11
100.393
 21
-74.9372
  0
LINE
  8
0
 10
100.393
 20
-74.9372
 11
100.522
 21
-74.966
  0
LINE
  8
0
 10
100.522
 20
-74.966
 11
100.649
 21
-75.0028
  0
LINE
  8
0
 10
100.649
 20
-75.0028
 11
100.773
 21
-75.0475
  0
LINE
  8
0
 10
100.773
 20
-75.0475
 11
100.894
 21
-75.0999
  0
LINE
  8
0
 10
100.894
 20
-75.0999
 11
101.012
 21
-75.1598
  0
LINE
  8
0
 10
101.012
 20
-75.1598
 11
101.125
 21
-75.2269
  0
LINE
  8
0
 10
101.125
 20
-75.2269
 11
101.234
 21
-75.3011
  0
LINE
  8
0
 10
101.234
 20
-75.3011
 11
101.339
 21
-75.3819
  0
LINE
  8
0
 10
101.339
 20
-75.3819
 11
101.438
 21
-75.4692
  0
LINE
  8
0
 10
101.438
 20
-75.4692
 11
101.531
 21
-75.5625
  0
LINE
  8
0
 10
101.531
 20
-75.5625
 11
101.618
 21
-75.6614
  0
LINE
  8
0
 10
101.618
 20
-75.6614
 11
101.699
 21
-75.7656
  0
LINE
  8
0
 10
101.699
 20
-75.7656
 11
101.773
 21
-75.8748
  0
LINE
  8
0
 10
101.773
 20
-75.8748
 11
101.84
 21
-75.9883
  0
LINE
  8
0
 10
101.84
 20
-75.9883
 11
101.9
 21
-76.1059
  0
LINE
  8
0
 10
101.9
 20
-76.1059
 11
101.953
 21
-76.2269
  0
LINE
  8
0
 10
101.953
 20
-76.2269
 11
101.997
 21
-76.3511
  0
LINE
  8
0
 10
101.997
 20
-76.3511
 11
102.034
 21
-76.4778
  0
LINE
  8
0
 10
102.034
 20
-76.4778
 11
102.063
 21
-76.6065
  0
LINE
  8
0
 10
102.063
 20
-76.6065
 11
102.083
 21
-76.7368
  0
LINE
  8
0
 10
102.083
 20
-76.7368
 11
102.096
 21
-76.8681
  0
LINE
  8
0
 10
102.096
 20
-76.8681
 11
102.1
 21
-77
  0
LINE
  8
0
 10
102.1
 20
-77
 11
102.096
 21
-77.1319
  0
LINE
  8
0
 10
102.096
 20
-77.1319
 11
102.083
 21
-77.2632
  0
LINE
  8
0
 10
102.083
 20
-77.2632
 11
102.063
 21
-77.3935
  0
LINE
  8
0
 10
102.063
 20
-77.3935
 11
102.034
 21
-77.5222
  0
LINE
  8
0
 10
102.034
 20
-77.5222
 11
101.997
 21
-77.6489
  0
LINE
  8
0
 10
101.997
 20
-77.6489
 11
101.953
 21
-77.7731
  0
LINE
  8
0
 10
101.953
 20
-77.7731
 11
101.9
 21
-77.8941
  0
LINE
  8
0
 10
101.9
 20
-77.8941
 11
101.84
 21
-78.0117
  0
LINE
  8
0
 10
101.84
 20
-78.0117
 11
101.773
 21
-78.1252
  0
LINE
  8
0
 10
101.773
 20
-78.1252
 11
101.699
 21
-78.2343
  0
LINE
  8
0
 10
101.699
 20
-78.2343
 11
101.618
 21
-78.3386
  0
LINE
  8
0
 10
101.618
 20
-78.3386
 11
101.531
 21
-78.4375
  0
LINE
  8
0
 10
101.531
 20
-78.4375
 11
101.438
 21
-78.5308
  0
LINE
  8
0
 10
101.438
 20
-78.5308
 11
101.339
 21
-78.6181
  0
LINE
  8
0
 10
101.339
 20
-78.6181
 11
101.234
 21
-78.6989
  0
LINE
  8
0
 10
101.234
 20
-78.6989
 11
101.125
 21
-78.7731
  0
LINE
  8
0
 10
101.125
 20
-78.7731
 11
101.012
 21
-78.8402
  0
LINE
  8
0
 10
101.012
 20
-78.8402
 11
100.894
 21
-78.9001
  0
LINE
  8
0
 10
100.894
 20
-78.9001
 11
100.773
 21
-78.9525
  0
LINE
  8
0
 10
100.773
 20
-78.9525
 11
100.649
 21
-78.9972
  0
LINE
  8
0
 10
100.649
 20
-78.9972
 11
100.522
 21
-79.034
  0
LINE
  8
0
 10
100.522
 20
-79.034
 11
100.393
 21
-79.0628
  0
LINE
  8
0
 10
100.393
 20
-79.0628
 11
100.263
 21
-79.0834
  0
LINE
  8
0
 10
100.263
 20
-79.0834
 11
100.132
 21
-79.0959
  0
LINE
  8
0
 10
100.132
 20
-79.0959
 11
100
 21
-79.1
  0
LINE
  8
0
 10
100
 20
-79.1
 11
99.8681
 21
-79.0959
  0
LINE
  8
0
 10
-100.132
 20
-79.0959
 11
-100.263
 21
-79.0834
  0
LINE
  8
0
 10
-100.263
 20
-79.0834
 11
-100.393
 21
-79.0628
  0
LINE
  8
0
 10
-100.393
 20
-79.0628
 11
-100.522
 21
-79.034
  0
LINE
  8
0
 10
-100.522
 20
-79.034
 11
-100.649
 21
-78.9972
  0
LINE
  8
0
 10
-100.649
 20
-78.9972
 11
-100.773
 21
-78.9525
  0
LINE
  8
0
 10
-100.773
 20
-78.9525
 11
-100.894
 21
-78.9001
  0
LINE
  8
0
 10
-100.894
 20
-78.9001
 11
-101.012
 21
-78.8402
  0
LINE
  8
0
 10
-101.012
 20
-78.8402
 11
-101.125
 21
-78.7731
  0
LINE
  8
0
 10
-101.125
 20
-78.7731
 11
-101.234
 21
-78.6989
  0
LINE
  8
0
 10
-101.234
 20
-78.6989
 11
-101.339
 21
-78.6181
  0
LINE
  8
0
 10
-101.339
 20
-78.6181
 11
-101.438
 21
-78.5308
  0
LINE
  8
0
 10
-101.438
 20
-78.5308
 11
-101.531
 21
-78.4375
  0
LINE
  8
0
 10
-101.531
 20
-78.4375
 11
-101.618
 21
-78.3386
  0
LINE
  8
0
 10
-101.618
 20
-78.3386
 11
-101.699
 21
-78.2343
  0
LINE
  8
0
 10
-101.699
 20
-78.2343
 11
-101.773
 21
-78.1252
  0
LINE
  8
0
 10
-101.773
 20
-78.1252
 11
-101.84
 21
-78.0117
  0
LINE
  8
0
 10
-101.84
 20
-78.0117
 11
-101.9
 21
-77.8941
  0
LINE
  8
0
 10
-101.9
 20
-77.8941
 11
-101.953
 21
-77.7731
  0
LINE
  8
0
 10
-101.953
 20
-77.7731
 11
-101.997
 21
-77.6489
  0
LINE
  8
0
 10
-101.997
 20
-77.6489
 11
-102.034
 21
-77.5222
  0
LINE
  8
0
 10
-102.034
 20
-77.5222
 11
-102.063
 21
-77.3935
  0
LINE
  8
0
 10
-102.063
 20
-77.3935
 11
-102.083
 21
-77.2632
  0
LINE
  8
0
 10
-102.083
 20
-77.2632
 11
-102.096
 21
-77.1319
  0
LINE
  8
0
 10
-102.096
 20
-77.1319
 11
-102.1
 21
-77
  0
LINE
  8
0
 10
-102.1
 20
-77
 11
-102.096
 21
-76.8681
  0
LINE
  8
0
 10
-102.096
 20
-76.8681
 11
-102.083
 21
-76.7368
  0
LINE
  8
0
 10
-102.083
 20
-76.7368
 11
-102.063
 21
-76.6065
  0
LINE
  8
0
 10
-102.063
 20
-76.6065
 11
-102.034
 21
-76.4778
  0
LINE
  8
0
 10
-102.034
 20
-76.4778
 11
-101.997
 21
-76.3511
  0
LINE
  8
0
 10
-101.997
 20
-76.3511
 11
-101.953
 21
-76.2269
  0
LINE
  8
0
 10
-101.953
 20
-76.2269
 11
-101.9
 21
-76.1059
  0
LINE
  8
0
 10
-101.9
 20
-76.1059
 11
-101.84
 21
-75.9883
  0
LINE
  8
0
 10
-101.84
 20
-75.9883
 11
-101.773
 21
-75.8748
  0
LINE
  8
0
 10
-101.773
 20
-75.8748
 11
-101.699
 21
-75.7656
  0
LINE
  8
0
 10
-101.699
 20
-75.7656
 11
-101.618
 21
-75.6614
  0
LINE
  8
0
 10
-101.618
 20
-75.6614
 11
-101.531
 21
-75.5625
  0
LINE
  8
0
 10
-101.531
 20
-75.5625
 11
-101.438
 21
-75.4692
  0
LINE
  8
0
 10
-101.438
 20
-75.4692
 11
-101.339
 21
-75.3819
  0
LINE
  8
0
 10
-101.339
 20
-75.3819
 11
-101.234
 21
-75.3011
  0
LINE
  8
0
 10
-101.234
 20
-75.3011
 11
-101.125
 21
-75.2269
  0
LINE
  8
0
 10
-101.125
 20
-75.2269
 11
-101.012
 21
-75.1598
  0
LINE
  8
0
 10
-101.012
 20
-75.1598
 11
-100.894
 21
-75.0999
  0
LINE
  8
0
 10
-100.894
 20
-75.0999
 11
-100.773
 21
-75.0475
  0
LINE
  8
0
 10
-100.773
 20
-75.0475
 11
-100.649
 21
-75.0028
  0
LINE
  8
0
 10
-100.649
 20
-75.0028
 11
-100.522
 21
-74.966
  0
LINE
  8
0
 10
-100.522
 20
-74.966
 11
-100.393
 21
-74.9372
  0
LINE
  8
0
 10
-100.393
 20
-74.9372
 11
-100.263
 21
-74.9165
  0
LINE
  8
0
 10
-100.263
 20
-74.9165
 11
-100.132
 21
-74.9041
  0
LINE
  8
0
 10
-100.132
 20
-74.9041
 11
-100
 21
-74.9
  0
LINE
  8
0
 10
-100
 20
-74.9
 11
-99.8681
 21
-74.9041
  0
LINE
  8
0
 10
-99.8681
 20
-74.9041
 11
-99.7368
 21
-74.9165
  0
LINE
  8
0
 10
-99.7368
 20
-74.9165
 11
-99.6065
 21
-74.9372
  0
LINE
  8
0
 10
-99.6065
 20
-74.9372
 11
-99.4778
 21
-74.966
  0
LINE
  8
0
 10
-99.4778
 20
-74.966
 11
-99.3511
 21
-75.0028
  0
LINE
  8
0
 10
-99.3511
 20
-75.0028
 11
-99.2269
 21
-75.0475
  0
LINE
  8
0
 10
-99.2269
 20
-75.0475
 11
-99.1059
 21
-75.0999
  0
LINE
  8
0
 10
-99.1059
 20
-75.0999
 11
-98.9883
 21
-75.1598
  0
LINE
  8
0
 10
-98.9883
 20
-75.1598
 11
-98.8748
 21
-75.2269
  0
LINE
  8
0
 10
-98.8748
 20
-75.2269
 11
-98.7656
 21
-75.3011
  0
LINE
  8
0
 10
-98.7656
 20
-75.3011
 11
-98.6614
 21
-75.3819
  0
LINE
  8
0
 10
-98.6614
 20
-75.3819
 11
-98.5625
 21
-75.4692
  0
LINE
  8
0
 10
-98.5625
 20
-75.4692
 11
-98.4692
 21
-75.5625
  0
LINE
  8
0
 10
-98.4692
 20
-75.5625
 11
-98.3819
 21
-75.6614
  0
LINE
  8
0
 10
-98.3819
 20
-75.6614
 11
-98.3011
 21
-75.7656
  0
LINE
  8
0
 10
-98.3011
 20
-75.7656
 11
-98.2269
 21
-75.8748
  0
LINE
  8
0
 10
-98.2269
 20
-75.8748
 11
-98.1598
 21
-75.9883
  0
LINE
  8
0
 10
-98.1598
 20
-75.9883
 11
-98.0999
 21
-76.1059
  0
LINE
  8
0
 10
-98.0999
 20
-76.1059
 11
-98.0475
 21
-76.2269
  0
LINE
  8
0
 10
-98.0475
 20
-76.2269
 11
-98.0028
 21
-76.3511
  0
LINE
  8
0
 10
-98.0028
 20
-76.3511
 11
-97.966
 21
-76.4778
  0
LINE
  8
0
 10
-97.966
 20
-76.4778
 11
-97.9372
 21
-76.6065
  0
LINE
  8
0
 10
-97.9372
 20
-76.6065
 11
-97.9165
 21
-76.7368
  0
LINE
  8
0
 10
-97.9165
 20
-76.7368
 11
-97.9041
 21
-76.8681
  0
LINE
  8
0
 10
-97.9041
 20
-76.8681
 11
-97.9
 21
-77
  0
LINE
  8
0
 10
-97.9
 20
-77
 11
-97.9041
 21
-77.1319
  0
LINE
  8
0
 10
-97.9041
 20
-77.1319
 11
-97.9165
 21
-77.2632
  0
LINE
  8
0
 10
-97.9165
 20
-77.2632
 11
-97.9372
 21
-77.3935
  0
LINE
  8
0
 10
-97.9372
 20
-77.3935
 11
-97.966
 21
-77.5222
  0
LINE
  8
0
 10
-97.966
 20
-77.5222
 11
-98.0028
 21
-77.6489
  0
LINE
  8
0
 10
-98.0028
 20
-77.6489
 11
-98.0475
 21
-77.7731
  0
LINE
  8
0
 10
-98.0475
 20
-77.7731
 11
-98.0999
 21
-77.8941
  0
LINE
  8
0
 10
-98.0999
 20
-77.8941
 11
-98.1598
 21
-78.0117
  0
LINE
  8
0
 10
-98.1598
 20
-78.0117
 11
-98.2269
 21
-78.1252
  0
LINE
  8
0
 10
-98.2269
 20
-78.1252
 11
-98.3011
 21
-78.2343
  0
LINE
  8
0
 10
-98.3011
 20
-78.2343
 11
-98.3819
 21
-78.3386
  0
LINE
  8
0
 10
-98.3819
 20
-78.3386
 11
-98.4692
 21
-78.4375
  0
LINE
  8
0
 10
-98.4692
 20
-78.4375
 11
-98.5625
 21
-78.5308
  0
LINE
  8
0
 10
-98.5625
 20
-78.5308
 11
-98.6614
 21
-78.6181
  0
LINE
  8
0
 10
-98.6614
 20
-78.6181
 11
-98.7656
 21
-78.6989
  0
LINE
  8
0
 10
-98.7656
 20
-78.6989
 11
-98.8748
 21
-78.7731
  0
LINE
  8
0
 10
-98.8748
 20
-78.7731
 11
-98.9883
 21
-78.8402
  0
LINE
  8
0
 10
-98.9883
 20
-78.8402
 11
-99.1059
 21
-78.9001
  0
LINE
  8
0
 10
-99.1059
 20
-78.9001
 11
-99.2269
 21
-78.9525
  0
LINE
  8
0
 10
-99.2269
 20
-78.9525
 11
-99.3511
 21
-78.9972
  0
LINE
  8
0
 10
-99.3511
 20
-78.9972
 11
-99.4778
 21
-79.034
  0
LINE
  8
0
 10
-99.4778
 20
-79.034
 11
-99.6065
 21
-79.0628
  0
LINE
  8
0
 10
-99.6065
 20
-79.0628
 11
-99.7368
 21
-79.0834
  0
LINE
  8
0
 10
-99.7368
 20
-79.0834
 11
-99.8681
 21
-79.0959
  0
LINE
  8
0
 10
-99.8681
 20
-79.0959
 11
-100
 21
-79.1
  0
LINE
  8
0
 10
-100
 20
-79.1
 11
-100.132
 21
-79.0959
  0
LINE
  8
0
 10
134.868
 20
-95.0959
 11
134.737
 21
-95.0834
  0
LINE
  8
0
 10
134.737
 20
-95.0834
 11
134.607
 21
-95.0628
  0
LINE
  8
0
 10
134.607
 20
-95.0628
 11
134.478
 21
-95.034
  0
LINE
  8
0
 10
134.478
 20
-95.034
 11
134.351
 21
-94.9972
  0
LINE
  8
0
 10
134.351
 20
-94.9972
 11
134.227
 21
-94.9525
  0
LINE
  8
0
 10
134.227
 20
-94.9525
 11
134.106
 21
-94.9001
  0
LINE
  8
0
 10
134.106
 20
-94.9001
 11
133.988
 21
-94.8402
  0
LINE
  8
0
 10
133.988
 20
-94.8402
 11
133.875
 21
-94.7731
  0
LINE
  8
0
 10
133.875
 20
-94.7731
 11
133.766
 21
-94.6989
  0
LINE
  8
0
 10
133.766
 20
-94.6989
 11
133.661
 21
-94.6181
  0
LINE
  8
0
 10
133.661
 20
-94.6181
 11
133.562
 21
-94.5308
  0
LINE
  8
0
 10
133.562
 20
-94.5308
 11
133.469
 21
-94.4375
  0
LINE
  8
0
 10
133.469
 20
-94.4375
 11
133.382
 21
-94.3386
  0
LINE
  8
0
 10
133.382
 20
-94.3386
 11
133.301
 21
-94.2343
  0
LINE
  8
0
 10
133.301
 20
-94.2343
 11
133.227
 21
-94.1252
  0
LINE
  8
0
 10
133.227
 20
-94.1252
 11
133.16
 21
-94.0117
  0
LINE
  8
0
 10
133.16
 20
-94.0117
 11
133.1
 21
-93.8941
  0
LINE
  8
0
 10
133.1
 20
-93.8941
 11
133.047
 21
-93.7731
  0
LINE
  8
0
 10
133.047
 20
-93.7731
 11
133.003
 21
-93.6489
  0
LINE
  8
0
 10
133.003
 20
-93.6489
 11
132.966
 21
-93.5222
  0
LINE
  8
0
 10
132.966
 20
-93.5222
 11
132.937
 21
-93.3935
  0
LINE
  8
0
 10
132.937
 20
-93.3935
 11
132.917
 21
-93.2632
  0
LINE
  8
0
 10
132.917
 20
-93.2632
 11
132.904
 21
-93.1319
  0
LINE
  8
0
 10
132.904
 20
-93.1319
 11
132.9
 21
-93
  0
LINE
  8
0
 10
132.9
 20
-93
 11
132.904
 21
-92.8681
  0
LINE
  8
0
 10
132.904
 20
-92.8681
 11
132.917
 21
-92.7368
  0
LINE
  8
0
 10
132.917
 20
-92.7368
 11
132.937
 21
-92.6065
  0
LINE
  8
0
 10
132.937
 20
-92.6065
 11
132.966
 21
-92.4778
  0
LINE
  8
0
 10
132.966
 20
-92.4778
 11
133.003
 21
-92.3511
  0
LINE
  8
0
 10
133.003
 20
-92.3511
 11
133.047
 21
-92.2269
  0
LINE
  8
0
 10
133.047
 20
-92.2269
 11
133.1
 21
-92.1059
  0
LINE
  8
0
 10
133.1
 20
-92.1059
 11
133.16
 21
-91.9883
  0
LINE
  8
0
 10
133.16
 20
-91.9883
 11
133.227
 21
-91.8748
  0
LINE
  8
0
 10
133.227
 20
-91.8748
 11
133.301
 21
-91.7656
  0
LINE
  8
0
 10
133.301
 20
-91.7656
 11
133.382
 21
-91.6614
  0
LINE
  8
0
 10
133.382
 20
-91.6614
 11
133.469
 21
-91.5625
  0
LINE
  8
0
 10
133.469
 20
-91.5625
 11
133.562
 21
-91.4692
  0
LINE
  8
0
 10
133.562
 20
-91.4692
 11
133.661
 21
-91.3819
  0
LINE
  8
0
 10
133.661
 20
-91.3819
 11
133.766
 21
-91.3011
  0
LINE
  8
0
 10
133.766
 20
-91.3011
 11
133.875
 21
-91.2269
  0
LINE
  8
0
 10
133.875
 20
-91.2269
 11
133.988
 21
-91.1598
  0
LINE
  8
0
 10
133.988
 20
-91.1598
 11
134.106
 21
-91.0999
  0
LINE
  8
0
 10
134.106
 20
-91.0999
 11
134.227
 21
-91.0475
  0
LINE
  8
0
 10
134.227
 20
-91.0475
 11
134.351
 21
-91.0028
  0
LINE
  8
0
 10
134.351
 20
-91.0028
 11
134.478
 21
-90.966
  0
LINE
  8
0
 10
134.478
 20
-90.966
 11
134.607
 21
-90.9372
  0
LINE
  8
0
 10
134.607
 20
-90.9372
 11
134.737
 21
-90.9165
  0
LINE
  8
0
 10
134.737
 20
-90.9165
 11
134.868
 21
-90.9041
  0
LINE
  8
0
 10
134.868
 20
-90.9041
 11
135
 21
-90.9
  0
LINE
  8
0
 10
135
 20
-90.9
 11
135.132
 21
-90.9041
  0
LINE
  8
0
 10
135.132
 20
-90.9041
 11
135.263
 21
-90.9165
  0
LINE
  8
0
 10
135.263
 20
-90.9165
 11
135.393
 21
-90.9372
  0
LINE
  8
0
 10
135.393
 20
-90.9372
 11
135.522
 21
-90.966
  0
LINE
  8
0
 10
135.522
 20
-90.966
 11
135.649
 21
-91.0028
  0
LINE
  8
0
 10
135.649
 20
-91.0028
 11
135.773
 21
-91.0475
  0
LINE
  8
0
 10
135.773
 20
-91.0475
 11
135.894
 21
-91.0999
  0
LINE
  8
0
 10
135.894
 20
-91.0999
 11
136.012
 21
-91.1598
  0
LINE
  8
0
 10
136.012
 20
-91.1598
 11
136.125
 21
-91.2269
  0
LINE
  8
0
 10
136.125
 20
-91.2269
 11
136.234
 21
-91.3011
  0
LINE
  8
0
 10
136.234
 20
-91.3011
 11
136.339
 21
-91.3819
  0
LINE
  8
0
 10
136.339
 20
-91.3819
 11
136.438
 21
-91.4692
  0
LINE
  8
0
 10
136.438
 20
-91.4692
 11
136.531
 21
-91.5625
  0
LINE
  8
0
 10
136.531
 20
-91.5625
 11
136.618
 21
-91.6614
  0
LINE
  8
0
 10
136.618
 20
-91.6614
 11
136.699
 21
-91.7656
  0
LINE
  8
0
 10
136.699
 20
-91.7656
 11
136.773
 21
-91.8748
  0
LINE
  8
0
 10
136.773
 20
-91.8748
 11
136.84
 21
-91.9883
  0
LINE
  8
0
 10
136.84
 20
-91.9883
 11
136.9
 21
-92.1059
  0
LINE
  8
0
 10
136.9
 20
-92.1059
 11
136.953
 21
-92.2269
  0
LINE
  8
0
 10
136.953
 20
-92.2269
 11
136.997
 21
-92.3511
  0
LINE
  8
0
 10
136.997
 20
-92.3511
 11
137.034
 21
-92.4778
  0
LINE
  8
0
 10
137.034
 20
-92.4778
 11
137.063
 21
-92.6065
  0
LINE
  8
0
 10
137.063
 20
-92.6065
 11
137.083
 21
-92.7368
  0
LINE
  8
0
 10
137.083
 20
-92.7368
 11
137.096
 21
-92.8681
  0
LINE
  8
0
 10
137.096
 20
-92.8681
 11
137.1
 21
-93
  0
LINE
  8
0
 10
137.1
 20
-93
 11
137.096
 21
-93.1319
  0
LINE
  8
0
 10
137.096
 20
-93.1319
 11
137.083
 21
-93.2632
  0
LINE
  8
0
 10
137.083
 20
-93.2632
 11
137.063
 21
-93.3935
  0
LINE
  8
0
 10
137.063
 20
-93.3935
 11
137.034
 21
-93.5222
  0
LINE
  8
0
 10
137.034
 20
-93.5222
 11
136.997
 21
-93.6489
  0
LINE
  8
0
 10
136.997
 20
-93.6489
 11
136.953
 21
-93.7731
  0
LINE
  8
0
 10
136.953
 20
-93.7731
 11
136.9
 21
-93.8941
  0
LINE
  8
0
 10
136.9
 20
-93.8941
 11
136.84
 21
-94.0117
  0
LINE
  8
0
 10
136.84
 20
-94.0117
 11
136.773
 21
-94.1252
  0
LINE
  8
0
 10
136.773
 20
-94.1252
 11
136.699
 21
-94.2343
  0
LINE
  8
0
 10
136.699
 20
-94.2343
 11
136.618
 21
-94.3386
  0
LINE
  8
0
 10
136.618
 20
-94.3386
 11
136.531
 21
-94.4375
  0
LINE
  8
0
 10
136.531
 20
-94.4375
 11
136.438
 21
-94.5308
  0
LINE
  8
0
 10
136.438
 20
-94.5308
 11
136.339
 21
-94.6181
  0
LINE
  8
0
 10
136.339
 20
-94.6181
 11
136.234
 21
-94.6989
  0
LINE
  8
0
 10
136.234
 20
-94.6989
 11
136.125
 21
-94.7731
  0
LINE
  8
0
 10
136.125
 20
-94.7731
 11
136.012
 21
-94.8402
  0
LINE
  8
0
 10
136.012
 20
-94.8402
 11
135.894
 21
-94.9001
  0
LINE
  8
0
 10
135.894
 20
-94.9001
 11
135.773
 21
-94.9525
  0
LINE
  8
0
 10
135.773
 20
-94.9525
 11
135.649
 21
-94.9972
  0
LINE
  8
0
 10
135.649
 20
-94.9972
 11
135.522
 21
-95.034
  0
LINE
  8
0
 10
135.522
 20
-95.034
 11
135.393
 21
-95.0628
  0
LINE
  8
0
 10
135.393
 20
-95.0628
 11
135.263
 21
-95.0834
  0
LINE
  8
0
 10
135.263
 20
-95.0834
 11
135.132
 21
-95.0959
  0
LINE
  8
0
 10
135.132
 20
-95.0959
 11
135
 21
-95.1
  0
LINE
  8
0
 10
135
 20
-95.1
 11
134.868
 21
-95.0959
  0
LINE
  8
0
 10
-135.132
 20
-95.0959
 11
-135.263
 21
-95.0834
  0
LINE
  8
0
 10
-135.263
 20
-95.0834
 11
-135.393
 21
-95.0628
  0
LINE
  8
0
 10
-135.393
 20
-95.0628
 11
-135.522
 21
-95.034
  0
LINE
  8
0
 10
-135.522
 20
-95.034
 11
-135.649
 21
-94.9972
  0
LINE
  8
0
 10
-135.649
 20
-94.9972
 11
-135.773
 21
-94.9525
  0
LINE
  8
0
 10
-135.773
 20
-94.9525
 11
-135.894
 21
-94.9001
  0
LINE
  8
0
 10
-135.894
 20
-94.9001
 11
-136.012
 21
-94.8402
  0
LINE
  8
0
 10
-136.012
 20
-94.8402
 11
-136.125
 21
-94.7731
  0
LINE
  8
0
 10
-136.125
 20
-94.7731
 11
-136.234
 21
-94.6989
  0
LINE
  8
0
 10
-136.234
 20
-94.6989
 11
-136.339
 21
-94.6181
  0
LINE
  8
0
 10
-136.339
 20
-94.6181
 11
-136.438
 21
-94.5308
  0
LINE
  8
0
 10
-136.438
 20
-94.5308
 11
-136.531
 21
-94.4375
  0
LINE
  8
0
 10
-136.531
 20
-94.4375
 11
-136.618
 21
-94.3386
  0
LINE
  8
0
 10
-136.618
 20
-94.3386
 11
-136.699
 21
-94.2343
  0
LINE
  8
0
 10
-136.699
 20
-94.2343
 11
-136.773
 21
-94.1252
  0
LINE
  8
0
 10
-136.773
 20
-94.1252
 11
-136.84
 21
-94.0117
  0
LINE
  8
0
 10
-136.84
 20
-94.0117
 11
-136.9
 21
-93.8941
  0
LINE
  8
0
 10
-136.9
 20
-93.8941
 11
-136.953
 21
-93.7731
  0
LINE
  8
0
 10
-136.953
 20
-93.7731
 11
-136.997
 21
-93.6489
  0
LINE
  8
0
 10
-136.997
 20
-93.6489
 11
-137.034
 21
-93.5222
  0
LINE
  8
0
 10
-137.034
 20
-93.5222
 11
-137.063
 21
-93.3935
  0
LINE
  8
0
 10
-137.063
 20
-93.3935
 11
-137.083
 21
-93.2632
  0
LINE
  8
0
 10
-137.083
 20
-93.2632
 11
-137.096
 21
-93.1319
  0
LINE
  8
0
 10
-137.096
 20
-93.1319
 11
-137.1
 21
-93
  0
LINE
  8
0
 10
-137.1
 20
-93
 11
-137.096
 21
-92.8681
  0
LINE
  8
0
 10
-137.096
 20
-92.8681
 11
-137.083
 21
-92.7368
  0
LINE
  8
0
 10
-137.083
 20
-92.7368
 11
-137.063
 21
-92.6065
  0
LINE
  8
0
 10
-137.063
 20
-92.6065
 11
-137.034
 21
-92.4778
  0
LINE
  8
0
 10
-137.034
 20
-92.4778
 11
-136.997
 21
-92.3511
  0
LINE
  8
0
 10
-136.997
 20
-92.3511
 11
-136.953
 21
-92.2269
  0
LINE
  8
0
 10
-136.953
 20
-92.2269
 11
-136.9
 21
-92.1059
  0
LINE
  8
0
 10
-136.9
 20
-92.1059
 11
-136.84
 21
-91.9883
  0
LINE
  8
0
 10
-136.84
 20
-91.9883
 11
-136.773
 21
-91.8748
  0
LINE
  8
0
 10
-136.773
 20
-91.8748
 11
-136.699
 21
-91.7656
  0
LINE
  8
0
 10
-136.699
 20
-91.7656
 11
-136.618
 21
-91.6614
  0
LINE
  8
0
 10
-136.618
 20
-91.6614
 11
-136.531
 21
-91.5625
  0
LINE
  8
0
 10
-136.531
 20
-91.5625
 11
-136.438
 21
-91.4692
  0
LINE
  8
0
 10
-136.438
 20
-91.4692
 11
-136.339
 21
-91.3819
  0
LINE
  8
0
 10
-136.339
 20
-91.3819
 11
-136.234
 21
-91.3011
  0
LINE
  8
0
 10
-136.234
 20
-91.3011
 11
-136.125
 21
-91.2269
  0
LINE
  8
0
 10
-136.125
 20
-91.2269
 11
-136.012
 21
-91.1598
  0
LINE
  8
0
 10
-136.012
 20
-91.1598
 11
-135.894
 21
-91.0999
  0
LINE
  8
0
 10
-135.894
 20
-91.0999
 11
-135.773
 21
-91.0475
  0
LINE
  8
0
 10
-135.773
 20
-91.0475
 11
-135.649
 21
-91.0028
  0
LINE
  8
0
 10
-135.649
 20
-91.0028
 11
-135.522
 21
-90.966
  0
LINE
  8
0
 10
-135.522
 20
-90.966
 11
-135.393
 21
-90.9372
  0
LINE
  8
0
 10
-135.393
 20
-90.9372
 11
-135.263
 21
-90.9165
  0
LINE
  8
0
 10
-135.263
 20
-90.9165
 11
-135.132
 21
-90.9041
  0
LINE
  8
0
 10
-135.132
 20
-90.9041
 11
-135
 21
-90.9
  0
LINE
  8
0
 10
-135
 20
-90.9
 11
-134.868
 21
-90.9041
  0
LINE
  8
0
 10
-134.868
 20
-90.9041
 11
-134.737
 21
-90.9165
  0
LINE
  8
0
 10
-134.737
 20
-90.9165
 11
-134.607
 21
-90.9372
  0
LINE
  8
0
 10
-134.607
 20
-90.9372
 11
-134.478
 21
-90.966
  0
LINE
  8
0
 10
-134.478
 20
-90.966
 11
-134.351
 21
-91.0028
  0
LINE
  8
0
 10
-134.351
 20
-91.0028
 11
-134.227
 21
-91.0475
  0
LINE
  8
0
 10
-134.227
 20
-91.0475
 11
-134.106
 21
-91.0999
  0
LINE
  8
0
 10
-134.106
 20
-91.0999
 11
-133.988
 21
-91.1598
  0
LINE
  8
0
 10
-133.988
 20
-91.1598
 11
-133.875
 21
-91.2269
  0
LINE
  8
0
 10
-133.875
 20
-91.2269
 11
-133.766
 21
-91.3011
  0
LINE
  8
0
 10
-133.766
 20
-91.3011
 11
-133.661
 21
-91.3819
  0
LINE
  8
0
 10
-133.661
 20
-91.3819
 11
-133.562
 21
-91.4692
  0
LINE
  8
0
 10
-133.562
 20
-91.4692
 11
-133.469
 21
-91.5625
  0
LINE
  8
0
 10
-133.469
 20
-91.5625
 11
-133.382
 21
-91.6614
  0
LINE
  8
0
 10
-133.382
 20
-91.6614
 11
-133.301
 21
-91.7656
  0
LINE
  8
0
 10
-133.301
 20
-91.7656
 11
-133.227
 21
-91.8748
  0
LINE
  8
0
 10
-133.227
 20
-91.8748
 11
-133.16
 21
-91.9883
  0
LINE
  8
0
 10
-133.16
 20
-91.9883
 11
-133.1
 21
-92.1059
  0
LINE
  8
0
 10
-133.1
 20
-92.1059
 11
-133.047
 21
-92.2269
  0
LINE
  8
0
 10
-133.047
 20
-92.2269
 11
-133.003
 21
-92.3511
  0
LINE
  8
0
 10
-133.003
 20
-92.3511
 11
-132.966
 21
-92.4778
  0
LINE
  8
0
 10
-132.966
 20
-92.4778
 11
-132.937
 21
-92.6065
  0
LINE
  8
0
 10
-132.937
 20
-92.6065
 11
-132.917
 21
-92.7368
  0
LINE
  8
0
 10
-132.917
 20
-92.7368
 11
-132.904
 21
-92.8681
  0
LINE
  8
0
 10
-132.904
 20
-92.8681
 11
-132.9
 21
-93
  0
LINE
  8
0
 10
-132.9
 20
-93
 11
-132.904
 21
-93.1319
  0
LINE
  8
0
 10
-132.904
 20
-93.1319
 11
-132.917
 21
-93.2632
  0
LINE
  8
0
 10
-132.917
 20
-93.2632
 11
-132.937
 21
-93.3935
  0
LINE
  8
0
 10
-132.937
 20
-93.3935
 11
-132.966
 21
-93.5222
  0
LINE
  8
0
 10
-132.966
 20
-93.5222
 11
-133.003
 21
-93.6489
  0
LINE
  8
0
 10
-133.003
 20
-93.6489
 11
-133.047
 21
-93.7731
  0
LINE
  8
0
 10
-133.047
 20
-93.7731
 11
-133.1
 21
-93.8941
  0
LINE
  8
0
 10
-133.1
 20
-93.8941
 11
-133.16
 21
-94.0117
  0
LINE
  8
0
 10
-133.16
 20
-94.0117
 11
-133.227
 21
-94.1252
  0
LINE
  8
0
 10
-133.227
 20
-94.1252
 11
-133.301
 21
-94.2343
  0
LINE
  8
0
 10
-133.301
 20
-94.2343
 11
-133.382
 21
-94.3386
  0
LINE
  8
0
 10
-133.382
 20
-94.3386
 11
-133.469
 21
-94.4375
  0
LINE
  8
0
 10
-133.469
 20
-94.4375
 11
-133.562
 21
-94.5308
  0
LINE
  8
0
 10
-133.562
 20
-94.5308
 11
-133.661
 21
-94.6181
  0
LINE
  8
0
 10
-133.661
 20
-94.6181
 11
-133.766
 21
-94.6989
  0
LINE
  8
0
 10
-133.766
 20
-94.6989
 11
-133.875
 21
-94.7731
  0
LINE
  8
0
 10
-133.875
 20
-94.7731
 11
-133.988
 21
-94.8402
  0
LINE
  8
0
 10
-133.988
 20
-94.8402
 11
-134.106
 21
-94.9001
  0
LINE
  8
0
 10
-134.106
 20
-94.9001
 11
-134.227
 21
-94.9525
  0
LINE
  8
0
 10
-134.227
 20
-94.9525
 11
-134.351
 21
-94.9972
  0
LINE
  8
0
 10
-134.351
 20
-94.9972
 11
-134.478
 21
-95.034
  0
LINE
  8
0
 10
-134.478
 20
-95.034
 11
-134.607
 21
-95.0628
  0
LINE
  8
0
 10
-134.607
 20
-95.0628
 11
-134.737
 21
-95.0834
  0
LINE
  8
0
 10
-134.737
 20
-95.0834
 11
-134.868
 21
-95.0959
  0
LINE
  8
0
 10
-134.868
 20
-95.0959
 11
-135
 21
-95.1
  0
LINE
  8
0
 10
-135
 20
-95.1
 11
-135.132
 21
-95.0959
  0
LINE
  8
0
 10
-100.132
 20
-95.0959
 11
-100.263
 21
-95.0834
  0
LINE
  8
0
 10
-100.263
 20
-95.0834
 11
-100.393
 21
-95.0628
  0
LINE
  8
0
 10
-100.393
 20
-95.0628
 11
-100.522
 21
-95.034
  0
LINE
  8
0
 10
-100.522
 20
-95.034
 11
-100.649
 21
-94.9972
  0
LINE
  8
0
 10
-100.649
 20
-94.9972
 11
-100.773
 21
-94.9525
  0
LINE
  8
0
 10
-100.773
 20
-94.9525
 11
-100.894
 21
-94.9001
  0
LINE
  8
0
 10
-100.894
 20
-94.9001
 11
-101.012
 21
-94.8402
  0
LINE
  8
0
 10
-101.012
 20
-94.8402
 11
-101.125
 21
-94.7731
  0
LINE
  8
0
 10
-101.125
 20
-94.7731
 11
-101.234
 21
-94.6989
  0
LINE
  8
0
 10
-101.234
 20
-94.6989
 11
-101.339
 21
-94.6181
  0
LINE
  8
0
 10
-101.339
 20
-94.6181
 11
-101.438
 21
-94.5308
  0
LINE
  8
0
 10
-101.438
 20
-94.5308
 11
-101.531
 21
-94.4375
  0
LINE
  8
0
 10
-101.531
 20
-94.4375
 11
-101.618
 21
-94.3386
  0
LINE
  8
0
 10
-101.618
 20
-94.3386
 11
-101.699
 21
-94.2343
  0
LINE
  8
0
 10
-101.699
 20
-94.2343
 11
-101.773
 21
-94.1252
  0
LINE
  8
0
 10
-101.773
 20
-94.1252
 11
-101.84
 21
-94.0117
  0
LINE
  8
0
 10
-101.84
 20
-94.0117
 11
-101.9
 21
-93.8941
  0
LINE
  8
0
 10
-101.9
 20
-93.8941
 11
-101.953
 21
-93.7731
  0
LINE
  8
0
 10
-101.953
 20
-93.7731
 11
-101.997
 21
-93.6489
  0
LINE
  8
0
 10
-101.997
 20
-93.6489
 11
-102.034
 21
-93.5222
  0
LINE
  8
0
 10
-102.034
 20
-93.5222
 11
-102.063
 21
-93.3935
  0
LINE
  8
0
 10
-102.063
 20
-93.3935
 11
-102.083
 21
-93.2632
  0
LINE
  8
0
 10
-102.083
 20
-93.2632
 11
-102.096
 21
-93.1319
  0
LINE
  8
0
 10
-102.096
 20
-93.1319
 11
-102.1
 21
-93
  0
LINE
  8
0
 10
-102.1
 20
-93
 11
-102.096
 21
-92.8681
  0
LINE
  8
0
 10
-102.096
 20
-92.8681
 11
-102.083
 21
-92.7368
  0
LINE
  8
0
 10
-102.083
 20
-92.7368
 11
-102.063
 21
-92.6065
  0
LINE
  8
0
 10
-102.063
 20
-92.6065
 11
-102.034
 21
-92.4778
  0
LINE
  8
0
 10
-102.034
 20
-92.4778
 11
-101.997
 21
-92.3511
  0
LINE
  8
0
 10
-101.997
 20
-92.3511
 11
-101.953
 21
-92.2269
  0
LINE
  8
0
 10
-101.953
 20
-92.2269
 11
-101.9
 21
-92.1059
  0
LINE
  8
0
 10
-101.9
 20
-92.1059
 11
-101.84
 21
-91.9883
  0
LINE
  8
0
 10
-101.84
 20
-91.9883
 11
-101.773
 21
-91.8748
  0
LINE
  8
0
 10
-101.773
 20
-91.8748
 11
-101.699
 21
-91.7656
  0
LINE
  8
0
 10
-101.699
 20
-91.7656
 11
-101.618
 21
-91.6614
  0
LINE
  8
0
 10
-101.618
 20
-91.6614
 11
-101.531
 21
-91.5625
  0
LINE
  8
0
 10
-101.531
 20
-91.5625
 11
-101.438
 21
-91.4692
  0
LINE
  8
0
 10
-101.438
 20
-91.4692
 11
-101.339
 21
-91.3819
  0
LINE
  8
0
 10
-101.339
 20
-91.3819
 11
-101.234
 21
-91.3011
  0
LINE
  8
0
 10
-101.234
 20
-91.3011
 11
-101.125
 21
-91.2269
  0
LINE
  8
0
 10
-101.125
 20
-91.2269
 11
-101.012
 21
-91.1598
  0
LINE
  8
0
 10
-101.012
 20
-91.1598
 11
-100.894
 21
-91.0999
  0
LINE
  8
0
 10
-100.894
 20
-91.0999
 11
-100.773
 21
-91.0475
  0
LINE
  8
0
 10
-100.773
 20
-91.0475
 11
-100.649
 21
-91.0028
  0
LINE
  8
0
 10
-100.649
 20
-91.0028
 11
-100.522
 21
-90.966
  0
LINE
  8
0
 10
-100.522
 20
-90.966
 11
-100.393
 21
-90.9372
  0
LINE
  8
0
 10
-100.393
 20
-90.9372
 11
-100.263
 21
-90.9165
  0
LINE
  8
0
 10
-100.263
 20
-90.9165
 11
-100.132
 21
-90.9041
  0
LINE
  8
0
 10
-100.132
 20
-90.9041
 11
-100
 21
-90.9
  0
LINE
  8
0
 10
-100
 20
-90.9
 11
-99.8681
 21
-90.9041
  0
LINE
  8
0
 10
-99.8681
 20
-90.9041
 11
-99.7368
 21
-90.9165
  0
LINE
  8
0
 10
-99.7368
 20
-90.9165
 11
-99.6065
 21
-90.9372
  0
LINE
  8
0
 10
-99.6065
 20
-90.9372
 11
-99.4778
 21
-90.966
  0
LINE
  8
0
 10
-99.4778
 20
-90.966
 11
-99.3511
 21
-91.0028
  0
LINE
  8
0
 10
-99.3511
 20
-91.0028
 11
-99.2269
 21
-91.0475
  0
LINE
  8
0
 10
-99.2269
 20
-91.0475
 11
-99.1059
 21
-91.0999
  0
LINE
  8
0
 10
-99.1059
 20
-91.0999
 11
-98.9883
 21
-91.1598
  0
LINE
  8
0
 10
-98.9883
 20
-91.1598
 11
-98.8748
 21
-91.2269
  0
LINE
  8
0
 10
-98.8748
 20
-91.2269
 11
-98.7656
 21
-91.3011
  0
LINE
  8
0
 10
-98.7656
 20
-91.3011
 11
-98.6614
 21
-91.3819
  0
LINE
  8
0
 10
-98.6614
 20
-91.3819
 11
-98.5625
 21
-91.4692
  0
LINE
  8
0
 10
-98.5625
 20
-91.4692
 11
-98.4692
 21
-91.5625
  0
LINE
  8
0
 10
-98.4692
 20
-91.5625
 11
-98.3819
 21
-91.6614
  0
LINE
  8
0
 10
-98.3819
 20
-91.6614
 11
-98.3011
 21
-91.7656
  0
LINE
  8
0
 10
-98.3011
 20
-91.7656
 11
-98.2269
 21
-91.8748
  0
LINE
  8
0
 10
-98.2269
 20
-91.8748
 11
-98.1598
 21
-91.9883
  0
LINE
  8
0
 10
-98.1598
 20
-91.9883
 11
-98.0999
 21
-92.1059
  0
LINE
  8
0
 10
-98.0999
 20
-92.1059
 11
-98.0475
 21
-92.2269
  0
LINE
  8
0
 10
-98.0475
 20
-92.2269
 11
-98.0028
 21
-92.3511
  0
LINE
  8
0
 10
-98.0028
 20
-92.3511
 11
-97.966
 21
-92.4778
  0
LINE
  8
0
 10
-97.966
 20
-92.4778
 11
-97.9372
 21
-92.6065
  0
LINE
  8
0
 10
-97.9372
 20
-92.6065
 11
-97.9165
 21
-92.7368
  0
LINE
  8
0
 10
-97.9165
 20
-92.7368
 11
-97.9041
 21
-92.8681
  0
LINE
  8
0
 10
-97.9041
 20
-92.8681
 11
-97.9
 21
-93
  0
LINE
  8
0
 10
-97.9
 20
-93
 11
-97.9041
 21
-93.1319
  0
LINE
  8
0
 10
-97.9041
 20
-93.1319
 11
-97.9165
 21
-93.2632
  0
LINE
  8
0
 10
-97.9165
 20
-93.2632
 11
-97.9372
 21
-93.3935
  0
LINE
  8
0
 10
-97.9372
 20
-93.3935
 11
-97.966
 21
-93.5222
  0
LINE
  8
0
 10
-97.966
 20
-93.5222
 11
-98.0028
 21
-93.6489
  0
LINE
  8
0
 10
-98.0028
 20
-93.6489
 11
-98.0475
 21
-93.7731
  0
LINE
  8
0
 10
-98.0475
 20
-93.7731
 11
-98.0999
 21
-93.8941
  0
LINE
  8
0
 10
-98.0999
 20
-93.8941
 11
-98.1598
 21
-94.0117
  0
LINE
  8
0
 10
-98.1598
 20
-94.0117
 11
-98.2269
 21
-94.1252
  0
LINE
  8
0
 10
-98.2269
 20
-94.1252
 11
-98.3011
 21
-94.2343
  0
LINE
  8
0
 10
-98.3011
 20
-94.2343
 11
-98.3819
 21
-94.3386
  0
LINE
  8
0
 10
-98.3819
 20
-94.3386
 11
-98.4692
 21
-94.4375
  0
LINE
  8
0
 10
-98.4692
 20
-94.4375
 11
-98.5625
 21
-94.5308
  0
LINE
  8
0
 10
-98.5625
 20
-94.5308
 11
-98.6614
 21
-94.6181
  0
LINE
  8
0
 10
-98.6614
 20
-94.6181
 11
-98.7656
 21
-94.6989
  0
LINE
  8
0
 10
-98.7656
 20
-94.6989
 11
-98.8748
 21
-94.7731
  0
LINE
  8
0
 10
-98.8748
 20
-94.7731
 11
-98.9883
 21
-94.8402
  0
LINE
  8
0
 10
-98.9883
 20
-94.8402
 11
-99.1059
 21
-94.9001
  0
LINE
  8
0
 10
-99.1059
 20
-94.9001
 11
-99.2269
 21
-94.9525
  0
LINE
  8
0
 10
-99.2269
 20
-94.9525
 11
-99.3511
 21
-94.9972
  0
LINE
  8
0
 10
-99.3511
 20
-94.9972
 11
-99.4778
 21
-95.034
  0
LINE
  8
0
 10
-99.4778
 20
-95.034
 11
-99.6065
 21
-95.0628
  0
LINE
  8
0
 10
-99.6065
 20
-95.0628
 11
-99.7368
 21
-95.0834
  0
LINE
  8
0
 10
-99.7368
 20
-95.0834
 11
-99.8681
 21
-95.0959
  0
LINE
  8
0
 10
-99.8681
 20
-95.0959
 11
-100
 21
-95.1
  0
LINE
  8
0
 10
-100
 20
-95.1
 11
-100.132
 21
-95.0959
  0
LINE
  8
0
 10
99.8681
 20
-95.0959
 11
99.7368
 21
-95.0834
  0
LINE
  8
0
 10
99.7368
 20
-95.0834
 11
99.6065
 21
-95.0628
  0
LINE
  8
0
 10
99.6065
 20
-95.0628
 11
99.4778
 21
-95.034
  0
LINE
  8
0
 10
99.4778
 20
-95.034
 11
99.3511
 21
-94.9972
  0
LINE
  8
0
 10
99.3511
 20
-94.9972
 11
99.2269
 21
-94.9525
  0
LINE
  8
0
 10
99.2269
 20
-94.9525
 11
99.1059
 21
-94.9001
  0
LINE
  8
0
 10
99.1059
 20
-94.9001
 11
98.9883
 21
-94.8402
  0
LINE
  8
0
 10
98.9883
 20
-94.8402
 11
98.8748
 21
-94.7731
  0
LINE
  8
0
 10
98.8748
 20
-94.7731
 11
98.7656
 21
-94.6989
  0
LINE
  8
0
 10
98.7656
 20
-94.6989
 11
98.6614
 21
-94.6181
  0
LINE
  8
0
 10
98.6614
 20
-94.6181
 11
98.5625
 21
-94.5308
  0
LINE
  8
0
 10
98.5625
 20
-94.5308
 11
98.4692
 21
-94.4375
  0
LINE
  8
0
 10
98.4692
 20
-94.4375
 11
98.3819
 21
-94.3386
  0
LINE
  8
0
 10
98.3819
 20
-94.3386
 11
98.3011
 21
-94.2343
  0
LINE
  8
0
 10
98.3011
 20
-94.2343
 11
98.2269
 21
-94.1252
  0
LINE
  8
0
 10
98.2269
 20
-94.1252
 11
98.1598
 21
-94.0117
  0
LINE
  8
0
 10
98.1598
 20
-94.0117
 11
98.0999
 21
-93.8941
  0
LINE
  8
0
 10
98.0999
 20
-93.8941
 11
98.0475
 21
-93.7731
  0
LINE
  8
0
 10
98.0475
 20
-93.7731
 11
98.0028
 21
-93.6489
  0
LINE
  8
0
 10
98.0028
 20
-93.6489
 11
97.966
 21
-93.5222
  0
LINE
  8
0
 10
97.966
 20
-93.5222
 11
97.9372
 21
-93.3935
  0
LINE
  8
0
 10
97.9372
 20
-93.3935
 11
97.9165
 21
-93.2632
  0
LINE
  8
0
 10
97.9165
 20
-93.2632
 11
97.9041
 21
-93.1319
  0
LINE
  8
0
 10
97.9041
 20
-93.1319
 11
97.9
 21
-93
  0
LINE
  8
0
 10
97.9
 20
-93
 11
97.9041
 21
-92.8681
  0
LINE
  8
0
 10
97.9041
 20
-92.8681
 11
97.9165
 21
-92.7368
  0
LINE
  8
0
 10
97.9165
 20
-92.7368
 11
97.9372
 21
-92.6065
  0
LINE
  8
0
 10
97.9372
 20
-92.6065
 11
97.966
 21
-92.4778
  0
LINE
  8
0
 10
97.966
 20
-92.4778
 11
98.0028
 21
-92.3511
  0
LINE
  8
0
 10
98.0028
 20
-92.3511
 11
98.0475
 21
-92.2269
  0
LINE
  8
0
 10
98.0475
 20
-92.2269
 11
98.0999
 21
-92.1059
  0
LINE
  8
0
 10
98.0999
 20
-92.1059
 11
98.1598
 21
-91.9883
  0
LINE
  8
0
 10
98.1598
 20
-91.9883
 11
98.2269
 21
-91.8748
  0
LINE
  8
0
 10
98.2269
 20
-91.8748
 11
98.3011
 21
-91.7656
  0
LINE
  8
0
 10
98.3011
 20
-91.7656
 11
98.3819
 21
-91.6614
  0
LINE
  8
0
 10
98.3819
 20
-91.6614
 11
98.4692
 21
-91.5625
  0
LINE
  8
0
 10
98.4692
 20
-91.5625
 11
98.5625
 21
-91.4692
  0
LINE
  8
0
 10
98.5625
 20
-91.4692
 11
98.6614
 21
-91.3819
  0
LINE
  8
0
 10
98.6614
 20
-91.3819
 11
98.7656
 21
-91.3011
  0
LINE
  8
0
 10
98.7656
 20
-91.3011
 11
98.8748
 21
-91.2269
  0
LINE
  8
0
 10
98.8748
 20
-91.2269
 11
98.9883
 21
-91.1598
  0
LINE
  8
0
 10
98.9883
 20
-91.1598
 11
99.1059
 21
-91.0999
  0
LINE
  8
0
 10
99.1059
 20
-91.0999
 11
99.2269
 21
-91.0475
  0
LINE
  8
0
 10
99.2269
 20
-91.0475
 11
99.3511
 21
-91.0028
  0
LINE
  8
0
 10
99.3511
 20
-91.0028
 11
99.4778
 21
-90.966
  0
LINE
  8
0
 10
99.4778
 20
-90.966
 11
99.6065
 21
-90.9372
  0
LINE
  8
0
 10
99.6065
 20
-90.9372
 11
99.7368
 21
-90.9165
  0
LINE
  8
0
 10
99.7368
 20
-90.9165
 11
99.8681
 21
-90.9041
  0
LINE
  8
0
 10
99.8681
 20
-90.9041
 11
100
 21
-90.9
  0
LINE
  8
0
 10
100
 20
-90.9
 11
100.132
 21
-90.9041
  0
LINE
  8
0
 10
100.132
 20
-90.9041
 11
100.263
 21
-90.9165
  0
LINE
  8
0
 10
100.263
 20
-90.9165
 11
100.393
 21
-90.9372
  0
LINE
  8
0
 10
100.393
 20
-90.9372
 11
100.522
 21
-90.966
  0
LINE
  8
0
 10
100.522
 20
-90.966
 11
100.649
 21
-91.0028
  0
LINE
  8
0
 10
100.649
 20
-91.0028
 11
100.773
 21
-91.0475
  0
LINE
  8
0
 10
100.773
 20
-91.0475
 11
100.894
 21
-91.0999
  0
LINE
  8
0
 10
100.894
 20
-91.0999
 11
101.012
 21
-91.1598
  0
LINE
  8
0
 10
101.012
 20
-91.1598
 11
101.125
 21
-91.2269
  0
LINE
  8
0
 10
101.125
 20
-91.2269
 11
101.234
 21
-91.3011
  0
LINE
  8
0
 10
101.234
 20
-91.3011
 11
101.339
 21
-91.3819
  0
LINE
  8
0
 10
101.339
 20
-91.3819
 11
101.438
 21
-91.4692
  0
LINE
  8
0
 10
101.438
 20
-91.4692
 11
101.531
 21
-91.5625
  0
LINE
  8
0
 10
101.531
 20
-91.5625
 11
101.618
 21
-91.6614
  0
LINE
  8
0
 10
101.618
 20
-91.6614
 11
101.699
 21
-91.7656
  0
LINE
  8
0
 10
101.699
 20
-91.7656
 11
101.773
 21
-91.8748
  0
LINE
  8
0
 10
101.773
 20
-91.8748
 11
101.84
 21
-91.9883
  0
LINE
  8
0
 10
101.84
 20
-91.9883
 11
101.9
 21
-92.1059
  0
LINE
  8
0
 10
101.9
 20
-92.1059
 11
101.953
 21
-92.2269
  0
LINE
  8
0
 10
101.953
 20
-92.2269
 11
101.997
 21
-92.3511
  0
LINE
  8
0
 10
101.997
 20
-92.3511
 11
102.034
 21
-92.4778
  0
LINE
  8
0
 10
102.034
 20
-92.4778
 11
102.063
 21
-92.6065
  0
LINE
  8
0
 10
102.063
 20
-92.6065
 11
102.083
 21
-92.7368
  0
LINE
  8
0
 10
102.083
 20
-92.7368
 11
102.096
 21
-92.8681
  0
LINE
  8
0
 10
102.096
 20
-92.8681
 11
102.1
 21
-93
  0
LINE
  8
0
 10
102.1
 20
-93
 11
102.096
 21
-93.1319
  0
LINE
  8
0
 10
102.096
 20
-93.1319
 11
102.083
 21
-93.2632
  0
LINE
  8
0
 10
102.083
 20
-93.2632
 11
102.063
 21
-93.3935
  0
LINE
  8
0
 10
102.063
 20
-93.3935
 11
102.034
 21
-93.5222
  0
LINE
  8
0
 10
102.034
 20
-93.5222
 11
101.997
 21
-93.6489
  0
LINE
  8
0
 10
101.997
 20
-93.6489
 11
101.953
 21
-93.7731
  0
LINE
  8
0
 10
101.953
 20
-93.7731
 11
101.9
 21
-93.8941
  0
LINE
  8
0
 10
101.9
 20
-93.8941
 11
101.84
 21
-94.0117
  0
LINE
  8
0
 10
101.84
 20
-94.0117
 11
101.773
 21
-94.1252
  0
LINE
  8
0
 10
101.773
 20
-94.1252
 11
101.699
 21
-94.2343
  0
LINE
  8
0
 10
101.699
 20
-94.2343
 11
101.618
 21
-94.3386
  0
LINE
  8
0
 10
101.618
 20
-94.3386
 11
101.531
 21
-94.4375
  0
LINE
  8
0
 10
101.531
 20
-94.4375
 11
101.438
 21
-94.5308
  0
LINE
  8
0
 10
101.438
 20
-94.5308
 11
101.339
 21
-94.6181
  0
LINE
  8
0
 10
101.339
 20
-94.6181
 11
101.234
 21
-94.6989
  0
LINE
  8
0
 10
101.234
 20
-94.6989
 11
101.125
 21
-94.7731
  0
LINE
  8
0
 10
101.125
 20
-94.7731
 11
101.012
 21
-94.8402
  0
LINE
  8
0
 10
101.012
 20
-94.8402
 11
100.894
 21
-94.9001
  0
LINE
  8
0
 10
100.894
 20
-94.9001
 11
100.773
 21
-94.9525
  0
LINE
  8
0
 10
100.773
 20
-94.9525
 11
100.649
 21
-94.9972
  0
LINE
  8
0
 10
100.649
 20
-94.9972
 11
100.522
 21
-95.034
  0
LINE
  8
0
 10
100.522
 20
-95.034
 11
100.393
 21
-95.0628
  0
LINE
  8
0
 10
100.393
 20
-95.0628
 11
100.263
 21
-95.0834
  0
LINE
  8
0
 10
100.263
 20
-95.0834
 11
100.132
 21
-95.0959
  0
LINE
  8
0
 10
100.132
 20
-95.0959
 11
100
 21
-95.1
  0
LINE
  8
0
 10
100
 20
-95.1
 11
99.8681
 21
-95.0959
  0
LINE
  8
0
 10
47.8681
 20
-194.096
 11
47.7368
 21
-194.083
  0
LINE
  8
0
 10
47.7368
 20
-194.083
 11
47.6065
 21
-194.063
  0
LINE
  8
0
 10
47.6065
 20
-194.063
 11
47.4778
 21
-194.034
  0
LINE
  8
0
 10
47.4778
 20
-194.034
 11
47.3511
 21
-193.997
  0
LINE
  8
0
 10
47.3511
 20
-193.997
 11
47.2269
 21
-193.953
  0
LINE
  8
0
 10
47.2269
 20
-193.953
 11
47.1059
 21
-193.9
  0
LINE
  8
0
 10
47.1059
 20
-193.9
 11
46.9883
 21
-193.84
  0
LINE
  8
0
 10
46.9883
 20
-193.84
 11
46.8748
 21
-193.773
  0
LINE
  8
0
 10
46.8748
 20
-193.773
 11
46.7656
 21
-193.699
  0
LINE
  8
0
 10
46.7656
 20
-193.699
 11
46.6614
 21
-193.618
  0
LINE
  8
0
 10
46.6614
 20
-193.618
 11
46.5624
 21
-193.531
  0
LINE
  8
0
 10
46.5624
 20
-193.531
 11
46.4692
 21
-193.438
  0
LINE
  8
0
 10
46.4692
 20
-193.438
 11
46.3819
 21
-193.339
  0
LINE
  8
0
 10
46.3819
 20
-193.339
 11
46.3011
 21
-193.234
  0
LINE
  8
0
 10
46.3011
 20
-193.234
 11
46.2269
 21
-193.125
  0
LINE
  8
0
 10
46.2269
 20
-193.125
 11
46.1597
 21
-193.012
  0
LINE
  8
0
 10
46.1597
 20
-193.012
 11
46.0999
 21
-192.894
  0
LINE
  8
0
 10
46.0999
 20
-192.894
 11
46.0475
 21
-192.773
  0
LINE
  8
0
 10
46.0475
 20
-192.773
 11
46.0028
 21
-192.649
  0
LINE
  8
0
 10
46.0028
 20
-192.649
 11
45.966
 21
-192.522
  0
LINE
  8
0
 10
45.966
 20
-192.522
 11
45.9372
 21
-192.393
  0
LINE
  8
0
 10
45.9372
 20
-192.393
 11
45.9165
 21
-192.263
  0
LINE
  8
0
 10
45.9165
 20
-192.263
 11
45.9041
 21
-192.132
  0
LINE
  8
0
 10
45.9041
 20
-192.132
 11
45.9
 21
-192
  0
LINE
  8
0
 10
45.9
 20
-192
 11
45.9041
 21
-191.868
  0
LINE
  8
0
 10
45.9041
 20
-191.868
 11
45.9165
 21
-191.737
  0
LINE
  8
0
 10
45.9165
 20
-191.737
 11
45.9372
 21
-191.607
  0
LINE
  8
0
 10
45.9372
 20
-191.607
 11
45.966
 21
-191.478
  0
LINE
  8
0
 10
45.966
 20
-191.478
 11
46.0028
 21
-191.351
  0
LINE
  8
0
 10
46.0028
 20
-191.351
 11
46.0475
 21
-191.227
  0
LINE
  8
0
 10
46.0475
 20
-191.227
 11
46.0999
 21
-191.106
  0
LINE
  8
0
 10
46.0999
 20
-191.106
 11
46.1597
 21
-190.988
  0
LINE
  8
0
 10
46.1597
 20
-190.988
 11
46.2269
 21
-190.875
  0
LINE
  8
0
 10
46.2269
 20
-190.875
 11
46.3011
 21
-190.766
  0
LINE
  8
0
 10
46.3011
 20
-190.766
 11
46.3819
 21
-190.661
  0
LINE
  8
0
 10
46.3819
 20
-190.661
 11
46.4692
 21
-190.562
  0
LINE
  8
0
 10
46.4692
 20
-190.562
 11
46.5624
 21
-190.469
  0
LINE
  8
0
 10
46.5624
 20
-190.469
 11
46.6614
 21
-190.382
  0
LINE
  8
0
 10
46.6614
 20
-190.382
 11
46.7656
 21
-190.301
  0
LINE
  8
0
 10
46.7656
 20
-190.301
 11
46.8748
 21
-190.227
  0
LINE
  8
0
 10
46.8748
 20
-190.227
 11
46.9883
 21
-190.16
  0
LINE
  8
0
 10
46.9883
 20
-190.16
 11
47.1059
 21
-190.1
  0
LINE
  8
0
 10
47.1059
 20
-190.1
 11
47.2269
 21
-190.047
  0
LINE
  8
0
 10
47.2269
 20
-190.047
 11
47.3511
 21
-190.003
  0
LINE
  8
0
 10
47.3511
 20
-190.003
 11
47.4778
 21
-189.966
  0
LINE
  8
0
 10
47.4778
 20
-189.966
 11
47.6065
 21
-189.937
  0
LINE
  8
0
 10
47.6065
 20
-189.937
 11
47.7368
 21
-189.917
  0
LINE
  8
0
 10
47.7368
 20
-189.917
 11
47.8681
 21
-189.904
  0
LINE
  8
0
 10
47.8681
 20
-189.904
 11
48
 21
-189.9
  0
LINE
  8
0
 10
48
 20
-189.9
 11
48.1319
 21
-189.904
  0
LINE
  8
0
 10
48.1319
 20
-189.904
 11
48.2632
 21
-189.917
  0
LINE
  8
0
 10
48.2632
 20
-189.917
 11
48.3935
 21
-189.937
  0
LINE
  8
0
 10
48.3935
 20
-189.937
 11
48.5222
 21
-189.966
  0
LINE
  8
0
 10
48.5222
 20
-189.966
 11
48.6489
 21
-190.003
  0
LINE
  8
0
 10
48.6489
 20
-190.003
 11
48.7731
 21
-190.047
  0
LINE
  8
0
 10
48.7731
 20
-190.047
 11
48.8941
 21
-190.1
  0
LINE
  8
0
 10
48.8941
 20
-190.1
 11
49.0117
 21
-190.16
  0
LINE
  8
0
 10
49.0117
 20
-190.16
 11
49.1252
 21
-190.227
  0
LINE
  8
0
 10
49.1252
 20
-190.227
 11
49.2343
 21
-190.301
  0
LINE
  8
0
 10
49.2343
 20
-190.301
 11
49.3386
 21
-190.382
  0
LINE
  8
0
 10
49.3386
 20
-190.382
 11
49.4375
 21
-190.469
  0
LINE
  8
0
 10
49.4375
 20
-190.469
 11
49.5308
 21
-190.562
  0
LINE
  8
0
 10
49.5308
 20
-190.562
 11
49.6181
 21
-190.661
  0
LINE
  8
0
 10
49.6181
 20
-190.661
 11
49.6989
 21
-190.766
  0
LINE
  8
0
 10
49.6989
 20
-190.766
 11
49.7731
 21
-190.875
  0
LINE
  8
0
 10
49.7731
 20
-190.875
 11
49.8402
 21
-190.988
  0
LINE
  8
0
 10
49.8402
 20
-190.988
 11
49.9001
 21
-191.106
  0
LINE
  8
0
 10
49.9001
 20
-191.106
 11
49.9525
 21
-191.227
  0
LINE
  8
0
 10
49.9525
 20
-191.227
 11
49.9972
 21
-191.351
  0
LINE
  8
0
 10
49.9972
 20
-191.351
 11
50.034
 21
-191.478
  0
LINE
  8
0
 10
50.034
 20
-191.478
 11
50.0628
 21
-191.607
  0
LINE
  8
0
 10
50.0628
 20
-191.607
 11
50.0834
 21
-191.737
  0
LINE
  8
0
 10
50.0834
 20
-191.737
 11
50.0959
 21
-191.868
  0
LINE
  8
0
 10
50.0959
 20
-191.868
 11
50.1
 21
-192
  0
LINE
  8
0
 10
50.1
 20
-192
 11
50.0959
 21
-192.132
  0
LINE
  8
0
 10
50.0959
 20
-192.132
 11
50.0834
 21
-192.263
  0
LINE
  8
0
 10
50.0834
 20
-192.263
 11
50.0628
 21
-192.393
  0
LINE
  8
0
 10
50.0628
 20
-192.393
 11
50.034
 21
-192.522
  0
LINE
  8
0
 10
50.034
 20
-192.522
 11
49.9972
 21
-192.649
  0
LINE
  8
0
 10
49.9972
 20
-192.649
 11
49.9525
 21
-192.773
  0
LINE
  8
0
 10
49.9525
 20
-192.773
 11
49.9001
 21
-192.894
  0
LINE
  8
0
 10
49.9001
 20
-192.894
 11
49.8402
 21
-193.012
  0
LINE
  8
0
 10
49.8402
 20
-193.012
 11
49.7731
 21
-193.125
  0
LINE
  8
0
 10
49.7731
 20
-193.125
 11
49.6989
 21
-193.234
  0
LINE
  8
0
 10
49.6989
 20
-193.234
 11
49.6181
 21
-193.339
  0
LINE
  8
0
 10
49.6181
 20
-193.339
 11
49.5308
 21
-193.438
  0
LINE
  8
0
 10
49.5308
 20
-193.438
 11
49.4375
 21
-193.531
  0
LINE
  8
0
 10
49.4375
 20
-193.531
 11
49.3386
 21
-193.618
  0
LINE
  8
0
 10
49.3386
 20
-193.618
 11
49.2343
 21
-193.699
  0
LINE
  8
0
 10
49.2343
 20
-193.699
 11
49.1252
 21
-193.773
  0
LINE
  8
0
 10
49.1252
 20
-193.773
 11
49.0117
 21
-193.84
  0
LINE
  8
0
 10
49.0117
 20
-193.84
 11
48.8941
 21
-193.9
  0
LINE
  8
0
 10
48.8941
 20
-193.9
 11
48.7731
 21
-193.953
  0
LINE
  8
0
 10
48.7731
 20
-193.953
 11
48.6489
 21
-193.997
  0
LINE
  8
0
 10
48.6489
 20
-193.997
 11
48.5222
 21
-194.034
  0
LINE
  8
0
 10
48.5222
 20
-194.034
 11
48.3935
 21
-194.063
  0
LINE
  8
0
 10
48.3935
 20
-194.063
 11
48.2632
 21
-194.083
  0
LINE
  8
0
 10
48.2632
 20
-194.083
 11
48.1319
 21
-194.096
  0
LINE
  8
0
 10
48.1319
 20
-194.096
 11
48
 21
-194.1
  0
LINE
  8
0
 10
48
 20
-194.1
 11
47.8681
 21
-194.096
  0
LINE
  8
0
 10
-48.1319
 20
-194.096
 11
-48.2632
 21
-194.083
  0
LINE
  8
0
 10
-48.2632
 20
-194.083
 11
-48.3935
 21
-194.063
  0
LINE
  8
0
 10
-48.3935
 20
-194.063
 11
-48.5222
 21
-194.034
  0
LINE
  8
0
 10
-48.5222
 20
-194.034
 11
-48.6489
 21
-193.997
  0
LINE
  8
0
 10
-48.6489
 20
-193.997
 11
-48.7731
 21
-193.953
  0
LINE
  8
0
 10
-48.7731
 20
-193.953
 11
-48.8941
 21
-193.9
  0
LINE
  8
0
 10
-48.8941
 20
-193.9
 11
-49.0117
 21
-193.84
  0
LINE
  8
0
 10
-49.0117
 20
-193.84
 11
-49.1252
 21
-193.773
  0
LINE
  8
0
 10
-49.1252
 20
-193.773
 11
-49.2343
 21
-193.699
  0
LINE
  8
0
 10
-49.2343
 20
-193.699
 11
-49.3386
 21
-193.618
  0
LINE
  8
0
 10
-49.3386
 20
-193.618
 11
-49.4375
 21
-193.531
  0
LINE
  8
0
 10
-49.4375
 20
-193.531
 11
-49.5308
 21
-193.438
  0
LINE
  8
0
 10
-49.5308
 20
-193.438
 11
-49.6181
 21
-193.339
  0
LINE
  8
0
 10
-49.6181
 20
-193.339
 11
-49.6989
 21
-193.234
  0
LINE
  8
0
 10
-49.6989
 20
-193.234
 11
-49.7731
 21
-193.125
  0
LINE
  8
0
 10
-49.7731
 20
-193.125
 11
-49.8402
 21
-193.012
  0
LINE
  8
0
 10
-49.8402
 20
-193.012
 11
-49.9001
 21
-192.894
  0
LINE
  8
0
 10
-49.9001
 20
-192.894
 11
-49.9525
 21
-192.773
  0
LINE
  8
0
 10
-49.9525
 20
-192.773
 11
-49.9972
 21
-192.649
  0
LINE
  8
0
 10
-49.9972
 20
-192.649
 11
-50.034
 21
-192.522
  0
LINE
  8
0
 10
-50.034
 20
-192.522
 11
-50.0628
 21
-192.393
  0
LINE
  8
0
 10
-50.0628
 20
-192.393
 11
-50.0834
 21
-192.263
  0
LINE
  8
0
 10
-50.0834
 20
-192.263
 11
-50.0959
 21
-192.132
  0
LINE
  8
0
 10
-50.0959
 20
-192.132
 11
-50.1
 21
-192
  0
LINE
  8
0
 10
-50.1
 20
-192
 11
-50.0959
 21
-191.868
  0
LINE
  8
0
 10
-50.0959
 20
-191.868
 11
-50.0834
 21
-191.737
  0
LINE
  8
0
 10
-50.0834
 20
-191.737
 11
-50.0628
 21
-191.607
  0
LINE
  8
0
 10
-50.0628
 20
-191.607
 11
-50.034
 21
-191.478
  0
LINE
  8
0
 10
-50.034
 20
-191.478
 11
-49.9972
 21
-191.351
  0
LINE
  8
0
 10
-49.9972
 20
-191.351
 11
-49.9525
 21
-191.227
  0
LINE
  8
0
 10
-49.9525
 20
-191.227
 11
-49.9001
 21
-191.106
  0
LINE
  8
0
 10
-49.9001
 20
-191.106
 11
-49.8402
 21
-190.988
  0
LINE
  8
0
 10
-49.8402
 20
-190.988
 11
-49.7731
 21
-190.875
  0
LINE
  8
0
 10
-49.7731
 20
-190.875
 11
-49.6989
 21
-190.766
  0
LINE
  8
0
 10
-49.6989
 20
-190.766
 11
-49.6181
 21
-190.661
  0
LINE
  8
0
 10
-49.6181
 20
-190.661
 11
-49.5308
 21
-190.562
  0
LINE
  8
0
 10
-49.5308
 20
-190.562
 11
-49.4375
 21
-190.469
  0
LINE
  8
0
 10
-49.4375
 20
-190.469
 11
-49.3386
 21
-190.382
  0
LINE
  8
0
 10
-49.3386
 20
-190.382
 11
-49.2343
 21
-190.301
  0
LINE
  8
0
 10
-49.2343
 20
-190.301
 11
-49.1252
 21
-190.227
  0
LINE
  8
0
 10
-49.1252
 20
-190.227
 11
-49.0117
 21
-190.16
  0
LINE
  8
0
 10
-49.0117
 20
-190.16
 11
-48.8941
 21
-190.1
  0
LINE
  8
0
 10
-48.8941
 20
-190.1
 11
-48.7731
 21
-190.047
  0
LINE
  8
0
 10
-48.7731
 20
-190.047
 11
-48.6489
 21
-190.003
  0
LINE
  8
0
 10
-48.6489
 20
-190.003
 11
-48.5222
 21
-189.966
  0
LINE
  8
0
 10
-48.5222
 20
-189.966
 11
-48.3935
 21
-189.937
  0
LINE
  8
0
 10
-48.3935
 20
-189.937
 11
-48.2632
 21
-189.917
  0
LINE
  8
0
 10
-48.2632
 20
-189.917
 11
-48.1319
 21
-189.904
  0
LINE
  8
0
 10
-48.1319
 20
-189.904
 11
-48
 21
-189.9
  0
LINE
  8
0
 10
-48
 20
-189.9
 11
-47.8681
 21
-189.904
  0
LINE
  8
0
 10
-47.8681
 20
-189.904
 11
-47.7368
 21
-189.917
  0
LINE
  8
0
 10
-47.7368
 20
-189.917
 11
-47.6065
 21
-189.937
  0
LINE
  8
0
 10
-47.6065
 20
-189.937
 11
-47.4778
 21
-189.966
  0
LINE
  8
0
 10
-47.4778
 20
-189.966
 11
-47.3511
 21
-190.003
  0
LINE
  8
0
 10
-47.3511
 20
-190.003
 11
-47.2269
 21
-190.047
  0
LINE
  8
0
 10
-47.2269
 20
-190.047
 11
-47.1059
 21
-190.1
  0
LINE
  8
0
 10
-47.1059
 20
-190.1
 11
-46.9883
 21
-190.16
  0
LINE
  8
0
 10
-46.9883
 20
-190.16
 11
-46.8748
 21
-190.227
  0
LINE
  8
0
 10
-46.8748
 20
-190.227
 11
-46.7656
 21
-190.301
  0
LINE
  8
0
 10
-46.7656
 20
-190.301
 11
-46.6614
 21
-190.382
  0
LINE
  8
0
 10
-46.6614
 20
-190.382
 11
-46.5624
 21
-190.469
  0
LINE
  8
0
 10
-46.5624
 20
-190.469
 11
-46.4692
 21
-190.562
  0
LINE
  8
0
 10
-46.4692
 20
-190.562
 11
-46.3819
 21
-190.661
  0
LINE
  8
0
 10
-46.3819
 20
-190.661
 11
-46.3011
 21
-190.766
  0
LINE
  8
0
 10
-46.3011
 20
-190.766
 11
-46.2269
 21
-190.875
  0
LINE
  8
0
 10
-46.2269
 20
-190.875
 11
-46.1597
 21
-190.988
  0
LINE
  8
0
 10
-46.1597
 20
-190.988
 11
-46.0999
 21
-191.106
  0
LINE
  8
0
 10
-46.0999
 20
-191.106
 11
-46.0475
 21
-191.227
  0
LINE
  8
0
 10
-46.0475
 20
-191.227
 11
-46.0028
 21
-191.351
  0
LINE
  8
0
 10
-46.0028
 20
-191.351
 11
-45.966
 21
-191.478
  0
LINE
  8
0
 10
-45.966
 20
-191.478
 11
-45.9372
 21
-191.607
  0
LINE
  8
0
 10
-45.9372
 20
-191.607
 11
-45.9165
 21
-191.737
  0
LINE
  8
0
 10
-45.9165
 20
-191.737
 11
-45.9041
 21
-191.868
  0
LINE
  8
0
 10
-45.9041
 20
-191.868
 11
-45.9
 21
-192
  0
LINE
  8
0
 10
-45.9
 20
-192
 11
-45.9041
 21
-192.132
  0
LINE
  8
0
 10
-45.9041
 20
-192.132
 11
-45.9165
 21
-192.263
  0
LINE
  8
0
 10
-45.9165
 20
-192.263
 11
-45.9372
 21
-192.393
  0
LINE
  8
0
 10
-45.9372
 20
-192.393
 11
-45.966
 21
-192.522
  0
LINE
  8
0
 10
-45.966
 20
-192.522
 11
-46.0028
 21
-192.649
  0
LINE
  8
0
 10
-46.0028
 20
-192.649
 11
-46.0475
 21
-192.773
  0
LINE
  8
0
 10
-46.0475
 20
-192.773
 11
-46.0999
 21
-192.894
  0
LINE
  8
0
 10
-46.0999
 20
-192.894
 11
-46.1597
 21
-193.012
  0
LINE
  8
0
 10
-46.1597
 20
-193.012
 11
-46.2269
 21
-193.125
  0
LINE
  8
0
 10
-46.2269
 20
-193.125
 11
-46.3011
 21
-193.234
  0
LINE
  8
0
 10
-46.3011
 20
-193.234
 11
-46.3819
 21
-193.339
  0
LINE
  8
0
 10
-46.3819
 20
-193.339
 11
-46.4692
 21
-193.438
  0
LINE
  8
0
 10
-46.4692
 20
-193.438
 11
-46.5624
 21
-193.531
  0
LINE
  8
0
 10
-46.5624
 20
-193.531
 11
-46.6614
 21
-193.618
  0
LINE
  8
0
 10
-46.6614
 20
-193.618
 11
-46.7656
 21
-193.699
  0
LINE
  8
0
 10
-46.7656
 20
-193.699
 11
-46.8748
 21
-193.773
  0
LINE
  8
0
 10
-46.8748
 20
-193.773
 11
-46.9883
 21
-193.84
  0
LINE
  8
0
 10
-46.9883
 20
-193.84
 11
-47.1059
 21
-193.9
  0
LINE
  8
0
 10
-47.1059
 20
-193.9
 11
-47.2269
 21
-193.953
  0
LINE
  8
0
 10
-47.2269
 20
-193.953
 11
-47.3511
 21
-193.997
  0
LINE
  8
0
 10
-47.3511
 20
-193.997
 11
-47.4778
 21
-194.034
  0
LINE
  8
0
 10
-47.4778
 20
-194.034
 11
-47.6065
 21
-194.063
  0
LINE
  8
0
 10
-47.6065
 20
-194.063
 11
-47.7368
 21
-194.083
  0
LINE
  8
0
 10
-47.7368
 20
-194.083
 11
-47.8681
 21
-194.096
  0
LINE
  8
0
 10
-47.8681
 20
-194.096
 11
-48
 21
-194.1
  0
LINE
  8
0
 10
-48
 20
-194.1
 11
-48.1319
 21
-194.096
  0
LINE
  8
0
 10
100
 20
-104.25
 11
108.75
 21
-104.25
  0
LINE
  8
0
 10
108.75
 20
-104.25
 11
108.75
 21
-85
  0
LINE
  8
0
 10
108.75
 20
-85
 11
109.25
 21
-85
  0
LINE
  8
0
 10
109.25
 20
-85
 11
109.25
 21
-104.75
  0
LINE
  8
0
 10
109.25
 20
-104.75
 11
100.5
 21
-104.75
  0
LINE
  8
0
 10
100.5
 20
-104.75
 11
100.5
 21
-113
  0
LINE
  8
0
 10
100.5
 20
-113
 11
100
 21
-113
  0
LINE
  8
0
 10
100
 20
-113
 11
100
 21
-104.25
  0
LINE
  8
0
 10
135
 20
-104.25
 11
135
 21
-113
  0
LINE
  8
0
 10
135
 20
-113
 11
134.5
 21
-113
  0
LINE
  8
0
 10
134.5
 20
-113
 11
134.5
 21
-104.75
  0
LINE
  8
0
 10
134.5
 20
-104.75
 11
125.75
 21
-104.75
  0
LINE
  8
0
 10
125.75
 20
-104.75
 11
125.75
 21
-85
  0
LINE
  8
0
 10
125.75
 20
-85
 11
126.25
 21
-85
  0
LINE
  8
0
 10
126.25
 20
-85
 11
126.25
 21
-104.25
  0
LINE
  8
0
 10
126.25
 20
-104.25
 11
135
 21
-104.25
  0
LINE
  8
0
 10
-109.25
 20
-104.75
 11
-109.25
 21
-85
  0
LINE
  8
0
 10
-109.25
 20
-85
 11
-108.75
 21
-85
  0
LINE
  8
0
 10
-108.75
 20
-85
 11
-108.75
 21
-104.25
  0
LINE
  8
0
 10
-108.75
 20
-104.25
 11
-100
 21
-104.25
  0
LINE
  8
0
 10
-100
 20
-104.25
 11
-100
 21
-113
  0
LINE
  8
0
 10
-100
 20
-113
 11
-100.5
 21
-113
  0
LINE
  8
0
 10
-100.5
 20
-113
 11
-100.5
 21
-104.75
  0
LINE
  8
0
 10
-100.5
 20
-104.75
 11
-109.25
 21
-104.75
  0
ENDSEC
  0
SECTION
  2
OBJECTS
  0
DICTIONARY
  0
ENDSEC
  0
EOF
