  0
SECTION
  2
BLOCKS
  0
ENDSEC
  0
SECTION
  2
ENTITIES
  0
LINE
  8
0
 10
275
 20
85
 11
224.352
 21
85
  0
LINE
  8
0
 10
224.352
 20
85
 11
223.146
 21
88.3499
  0
LINE
  8
0
 10
223.146
 20
88.3499
 11
217.158
 21
102.187
  0
LINE
  8
0
 10
217.158
 20
102.187
 11
210.314
 21
115.621
  0
LINE
  8
0
 10
210.314
 20
115.621
 11
202.639
 21
128.598
  0
LINE
  8
0
 10
202.639
 20
128.598
 11
194.164
 21
141.068
  0
LINE
  8
0
 10
194.164
 20
141.068
 11
184.923
 21
152.982
  0
LINE
  8
0
 10
184.923
 20
152.982
 11
174.952
 21
164.291
  0
LINE
  8
0
 10
174.952
 20
164.291
 11
164.291
 21
174.952
  0
LINE
  8
0
 10
164.291
 20
174.952
 11
152.982
 21
184.923
  0
LINE
  8
0
 10
152.982
 20
184.923
 11
141.068
 21
194.164
  0
LINE
  8
0
 10
141.068
 20
194.164
 11
128.598
 21
202.639
  0
LINE
  8
0
 10
128.598
 20
202.639
 11
115.621
 21
210.314
  0
LINE
  8
0
 10
115.621
 20
210.314
 11
102.187
 21
217.158
  0
LINE
  8
0
 10
102.187
 20
217.158
 11
88.3499
 21
223.146
  0
LINE
  8
0
 10
88.3499
 20
223.146
 11
74.1641
 21
228.254
  0
LINE
  8
0
 10
74.1641
 20
228.254
 11
59.6856
 21
232.46
  0
LINE
  8
0
 10
59.6856
 20
232.46
 11
44.9715
 21
235.749
  0
LINE
  8
0
 10
44.9715
 20
235.749
 11
30.08
 21
238.108
  0
LINE
  8
0
 10
30.08
 20
238.108
 11
15.0697
 21
239.526
  0
LINE
  8
0
 10
15.0697
 20
239.526
 11
0
 21
240
  0
LINE
  8
0
 10
0
 20
240
 11
-15.0697
 21
239.526
  0
LINE
  8
0
 10
-15.0697
 20
239.526
 11
-30.08
 21
238.108
  0
LINE
  8
0
 10
-30.08
 20
238.108
 11
-44.9715
 21
235.749
  0
LINE
  8
0
 10
-44.9715
 20
235.749
 11
-59.6856
 21
232.46
  0
LINE
  8
0
 10
-59.6856
 20
232.46
 11
-74.1641
 21
228.254
  0
LINE
  8
0
 10
-74.1641
 20
228.254
 11
-88.3499
 21
223.146
  0
LINE
  8
0
 10
-88.3499
 20
223.146
 11
-102.187
 21
217.158
  0
LINE
  8
0
 10
-102.187
 20
217.158
 11
-115.621
 21
210.314
  0
LINE
  8
0
 10
-115.621
 20
210.314
 11
-128.598
 21
202.639
  0
LINE
  8
0
 10
-128.598
 20
202.639
 11
-141.068
 21
194.164
  0
LINE
  8
0
 10
-141.068
 20
194.164
 11
-152.982
 21
184.923
  0
LINE
  8
0
 10
-152.982
 20
184.923
 11
-164.291
 21
174.952
  0
LINE
  8
0
 10
-164.291
 20
174.952
 11
-174.952
 21
164.291
  0
LINE
  8
0
 10
-174.952
 20
164.291
 11
-184.923
 21
152.982
  0
LINE
  8
0
 10
-184.923
 20
152.982
 11
-194.164
 21
141.068
  0
LINE
  8
0
 10
-194.164
 20
141.068
 11
-202.639
 21
128.598
  0
LINE
  8
0
 10
-202.639
 20
128.598
 11
-210.314
 21
115.621
  0
LINE
  8
0
 10
-210.314
 20
115.621
 11
-217.158
 21
102.187
  0
LINE
  8
0
 10
-217.158
 20
102.187
 11
-223.146
 21
88.3499
  0
LINE
  8
0
 10
-223.146
 20
88.3499
 11
-224.352
 21
85
  0
LINE
  8
0
 10
-224.352
 20
85
 11
-275
 21
85
  0
LINE
  8
0
 10
-275
 20
85
 11
-275
 21
-85
  0
LINE
  8
0
 10
-275
 20
-85
 11
275
 21
-85
  0
LINE
  8
0
 10
275
 20
-85
 11
275
 21
85
  0
LINE
  8
0
 10
239.812
 20
72.0059
 11
239.624
 21
72.0237
  0
LINE
  8
0
 10
239.624
 20
72.0237
 11
239.438
 21
72.0531
  0
LINE
  8
0
 10
239.438
 20
72.0531
 11
239.254
 21
72.0943
  0
LINE
  8
0
 10
239.254
 20
72.0943
 11
239.073
 21
72.1468
  0
LINE
  8
0
 10
239.073
 20
72.1468
 11
238.896
 21
72.2107
  0
LINE
  8
0
 10
238.896
 20
72.2107
 11
238.723
 21
72.2855
  0
LINE
  8
0
 10
238.723
 20
72.2855
 11
238.555
 21
72.3711
  0
LINE
  8
0
 10
238.555
 20
72.3711
 11
238.393
 21
72.467
  0
LINE
  8
0
 10
238.393
 20
72.467
 11
238.237
 21
72.573
  0
LINE
  8
0
 10
238.237
 20
72.573
 11
238.088
 21
72.6885
  0
LINE
  8
0
 10
238.088
 20
72.6885
 11
237.946
 21
72.8131
  0
LINE
  8
0
 10
237.946
 20
72.8131
 11
237.813
 21
72.9464
  0
LINE
  8
0
 10
237.813
 20
72.9464
 11
237.688
 21
73.0877
  0
LINE
  8
0
 10
237.688
 20
73.0877
 11
237.573
 21
73.2366
  0
LINE
  8
0
 10
237.573
 20
73.2366
 11
237.467
 21
73.3925
  0
LINE
  8
0
 10
237.467
 20
73.3925
 11
237.371
 21
73.5547
  0
LINE
  8
0
 10
237.371
 20
73.5547
 11
237.286
 21
73.7227
  0
LINE
  8
0
 10
237.286
 20
73.7227
 11
237.211
 21
73.8956
  0
LINE
  8
0
 10
237.211
 20
73.8956
 11
237.147
 21
74.073
  0
LINE
  8
0
 10
237.147
 20
74.073
 11
237.094
 21
74.2539
  0
LINE
  8
0
 10
237.094
 20
74.2539
 11
237.053
 21
74.4379
  0
LINE
  8
0
 10
237.053
 20
74.4379
 11
237.024
 21
74.624
  0
LINE
  8
0
 10
237.024
 20
74.624
 11
237.006
 21
74.8116
  0
LINE
  8
0
 10
237.006
 20
74.8116
 11
237
 21
75
  0
LINE
  8
0
 10
237
 20
75
 11
237.006
 21
75.1884
  0
LINE
  8
0
 10
237.006
 20
75.1884
 11
237.024
 21
75.376
  0
LINE
  8
0
 10
237.024
 20
75.376
 11
237.053
 21
75.5621
  0
LINE
  8
0
 10
237.053
 20
75.5621
 11
237.094
 21
75.7461
  0
LINE
  8
0
 10
237.094
 20
75.7461
 11
237.147
 21
75.927
  0
LINE
  8
0
 10
237.147
 20
75.927
 11
237.211
 21
76.1044
  0
LINE
  8
0
 10
237.211
 20
76.1044
 11
237.286
 21
76.2773
  0
LINE
  8
0
 10
237.286
 20
76.2773
 11
237.371
 21
76.4453
  0
LINE
  8
0
 10
237.371
 20
76.4453
 11
237.467
 21
76.6075
  0
LINE
  8
0
 10
237.467
 20
76.6075
 11
237.573
 21
76.7634
  0
LINE
  8
0
 10
237.573
 20
76.7634
 11
237.688
 21
76.9123
  0
LINE
  8
0
 10
237.688
 20
76.9123
 11
237.813
 21
77.0536
  0
LINE
  8
0
 10
237.813
 20
77.0536
 11
237.946
 21
77.1869
  0
LINE
  8
0
 10
237.946
 20
77.1869
 11
238.088
 21
77.3115
  0
LINE
  8
0
 10
238.088
 20
77.3115
 11
238.237
 21
77.427
  0
LINE
  8
0
 10
238.237
 20
77.427
 11
238.393
 21
77.533
  0
LINE
  8
0
 10
238.393
 20
77.533
 11
238.555
 21
77.6289
  0
LINE
  8
0
 10
238.555
 20
77.6289
 11
238.723
 21
77.7145
  0
LINE
  8
0
 10
238.723
 20
77.7145
 11
238.896
 21
77.7893
  0
LINE
  8
0
 10
238.896
 20
77.7893
 11
239.073
 21
77.8532
  0
LINE
  8
0
 10
239.073
 20
77.8532
 11
239.254
 21
77.9057
  0
LINE
  8
0
 10
239.254
 20
77.9057
 11
239.438
 21
77.9469
  0
LINE
  8
0
 10
239.438
 20
77.9469
 11
239.624
 21
77.9763
  0
LINE
  8
0
 10
239.624
 20
77.9763
 11
239.812
 21
77.9941
  0
LINE
  8
0
 10
239.812
 20
77.9941
 11
240
 21
78
  0
LINE
  8
0
 10
240
 20
78
 11
240.188
 21
77.9941
  0
LINE
  8
0
 10
240.188
 20
77.9941
 11
240.376
 21
77.9763
  0
LINE
  8
0
 10
240.376
 20
77.9763
 11
240.562
 21
77.9469
  0
LINE
  8
0
 10
240.562
 20
77.9469
 11
240.746
 21
77.9057
  0
LINE
  8
0
 10
240.746
 20
77.9057
 11
240.927
 21
77.8532
  0
LINE
  8
0
 10
240.927
 20
77.8532
 11
241.104
 21
77.7893
  0
LINE
  8
0
 10
241.104
 20
77.7893
 11
241.277
 21
77.7145
  0
LINE
  8
0
 10
241.277
 20
77.7145
 11
241.445
 21
77.6289
  0
LINE
  8
0
 10
241.445
 20
77.6289
 11
241.607
 21
77.533
  0
LINE
  8
0
 10
241.607
 20
77.533
 11
241.763
 21
77.427
  0
LINE
  8
0
 10
241.763
 20
77.427
 11
241.912
 21
77.3115
  0
LINE
  8
0
 10
241.912
 20
77.3115
 11
242.054
 21
77.1869
  0
LINE
  8
0
 10
242.054
 20
77.1869
 11
242.187
 21
77.0536
  0
LINE
  8
0
 10
242.187
 20
77.0536
 11
242.312
 21
76.9123
  0
LINE
  8
0
 10
242.312
 20
76.9123
 11
242.427
 21
76.7634
  0
LINE
  8
0
 10
242.427
 20
76.7634
 11
242.533
 21
76.6075
  0
LINE
  8
0
 10
242.533
 20
76.6075
 11
242.629
 21
76.4453
  0
LINE
  8
0
 10
242.629
 20
76.4453
 11
242.714
 21
76.2773
  0
LINE
  8
0
 10
242.714
 20
76.2773
 11
242.789
 21
76.1044
  0
LINE
  8
0
 10
242.789
 20
76.1044
 11
242.853
 21
75.927
  0
LINE
  8
0
 10
242.853
 20
75.927
 11
242.906
 21
75.7461
  0
LINE
  8
0
 10
242.906
 20
75.7461
 11
242.947
 21
75.5621
  0
LINE
  8
0
 10
242.947
 20
75.5621
 11
242.976
 21
75.376
  0
LINE
  8
0
 10
242.976
 20
75.376
 11
242.994
 21
75.1884
  0
LINE
  8
0
 10
242.994
 20
75.1884
 11
243
 21
75
  0
LINE
  8
0
 10
243
 20
75
 11
242.994
 21
74.8116
  0
LINE
  8
0
 10
242.994
 20
74.8116
 11
242.976
 21
74.624
  0
LINE
  8
0
 10
242.976
 20
74.624
 11
242.947
 21
74.4379
  0
LINE
  8
0
 10
242.947
 20
74.4379
 11
242.906
 21
74.2539
  0
LINE
  8
0
 10
242.906
 20
74.2539
 11
242.853
 21
74.073
  0
LINE
  8
0
 10
242.853
 20
74.073
 11
242.789
 21
73.8956
  0
LINE
  8
0
 10
242.789
 20
73.8956
 11
242.714
 21
73.7227
  0
LINE
  8
0
 10
242.714
 20
73.7227
 11
242.629
 21
73.5547
  0
LINE
  8
0
 10
242.629
 20
73.5547
 11
242.533
 21
73.3925
  0
LINE
  8
0
 10
242.533
 20
73.3925
 11
242.427
 21
73.2366
  0
LINE
  8
0
 10
242.427
 20
73.2366
 11
242.312
 21
73.0877
  0
LINE
  8
0
 10
242.312
 20
73.0877
 11
242.187
 21
72.9464
  0
LINE
  8
0
 10
242.187
 20
72.9464
 11
242.054
 21
72.8131
  0
LINE
  8
0
 10
242.054
 20
72.8131
 11
241.912
 21
72.6885
  0
LINE
  8
0
 10
241.912
 20
72.6885
 11
241.763
 21
72.573
  0
LINE
  8
0
 10
241.763
 20
72.573
 11
241.607
 21
72.467
  0
LINE
  8
0
 10
241.607
 20
72.467
 11
241.445
 21
72.3711
  0
LINE
  8
0
 10
241.445
 20
72.3711
 11
241.277
 21
72.2855
  0
LINE
  8
0
 10
241.277
 20
72.2855
 11
241.104
 21
72.2107
  0
LINE
  8
0
 10
241.104
 20
72.2107
 11
240.927
 21
72.1468
  0
LINE
  8
0
 10
240.927
 20
72.1468
 11
240.746
 21
72.0943
  0
LINE
  8
0
 10
240.746
 20
72.0943
 11
240.562
 21
72.0531
  0
LINE
  8
0
 10
240.562
 20
72.0531
 11
240.376
 21
72.0237
  0
LINE
  8
0
 10
240.376
 20
72.0237
 11
240.188
 21
72.0059
  0
LINE
  8
0
 10
240.188
 20
72.0059
 11
240
 21
72
  0
LINE
  8
0
 10
240
 20
72
 11
239.812
 21
72.0059
  0
LINE
  8
0
 10
-240.188
 20
72.0059
 11
-240.376
 21
72.0237
  0
LINE
  8
0
 10
-240.376
 20
72.0237
 11
-240.562
 21
72.0531
  0
LINE
  8
0
 10
-240.562
 20
72.0531
 11
-240.746
 21
72.0943
  0
LINE
  8
0
 10
-240.746
 20
72.0943
 11
-240.927
 21
72.1468
  0
LINE
  8
0
 10
-240.927
 20
72.1468
 11
-241.104
 21
72.2107
  0
LINE
  8
0
 10
-241.104
 20
72.2107
 11
-241.277
 21
72.2855
  0
LINE
  8
0
 10
-241.277
 20
72.2855
 11
-241.445
 21
72.3711
  0
LINE
  8
0
 10
-241.445
 20
72.3711
 11
-241.607
 21
72.467
  0
LINE
  8
0
 10
-241.607
 20
72.467
 11
-241.763
 21
72.573
  0
LINE
  8
0
 10
-241.763
 20
72.573
 11
-241.912
 21
72.6885
  0
LINE
  8
0
 10
-241.912
 20
72.6885
 11
-242.054
 21
72.8131
  0
LINE
  8
0
 10
-242.054
 20
72.8131
 11
-242.187
 21
72.9464
  0
LINE
  8
0
 10
-242.187
 20
72.9464
 11
-242.312
 21
73.0877
  0
LINE
  8
0
 10
-242.312
 20
73.0877
 11
-242.427
 21
73.2366
  0
LINE
  8
0
 10
-242.427
 20
73.2366
 11
-242.533
 21
73.3925
  0
LINE
  8
0
 10
-242.533
 20
73.3925
 11
-242.629
 21
73.5547
  0
LINE
  8
0
 10
-242.629
 20
73.5547
 11
-242.714
 21
73.7227
  0
LINE
  8
0
 10
-242.714
 20
73.7227
 11
-242.789
 21
73.8956
  0
LINE
  8
0
 10
-242.789
 20
73.8956
 11
-242.853
 21
74.073
  0
LINE
  8
0
 10
-242.853
 20
74.073
 11
-242.906
 21
74.2539
  0
LINE
  8
0
 10
-242.906
 20
74.2539
 11
-242.947
 21
74.4379
  0
LINE
  8
0
 10
-242.947
 20
74.4379
 11
-242.976
 21
74.624
  0
LINE
  8
0
 10
-242.976
 20
74.624
 11
-242.994
 21
74.8116
  0
LINE
  8
0
 10
-242.994
 20
74.8116
 11
-243
 21
75
  0
LINE
  8
0
 10
-243
 20
75
 11
-242.994
 21
75.1884
  0
LINE
  8
0
 10
-242.994
 20
75.1884
 11
-242.976
 21
75.376
  0
LINE
  8
0
 10
-242.976
 20
75.376
 11
-242.947
 21
75.5621
  0
LINE
  8
0
 10
-242.947
 20
75.5621
 11
-242.906
 21
75.7461
  0
LINE
  8
0
 10
-242.906
 20
75.7461
 11
-242.853
 21
75.927
  0
LINE
  8
0
 10
-242.853
 20
75.927
 11
-242.789
 21
76.1044
  0
LINE
  8
0
 10
-242.789
 20
76.1044
 11
-242.714
 21
76.2773
  0
LINE
  8
0
 10
-242.714
 20
76.2773
 11
-242.629
 21
76.4453
  0
LINE
  8
0
 10
-242.629
 20
76.4453
 11
-242.533
 21
76.6075
  0
LINE
  8
0
 10
-242.533
 20
76.6075
 11
-242.427
 21
76.7634
  0
LINE
  8
0
 10
-242.427
 20
76.7634
 11
-242.312
 21
76.9123
  0
LINE
  8
0
 10
-242.312
 20
76.9123
 11
-242.187
 21
77.0536
  0
LINE
  8
0
 10
-242.187
 20
77.0536
 11
-242.054
 21
77.1869
  0
LINE
  8
0
 10
-242.054
 20
77.1869
 11
-241.912
 21
77.3115
  0
LINE
  8
0
 10
-241.912
 20
77.3115
 11
-241.763
 21
77.427
  0
LINE
  8
0
 10
-241.763
 20
77.427
 11
-241.607
 21
77.533
  0
LINE
  8
0
 10
-241.607
 20
77.533
 11
-241.445
 21
77.6289
  0
LINE
  8
0
 10
-241.445
 20
77.6289
 11
-241.277
 21
77.7145
  0
LINE
  8
0
 10
-241.277
 20
77.7145
 11
-241.104
 21
77.7893
  0
LINE
  8
0
 10
-241.104
 20
77.7893
 11
-240.927
 21
77.8532
  0
LINE
  8
0
 10
-240.927
 20
77.8532
 11
-240.746
 21
77.9057
  0
LINE
  8
0
 10
-240.746
 20
77.9057
 11
-240.562
 21
77.9469
  0
LINE
  8
0
 10
-240.562
 20
77.9469
 11
-240.376
 21
77.9763
  0
LINE
  8
0
 10
-240.376
 20
77.9763
 11
-240.188
 21
77.9941
  0
LINE
  8
0
 10
-240.188
 20
77.9941
 11
-240
 21
78
  0
LINE
  8
0
 10
-240
 20
78
 11
-239.812
 21
77.9941
  0
LINE
  8
0
 10
-239.812
 20
77.9941
 11
-239.624
 21
77.9763
  0
LINE
  8
0
 10
-239.624
 20
77.9763
 11
-239.438
 21
77.9469
  0
LINE
  8
0
 10
-239.438
 20
77.9469
 11
-239.254
 21
77.9057
  0
LINE
  8
0
 10
-239.254
 20
77.9057
 11
-239.073
 21
77.8532
  0
LINE
  8
0
 10
-239.073
 20
77.8532
 11
-238.896
 21
77.7893
  0
LINE
  8
0
 10
-238.896
 20
77.7893
 11
-238.723
 21
77.7145
  0
LINE
  8
0
 10
-238.723
 20
77.7145
 11
-238.555
 21
77.6289
  0
LINE
  8
0
 10
-238.555
 20
77.6289
 11
-238.393
 21
77.533
  0
LINE
  8
0
 10
-238.393
 20
77.533
 11
-238.237
 21
77.427
  0
LINE
  8
0
 10
-238.237
 20
77.427
 11
-238.088
 21
77.3115
  0
LINE
  8
0
 10
-238.088
 20
77.3115
 11
-237.946
 21
77.1869
  0
LINE
  8
0
 10
-237.946
 20
77.1869
 11
-237.813
 21
77.0536
  0
LINE
  8
0
 10
-237.813
 20
77.0536
 11
-237.688
 21
76.9123
  0
LINE
  8
0
 10
-237.688
 20
76.9123
 11
-237.573
 21
76.7634
  0
LINE
  8
0
 10
-237.573
 20
76.7634
 11
-237.467
 21
76.6075
  0
LINE
  8
0
 10
-237.467
 20
76.6075
 11
-237.371
 21
76.4453
  0
LINE
  8
0
 10
-237.371
 20
76.4453
 11
-237.286
 21
76.2773
  0
LINE
  8
0
 10
-237.286
 20
76.2773
 11
-237.211
 21
76.1044
  0
LINE
  8
0
 10
-237.211
 20
76.1044
 11
-237.147
 21
75.927
  0
LINE
  8
0
 10
-237.147
 20
75.927
 11
-237.094
 21
75.7461
  0
LINE
  8
0
 10
-237.094
 20
75.7461
 11
-237.053
 21
75.5621
  0
LINE
  8
0
 10
-237.053
 20
75.5621
 11
-237.024
 21
75.376
  0
LINE
  8
0
 10
-237.024
 20
75.376
 11
-237.006
 21
75.1884
  0
LINE
  8
0
 10
-237.006
 20
75.1884
 11
-237
 21
75
  0
LINE
  8
0
 10
-237
 20
75
 11
-237.006
 21
74.8116
  0
LINE
  8
0
 10
-237.006
 20
74.8116
 11
-237.024
 21
74.624
  0
LINE
  8
0
 10
-237.024
 20
74.624
 11
-237.053
 21
74.4379
  0
LINE
  8
0
 10
-237.053
 20
74.4379
 11
-237.094
 21
74.2539
  0
LINE
  8
0
 10
-237.094
 20
74.2539
 11
-237.147
 21
74.073
  0
LINE
  8
0
 10
-237.147
 20
74.073
 11
-237.211
 21
73.8956
  0
LINE
  8
0
 10
-237.211
 20
73.8956
 11
-237.286
 21
73.7227
  0
LINE
  8
0
 10
-237.286
 20
73.7227
 11
-237.371
 21
73.5547
  0
LINE
  8
0
 10
-237.371
 20
73.5547
 11
-237.467
 21
73.3925
  0
LINE
  8
0
 10
-237.467
 20
73.3925
 11
-237.573
 21
73.2366
  0
LINE
  8
0
 10
-237.573
 20
73.2366
 11
-237.688
 21
73.0877
  0
LINE
  8
0
 10
-237.688
 20
73.0877
 11
-237.813
 21
72.9464
  0
LINE
  8
0
 10
-237.813
 20
72.9464
 11
-237.946
 21
72.8131
  0
LINE
  8
0
 10
-237.946
 20
72.8131
 11
-238.088
 21
72.6885
  0
LINE
  8
0
 10
-238.088
 20
72.6885
 11
-238.237
 21
72.573
  0
LINE
  8
0
 10
-238.237
 20
72.573
 11
-238.393
 21
72.467
  0
LINE
  8
0
 10
-238.393
 20
72.467
 11
-238.555
 21
72.3711
  0
LINE
  8
0
 10
-238.555
 20
72.3711
 11
-238.723
 21
72.2855
  0
LINE
  8
0
 10
-238.723
 20
72.2855
 11
-238.896
 21
72.2107
  0
LINE
  8
0
 10
-238.896
 20
72.2107
 11
-239.073
 21
72.1468
  0
LINE
  8
0
 10
-239.073
 20
72.1468
 11
-239.254
 21
72.0943
  0
LINE
  8
0
 10
-239.254
 20
72.0943
 11
-239.438
 21
72.0531
  0
LINE
  8
0
 10
-239.438
 20
72.0531
 11
-239.624
 21
72.0237
  0
LINE
  8
0
 10
-239.624
 20
72.0237
 11
-239.812
 21
72.0059
  0
LINE
  8
0
 10
-239.812
 20
72.0059
 11
-240
 21
72
  0
LINE
  8
0
 10
-240
 20
72
 11
-240.188
 21
72.0059
  0
LINE
  8
0
 10
21.4622
 20
9.50591
 11
21.2746
 21
9.52365
  0
LINE
  8
0
 10
21.2746
 20
9.52365
 11
21.0885
 21
9.55313
  0
LINE
  8
0
 10
21.0885
 20
9.55313
 11
20.9046
 21
9.59424
  0
LINE
  8
0
 10
20.9046
 20
9.59424
 11
20.7236
 21
9.64682
  0
LINE
  8
0
 10
20.7236
 20
9.64682
 11
20.5462
 21
9.71066
  0
LINE
  8
0
 10
20.5462
 20
9.71066
 11
20.3733
 21
9.78551
  0
LINE
  8
0
 10
20.3733
 20
9.78551
 11
20.2054
 21
9.87108
  0
LINE
  8
0
 10
20.2054
 20
9.87108
 11
20.0432
 21
9.96701
  0
LINE
  8
0
 10
20.0432
 20
9.96701
 11
19.8873
 21
10.0729
  0
LINE
  8
0
 10
19.8873
 20
10.0729
 11
19.7384
 21
10.1884
  0
LINE
  8
0
 10
19.7384
 20
10.1884
 11
19.597
 21
10.3131
  0
LINE
  8
0
 10
19.597
 20
10.3131
 11
19.4637
 21
10.4464
  0
LINE
  8
0
 10
19.4637
 20
10.4464
 11
19.3391
 21
10.5877
  0
LINE
  8
0
 10
19.3391
 20
10.5877
 11
19.2236
 21
10.7366
  0
LINE
  8
0
 10
19.2236
 20
10.7366
 11
19.1176
 21
10.8925
  0
LINE
  8
0
 10
19.1176
 20
10.8925
 11
19.0217
 21
11.0547
  0
LINE
  8
0
 10
19.0217
 20
11.0547
 11
18.9361
 21
11.2227
  0
LINE
  8
0
 10
18.9361
 20
11.2227
 11
18.8613
 21
11.3956
  0
LINE
  8
0
 10
18.8613
 20
11.3956
 11
18.7975
 21
11.5729
  0
LINE
  8
0
 10
18.7975
 20
11.5729
 11
18.7449
 21
11.7539
  0
LINE
  8
0
 10
18.7449
 20
11.7539
 11
18.7038
 21
11.9379
  0
LINE
  8
0
 10
18.7038
 20
11.9379
 11
18.6743
 21
12.124
  0
LINE
  8
0
 10
18.6743
 20
12.124
 11
18.6566
 21
12.3116
  0
LINE
  8
0
 10
18.6566
 20
12.3116
 11
18.6506
 21
12.5
  0
LINE
  8
0
 10
18.6506
 20
12.5
 11
18.6566
 21
12.6884
  0
LINE
  8
0
 10
18.6566
 20
12.6884
 11
18.6743
 21
12.876
  0
LINE
  8
0
 10
18.6743
 20
12.876
 11
18.7038
 21
13.0621
  0
LINE
  8
0
 10
18.7038
 20
13.0621
 11
18.7449
 21
13.2461
  0
LINE
  8
0
 10
18.7449
 20
13.2461
 11
18.7975
 21
13.427
  0
LINE
  8
0
 10
18.7975
 20
13.427
 11
18.8613
 21
13.6044
  0
LINE
  8
0
 10
18.8613
 20
13.6044
 11
18.9361
 21
13.7773
  0
LINE
  8
0
 10
18.9361
 20
13.7773
 11
19.0217
 21
13.9453
  0
LINE
  8
0
 10
19.0217
 20
13.9453
 11
19.1176
 21
14.1075
  0
LINE
  8
0
 10
19.1176
 20
14.1075
 11
19.2236
 21
14.2634
  0
LINE
  8
0
 10
19.2236
 20
14.2634
 11
19.3391
 21
14.4123
  0
LINE
  8
0
 10
19.3391
 20
14.4123
 11
19.4637
 21
14.5536
  0
LINE
  8
0
 10
19.4637
 20
14.5536
 11
19.597
 21
14.6869
  0
LINE
  8
0
 10
19.597
 20
14.6869
 11
19.7384
 21
14.8115
  0
LINE
  8
0
 10
19.7384
 20
14.8115
 11
19.8873
 21
14.927
  0
LINE
  8
0
 10
19.8873
 20
14.927
 11
20.0432
 21
15.033
  0
LINE
  8
0
 10
20.0432
 20
15.033
 11
20.2054
 21
15.1289
  0
LINE
  8
0
 10
20.2054
 20
15.1289
 11
20.3733
 21
15.2145
  0
LINE
  8
0
 10
20.3733
 20
15.2145
 11
20.5462
 21
15.2893
  0
LINE
  8
0
 10
20.5462
 20
15.2893
 11
20.7236
 21
15.3532
  0
LINE
  8
0
 10
20.7236
 20
15.3532
 11
20.9046
 21
15.4057
  0
LINE
  8
0
 10
20.9046
 20
15.4057
 11
21.0885
 21
15.4469
  0
LINE
  8
0
 10
21.0885
 20
15.4469
 11
21.2746
 21
15.4763
  0
LINE
  8
0
 10
21.2746
 20
15.4763
 11
21.4622
 21
15.4941
  0
LINE
  8
0
 10
21.4622
 20
15.4941
 11
21.6506
 21
15.5
  0
LINE
  8
0
 10
21.6506
 20
15.5
 11
21.839
 21
15.4941
  0
LINE
  8
0
 10
21.839
 20
15.4941
 11
22.0266
 21
15.4763
  0
LINE
  8
0
 10
22.0266
 20
15.4763
 11
22.2128
 21
15.4469
  0
LINE
  8
0
 10
22.2128
 20
15.4469
 11
22.3967
 21
15.4057
  0
LINE
  8
0
 10
22.3967
 20
15.4057
 11
22.5777
 21
15.3532
  0
LINE
  8
0
 10
22.5777
 20
15.3532
 11
22.755
 21
15.2893
  0
LINE
  8
0
 10
22.755
 20
15.2893
 11
22.928
 21
15.2145
  0
LINE
  8
0
 10
22.928
 20
15.2145
 11
23.0959
 21
15.1289
  0
LINE
  8
0
 10
23.0959
 20
15.1289
 11
23.2581
 21
15.033
  0
LINE
  8
0
 10
23.2581
 20
15.033
 11
23.414
 21
14.927
  0
LINE
  8
0
 10
23.414
 20
14.927
 11
23.5629
 21
14.8115
  0
LINE
  8
0
 10
23.5629
 20
14.8115
 11
23.7043
 21
14.6869
  0
LINE
  8
0
 10
23.7043
 20
14.6869
 11
23.8375
 21
14.5536
  0
LINE
  8
0
 10
23.8375
 20
14.5536
 11
23.9622
 21
14.4123
  0
LINE
  8
0
 10
23.9622
 20
14.4123
 11
24.0777
 21
14.2634
  0
LINE
  8
0
 10
24.0777
 20
14.2634
 11
24.1836
 21
14.1075
  0
LINE
  8
0
 10
24.1836
 20
14.1075
 11
24.2795
 21
13.9453
  0
LINE
  8
0
 10
24.2795
 20
13.9453
 11
24.3651
 21
13.7773
  0
LINE
  8
0
 10
24.3651
 20
13.7773
 11
24.44
 21
13.6044
  0
LINE
  8
0
 10
24.44
 20
13.6044
 11
24.5038
 21
13.427
  0
LINE
  8
0
 10
24.5038
 20
13.427
 11
24.5564
 21
13.2461
  0
LINE
  8
0
 10
24.5564
 20
13.2461
 11
24.5975
 21
13.0621
  0
LINE
  8
0
 10
24.5975
 20
13.0621
 11
24.627
 21
12.876
  0
LINE
  8
0
 10
24.627
 20
12.876
 11
24.6447
 21
12.6884
  0
LINE
  8
0
 10
24.6447
 20
12.6884
 11
24.6506
 21
12.5
  0
LINE
  8
0
 10
24.6506
 20
12.5
 11
24.6447
 21
12.3116
  0
LINE
  8
0
 10
24.6447
 20
12.3116
 11
24.627
 21
12.124
  0
LINE
  8
0
 10
24.627
 20
12.124
 11
24.5975
 21
11.9379
  0
LINE
  8
0
 10
24.5975
 20
11.9379
 11
24.5564
 21
11.7539
  0
LINE
  8
0
 10
24.5564
 20
11.7539
 11
24.5038
 21
11.5729
  0
LINE
  8
0
 10
24.5038
 20
11.5729
 11
24.44
 21
11.3956
  0
LINE
  8
0
 10
24.44
 20
11.3956
 11
24.3651
 21
11.2227
  0
LINE
  8
0
 10
24.3651
 20
11.2227
 11
24.2795
 21
11.0547
  0
LINE
  8
0
 10
24.2795
 20
11.0547
 11
24.1836
 21
10.8925
  0
LINE
  8
0
 10
24.1836
 20
10.8925
 11
24.0777
 21
10.7366
  0
LINE
  8
0
 10
24.0777
 20
10.7366
 11
23.9622
 21
10.5877
  0
LINE
  8
0
 10
23.9622
 20
10.5877
 11
23.8375
 21
10.4464
  0
LINE
  8
0
 10
23.8375
 20
10.4464
 11
23.7043
 21
10.3131
  0
LINE
  8
0
 10
23.7043
 20
10.3131
 11
23.5629
 21
10.1884
  0
LINE
  8
0
 10
23.5629
 20
10.1884
 11
23.414
 21
10.0729
  0
LINE
  8
0
 10
23.414
 20
10.0729
 11
23.2581
 21
9.96701
  0
LINE
  8
0
 10
23.2581
 20
9.96701
 11
23.0959
 21
9.87108
  0
LINE
  8
0
 10
23.0959
 20
9.87108
 11
22.928
 21
9.78551
  0
LINE
  8
0
 10
22.928
 20
9.78551
 11
22.755
 21
9.71066
  0
LINE
  8
0
 10
22.755
 20
9.71066
 11
22.5777
 21
9.64682
  0
LINE
  8
0
 10
22.5777
 20
9.64682
 11
22.3967
 21
9.59424
  0
LINE
  8
0
 10
22.3967
 20
9.59424
 11
22.2128
 21
9.55313
  0
LINE
  8
0
 10
22.2128
 20
9.55313
 11
22.0266
 21
9.52365
  0
LINE
  8
0
 10
22.0266
 20
9.52365
 11
21.839
 21
9.50591
  0
LINE
  8
0
 10
21.839
 20
9.50591
 11
21.6506
 21
9.5
  0
LINE
  8
0
 10
21.6506
 20
9.5
 11
21.4622
 21
9.50591
  0
LINE
  8
0
 10
-21.839
 20
9.50591
 11
-22.0266
 21
9.52365
  0
LINE
  8
0
 10
-22.0266
 20
9.52365
 11
-22.2128
 21
9.55313
  0
LINE
  8
0
 10
-22.2128
 20
9.55313
 11
-22.3967
 21
9.59424
  0
LINE
  8
0
 10
-22.3967
 20
9.59424
 11
-22.5777
 21
9.64682
  0
LINE
  8
0
 10
-22.5777
 20
9.64682
 11
-22.755
 21
9.71066
  0
LINE
  8
0
 10
-22.755
 20
9.71066
 11
-22.928
 21
9.78551
  0
LINE
  8
0
 10
-22.928
 20
9.78551
 11
-23.0959
 21
9.87108
  0
LINE
  8
0
 10
-23.0959
 20
9.87108
 11
-23.2581
 21
9.96701
  0
LINE
  8
0
 10
-23.2581
 20
9.96701
 11
-23.414
 21
10.0729
  0
LINE
  8
0
 10
-23.414
 20
10.0729
 11
-23.5629
 21
10.1884
  0
LINE
  8
0
 10
-23.5629
 20
10.1884
 11
-23.7043
 21
10.3131
  0
LINE
  8
0
 10
-23.7043
 20
10.3131
 11
-23.8375
 21
10.4464
  0
LINE
  8
0
 10
-23.8375
 20
10.4464
 11
-23.9622
 21
10.5877
  0
LINE
  8
0
 10
-23.9622
 20
10.5877
 11
-24.0777
 21
10.7366
  0
LINE
  8
0
 10
-24.0777
 20
10.7366
 11
-24.1836
 21
10.8925
  0
LINE
  8
0
 10
-24.1836
 20
10.8925
 11
-24.2795
 21
11.0547
  0
LINE
  8
0
 10
-24.2795
 20
11.0547
 11
-24.3651
 21
11.2227
  0
LINE
  8
0
 10
-24.3651
 20
11.2227
 11
-24.44
 21
11.3956
  0
LINE
  8
0
 10
-24.44
 20
11.3956
 11
-24.5038
 21
11.5729
  0
LINE
  8
0
 10
-24.5038
 20
11.5729
 11
-24.5564
 21
11.7539
  0
LINE
  8
0
 10
-24.5564
 20
11.7539
 11
-24.5975
 21
11.9379
  0
LINE
  8
0
 10
-24.5975
 20
11.9379
 11
-24.627
 21
12.124
  0
LINE
  8
0
 10
-24.627
 20
12.124
 11
-24.6447
 21
12.3116
  0
LINE
  8
0
 10
-24.6447
 20
12.3116
 11
-24.6506
 21
12.5
  0
LINE
  8
0
 10
-24.6506
 20
12.5
 11
-24.6447
 21
12.6884
  0
LINE
  8
0
 10
-24.6447
 20
12.6884
 11
-24.627
 21
12.876
  0
LINE
  8
0
 10
-24.627
 20
12.876
 11
-24.5975
 21
13.0621
  0
LINE
  8
0
 10
-24.5975
 20
13.0621
 11
-24.5564
 21
13.2461
  0
LINE
  8
0
 10
-24.5564
 20
13.2461
 11
-24.5038
 21
13.427
  0
LINE
  8
0
 10
-24.5038
 20
13.427
 11
-24.44
 21
13.6044
  0
LINE
  8
0
 10
-24.44
 20
13.6044
 11
-24.3651
 21
13.7773
  0
LINE
  8
0
 10
-24.3651
 20
13.7773
 11
-24.2795
 21
13.9453
  0
LINE
  8
0
 10
-24.2795
 20
13.9453
 11
-24.1836
 21
14.1075
  0
LINE
  8
0
 10
-24.1836
 20
14.1075
 11
-24.0777
 21
14.2634
  0
LINE
  8
0
 10
-24.0777
 20
14.2634
 11
-23.9622
 21
14.4123
  0
LINE
  8
0
 10
-23.9622
 20
14.4123
 11
-23.8375
 21
14.5536
  0
LINE
  8
0
 10
-23.8375
 20
14.5536
 11
-23.7043
 21
14.6869
  0
LINE
  8
0
 10
-23.7043
 20
14.6869
 11
-23.5629
 21
14.8115
  0
LINE
  8
0
 10
-23.5629
 20
14.8115
 11
-23.414
 21
14.927
  0
LINE
  8
0
 10
-23.414
 20
14.927
 11
-23.2581
 21
15.033
  0
LINE
  8
0
 10
-23.2581
 20
15.033
 11
-23.0959
 21
15.1289
  0
LINE
  8
0
 10
-23.0959
 20
15.1289
 11
-22.928
 21
15.2145
  0
LINE
  8
0
 10
-22.928
 20
15.2145
 11
-22.755
 21
15.2893
  0
LINE
  8
0
 10
-22.755
 20
15.2893
 11
-22.5777
 21
15.3532
  0
LINE
  8
0
 10
-22.5777
 20
15.3532
 11
-22.3967
 21
15.4057
  0
LINE
  8
0
 10
-22.3967
 20
15.4057
 11
-22.2128
 21
15.4469
  0
LINE
  8
0
 10
-22.2128
 20
15.4469
 11
-22.0266
 21
15.4763
  0
LINE
  8
0
 10
-22.0266
 20
15.4763
 11
-21.839
 21
15.4941
  0
LINE
  8
0
 10
-21.839
 20
15.4941
 11
-21.6506
 21
15.5
  0
LINE
  8
0
 10
-21.6506
 20
15.5
 11
-21.4622
 21
15.4941
  0
LINE
  8
0
 10
-21.4622
 20
15.4941
 11
-21.2746
 21
15.4763
  0
LINE
  8
0
 10
-21.2746
 20
15.4763
 11
-21.0885
 21
15.4469
  0
LINE
  8
0
 10
-21.0885
 20
15.4469
 11
-20.9046
 21
15.4057
  0
LINE
  8
0
 10
-20.9046
 20
15.4057
 11
-20.7236
 21
15.3532
  0
LINE
  8
0
 10
-20.7236
 20
15.3532
 11
-20.5462
 21
15.2893
  0
LINE
  8
0
 10
-20.5462
 20
15.2893
 11
-20.3733
 21
15.2145
  0
LINE
  8
0
 10
-20.3733
 20
15.2145
 11
-20.2054
 21
15.1289
  0
LINE
  8
0
 10
-20.2054
 20
15.1289
 11
-20.0432
 21
15.033
  0
LINE
  8
0
 10
-20.0432
 20
15.033
 11
-19.8873
 21
14.927
  0
LINE
  8
0
 10
-19.8873
 20
14.927
 11
-19.7384
 21
14.8115
  0
LINE
  8
0
 10
-19.7384
 20
14.8115
 11
-19.597
 21
14.6869
  0
LINE
  8
0
 10
-19.597
 20
14.6869
 11
-19.4637
 21
14.5536
  0
LINE
  8
0
 10
-19.4637
 20
14.5536
 11
-19.3391
 21
14.4123
  0
LINE
  8
0
 10
-19.3391
 20
14.4123
 11
-19.2236
 21
14.2634
  0
LINE
  8
0
 10
-19.2236
 20
14.2634
 11
-19.1176
 21
14.1075
  0
LINE
  8
0
 10
-19.1176
 20
14.1075
 11
-19.0217
 21
13.9453
  0
LINE
  8
0
 10
-19.0217
 20
13.9453
 11
-18.9361
 21
13.7773
  0
LINE
  8
0
 10
-18.9361
 20
13.7773
 11
-18.8613
 21
13.6044
  0
LINE
  8
0
 10
-18.8613
 20
13.6044
 11
-18.7975
 21
13.427
  0
LINE
  8
0
 10
-18.7975
 20
13.427
 11
-18.7449
 21
13.2461
  0
LINE
  8
0
 10
-18.7449
 20
13.2461
 11
-18.7038
 21
13.0621
  0
LINE
  8
0
 10
-18.7038
 20
13.0621
 11
-18.6743
 21
12.876
  0
LINE
  8
0
 10
-18.6743
 20
12.876
 11
-18.6566
 21
12.6884
  0
LINE
  8
0
 10
-18.6566
 20
12.6884
 11
-18.6506
 21
12.5
  0
LINE
  8
0
 10
-18.6506
 20
12.5
 11
-18.6566
 21
12.3116
  0
LINE
  8
0
 10
-18.6566
 20
12.3116
 11
-18.6743
 21
12.124
  0
LINE
  8
0
 10
-18.6743
 20
12.124
 11
-18.7038
 21
11.9379
  0
LINE
  8
0
 10
-18.7038
 20
11.9379
 11
-18.7449
 21
11.7539
  0
LINE
  8
0
 10
-18.7449
 20
11.7539
 11
-18.7975
 21
11.5729
  0
LINE
  8
0
 10
-18.7975
 20
11.5729
 11
-18.8613
 21
11.3956
  0
LINE
  8
0
 10
-18.8613
 20
11.3956
 11
-18.9361
 21
11.2227
  0
LINE
  8
0
 10
-18.9361
 20
11.2227
 11
-19.0217
 21
11.0547
  0
LINE
  8
0
 10
-19.0217
 20
11.0547
 11
-19.1176
 21
10.8925
  0
LINE
  8
0
 10
-19.1176
 20
10.8925
 11
-19.2236
 21
10.7366
  0
LINE
  8
0
 10
-19.2236
 20
10.7366
 11
-19.3391
 21
10.5877
  0
LINE
  8
0
 10
-19.3391
 20
10.5877
 11
-19.4637
 21
10.4464
  0
LINE
  8
0
 10
-19.4637
 20
10.4464
 11
-19.597
 21
10.3131
  0
LINE
  8
0
 10
-19.597
 20
10.3131
 11
-19.7384
 21
10.1884
  0
LINE
  8
0
 10
-19.7384
 20
10.1884
 11
-19.8873
 21
10.0729
  0
LINE
  8
0
 10
-19.8873
 20
10.0729
 11
-20.0432
 21
9.96701
  0
LINE
  8
0
 10
-20.0432
 20
9.96701
 11
-20.2054
 21
9.87108
  0
LINE
  8
0
 10
-20.2054
 20
9.87108
 11
-20.3733
 21
9.78551
  0
LINE
  8
0
 10
-20.3733
 20
9.78551
 11
-20.5462
 21
9.71066
  0
LINE
  8
0
 10
-20.5462
 20
9.71066
 11
-20.7236
 21
9.64682
  0
LINE
  8
0
 10
-20.7236
 20
9.64682
 11
-20.9046
 21
9.59424
  0
LINE
  8
0
 10
-20.9046
 20
9.59424
 11
-21.0885
 21
9.55313
  0
LINE
  8
0
 10
-21.0885
 20
9.55313
 11
-21.2746
 21
9.52365
  0
LINE
  8
0
 10
-21.2746
 20
9.52365
 11
-21.4622
 21
9.50591
  0
LINE
  8
0
 10
-21.4622
 20
9.50591
 11
-21.6506
 21
9.5
  0
LINE
  8
0
 10
-21.6506
 20
9.5
 11
-21.839
 21
9.50591
  0
LINE
  8
0
 10
119.341
 20
-10.4793
 11
118.684
 21
-10.4172
  0
LINE
  8
0
 10
118.684
 20
-10.4172
 11
118.032
 21
-10.314
  0
LINE
  8
0
 10
118.032
 20
-10.314
 11
117.389
 21
-10.1701
  0
LINE
  8
0
 10
117.389
 20
-10.1701
 11
116.755
 21
-9.98608
  0
LINE
  8
0
 10
116.755
 20
-9.98608
 11
116.135
 21
-9.76265
  0
LINE
  8
0
 10
116.135
 20
-9.76265
 11
115.529
 21
-9.50067
  0
LINE
  8
0
 10
115.529
 20
-9.50067
 11
114.942
 21
-9.20122
  0
LINE
  8
0
 10
114.942
 20
-9.20122
 11
114.374
 21
-8.86543
  0
LINE
  8
0
 10
114.374
 20
-8.86543
 11
113.828
 21
-8.49467
  0
LINE
  8
0
 10
113.828
 20
-8.49467
 11
113.307
 21
-8.09038
  0
LINE
  8
0
 10
113.307
 20
-8.09038
 11
112.812
 21
-7.65416
  0
LINE
  8
0
 10
112.812
 20
-7.65416
 11
112.346
 21
-7.18774
  0
LINE
  8
0
 10
112.346
 20
-7.18774
 11
111.91
 21
-6.69295
  0
LINE
  8
0
 10
111.91
 20
-6.69295
 11
111.505
 21
-6.17174
  0
LINE
  8
0
 10
111.505
 20
-6.17174
 11
111.135
 21
-5.62617
  0
LINE
  8
0
 10
111.135
 20
-5.62617
 11
110.799
 21
-5.05841
  0
LINE
  8
0
 10
110.799
 20
-5.05841
 11
110.499
 21
-4.47067
  0
LINE
  8
0
 10
110.499
 20
-4.47067
 11
110.237
 21
-3.8653
  0
LINE
  8
0
 10
110.237
 20
-3.8653
 11
110.014
 21
-3.24467
  0
LINE
  8
0
 10
110.014
 20
-3.24467
 11
109.83
 21
-2.61124
  0
LINE
  8
0
 10
109.83
 20
-2.61124
 11
109.686
 21
-1.9675
  0
LINE
  8
0
 10
109.686
 20
-1.9675
 11
109.583
 21
-1.31599
  0
LINE
  8
0
 10
109.583
 20
-1.31599
 11
109.521
 21
-0.659286
  0
LINE
  8
0
 10
109.521
 20
-0.659286
 11
109.5
 21
0
  0
LINE
  8
0
 10
109.5
 20
0
 11
109.521
 21
0.659286
  0
LINE
  8
0
 10
109.521
 20
0.659286
 11
109.583
 21
1.31599
  0
LINE
  8
0
 10
109.583
 20
1.31599
 11
109.686
 21
1.9675
  0
LINE
  8
0
 10
109.686
 20
1.9675
 11
109.83
 21
2.61124
  0
LINE
  8
0
 10
109.83
 20
2.61124
 11
110.014
 21
3.24467
  0
LINE
  8
0
 10
110.014
 20
3.24467
 11
110.237
 21
3.8653
  0
LINE
  8
0
 10
110.237
 20
3.8653
 11
110.499
 21
4.47067
  0
LINE
  8
0
 10
110.499
 20
4.47067
 11
110.799
 21
5.05841
  0
LINE
  8
0
 10
110.799
 20
5.05841
 11
111.135
 21
5.62617
  0
LINE
  8
0
 10
111.135
 20
5.62617
 11
111.505
 21
6.17174
  0
LINE
  8
0
 10
111.505
 20
6.17174
 11
111.91
 21
6.69295
  0
LINE
  8
0
 10
111.91
 20
6.69295
 11
112.346
 21
7.18774
  0
LINE
  8
0
 10
112.346
 20
7.18774
 11
112.812
 21
7.65416
  0
LINE
  8
0
 10
112.812
 20
7.65416
 11
113.307
 21
8.09038
  0
LINE
  8
0
 10
113.307
 20
8.09038
 11
113.828
 21
8.49467
  0
LINE
  8
0
 10
113.828
 20
8.49467
 11
114.374
 21
8.86543
  0
LINE
  8
0
 10
114.374
 20
8.86543
 11
114.942
 21
9.20122
  0
LINE
  8
0
 10
114.942
 20
9.20122
 11
115.529
 21
9.50067
  0
LINE
  8
0
 10
115.529
 20
9.50067
 11
116.135
 21
9.76265
  0
LINE
  8
0
 10
116.135
 20
9.76265
 11
116.755
 21
9.98608
  0
LINE
  8
0
 10
116.755
 20
9.98608
 11
117.389
 21
10.1701
  0
LINE
  8
0
 10
117.389
 20
10.1701
 11
118.032
 21
10.314
  0
LINE
  8
0
 10
118.032
 20
10.314
 11
118.684
 21
10.4172
  0
LINE
  8
0
 10
118.684
 20
10.4172
 11
119.341
 21
10.4793
  0
LINE
  8
0
 10
119.341
 20
10.4793
 11
120
 21
10.5
  0
LINE
  8
0
 10
120
 20
10.5
 11
120.659
 21
10.4793
  0
LINE
  8
0
 10
120.659
 20
10.4793
 11
121.316
 21
10.4172
  0
LINE
  8
0
 10
121.316
 20
10.4172
 11
121.967
 21
10.314
  0
LINE
  8
0
 10
121.967
 20
10.314
 11
122.611
 21
10.1701
  0
LINE
  8
0
 10
122.611
 20
10.1701
 11
123.245
 21
9.98608
  0
LINE
  8
0
 10
123.245
 20
9.98608
 11
123.865
 21
9.76265
  0
LINE
  8
0
 10
123.865
 20
9.76265
 11
124.471
 21
9.50067
  0
LINE
  8
0
 10
124.471
 20
9.50067
 11
125.058
 21
9.20122
  0
LINE
  8
0
 10
125.058
 20
9.20122
 11
125.626
 21
8.86543
  0
LINE
  8
0
 10
125.626
 20
8.86543
 11
126.172
 21
8.49467
  0
LINE
  8
0
 10
126.172
 20
8.49467
 11
126.693
 21
8.09038
  0
LINE
  8
0
 10
126.693
 20
8.09038
 11
127.188
 21
7.65416
  0
LINE
  8
0
 10
127.188
 20
7.65416
 11
127.654
 21
7.18774
  0
LINE
  8
0
 10
127.654
 20
7.18774
 11
128.09
 21
6.69295
  0
LINE
  8
0
 10
128.09
 20
6.69295
 11
128.495
 21
6.17174
  0
LINE
  8
0
 10
128.495
 20
6.17174
 11
128.865
 21
5.62617
  0
LINE
  8
0
 10
128.865
 20
5.62617
 11
129.201
 21
5.05841
  0
LINE
  8
0
 10
129.201
 20
5.05841
 11
129.501
 21
4.47067
  0
LINE
  8
0
 10
129.501
 20
4.47067
 11
129.763
 21
3.8653
  0
LINE
  8
0
 10
129.763
 20
3.8653
 11
129.986
 21
3.24467
  0
LINE
  8
0
 10
129.986
 20
3.24467
 11
130.17
 21
2.61124
  0
LINE
  8
0
 10
130.17
 20
2.61124
 11
130.314
 21
1.9675
  0
LINE
  8
0
 10
130.314
 20
1.9675
 11
130.417
 21
1.31599
  0
LINE
  8
0
 10
130.417
 20
1.31599
 11
130.479
 21
0.659286
  0
LINE
  8
0
 10
130.479
 20
0.659286
 11
130.5
 21
0
  0
LINE
  8
0
 10
130.5
 20
0
 11
130.479
 21
-0.659286
  0
LINE
  8
0
 10
130.479
 20
-0.659286
 11
130.417
 21
-1.31599
  0
LINE
  8
0
 10
130.417
 20
-1.31599
 11
130.314
 21
-1.9675
  0
LINE
  8
0
 10
130.314
 20
-1.9675
 11
130.17
 21
-2.61124
  0
LINE
  8
0
 10
130.17
 20
-2.61124
 11
129.986
 21
-3.24467
  0
LINE
  8
0
 10
129.986
 20
-3.24467
 11
129.763
 21
-3.8653
  0
LINE
  8
0
 10
129.763
 20
-3.8653
 11
129.501
 21
-4.47067
  0
LINE
  8
0
 10
129.501
 20
-4.47067
 11
129.201
 21
-5.05841
  0
LINE
  8
0
 10
129.201
 20
-5.05841
 11
128.865
 21
-5.62617
  0
LINE
  8
0
 10
128.865
 20
-5.62617
 11
128.495
 21
-6.17174
  0
LINE
  8
0
 10
128.495
 20
-6.17174
 11
128.09
 21
-6.69295
  0
LINE
  8
0
 10
128.09
 20
-6.69295
 11
127.654
 21
-7.18774
  0
LINE
  8
0
 10
127.654
 20
-7.18774
 11
127.188
 21
-7.65416
  0
LINE
  8
0
 10
127.188
 20
-7.65416
 11
126.693
 21
-8.09038
  0
LINE
  8
0
 10
126.693
 20
-8.09038
 11
126.172
 21
-8.49467
  0
LINE
  8
0
 10
126.172
 20
-8.49467
 11
125.626
 21
-8.86543
  0
LINE
  8
0
 10
125.626
 20
-8.86543
 11
125.058
 21
-9.20122
  0
LINE
  8
0
 10
125.058
 20
-9.20122
 11
124.471
 21
-9.50067
  0
LINE
  8
0
 10
124.471
 20
-9.50067
 11
123.865
 21
-9.76265
  0
LINE
  8
0
 10
123.865
 20
-9.76265
 11
123.245
 21
-9.98608
  0
LINE
  8
0
 10
123.245
 20
-9.98608
 11
122.611
 21
-10.1701
  0
LINE
  8
0
 10
122.611
 20
-10.1701
 11
121.967
 21
-10.314
  0
LINE
  8
0
 10
121.967
 20
-10.314
 11
121.316
 21
-10.4172
  0
LINE
  8
0
 10
121.316
 20
-10.4172
 11
120.659
 21
-10.4793
  0
LINE
  8
0
 10
120.659
 20
-10.4793
 11
120
 21
-10.5
  0
LINE
  8
0
 10
120
 20
-10.5
 11
119.341
 21
-10.4793
  0
LINE
  8
0
 10
-0.596497
 20
-9.48125
 11
-1.19066
 21
-9.42508
  0
LINE
  8
0
 10
-1.19066
 20
-9.42508
 11
-1.78012
 21
-9.33173
  0
LINE
  8
0
 10
-1.78012
 20
-9.33173
 11
-2.36255
 21
-9.20154
  0
LINE
  8
0
 10
-2.36255
 20
-9.20154
 11
-2.93565
 21
-9.03503
  0
LINE
  8
0
 10
-2.93565
 20
-9.03503
 11
-3.49718
 21
-8.83287
  0
LINE
  8
0
 10
-3.49718
 20
-8.83287
 11
-4.04489
 21
-8.59586
  0
LINE
  8
0
 10
-4.04489
 20
-8.59586
 11
-4.57664
 21
-8.32491
  0
LINE
  8
0
 10
-4.57664
 20
-8.32491
 11
-5.09035
 21
-8.0211
  0
LINE
  8
0
 10
-5.09035
 20
-8.0211
 11
-5.58395
 21
-7.68565
  0
LINE
  8
0
 10
-5.58395
 20
-7.68565
 11
-6.05553
 21
-7.31987
  0
LINE
  8
0
 10
-6.05553
 20
-7.31987
 11
-6.50319
 21
-6.9252
  0
LINE
  8
0
 10
-6.50319
 20
-6.9252
 11
-6.9252
 21
-6.50319
  0
LINE
  8
0
 10
-6.9252
 20
-6.50319
 11
-7.31987
 21
-6.05553
  0
LINE
  8
0
 10
-7.31987
 20
-6.05553
 11
-7.68565
 21
-5.58395
  0
LINE
  8
0
 10
-7.68565
 20
-5.58395
 11
-8.0211
 21
-5.09035
  0
LINE
  8
0
 10
-8.0211
 20
-5.09035
 11
-8.32491
 21
-4.57664
  0
LINE
  8
0
 10
-8.32491
 20
-4.57664
 11
-8.59586
 21
-4.04489
  0
LINE
  8
0
 10
-8.59586
 20
-4.04489
 11
-8.83287
 21
-3.49718
  0
LINE
  8
0
 10
-8.83287
 20
-3.49718
 11
-9.03503
 21
-2.93565
  0
LINE
  8
0
 10
-9.03503
 20
-2.93565
 11
-9.20154
 21
-2.36255
  0
LINE
  8
0
 10
-9.20154
 20
-2.36255
 11
-9.33173
 21
-1.78012
  0
LINE
  8
0
 10
-9.33173
 20
-1.78012
 11
-9.42508
 21
-1.19066
  0
LINE
  8
0
 10
-9.42508
 20
-1.19066
 11
-9.48125
 21
-0.596497
  0
LINE
  8
0
 10
-9.48125
 20
-0.596497
 11
-9.5
 21
0
  0
LINE
  8
0
 10
-9.5
 20
0
 11
-9.48125
 21
0.596497
  0
LINE
  8
0
 10
-9.48125
 20
0.596497
 11
-9.42508
 21
1.19066
  0
LINE
  8
0
 10
-9.42508
 20
1.19066
 11
-9.33173
 21
1.78012
  0
LINE
  8
0
 10
-9.33173
 20
1.78012
 11
-9.20154
 21
2.36255
  0
LINE
  8
0
 10
-9.20154
 20
2.36255
 11
-9.03503
 21
2.93565
  0
LINE
  8
0
 10
-9.03503
 20
2.93565
 11
-8.83287
 21
3.49718
  0
LINE
  8
0
 10
-8.83287
 20
3.49718
 11
-8.59586
 21
4.04489
  0
LINE
  8
0
 10
-8.59586
 20
4.04489
 11
-8.32491
 21
4.57664
  0
LINE
  8
0
 10
-8.32491
 20
4.57664
 11
-8.0211
 21
5.09035
  0
LINE
  8
0
 10
-8.0211
 20
5.09035
 11
-7.68565
 21
5.58395
  0
LINE
  8
0
 10
-7.68565
 20
5.58395
 11
-7.31987
 21
6.05553
  0
LINE
  8
0
 10
-7.31987
 20
6.05553
 11
-6.9252
 21
6.50319
  0
LINE
  8
0
 10
-6.9252
 20
6.50319
 11
-6.50319
 21
6.9252
  0
LINE
  8
0
 10
-6.50319
 20
6.9252
 11
-6.05553
 21
7.31987
  0
LINE
  8
0
 10
-6.05553
 20
7.31987
 11
-5.58395
 21
7.68565
  0
LINE
  8
0
 10
-5.58395
 20
7.68565
 11
-5.09035
 21
8.0211
  0
LINE
  8
0
 10
-5.09035
 20
8.0211
 11
-4.57664
 21
8.32491
  0
LINE
  8
0
 10
-4.57664
 20
8.32491
 11
-4.04489
 21
8.59586
  0
LINE
  8
0
 10
-4.04489
 20
8.59586
 11
-3.49718
 21
8.83287
  0
LINE
  8
0
 10
-3.49718
 20
8.83287
 11
-2.93565
 21
9.03503
  0
LINE
  8
0
 10
-2.93565
 20
9.03503
 11
-2.36255
 21
9.20154
  0
LINE
  8
0
 10
-2.36255
 20
9.20154
 11
-1.78012
 21
9.33173
  0
LINE
  8
0
 10
-1.78012
 20
9.33173
 11
-1.19066
 21
9.42508
  0
LINE
  8
0
 10
-1.19066
 20
9.42508
 11
-0.596497
 21
9.48125
  0
LINE
  8
0
 10
-0.596497
 20
9.48125
 11
0
 21
9.5
  0
LINE
  8
0
 10
0
 20
9.5
 11
0.596497
 21
9.48125
  0
LINE
  8
0
 10
0.596497
 20
9.48125
 11
1.19066
 21
9.42508
  0
LINE
  8
0
 10
1.19066
 20
9.42508
 11
1.78012
 21
9.33173
  0
LINE
  8
0
 10
1.78012
 20
9.33173
 11
2.36255
 21
9.20154
  0
LINE
  8
0
 10
2.36255
 20
9.20154
 11
2.93565
 21
9.03503
  0
LINE
  8
0
 10
2.93565
 20
9.03503
 11
3.49718
 21
8.83287
  0
LINE
  8
0
 10
3.49718
 20
8.83287
 11
4.04489
 21
8.59586
  0
LINE
  8
0
 10
4.04489
 20
8.59586
 11
4.57664
 21
8.32491
  0
LINE
  8
0
 10
4.57664
 20
8.32491
 11
5.09035
 21
8.0211
  0
LINE
  8
0
 10
5.09035
 20
8.0211
 11
5.58395
 21
7.68565
  0
LINE
  8
0
 10
5.58395
 20
7.68565
 11
6.05553
 21
7.31987
  0
LINE
  8
0
 10
6.05553
 20
7.31987
 11
6.50319
 21
6.9252
  0
LINE
  8
0
 10
6.50319
 20
6.9252
 11
6.9252
 21
6.50319
  0
LINE
  8
0
 10
6.9252
 20
6.50319
 11
7.31987
 21
6.05553
  0
LINE
  8
0
 10
7.31987
 20
6.05553
 11
7.68565
 21
5.58395
  0
LINE
  8
0
 10
7.68565
 20
5.58395
 11
8.0211
 21
5.09035
  0
LINE
  8
0
 10
8.0211
 20
5.09035
 11
8.32491
 21
4.57664
  0
LINE
  8
0
 10
8.32491
 20
4.57664
 11
8.59586
 21
4.04489
  0
LINE
  8
0
 10
8.59586
 20
4.04489
 11
8.83287
 21
3.49718
  0
LINE
  8
0
 10
8.83287
 20
3.49718
 11
9.03503
 21
2.93565
  0
LINE
  8
0
 10
9.03503
 20
2.93565
 11
9.20154
 21
2.36255
  0
LINE
  8
0
 10
9.20154
 20
2.36255
 11
9.33173
 21
1.78012
  0
LINE
  8
0
 10
9.33173
 20
1.78012
 11
9.42508
 21
1.19066
  0
LINE
  8
0
 10
9.42508
 20
1.19066
 11
9.48125
 21
0.596497
  0
LINE
  8
0
 10
9.48125
 20
0.596497
 11
9.5
 21
0
  0
LINE
  8
0
 10
9.5
 20
0
 11
9.48125
 21
-0.596497
  0
LINE
  8
0
 10
9.48125
 20
-0.596497
 11
9.42508
 21
-1.19066
  0
LINE
  8
0
 10
9.42508
 20
-1.19066
 11
9.33173
 21
-1.78012
  0
LINE
  8
0
 10
9.33173
 20
-1.78012
 11
9.20154
 21
-2.36255
  0
LINE
  8
0
 10
9.20154
 20
-2.36255
 11
9.03503
 21
-2.93565
  0
LINE
  8
0
 10
9.03503
 20
-2.93565
 11
8.83287
 21
-3.49718
  0
LINE
  8
0
 10
8.83287
 20
-3.49718
 11
8.59586
 21
-4.04489
  0
LINE
  8
0
 10
8.59586
 20
-4.04489
 11
8.32491
 21
-4.57664
  0
LINE
  8
0
 10
8.32491
 20
-4.57664
 11
8.0211
 21
-5.09035
  0
LINE
  8
0
 10
8.0211
 20
-5.09035
 11
7.68565
 21
-5.58395
  0
LINE
  8
0
 10
7.68565
 20
-5.58395
 11
7.31987
 21
-6.05553
  0
LINE
  8
0
 10
7.31987
 20
-6.05553
 11
6.9252
 21
-6.50319
  0
LINE
  8
0
 10
6.9252
 20
-6.50319
 11
6.50319
 21
-6.9252
  0
LINE
  8
0
 10
6.50319
 20
-6.9252
 11
6.05553
 21
-7.31987
  0
LINE
  8
0
 10
6.05553
 20
-7.31987
 11
5.58395
 21
-7.68565
  0
LINE
  8
0
 10
5.58395
 20
-7.68565
 11
5.09035
 21
-8.0211
  0
LINE
  8
0
 10
5.09035
 20
-8.0211
 11
4.57664
 21
-8.32491
  0
LINE
  8
0
 10
4.57664
 20
-8.32491
 11
4.04489
 21
-8.59586
  0
LINE
  8
0
 10
4.04489
 20
-8.59586
 11
3.49718
 21
-8.83287
  0
LINE
  8
0
 10
3.49718
 20
-8.83287
 11
2.93565
 21
-9.03503
  0
LINE
  8
0
 10
2.93565
 20
-9.03503
 11
2.36255
 21
-9.20154
  0
LINE
  8
0
 10
2.36255
 20
-9.20154
 11
1.78012
 21
-9.33173
  0
LINE
  8
0
 10
1.78012
 20
-9.33173
 11
1.19066
 21
-9.42508
  0
LINE
  8
0
 10
1.19066
 20
-9.42508
 11
0.596497
 21
-9.48125
  0
LINE
  8
0
 10
0.596497
 20
-9.48125
 11
0
 21
-9.5
  0
LINE
  8
0
 10
0
 20
-9.5
 11
-0.596497
 21
-9.48125
  0
LINE
  8
0
 10
-0.18837
 20
-27.9941
 11
-0.375992
 21
-27.9763
  0
LINE
  8
0
 10
-0.375992
 20
-27.9763
 11
-0.562134
 21
-27.9469
  0
LINE
  8
0
 10
-0.562134
 20
-27.9469
 11
-0.746063
 21
-27.9057
  0
LINE
  8
0
 10
-0.746063
 20
-27.9057
 11
-0.927048
 21
-27.8532
  0
LINE
  8
0
 10
-0.927048
 20
-27.8532
 11
-1.10437
 21
-27.7893
  0
LINE
  8
0
 10
-1.10437
 20
-27.7893
 11
-1.27733
 21
-27.7145
  0
LINE
  8
0
 10
-1.27733
 20
-27.7145
 11
-1.44525
 21
-27.6289
  0
LINE
  8
0
 10
-1.44525
 20
-27.6289
 11
-1.60747
 21
-27.533
  0
LINE
  8
0
 10
-1.60747
 20
-27.533
 11
-1.76335
 21
-27.427
  0
LINE
  8
0
 10
-1.76335
 20
-27.427
 11
-1.91226
 21
-27.3115
  0
LINE
  8
0
 10
-1.91226
 20
-27.3115
 11
-2.05363
 21
-27.1869
  0
LINE
  8
0
 10
-2.05363
 20
-27.1869
 11
-2.1869
 21
-27.0536
  0
LINE
  8
0
 10
-2.1869
 20
-27.0536
 11
-2.31154
 21
-26.9123
  0
LINE
  8
0
 10
-2.31154
 20
-26.9123
 11
-2.42705
 21
-26.7634
  0
LINE
  8
0
 10
-2.42705
 20
-26.7634
 11
-2.53297
 21
-26.6075
  0
LINE
  8
0
 10
-2.53297
 20
-26.6075
 11
-2.62891
 21
-26.4453
  0
LINE
  8
0
 10
-2.62891
 20
-26.4453
 11
-2.71448
 21
-26.2773
  0
LINE
  8
0
 10
-2.71448
 20
-26.2773
 11
-2.78932
 21
-26.1044
  0
LINE
  8
0
 10
-2.78932
 20
-26.1044
 11
-2.85316
 21
-25.927
  0
LINE
  8
0
 10
-2.85316
 20
-25.927
 11
-2.90575
 21
-25.7461
  0
LINE
  8
0
 10
-2.90575
 20
-25.7461
 11
-2.94685
 21
-25.5621
  0
LINE
  8
0
 10
-2.94685
 20
-25.5621
 11
-2.97633
 21
-25.376
  0
LINE
  8
0
 10
-2.97633
 20
-25.376
 11
-2.99408
 21
-25.1884
  0
LINE
  8
0
 10
-2.99408
 20
-25.1884
 11
-3
 21
-25
  0
LINE
  8
0
 10
-3
 20
-25
 11
-2.99408
 21
-24.8116
  0
LINE
  8
0
 10
-2.99408
 20
-24.8116
 11
-2.97633
 21
-24.624
  0
LINE
  8
0
 10
-2.97633
 20
-24.624
 11
-2.94685
 21
-24.4379
  0
LINE
  8
0
 10
-2.94685
 20
-24.4379
 11
-2.90575
 21
-24.2539
  0
LINE
  8
0
 10
-2.90575
 20
-24.2539
 11
-2.85316
 21
-24.0729
  0
LINE
  8
0
 10
-2.85316
 20
-24.0729
 11
-2.78932
 21
-23.8956
  0
LINE
  8
0
 10
-2.78932
 20
-23.8956
 11
-2.71448
 21
-23.7227
  0
LINE
  8
0
 10
-2.71448
 20
-23.7227
 11
-2.62891
 21
-23.5547
  0
LINE
  8
0
 10
-2.62891
 20
-23.5547
 11
-2.53297
 21
-23.3925
  0
LINE
  8
0
 10
-2.53297
 20
-23.3925
 11
-2.42705
 21
-23.2366
  0
LINE
  8
0
 10
-2.42705
 20
-23.2366
 11
-2.31154
 21
-23.0877
  0
LINE
  8
0
 10
-2.31154
 20
-23.0877
 11
-2.1869
 21
-22.9464
  0
LINE
  8
0
 10
-2.1869
 20
-22.9464
 11
-2.05363
 21
-22.8131
  0
LINE
  8
0
 10
-2.05363
 20
-22.8131
 11
-1.91226
 21
-22.6884
  0
LINE
  8
0
 10
-1.91226
 20
-22.6884
 11
-1.76335
 21
-22.5729
  0
LINE
  8
0
 10
-1.76335
 20
-22.5729
 11
-1.60747
 21
-22.467
  0
LINE
  8
0
 10
-1.60747
 20
-22.467
 11
-1.44525
 21
-22.3711
  0
LINE
  8
0
 10
-1.44525
 20
-22.3711
 11
-1.27733
 21
-22.2855
  0
LINE
  8
0
 10
-1.27733
 20
-22.2855
 11
-1.10437
 21
-22.2107
  0
LINE
  8
0
 10
-1.10437
 20
-22.2107
 11
-0.927048
 21
-22.1468
  0
LINE
  8
0
 10
-0.927048
 20
-22.1468
 11
-0.746063
 21
-22.0942
  0
LINE
  8
0
 10
-0.746063
 20
-22.0942
 11
-0.562134
 21
-22.0531
  0
LINE
  8
0
 10
-0.562134
 20
-22.0531
 11
-0.375992
 21
-22.0237
  0
LINE
  8
0
 10
-0.375992
 20
-22.0237
 11
-0.18837
 21
-22.0059
  0
LINE
  8
0
 10
-0.18837
 20
-22.0059
 11
0
 21
-22
  0
LINE
  8
0
 10
0
 20
-22
 11
0.18837
 21
-22.0059
  0
LINE
  8
0
 10
0.18837
 20
-22.0059
 11
0.375992
 21
-22.0237
  0
LINE
  8
0
 10
0.375992
 20
-22.0237
 11
0.562134
 21
-22.0531
  0
LINE
  8
0
 10
0.562134
 20
-22.0531
 11
0.746063
 21
-22.0942
  0
LINE
  8
0
 10
0.746063
 20
-22.0942
 11
0.927048
 21
-22.1468
  0
LINE
  8
0
 10
0.927048
 20
-22.1468
 11
1.10437
 21
-22.2107
  0
LINE
  8
0
 10
1.10437
 20
-22.2107
 11
1.27733
 21
-22.2855
  0
LINE
  8
0
 10
1.27733
 20
-22.2855
 11
1.44525
 21
-22.3711
  0
LINE
  8
0
 10
1.44525
 20
-22.3711
 11
1.60747
 21
-22.467
  0
LINE
  8
0
 10
1.60747
 20
-22.467
 11
1.76335
 21
-22.5729
  0
LINE
  8
0
 10
1.76335
 20
-22.5729
 11
1.91226
 21
-22.6884
  0
LINE
  8
0
 10
1.91226
 20
-22.6884
 11
2.05363
 21
-22.8131
  0
LINE
  8
0
 10
2.05363
 20
-22.8131
 11
2.1869
 21
-22.9464
  0
LINE
  8
0
 10
2.1869
 20
-22.9464
 11
2.31154
 21
-23.0877
  0
LINE
  8
0
 10
2.31154
 20
-23.0877
 11
2.42705
 21
-23.2366
  0
LINE
  8
0
 10
2.42705
 20
-23.2366
 11
2.53297
 21
-23.3925
  0
LINE
  8
0
 10
2.53297
 20
-23.3925
 11
2.62891
 21
-23.5547
  0
LINE
  8
0
 10
2.62891
 20
-23.5547
 11
2.71448
 21
-23.7227
  0
LINE
  8
0
 10
2.71448
 20
-23.7227
 11
2.78932
 21
-23.8956
  0
LINE
  8
0
 10
2.78932
 20
-23.8956
 11
2.85316
 21
-24.0729
  0
LINE
  8
0
 10
2.85316
 20
-24.0729
 11
2.90575
 21
-24.2539
  0
LINE
  8
0
 10
2.90575
 20
-24.2539
 11
2.94685
 21
-24.4379
  0
LINE
  8
0
 10
2.94685
 20
-24.4379
 11
2.97633
 21
-24.624
  0
LINE
  8
0
 10
2.97633
 20
-24.624
 11
2.99408
 21
-24.8116
  0
LINE
  8
0
 10
2.99408
 20
-24.8116
 11
3
 21
-25
  0
LINE
  8
0
 10
3
 20
-25
 11
2.99408
 21
-25.1884
  0
LINE
  8
0
 10
2.99408
 20
-25.1884
 11
2.97633
 21
-25.376
  0
LINE
  8
0
 10
2.97633
 20
-25.376
 11
2.94685
 21
-25.5621
  0
LINE
  8
0
 10
2.94685
 20
-25.5621
 11
2.90575
 21
-25.7461
  0
LINE
  8
0
 10
2.90575
 20
-25.7461
 11
2.85316
 21
-25.927
  0
LINE
  8
0
 10
2.85316
 20
-25.927
 11
2.78932
 21
-26.1044
  0
LINE
  8
0
 10
2.78932
 20
-26.1044
 11
2.71448
 21
-26.2773
  0
LINE
  8
0
 10
2.71448
 20
-26.2773
 11
2.62891
 21
-26.4453
  0
LINE
  8
0
 10
2.62891
 20
-26.4453
 11
2.53297
 21
-26.6075
  0
LINE
  8
0
 10
2.53297
 20
-26.6075
 11
2.42705
 21
-26.7634
  0
LINE
  8
0
 10
2.42705
 20
-26.7634
 11
2.31154
 21
-26.9123
  0
LINE
  8
0
 10
2.31154
 20
-26.9123
 11
2.1869
 21
-27.0536
  0
LINE
  8
0
 10
2.1869
 20
-27.0536
 11
2.05363
 21
-27.1869
  0
LINE
  8
0
 10
2.05363
 20
-27.1869
 11
1.91226
 21
-27.3115
  0
LINE
  8
0
 10
1.91226
 20
-27.3115
 11
1.76335
 21
-27.427
  0
LINE
  8
0
 10
1.76335
 20
-27.427
 11
1.60747
 21
-27.533
  0
LINE
  8
0
 10
1.60747
 20
-27.533
 11
1.44525
 21
-27.6289
  0
LINE
  8
0
 10
1.44525
 20
-27.6289
 11
1.27733
 21
-27.7145
  0
LINE
  8
0
 10
1.27733
 20
-27.7145
 11
1.10437
 21
-27.7893
  0
LINE
  8
0
 10
1.10437
 20
-27.7893
 11
0.927048
 21
-27.8532
  0
LINE
  8
0
 10
0.927048
 20
-27.8532
 11
0.746063
 21
-27.9057
  0
LINE
  8
0
 10
0.746063
 20
-27.9057
 11
0.562134
 21
-27.9469
  0
LINE
  8
0
 10
0.562134
 20
-27.9469
 11
0.375992
 21
-27.9763
  0
LINE
  8
0
 10
0.375992
 20
-27.9763
 11
0.18837
 21
-27.9941
  0
LINE
  8
0
 10
0.18837
 20
-27.9941
 11
0
 21
-28
  0
LINE
  8
0
 10
0
 20
-28
 11
-0.18837
 21
-27.9941
  0
LINE
  8
0
 10
-240.188
 20
-77.9941
 11
-240.376
 21
-77.9763
  0
LINE
  8
0
 10
-240.376
 20
-77.9763
 11
-240.562
 21
-77.9469
  0
LINE
  8
0
 10
-240.562
 20
-77.9469
 11
-240.746
 21
-77.9057
  0
LINE
  8
0
 10
-240.746
 20
-77.9057
 11
-240.927
 21
-77.8532
  0
LINE
  8
0
 10
-240.927
 20
-77.8532
 11
-241.104
 21
-77.7893
  0
LINE
  8
0
 10
-241.104
 20
-77.7893
 11
-241.277
 21
-77.7145
  0
LINE
  8
0
 10
-241.277
 20
-77.7145
 11
-241.445
 21
-77.6289
  0
LINE
  8
0
 10
-241.445
 20
-77.6289
 11
-241.607
 21
-77.533
  0
LINE
  8
0
 10
-241.607
 20
-77.533
 11
-241.763
 21
-77.427
  0
LINE
  8
0
 10
-241.763
 20
-77.427
 11
-241.912
 21
-77.3115
  0
LINE
  8
0
 10
-241.912
 20
-77.3115
 11
-242.054
 21
-77.1869
  0
LINE
  8
0
 10
-242.054
 20
-77.1869
 11
-242.187
 21
-77.0536
  0
LINE
  8
0
 10
-242.187
 20
-77.0536
 11
-242.312
 21
-76.9123
  0
LINE
  8
0
 10
-242.312
 20
-76.9123
 11
-242.427
 21
-76.7634
  0
LINE
  8
0
 10
-242.427
 20
-76.7634
 11
-242.533
 21
-76.6075
  0
LINE
  8
0
 10
-242.533
 20
-76.6075
 11
-242.629
 21
-76.4453
  0
LINE
  8
0
 10
-242.629
 20
-76.4453
 11
-242.714
 21
-76.2773
  0
LINE
  8
0
 10
-242.714
 20
-76.2773
 11
-242.789
 21
-76.1044
  0
LINE
  8
0
 10
-242.789
 20
-76.1044
 11
-242.853
 21
-75.927
  0
LINE
  8
0
 10
-242.853
 20
-75.927
 11
-242.906
 21
-75.7461
  0
LINE
  8
0
 10
-242.906
 20
-75.7461
 11
-242.947
 21
-75.5621
  0
LINE
  8
0
 10
-242.947
 20
-75.5621
 11
-242.976
 21
-75.376
  0
LINE
  8
0
 10
-242.976
 20
-75.376
 11
-242.994
 21
-75.1884
  0
LINE
  8
0
 10
-242.994
 20
-75.1884
 11
-243
 21
-75
  0
LINE
  8
0
 10
-243
 20
-75
 11
-242.994
 21
-74.8116
  0
LINE
  8
0
 10
-242.994
 20
-74.8116
 11
-242.976
 21
-74.624
  0
LINE
  8
0
 10
-242.976
 20
-74.624
 11
-242.947
 21
-74.4379
  0
LINE
  8
0
 10
-242.947
 20
-74.4379
 11
-242.906
 21
-74.2539
  0
LINE
  8
0
 10
-242.906
 20
-74.2539
 11
-242.853
 21
-74.073
  0
LINE
  8
0
 10
-242.853
 20
-74.073
 11
-242.789
 21
-73.8956
  0
LINE
  8
0
 10
-242.789
 20
-73.8956
 11
-242.714
 21
-73.7227
  0
LINE
  8
0
 10
-242.714
 20
-73.7227
 11
-242.629
 21
-73.5547
  0
LINE
  8
0
 10
-242.629
 20
-73.5547
 11
-242.533
 21
-73.3925
  0
LINE
  8
0
 10
-242.533
 20
-73.3925
 11
-242.427
 21
-73.2366
  0
LINE
  8
0
 10
-242.427
 20
-73.2366
 11
-242.312
 21
-73.0877
  0
LINE
  8
0
 10
-242.312
 20
-73.0877
 11
-242.187
 21
-72.9464
  0
LINE
  8
0
 10
-242.187
 20
-72.9464
 11
-242.054
 21
-72.8131
  0
LINE
  8
0
 10
-242.054
 20
-72.8131
 11
-241.912
 21
-72.6885
  0
LINE
  8
0
 10
-241.912
 20
-72.6885
 11
-241.763
 21
-72.573
  0
LINE
  8
0
 10
-241.763
 20
-72.573
 11
-241.607
 21
-72.467
  0
LINE
  8
0
 10
-241.607
 20
-72.467
 11
-241.445
 21
-72.3711
  0
LINE
  8
0
 10
-241.445
 20
-72.3711
 11
-241.277
 21
-72.2855
  0
LINE
  8
0
 10
-241.277
 20
-72.2855
 11
-241.104
 21
-72.2107
  0
LINE
  8
0
 10
-241.104
 20
-72.2107
 11
-240.927
 21
-72.1468
  0
LINE
  8
0
 10
-240.927
 20
-72.1468
 11
-240.746
 21
-72.0943
  0
LINE
  8
0
 10
-240.746
 20
-72.0943
 11
-240.562
 21
-72.0531
  0
LINE
  8
0
 10
-240.562
 20
-72.0531
 11
-240.376
 21
-72.0237
  0
LINE
  8
0
 10
-240.376
 20
-72.0237
 11
-240.188
 21
-72.0059
  0
LINE
  8
0
 10
-240.188
 20
-72.0059
 11
-240
 21
-72
  0
LINE
  8
0
 10
-240
 20
-72
 11
-239.812
 21
-72.0059
  0
LINE
  8
0
 10
-239.812
 20
-72.0059
 11
-239.624
 21
-72.0237
  0
LINE
  8
0
 10
-239.624
 20
-72.0237
 11
-239.438
 21
-72.0531
  0
LINE
  8
0
 10
-239.438
 20
-72.0531
 11
-239.254
 21
-72.0943
  0
LINE
  8
0
 10
-239.254
 20
-72.0943
 11
-239.073
 21
-72.1468
  0
LINE
  8
0
 10
-239.073
 20
-72.1468
 11
-238.896
 21
-72.2107
  0
LINE
  8
0
 10
-238.896
 20
-72.2107
 11
-238.723
 21
-72.2855
  0
LINE
  8
0
 10
-238.723
 20
-72.2855
 11
-238.555
 21
-72.3711
  0
LINE
  8
0
 10
-238.555
 20
-72.3711
 11
-238.393
 21
-72.467
  0
LINE
  8
0
 10
-238.393
 20
-72.467
 11
-238.237
 21
-72.573
  0
LINE
  8
0
 10
-238.237
 20
-72.573
 11
-238.088
 21
-72.6885
  0
LINE
  8
0
 10
-238.088
 20
-72.6885
 11
-237.946
 21
-72.8131
  0
LINE
  8
0
 10
-237.946
 20
-72.8131
 11
-237.813
 21
-72.9464
  0
LINE
  8
0
 10
-237.813
 20
-72.9464
 11
-237.688
 21
-73.0877
  0
LINE
  8
0
 10
-237.688
 20
-73.0877
 11
-237.573
 21
-73.2366
  0
LINE
  8
0
 10
-237.573
 20
-73.2366
 11
-237.467
 21
-73.3925
  0
LINE
  8
0
 10
-237.467
 20
-73.3925
 11
-237.371
 21
-73.5547
  0
LINE
  8
0
 10
-237.371
 20
-73.5547
 11
-237.286
 21
-73.7227
  0
LINE
  8
0
 10
-237.286
 20
-73.7227
 11
-237.211
 21
-73.8956
  0
LINE
  8
0
 10
-237.211
 20
-73.8956
 11
-237.147
 21
-74.073
  0
LINE
  8
0
 10
-237.147
 20
-74.073
 11
-237.094
 21
-74.2539
  0
LINE
  8
0
 10
-237.094
 20
-74.2539
 11
-237.053
 21
-74.4379
  0
LINE
  8
0
 10
-237.053
 20
-74.4379
 11
-237.024
 21
-74.624
  0
LINE
  8
0
 10
-237.024
 20
-74.624
 11
-237.006
 21
-74.8116
  0
LINE
  8
0
 10
-237.006
 20
-74.8116
 11
-237
 21
-75
  0
LINE
  8
0
 10
-237
 20
-75
 11
-237.006
 21
-75.1884
  0
LINE
  8
0
 10
-237.006
 20
-75.1884
 11
-237.024
 21
-75.376
  0
LINE
  8
0
 10
-237.024
 20
-75.376
 11
-237.053
 21
-75.5621
  0
LINE
  8
0
 10
-237.053
 20
-75.5621
 11
-237.094
 21
-75.7461
  0
LINE
  8
0
 10
-237.094
 20
-75.7461
 11
-237.147
 21
-75.927
  0
LINE
  8
0
 10
-237.147
 20
-75.927
 11
-237.211
 21
-76.1044
  0
LINE
  8
0
 10
-237.211
 20
-76.1044
 11
-237.286
 21
-76.2773
  0
LINE
  8
0
 10
-237.286
 20
-76.2773
 11
-237.371
 21
-76.4453
  0
LINE
  8
0
 10
-237.371
 20
-76.4453
 11
-237.467
 21
-76.6075
  0
LINE
  8
0
 10
-237.467
 20
-76.6075
 11
-237.573
 21
-76.7634
  0
LINE
  8
0
 10
-237.573
 20
-76.7634
 11
-237.688
 21
-76.9123
  0
LINE
  8
0
 10
-237.688
 20
-76.9123
 11
-237.813
 21
-77.0536
  0
LINE
  8
0
 10
-237.813
 20
-77.0536
 11
-237.946
 21
-77.1869
  0
LINE
  8
0
 10
-237.946
 20
-77.1869
 11
-238.088
 21
-77.3115
  0
LINE
  8
0
 10
-238.088
 20
-77.3115
 11
-238.237
 21
-77.427
  0
LINE
  8
0
 10
-238.237
 20
-77.427
 11
-238.393
 21
-77.533
  0
LINE
  8
0
 10
-238.393
 20
-77.533
 11
-238.555
 21
-77.6289
  0
LINE
  8
0
 10
-238.555
 20
-77.6289
 11
-238.723
 21
-77.7145
  0
LINE
  8
0
 10
-238.723
 20
-77.7145
 11
-238.896
 21
-77.7893
  0
LINE
  8
0
 10
-238.896
 20
-77.7893
 11
-239.073
 21
-77.8532
  0
LINE
  8
0
 10
-239.073
 20
-77.8532
 11
-239.254
 21
-77.9057
  0
LINE
  8
0
 10
-239.254
 20
-77.9057
 11
-239.438
 21
-77.9469
  0
LINE
  8
0
 10
-239.438
 20
-77.9469
 11
-239.624
 21
-77.9763
  0
LINE
  8
0
 10
-239.624
 20
-77.9763
 11
-239.812
 21
-77.9941
  0
LINE
  8
0
 10
-239.812
 20
-77.9941
 11
-240
 21
-78
  0
LINE
  8
0
 10
-240
 20
-78
 11
-240.188
 21
-77.9941
  0
LINE
  8
0
 10
239.812
 20
-77.9941
 11
239.624
 21
-77.9763
  0
LINE
  8
0
 10
239.624
 20
-77.9763
 11
239.438
 21
-77.9469
  0
LINE
  8
0
 10
239.438
 20
-77.9469
 11
239.254
 21
-77.9057
  0
LINE
  8
0
 10
239.254
 20
-77.9057
 11
239.073
 21
-77.8532
  0
LINE
  8
0
 10
239.073
 20
-77.8532
 11
238.896
 21
-77.7893
  0
LINE
  8
0
 10
238.896
 20
-77.7893
 11
238.723
 21
-77.7145
  0
LINE
  8
0
 10
238.723
 20
-77.7145
 11
238.555
 21
-77.6289
  0
LINE
  8
0
 10
238.555
 20
-77.6289
 11
238.393
 21
-77.533
  0
LINE
  8
0
 10
238.393
 20
-77.533
 11
238.237
 21
-77.427
  0
LINE
  8
0
 10
238.237
 20
-77.427
 11
238.088
 21
-77.3115
  0
LINE
  8
0
 10
238.088
 20
-77.3115
 11
237.946
 21
-77.1869
  0
LINE
  8
0
 10
237.946
 20
-77.1869
 11
237.813
 21
-77.0536
  0
LINE
  8
0
 10
237.813
 20
-77.0536
 11
237.688
 21
-76.9123
  0
LINE
  8
0
 10
237.688
 20
-76.9123
 11
237.573
 21
-76.7634
  0
LINE
  8
0
 10
237.573
 20
-76.7634
 11
237.467
 21
-76.6075
  0
LINE
  8
0
 10
237.467
 20
-76.6075
 11
237.371
 21
-76.4453
  0
LINE
  8
0
 10
237.371
 20
-76.4453
 11
237.286
 21
-76.2773
  0
LINE
  8
0
 10
237.286
 20
-76.2773
 11
237.211
 21
-76.1044
  0
LINE
  8
0
 10
237.211
 20
-76.1044
 11
237.147
 21
-75.927
  0
LINE
  8
0
 10
237.147
 20
-75.927
 11
237.094
 21
-75.7461
  0
LINE
  8
0
 10
237.094
 20
-75.7461
 11
237.053
 21
-75.5621
  0
LINE
  8
0
 10
237.053
 20
-75.5621
 11
237.024
 21
-75.376
  0
LINE
  8
0
 10
237.024
 20
-75.376
 11
237.006
 21
-75.1884
  0
LINE
  8
0
 10
237.006
 20
-75.1884
 11
237
 21
-75
  0
LINE
  8
0
 10
237
 20
-75
 11
237.006
 21
-74.8116
  0
LINE
  8
0
 10
237.006
 20
-74.8116
 11
237.024
 21
-74.624
  0
LINE
  8
0
 10
237.024
 20
-74.624
 11
237.053
 21
-74.4379
  0
LINE
  8
0
 10
237.053
 20
-74.4379
 11
237.094
 21
-74.2539
  0
LINE
  8
0
 10
237.094
 20
-74.2539
 11
237.147
 21
-74.073
  0
LINE
  8
0
 10
237.147
 20
-74.073
 11
237.211
 21
-73.8956
  0
LINE
  8
0
 10
237.211
 20
-73.8956
 11
237.286
 21
-73.7227
  0
LINE
  8
0
 10
237.286
 20
-73.7227
 11
237.371
 21
-73.5547
  0
LINE
  8
0
 10
237.371
 20
-73.5547
 11
237.467
 21
-73.3925
  0
LINE
  8
0
 10
237.467
 20
-73.3925
 11
237.573
 21
-73.2366
  0
LINE
  8
0
 10
237.573
 20
-73.2366
 11
237.688
 21
-73.0877
  0
LINE
  8
0
 10
237.688
 20
-73.0877
 11
237.813
 21
-72.9464
  0
LINE
  8
0
 10
237.813
 20
-72.9464
 11
237.946
 21
-72.8131
  0
LINE
  8
0
 10
237.946
 20
-72.8131
 11
238.088
 21
-72.6885
  0
LINE
  8
0
 10
238.088
 20
-72.6885
 11
238.237
 21
-72.573
  0
LINE
  8
0
 10
238.237
 20
-72.573
 11
238.393
 21
-72.467
  0
LINE
  8
0
 10
238.393
 20
-72.467
 11
238.555
 21
-72.3711
  0
LINE
  8
0
 10
238.555
 20
-72.3711
 11
238.723
 21
-72.2855
  0
LINE
  8
0
 10
238.723
 20
-72.2855
 11
238.896
 21
-72.2107
  0
LINE
  8
0
 10
238.896
 20
-72.2107
 11
239.073
 21
-72.1468
  0
LINE
  8
0
 10
239.073
 20
-72.1468
 11
239.254
 21
-72.0943
  0
LINE
  8
0
 10
239.254
 20
-72.0943
 11
239.438
 21
-72.0531
  0
LINE
  8
0
 10
239.438
 20
-72.0531
 11
239.624
 21
-72.0237
  0
LINE
  8
0
 10
239.624
 20
-72.0237
 11
239.812
 21
-72.0059
  0
LINE
  8
0
 10
239.812
 20
-72.0059
 11
240
 21
-72
  0
LINE
  8
0
 10
240
 20
-72
 11
240.188
 21
-72.0059
  0
LINE
  8
0
 10
240.188
 20
-72.0059
 11
240.376
 21
-72.0237
  0
LINE
  8
0
 10
240.376
 20
-72.0237
 11
240.562
 21
-72.0531
  0
LINE
  8
0
 10
240.562
 20
-72.0531
 11
240.746
 21
-72.0943
  0
LINE
  8
0
 10
240.746
 20
-72.0943
 11
240.927
 21
-72.1468
  0
LINE
  8
0
 10
240.927
 20
-72.1468
 11
241.104
 21
-72.2107
  0
LINE
  8
0
 10
241.104
 20
-72.2107
 11
241.277
 21
-72.2855
  0
LINE
  8
0
 10
241.277
 20
-72.2855
 11
241.445
 21
-72.3711
  0
LINE
  8
0
 10
241.445
 20
-72.3711
 11
241.607
 21
-72.467
  0
LINE
  8
0
 10
241.607
 20
-72.467
 11
241.763
 21
-72.573
  0
LINE
  8
0
 10
241.763
 20
-72.573
 11
241.912
 21
-72.6885
  0
LINE
  8
0
 10
241.912
 20
-72.6885
 11
242.054
 21
-72.8131
  0
LINE
  8
0
 10
242.054
 20
-72.8131
 11
242.187
 21
-72.9464
  0
LINE
  8
0
 10
242.187
 20
-72.9464
 11
242.312
 21
-73.0877
  0
LINE
  8
0
 10
242.312
 20
-73.0877
 11
242.427
 21
-73.2366
  0
LINE
  8
0
 10
242.427
 20
-73.2366
 11
242.533
 21
-73.3925
  0
LINE
  8
0
 10
242.533
 20
-73.3925
 11
242.629
 21
-73.5547
  0
LINE
  8
0
 10
242.629
 20
-73.5547
 11
242.714
 21
-73.7227
  0
LINE
  8
0
 10
242.714
 20
-73.7227
 11
242.789
 21
-73.8956
  0
LINE
  8
0
 10
242.789
 20
-73.8956
 11
242.853
 21
-74.073
  0
LINE
  8
0
 10
242.853
 20
-74.073
 11
242.906
 21
-74.2539
  0
LINE
  8
0
 10
242.906
 20
-74.2539
 11
242.947
 21
-74.4379
  0
LINE
  8
0
 10
242.947
 20
-74.4379
 11
242.976
 21
-74.624
  0
LINE
  8
0
 10
242.976
 20
-74.624
 11
242.994
 21
-74.8116
  0
LINE
  8
0
 10
242.994
 20
-74.8116
 11
243
 21
-75
  0
LINE
  8
0
 10
243
 20
-75
 11
242.994
 21
-75.1884
  0
LINE
  8
0
 10
242.994
 20
-75.1884
 11
242.976
 21
-75.376
  0
LINE
  8
0
 10
242.976
 20
-75.376
 11
242.947
 21
-75.5621
  0
LINE
  8
0
 10
242.947
 20
-75.5621
 11
242.906
 21
-75.7461
  0
LINE
  8
0
 10
242.906
 20
-75.7461
 11
242.853
 21
-75.927
  0
LINE
  8
0
 10
242.853
 20
-75.927
 11
242.789
 21
-76.1044
  0
LINE
  8
0
 10
242.789
 20
-76.1044
 11
242.714
 21
-76.2773
  0
LINE
  8
0
 10
242.714
 20
-76.2773
 11
242.629
 21
-76.4453
  0
LINE
  8
0
 10
242.629
 20
-76.4453
 11
242.533
 21
-76.6075
  0
LINE
  8
0
 10
242.533
 20
-76.6075
 11
242.427
 21
-76.7634
  0
LINE
  8
0
 10
242.427
 20
-76.7634
 11
242.312
 21
-76.9123
  0
LINE
  8
0
 10
242.312
 20
-76.9123
 11
242.187
 21
-77.0536
  0
LINE
  8
0
 10
242.187
 20
-77.0536
 11
242.054
 21
-77.1869
  0
LINE
  8
0
 10
242.054
 20
-77.1869
 11
241.912
 21
-77.3115
  0
LINE
  8
0
 10
241.912
 20
-77.3115
 11
241.763
 21
-77.427
  0
LINE
  8
0
 10
241.763
 20
-77.427
 11
241.607
 21
-77.533
  0
LINE
  8
0
 10
241.607
 20
-77.533
 11
241.445
 21
-77.6289
  0
LINE
  8
0
 10
241.445
 20
-77.6289
 11
241.277
 21
-77.7145
  0
LINE
  8
0
 10
241.277
 20
-77.7145
 11
241.104
 21
-77.7893
  0
LINE
  8
0
 10
241.104
 20
-77.7893
 11
240.927
 21
-77.8532
  0
LINE
  8
0
 10
240.927
 20
-77.8532
 11
240.746
 21
-77.9057
  0
LINE
  8
0
 10
240.746
 20
-77.9057
 11
240.562
 21
-77.9469
  0
LINE
  8
0
 10
240.562
 20
-77.9469
 11
240.376
 21
-77.9763
  0
LINE
  8
0
 10
240.376
 20
-77.9763
 11
240.188
 21
-77.9941
  0
LINE
  8
0
 10
240.188
 20
-77.9941
 11
240
 21
-78
  0
LINE
  8
0
 10
240
 20
-78
 11
239.812
 21
-77.9941
  0
ENDSEC
  0
SECTION
  2
OBJECTS
  0
DICTIONARY
  0
ENDSEC
  0
EOF
