  0
SECTION
  2
BLOCKS
  0
ENDSEC
  0
SECTION
  2
ENTITIES
  0
LINE
  8
0
 10
-100.5
 20
-142.25
 11
-109.25
 21
-142.25
  0
LINE
  8
0
 10
-109.25
 20
-142.25
 11
-109.25
 21
-122.5
  0
LINE
  8
0
 10
-109.25
 20
-122.5
 11
109.25
 21
-122.5
  0
LINE
  8
0
 10
109.25
 20
-122.5
 11
109.25
 21
-142.25
  0
LINE
  8
0
 10
109.25
 20
-142.25
 11
100.5
 21
-142.25
  0
LINE
  8
0
 10
100.5
 20
-142.25
 11
100.5
 21
-150.5
  0
LINE
  8
0
 10
100.5
 20
-150.5
 11
134.5
 21
-150.5
  0
LINE
  8
0
 10
134.5
 20
-150.5
 11
134.5
 21
-142.25
  0
LINE
  8
0
 10
134.5
 20
-142.25
 11
125.75
 21
-142.25
  0
LINE
  8
0
 10
125.75
 20
-142.25
 11
125.75
 21
-122.5
  0
LINE
  8
0
 10
125.75
 20
-122.5
 11
360
 21
-122.5
  0
LINE
  8
0
 10
360
 20
-122.5
 11
360
 21
122.5
  0
LINE
  8
0
 10
360
 20
122.5
 11
292.772
 21
122.5
  0
LINE
  8
0
 10
292.772
 20
122.5
 11
287.283
 21
135.185
  0
LINE
  8
0
 10
287.283
 20
135.185
 11
278.227
 21
152.957
  0
LINE
  8
0
 10
278.227
 20
152.957
 11
268.074
 21
170.125
  0
LINE
  8
0
 10
268.074
 20
170.125
 11
256.863
 21
186.622
  0
LINE
  8
0
 10
256.863
 20
186.622
 11
244.638
 21
202.382
  0
LINE
  8
0
 10
244.638
 20
202.382
 11
231.448
 21
217.344
  0
LINE
  8
0
 10
231.448
 20
217.344
 11
217.344
 21
231.448
  0
LINE
  8
0
 10
217.344
 20
231.448
 11
202.382
 21
244.638
  0
LINE
  8
0
 10
202.382
 20
244.638
 11
186.622
 21
256.863
  0
LINE
  8
0
 10
186.622
 20
256.863
 11
170.125
 21
268.074
  0
LINE
  8
0
 10
170.125
 20
268.074
 11
152.957
 21
278.227
  0
LINE
  8
0
 10
152.957
 20
278.227
 11
135.185
 21
287.283
  0
LINE
  8
0
 10
135.185
 20
287.283
 11
116.88
 21
295.204
  0
LINE
  8
0
 10
116.88
 20
295.204
 11
98.1129
 21
301.96
  0
LINE
  8
0
 10
98.1129
 20
301.96
 11
78.959
 21
307.525
  0
LINE
  8
0
 10
78.959
 20
307.525
 11
59.4936
 21
311.876
  0
LINE
  8
0
 10
59.4936
 20
311.876
 11
39.7933
 21
314.996
  0
LINE
  8
0
 10
39.7933
 20
314.996
 11
19.936
 21
316.873
  0
LINE
  8
0
 10
19.936
 20
316.873
 11
0
 21
317.5
  0
LINE
  8
0
 10
0
 20
317.5
 11
-19.936
 21
316.873
  0
LINE
  8
0
 10
-19.936
 20
316.873
 11
-39.7933
 21
314.996
  0
LINE
  8
0
 10
-39.7933
 20
314.996
 11
-59.4936
 21
311.876
  0
LINE
  8
0
 10
-59.4936
 20
311.876
 11
-78.959
 21
307.525
  0
LINE
  8
0
 10
-78.959
 20
307.525
 11
-98.1129
 21
301.96
  0
LINE
  8
0
 10
-98.1129
 20
301.96
 11
-116.88
 21
295.204
  0
LINE
  8
0
 10
-116.88
 20
295.204
 11
-135.185
 21
287.283
  0
LINE
  8
0
 10
-135.185
 20
287.283
 11
-152.957
 21
278.227
  0
LINE
  8
0
 10
-152.957
 20
278.227
 11
-170.125
 21
268.074
  0
LINE
  8
0
 10
-170.125
 20
268.074
 11
-186.622
 21
256.863
  0
LINE
  8
0
 10
-186.622
 20
256.863
 11
-202.382
 21
244.638
  0
LINE
  8
0
 10
-202.382
 20
244.638
 11
-217.344
 21
231.448
  0
LINE
  8
0
 10
-217.344
 20
231.448
 11
-231.448
 21
217.344
  0
LINE
  8
0
 10
-231.448
 20
217.344
 11
-244.638
 21
202.382
  0
LINE
  8
0
 10
-244.638
 20
202.382
 11
-256.863
 21
186.622
  0
LINE
  8
0
 10
-256.863
 20
186.622
 11
-268.074
 21
170.125
  0
LINE
  8
0
 10
-268.074
 20
170.125
 11
-278.227
 21
152.957
  0
LINE
  8
0
 10
-278.227
 20
152.957
 11
-287.283
 21
135.185
  0
LINE
  8
0
 10
-287.283
 20
135.185
 11
-292.772
 21
122.5
  0
LINE
  8
0
 10
-292.772
 20
122.5
 11
-360
 21
122.5
  0
LINE
  8
0
 10
-360
 20
122.5
 11
-360
 21
-122.5
  0
LINE
  8
0
 10
-360
 20
-122.5
 11
-125.75
 21
-122.5
  0
LINE
  8
0
 10
-125.75
 20
-122.5
 11
-125.75
 21
-142.25
  0
LINE
  8
0
 10
-125.75
 20
-142.25
 11
-134.5
 21
-142.25
  0
LINE
  8
0
 10
-134.5
 20
-142.25
 11
-134.5
 21
-150.5
  0
LINE
  8
0
 10
-134.5
 20
-150.5
 11
-100.5
 21
-150.5
  0
LINE
  8
0
 10
-100.5
 20
-150.5
 11
-100.5
 21
-142.25
  0
LINE
  8
0
 10
-311.476
 20
89.5059
 11
-311.664
 21
89.5237
  0
LINE
  8
0
 10
-311.664
 20
89.5237
 11
-311.85
 21
89.5531
  0
LINE
  8
0
 10
-311.85
 20
89.5531
 11
-312.034
 21
89.5943
  0
LINE
  8
0
 10
-312.034
 20
89.5943
 11
-312.215
 21
89.6468
  0
LINE
  8
0
 10
-312.215
 20
89.6468
 11
-312.392
 21
89.7107
  0
LINE
  8
0
 10
-312.392
 20
89.7107
 11
-312.565
 21
89.7855
  0
LINE
  8
0
 10
-312.565
 20
89.7855
 11
-312.733
 21
89.8711
  0
LINE
  8
0
 10
-312.733
 20
89.8711
 11
-312.895
 21
89.967
  0
LINE
  8
0
 10
-312.895
 20
89.967
 11
-313.051
 21
90.073
  0
LINE
  8
0
 10
-313.051
 20
90.073
 11
-313.2
 21
90.1885
  0
LINE
  8
0
 10
-313.2
 20
90.1885
 11
-313.341
 21
90.3131
  0
LINE
  8
0
 10
-313.341
 20
90.3131
 11
-313.475
 21
90.4464
  0
LINE
  8
0
 10
-313.475
 20
90.4464
 11
-313.599
 21
90.5877
  0
LINE
  8
0
 10
-313.599
 20
90.5877
 11
-313.715
 21
90.7366
  0
LINE
  8
0
 10
-313.715
 20
90.7366
 11
-313.821
 21
90.8925
  0
LINE
  8
0
 10
-313.821
 20
90.8925
 11
-313.917
 21
91.0547
  0
LINE
  8
0
 10
-313.917
 20
91.0547
 11
-314.002
 21
91.2227
  0
LINE
  8
0
 10
-314.002
 20
91.2227
 11
-314.077
 21
91.3956
  0
LINE
  8
0
 10
-314.077
 20
91.3956
 11
-314.141
 21
91.573
  0
LINE
  8
0
 10
-314.141
 20
91.573
 11
-314.193
 21
91.7539
  0
LINE
  8
0
 10
-314.193
 20
91.7539
 11
-314.234
 21
91.9379
  0
LINE
  8
0
 10
-314.234
 20
91.9379
 11
-314.264
 21
92.124
  0
LINE
  8
0
 10
-314.264
 20
92.124
 11
-314.282
 21
92.3116
  0
LINE
  8
0
 10
-314.282
 20
92.3116
 11
-314.288
 21
92.5
  0
LINE
  8
0
 10
-314.288
 20
92.5
 11
-314.282
 21
92.6884
  0
LINE
  8
0
 10
-314.282
 20
92.6884
 11
-314.264
 21
92.876
  0
LINE
  8
0
 10
-314.264
 20
92.876
 11
-314.234
 21
93.0621
  0
LINE
  8
0
 10
-314.234
 20
93.0621
 11
-314.193
 21
93.2461
  0
LINE
  8
0
 10
-314.193
 20
93.2461
 11
-314.141
 21
93.427
  0
LINE
  8
0
 10
-314.141
 20
93.427
 11
-314.077
 21
93.6044
  0
LINE
  8
0
 10
-314.077
 20
93.6044
 11
-314.002
 21
93.7773
  0
LINE
  8
0
 10
-314.002
 20
93.7773
 11
-313.917
 21
93.9453
  0
LINE
  8
0
 10
-313.917
 20
93.9453
 11
-313.821
 21
94.1075
  0
LINE
  8
0
 10
-313.821
 20
94.1075
 11
-313.715
 21
94.2634
  0
LINE
  8
0
 10
-313.715
 20
94.2634
 11
-313.599
 21
94.4123
  0
LINE
  8
0
 10
-313.599
 20
94.4123
 11
-313.475
 21
94.5536
  0
LINE
  8
0
 10
-313.475
 20
94.5536
 11
-313.341
 21
94.6869
  0
LINE
  8
0
 10
-313.341
 20
94.6869
 11
-313.2
 21
94.8115
  0
LINE
  8
0
 10
-313.2
 20
94.8115
 11
-313.051
 21
94.927
  0
LINE
  8
0
 10
-313.051
 20
94.927
 11
-312.895
 21
95.033
  0
LINE
  8
0
 10
-312.895
 20
95.033
 11
-312.733
 21
95.1289
  0
LINE
  8
0
 10
-312.733
 20
95.1289
 11
-312.565
 21
95.2145
  0
LINE
  8
0
 10
-312.565
 20
95.2145
 11
-312.392
 21
95.2893
  0
LINE
  8
0
 10
-312.392
 20
95.2893
 11
-312.215
 21
95.3532
  0
LINE
  8
0
 10
-312.215
 20
95.3532
 11
-312.034
 21
95.4057
  0
LINE
  8
0
 10
-312.034
 20
95.4057
 11
-311.85
 21
95.4469
  0
LINE
  8
0
 10
-311.85
 20
95.4469
 11
-311.664
 21
95.4763
  0
LINE
  8
0
 10
-311.664
 20
95.4763
 11
-311.476
 21
95.4941
  0
LINE
  8
0
 10
-311.476
 20
95.4941
 11
-311.288
 21
95.5
  0
LINE
  8
0
 10
-311.288
 20
95.5
 11
-311.099
 21
95.4941
  0
LINE
  8
0
 10
-311.099
 20
95.4941
 11
-310.912
 21
95.4763
  0
LINE
  8
0
 10
-310.912
 20
95.4763
 11
-310.725
 21
95.4469
  0
LINE
  8
0
 10
-310.725
 20
95.4469
 11
-310.542
 21
95.4057
  0
LINE
  8
0
 10
-310.542
 20
95.4057
 11
-310.361
 21
95.3532
  0
LINE
  8
0
 10
-310.361
 20
95.3532
 11
-310.183
 21
95.2893
  0
LINE
  8
0
 10
-310.183
 20
95.2893
 11
-310.01
 21
95.2145
  0
LINE
  8
0
 10
-310.01
 20
95.2145
 11
-309.842
 21
95.1289
  0
LINE
  8
0
 10
-309.842
 20
95.1289
 11
-309.68
 21
95.033
  0
LINE
  8
0
 10
-309.68
 20
95.033
 11
-309.524
 21
94.927
  0
LINE
  8
0
 10
-309.524
 20
94.927
 11
-309.375
 21
94.8115
  0
LINE
  8
0
 10
-309.375
 20
94.8115
 11
-309.234
 21
94.6869
  0
LINE
  8
0
 10
-309.234
 20
94.6869
 11
-309.101
 21
94.5536
  0
LINE
  8
0
 10
-309.101
 20
94.5536
 11
-308.976
 21
94.4123
  0
LINE
  8
0
 10
-308.976
 20
94.4123
 11
-308.861
 21
94.2634
  0
LINE
  8
0
 10
-308.861
 20
94.2634
 11
-308.755
 21
94.1075
  0
LINE
  8
0
 10
-308.755
 20
94.1075
 11
-308.659
 21
93.9453
  0
LINE
  8
0
 10
-308.659
 20
93.9453
 11
-308.573
 21
93.7773
  0
LINE
  8
0
 10
-308.573
 20
93.7773
 11
-308.498
 21
93.6044
  0
LINE
  8
0
 10
-308.498
 20
93.6044
 11
-308.434
 21
93.427
  0
LINE
  8
0
 10
-308.434
 20
93.427
 11
-308.382
 21
93.2461
  0
LINE
  8
0
 10
-308.382
 20
93.2461
 11
-308.341
 21
93.0621
  0
LINE
  8
0
 10
-308.341
 20
93.0621
 11
-308.311
 21
92.876
  0
LINE
  8
0
 10
-308.311
 20
92.876
 11
-308.294
 21
92.6884
  0
LINE
  8
0
 10
-308.294
 20
92.6884
 11
-308.288
 21
92.5
  0
LINE
  8
0
 10
-308.288
 20
92.5
 11
-308.294
 21
92.3116
  0
LINE
  8
0
 10
-308.294
 20
92.3116
 11
-308.311
 21
92.124
  0
LINE
  8
0
 10
-308.311
 20
92.124
 11
-308.341
 21
91.9379
  0
LINE
  8
0
 10
-308.341
 20
91.9379
 11
-308.382
 21
91.7539
  0
LINE
  8
0
 10
-308.382
 20
91.7539
 11
-308.434
 21
91.573
  0
LINE
  8
0
 10
-308.434
 20
91.573
 11
-308.498
 21
91.3956
  0
LINE
  8
0
 10
-308.498
 20
91.3956
 11
-308.573
 21
91.2227
  0
LINE
  8
0
 10
-308.573
 20
91.2227
 11
-308.659
 21
91.0547
  0
LINE
  8
0
 10
-308.659
 20
91.0547
 11
-308.755
 21
90.8925
  0
LINE
  8
0
 10
-308.755
 20
90.8925
 11
-308.861
 21
90.7366
  0
LINE
  8
0
 10
-308.861
 20
90.7366
 11
-308.976
 21
90.5877
  0
LINE
  8
0
 10
-308.976
 20
90.5877
 11
-309.101
 21
90.4464
  0
LINE
  8
0
 10
-309.101
 20
90.4464
 11
-309.234
 21
90.3131
  0
LINE
  8
0
 10
-309.234
 20
90.3131
 11
-309.375
 21
90.1885
  0
LINE
  8
0
 10
-309.375
 20
90.1885
 11
-309.524
 21
90.073
  0
LINE
  8
0
 10
-309.524
 20
90.073
 11
-309.68
 21
89.967
  0
LINE
  8
0
 10
-309.68
 20
89.967
 11
-309.842
 21
89.8711
  0
LINE
  8
0
 10
-309.842
 20
89.8711
 11
-310.01
 21
89.7855
  0
LINE
  8
0
 10
-310.01
 20
89.7855
 11
-310.183
 21
89.7107
  0
LINE
  8
0
 10
-310.183
 20
89.7107
 11
-310.361
 21
89.6468
  0
LINE
  8
0
 10
-310.361
 20
89.6468
 11
-310.542
 21
89.5943
  0
LINE
  8
0
 10
-310.542
 20
89.5943
 11
-310.725
 21
89.5531
  0
LINE
  8
0
 10
-310.725
 20
89.5531
 11
-310.912
 21
89.5237
  0
LINE
  8
0
 10
-310.912
 20
89.5237
 11
-311.099
 21
89.5059
  0
LINE
  8
0
 10
-311.099
 20
89.5059
 11
-311.288
 21
89.5
  0
LINE
  8
0
 10
-311.288
 20
89.5
 11
-311.476
 21
89.5059
  0
LINE
  8
0
 10
311.099
 20
89.5059
 11
310.912
 21
89.5237
  0
LINE
  8
0
 10
310.912
 20
89.5237
 11
310.725
 21
89.5531
  0
LINE
  8
0
 10
310.725
 20
89.5531
 11
310.542
 21
89.5943
  0
LINE
  8
0
 10
310.542
 20
89.5943
 11
310.361
 21
89.6468
  0
LINE
  8
0
 10
310.361
 20
89.6468
 11
310.183
 21
89.7107
  0
LINE
  8
0
 10
310.183
 20
89.7107
 11
310.01
 21
89.7855
  0
LINE
  8
0
 10
310.01
 20
89.7855
 11
309.842
 21
89.8711
  0
LINE
  8
0
 10
309.842
 20
89.8711
 11
309.68
 21
89.967
  0
LINE
  8
0
 10
309.68
 20
89.967
 11
309.524
 21
90.073
  0
LINE
  8
0
 10
309.524
 20
90.073
 11
309.375
 21
90.1885
  0
LINE
  8
0
 10
309.375
 20
90.1885
 11
309.234
 21
90.3131
  0
LINE
  8
0
 10
309.234
 20
90.3131
 11
309.101
 21
90.4464
  0
LINE
  8
0
 10
309.101
 20
90.4464
 11
308.976
 21
90.5877
  0
LINE
  8
0
 10
308.976
 20
90.5877
 11
308.861
 21
90.7366
  0
LINE
  8
0
 10
308.861
 20
90.7366
 11
308.755
 21
90.8925
  0
LINE
  8
0
 10
308.755
 20
90.8925
 11
308.659
 21
91.0547
  0
LINE
  8
0
 10
308.659
 20
91.0547
 11
308.573
 21
91.2227
  0
LINE
  8
0
 10
308.573
 20
91.2227
 11
308.498
 21
91.3956
  0
LINE
  8
0
 10
308.498
 20
91.3956
 11
308.434
 21
91.573
  0
LINE
  8
0
 10
308.434
 20
91.573
 11
308.382
 21
91.7539
  0
LINE
  8
0
 10
308.382
 20
91.7539
 11
308.341
 21
91.9379
  0
LINE
  8
0
 10
308.341
 20
91.9379
 11
308.311
 21
92.124
  0
LINE
  8
0
 10
308.311
 20
92.124
 11
308.294
 21
92.3116
  0
LINE
  8
0
 10
308.294
 20
92.3116
 11
308.288
 21
92.5
  0
LINE
  8
0
 10
308.288
 20
92.5
 11
308.294
 21
92.6884
  0
LINE
  8
0
 10
308.294
 20
92.6884
 11
308.311
 21
92.876
  0
LINE
  8
0
 10
308.311
 20
92.876
 11
308.341
 21
93.0621
  0
LINE
  8
0
 10
308.341
 20
93.0621
 11
308.382
 21
93.2461
  0
LINE
  8
0
 10
308.382
 20
93.2461
 11
308.434
 21
93.427
  0
LINE
  8
0
 10
308.434
 20
93.427
 11
308.498
 21
93.6044
  0
LINE
  8
0
 10
308.498
 20
93.6044
 11
308.573
 21
93.7773
  0
LINE
  8
0
 10
308.573
 20
93.7773
 11
308.659
 21
93.9453
  0
LINE
  8
0
 10
308.659
 20
93.9453
 11
308.755
 21
94.1075
  0
LINE
  8
0
 10
308.755
 20
94.1075
 11
308.861
 21
94.2634
  0
LINE
  8
0
 10
308.861
 20
94.2634
 11
308.976
 21
94.4123
  0
LINE
  8
0
 10
308.976
 20
94.4123
 11
309.101
 21
94.5536
  0
LINE
  8
0
 10
309.101
 20
94.5536
 11
309.234
 21
94.6869
  0
LINE
  8
0
 10
309.234
 20
94.6869
 11
309.375
 21
94.8115
  0
LINE
  8
0
 10
309.375
 20
94.8115
 11
309.524
 21
94.927
  0
LINE
  8
0
 10
309.524
 20
94.927
 11
309.68
 21
95.033
  0
LINE
  8
0
 10
309.68
 20
95.033
 11
309.842
 21
95.1289
  0
LINE
  8
0
 10
309.842
 20
95.1289
 11
310.01
 21
95.2145
  0
LINE
  8
0
 10
310.01
 20
95.2145
 11
310.183
 21
95.2893
  0
LINE
  8
0
 10
310.183
 20
95.2893
 11
310.361
 21
95.3532
  0
LINE
  8
0
 10
310.361
 20
95.3532
 11
310.542
 21
95.4057
  0
LINE
  8
0
 10
310.542
 20
95.4057
 11
310.725
 21
95.4469
  0
LINE
  8
0
 10
310.725
 20
95.4469
 11
310.912
 21
95.4763
  0
LINE
  8
0
 10
310.912
 20
95.4763
 11
311.099
 21
95.4941
  0
LINE
  8
0
 10
311.099
 20
95.4941
 11
311.288
 21
95.5
  0
LINE
  8
0
 10
311.288
 20
95.5
 11
311.476
 21
95.4941
  0
LINE
  8
0
 10
311.476
 20
95.4941
 11
311.664
 21
95.4763
  0
LINE
  8
0
 10
311.664
 20
95.4763
 11
311.85
 21
95.4469
  0
LINE
  8
0
 10
311.85
 20
95.4469
 11
312.034
 21
95.4057
  0
LINE
  8
0
 10
312.034
 20
95.4057
 11
312.215
 21
95.3532
  0
LINE
  8
0
 10
312.215
 20
95.3532
 11
312.392
 21
95.2893
  0
LINE
  8
0
 10
312.392
 20
95.2893
 11
312.565
 21
95.2145
  0
LINE
  8
0
 10
312.565
 20
95.2145
 11
312.733
 21
95.1289
  0
LINE
  8
0
 10
312.733
 20
95.1289
 11
312.895
 21
95.033
  0
LINE
  8
0
 10
312.895
 20
95.033
 11
313.051
 21
94.927
  0
LINE
  8
0
 10
313.051
 20
94.927
 11
313.2
 21
94.8115
  0
LINE
  8
0
 10
313.2
 20
94.8115
 11
313.341
 21
94.6869
  0
LINE
  8
0
 10
313.341
 20
94.6869
 11
313.475
 21
94.5536
  0
LINE
  8
0
 10
313.475
 20
94.5536
 11
313.599
 21
94.4123
  0
LINE
  8
0
 10
313.599
 20
94.4123
 11
313.715
 21
94.2634
  0
LINE
  8
0
 10
313.715
 20
94.2634
 11
313.821
 21
94.1075
  0
LINE
  8
0
 10
313.821
 20
94.1075
 11
313.917
 21
93.9453
  0
LINE
  8
0
 10
313.917
 20
93.9453
 11
314.002
 21
93.7773
  0
LINE
  8
0
 10
314.002
 20
93.7773
 11
314.077
 21
93.6044
  0
LINE
  8
0
 10
314.077
 20
93.6044
 11
314.141
 21
93.427
  0
LINE
  8
0
 10
314.141
 20
93.427
 11
314.193
 21
93.2461
  0
LINE
  8
0
 10
314.193
 20
93.2461
 11
314.234
 21
93.0621
  0
LINE
  8
0
 10
314.234
 20
93.0621
 11
314.264
 21
92.876
  0
LINE
  8
0
 10
314.264
 20
92.876
 11
314.282
 21
92.6884
  0
LINE
  8
0
 10
314.282
 20
92.6884
 11
314.288
 21
92.5
  0
LINE
  8
0
 10
314.288
 20
92.5
 11
314.282
 21
92.3116
  0
LINE
  8
0
 10
314.282
 20
92.3116
 11
314.264
 21
92.124
  0
LINE
  8
0
 10
314.264
 20
92.124
 11
314.234
 21
91.9379
  0
LINE
  8
0
 10
314.234
 20
91.9379
 11
314.193
 21
91.7539
  0
LINE
  8
0
 10
314.193
 20
91.7539
 11
314.141
 21
91.573
  0
LINE
  8
0
 10
314.141
 20
91.573
 11
314.077
 21
91.3956
  0
LINE
  8
0
 10
314.077
 20
91.3956
 11
314.002
 21
91.2227
  0
LINE
  8
0
 10
314.002
 20
91.2227
 11
313.917
 21
91.0547
  0
LINE
  8
0
 10
313.917
 20
91.0547
 11
313.821
 21
90.8925
  0
LINE
  8
0
 10
313.821
 20
90.8925
 11
313.715
 21
90.7366
  0
LINE
  8
0
 10
313.715
 20
90.7366
 11
313.599
 21
90.5877
  0
LINE
  8
0
 10
313.599
 20
90.5877
 11
313.475
 21
90.4464
  0
LINE
  8
0
 10
313.475
 20
90.4464
 11
313.341
 21
90.3131
  0
LINE
  8
0
 10
313.341
 20
90.3131
 11
313.2
 21
90.1885
  0
LINE
  8
0
 10
313.2
 20
90.1885
 11
313.051
 21
90.073
  0
LINE
  8
0
 10
313.051
 20
90.073
 11
312.895
 21
89.967
  0
LINE
  8
0
 10
312.895
 20
89.967
 11
312.733
 21
89.8711
  0
LINE
  8
0
 10
312.733
 20
89.8711
 11
312.565
 21
89.7855
  0
LINE
  8
0
 10
312.565
 20
89.7855
 11
312.392
 21
89.7107
  0
LINE
  8
0
 10
312.392
 20
89.7107
 11
312.215
 21
89.6468
  0
LINE
  8
0
 10
312.215
 20
89.6468
 11
312.034
 21
89.5943
  0
LINE
  8
0
 10
312.034
 20
89.5943
 11
311.85
 21
89.5531
  0
LINE
  8
0
 10
311.85
 20
89.5531
 11
311.664
 21
89.5237
  0
LINE
  8
0
 10
311.664
 20
89.5237
 11
311.476
 21
89.5059
  0
LINE
  8
0
 10
311.476
 20
89.5059
 11
311.288
 21
89.5
  0
LINE
  8
0
 10
311.288
 20
89.5
 11
311.099
 21
89.5059
  0
LINE
  8
0
 10
21.4622
 20
9.50591
 11
21.2746
 21
9.52365
  0
LINE
  8
0
 10
21.2746
 20
9.52365
 11
21.0885
 21
9.55313
  0
LINE
  8
0
 10
21.0885
 20
9.55313
 11
20.9046
 21
9.59424
  0
LINE
  8
0
 10
20.9046
 20
9.59424
 11
20.7236
 21
9.64682
  0
LINE
  8
0
 10
20.7236
 20
9.64682
 11
20.5462
 21
9.71066
  0
LINE
  8
0
 10
20.5462
 20
9.71066
 11
20.3733
 21
9.78551
  0
LINE
  8
0
 10
20.3733
 20
9.78551
 11
20.2054
 21
9.87108
  0
LINE
  8
0
 10
20.2054
 20
9.87108
 11
20.0432
 21
9.96701
  0
LINE
  8
0
 10
20.0432
 20
9.96701
 11
19.8873
 21
10.0729
  0
LINE
  8
0
 10
19.8873
 20
10.0729
 11
19.7384
 21
10.1884
  0
LINE
  8
0
 10
19.7384
 20
10.1884
 11
19.597
 21
10.3131
  0
LINE
  8
0
 10
19.597
 20
10.3131
 11
19.4637
 21
10.4464
  0
LINE
  8
0
 10
19.4637
 20
10.4464
 11
19.3391
 21
10.5877
  0
LINE
  8
0
 10
19.3391
 20
10.5877
 11
19.2236
 21
10.7366
  0
LINE
  8
0
 10
19.2236
 20
10.7366
 11
19.1176
 21
10.8925
  0
LINE
  8
0
 10
19.1176
 20
10.8925
 11
19.0217
 21
11.0547
  0
LINE
  8
0
 10
19.0217
 20
11.0547
 11
18.9361
 21
11.2227
  0
LINE
  8
0
 10
18.9361
 20
11.2227
 11
18.8613
 21
11.3956
  0
LINE
  8
0
 10
18.8613
 20
11.3956
 11
18.7975
 21
11.5729
  0
LINE
  8
0
 10
18.7975
 20
11.5729
 11
18.7449
 21
11.7539
  0
LINE
  8
0
 10
18.7449
 20
11.7539
 11
18.7038
 21
11.9379
  0
LINE
  8
0
 10
18.7038
 20
11.9379
 11
18.6743
 21
12.124
  0
LINE
  8
0
 10
18.6743
 20
12.124
 11
18.6566
 21
12.3116
  0
LINE
  8
0
 10
18.6566
 20
12.3116
 11
18.6506
 21
12.5
  0
LINE
  8
0
 10
18.6506
 20
12.5
 11
18.6566
 21
12.6884
  0
LINE
  8
0
 10
18.6566
 20
12.6884
 11
18.6743
 21
12.876
  0
LINE
  8
0
 10
18.6743
 20
12.876
 11
18.7038
 21
13.0621
  0
LINE
  8
0
 10
18.7038
 20
13.0621
 11
18.7449
 21
13.2461
  0
LINE
  8
0
 10
18.7449
 20
13.2461
 11
18.7975
 21
13.427
  0
LINE
  8
0
 10
18.7975
 20
13.427
 11
18.8613
 21
13.6044
  0
LINE
  8
0
 10
18.8613
 20
13.6044
 11
18.9361
 21
13.7773
  0
LINE
  8
0
 10
18.9361
 20
13.7773
 11
19.0217
 21
13.9453
  0
LINE
  8
0
 10
19.0217
 20
13.9453
 11
19.1176
 21
14.1075
  0
LINE
  8
0
 10
19.1176
 20
14.1075
 11
19.2236
 21
14.2634
  0
LINE
  8
0
 10
19.2236
 20
14.2634
 11
19.3391
 21
14.4123
  0
LINE
  8
0
 10
19.3391
 20
14.4123
 11
19.4637
 21
14.5536
  0
LINE
  8
0
 10
19.4637
 20
14.5536
 11
19.597
 21
14.6869
  0
LINE
  8
0
 10
19.597
 20
14.6869
 11
19.7384
 21
14.8115
  0
LINE
  8
0
 10
19.7384
 20
14.8115
 11
19.8873
 21
14.927
  0
LINE
  8
0
 10
19.8873
 20
14.927
 11
20.0432
 21
15.033
  0
LINE
  8
0
 10
20.0432
 20
15.033
 11
20.2054
 21
15.1289
  0
LINE
  8
0
 10
20.2054
 20
15.1289
 11
20.3733
 21
15.2145
  0
LINE
  8
0
 10
20.3733
 20
15.2145
 11
20.5462
 21
15.2893
  0
LINE
  8
0
 10
20.5462
 20
15.2893
 11
20.7236
 21
15.3532
  0
LINE
  8
0
 10
20.7236
 20
15.3532
 11
20.9046
 21
15.4057
  0
LINE
  8
0
 10
20.9046
 20
15.4057
 11
21.0885
 21
15.4469
  0
LINE
  8
0
 10
21.0885
 20
15.4469
 11
21.2746
 21
15.4763
  0
LINE
  8
0
 10
21.2746
 20
15.4763
 11
21.4622
 21
15.4941
  0
LINE
  8
0
 10
21.4622
 20
15.4941
 11
21.6506
 21
15.5
  0
LINE
  8
0
 10
21.6506
 20
15.5
 11
21.839
 21
15.4941
  0
LINE
  8
0
 10
21.839
 20
15.4941
 11
22.0266
 21
15.4763
  0
LINE
  8
0
 10
22.0266
 20
15.4763
 11
22.2128
 21
15.4469
  0
LINE
  8
0
 10
22.2128
 20
15.4469
 11
22.3967
 21
15.4057
  0
LINE
  8
0
 10
22.3967
 20
15.4057
 11
22.5777
 21
15.3532
  0
LINE
  8
0
 10
22.5777
 20
15.3532
 11
22.755
 21
15.2893
  0
LINE
  8
0
 10
22.755
 20
15.2893
 11
22.928
 21
15.2145
  0
LINE
  8
0
 10
22.928
 20
15.2145
 11
23.0959
 21
15.1289
  0
LINE
  8
0
 10
23.0959
 20
15.1289
 11
23.2581
 21
15.033
  0
LINE
  8
0
 10
23.2581
 20
15.033
 11
23.414
 21
14.927
  0
LINE
  8
0
 10
23.414
 20
14.927
 11
23.5629
 21
14.8115
  0
LINE
  8
0
 10
23.5629
 20
14.8115
 11
23.7043
 21
14.6869
  0
LINE
  8
0
 10
23.7043
 20
14.6869
 11
23.8375
 21
14.5536
  0
LINE
  8
0
 10
23.8375
 20
14.5536
 11
23.9622
 21
14.4123
  0
LINE
  8
0
 10
23.9622
 20
14.4123
 11
24.0777
 21
14.2634
  0
LINE
  8
0
 10
24.0777
 20
14.2634
 11
24.1836
 21
14.1075
  0
LINE
  8
0
 10
24.1836
 20
14.1075
 11
24.2795
 21
13.9453
  0
LINE
  8
0
 10
24.2795
 20
13.9453
 11
24.3651
 21
13.7773
  0
LINE
  8
0
 10
24.3651
 20
13.7773
 11
24.44
 21
13.6044
  0
LINE
  8
0
 10
24.44
 20
13.6044
 11
24.5038
 21
13.427
  0
LINE
  8
0
 10
24.5038
 20
13.427
 11
24.5564
 21
13.2461
  0
LINE
  8
0
 10
24.5564
 20
13.2461
 11
24.5975
 21
13.0621
  0
LINE
  8
0
 10
24.5975
 20
13.0621
 11
24.627
 21
12.876
  0
LINE
  8
0
 10
24.627
 20
12.876
 11
24.6447
 21
12.6884
  0
LINE
  8
0
 10
24.6447
 20
12.6884
 11
24.6506
 21
12.5
  0
LINE
  8
0
 10
24.6506
 20
12.5
 11
24.6447
 21
12.3116
  0
LINE
  8
0
 10
24.6447
 20
12.3116
 11
24.627
 21
12.124
  0
LINE
  8
0
 10
24.627
 20
12.124
 11
24.5975
 21
11.9379
  0
LINE
  8
0
 10
24.5975
 20
11.9379
 11
24.5564
 21
11.7539
  0
LINE
  8
0
 10
24.5564
 20
11.7539
 11
24.5038
 21
11.5729
  0
LINE
  8
0
 10
24.5038
 20
11.5729
 11
24.44
 21
11.3956
  0
LINE
  8
0
 10
24.44
 20
11.3956
 11
24.3651
 21
11.2227
  0
LINE
  8
0
 10
24.3651
 20
11.2227
 11
24.2795
 21
11.0547
  0
LINE
  8
0
 10
24.2795
 20
11.0547
 11
24.1836
 21
10.8925
  0
LINE
  8
0
 10
24.1836
 20
10.8925
 11
24.0777
 21
10.7366
  0
LINE
  8
0
 10
24.0777
 20
10.7366
 11
23.9622
 21
10.5877
  0
LINE
  8
0
 10
23.9622
 20
10.5877
 11
23.8375
 21
10.4464
  0
LINE
  8
0
 10
23.8375
 20
10.4464
 11
23.7043
 21
10.3131
  0
LINE
  8
0
 10
23.7043
 20
10.3131
 11
23.5629
 21
10.1884
  0
LINE
  8
0
 10
23.5629
 20
10.1884
 11
23.414
 21
10.0729
  0
LINE
  8
0
 10
23.414
 20
10.0729
 11
23.2581
 21
9.96701
  0
LINE
  8
0
 10
23.2581
 20
9.96701
 11
23.0959
 21
9.87108
  0
LINE
  8
0
 10
23.0959
 20
9.87108
 11
22.928
 21
9.78551
  0
LINE
  8
0
 10
22.928
 20
9.78551
 11
22.755
 21
9.71066
  0
LINE
  8
0
 10
22.755
 20
9.71066
 11
22.5777
 21
9.64682
  0
LINE
  8
0
 10
22.5777
 20
9.64682
 11
22.3967
 21
9.59424
  0
LINE
  8
0
 10
22.3967
 20
9.59424
 11
22.2128
 21
9.55313
  0
LINE
  8
0
 10
22.2128
 20
9.55313
 11
22.0266
 21
9.52365
  0
LINE
  8
0
 10
22.0266
 20
9.52365
 11
21.839
 21
9.50591
  0
LINE
  8
0
 10
21.839
 20
9.50591
 11
21.6506
 21
9.5
  0
LINE
  8
0
 10
21.6506
 20
9.5
 11
21.4622
 21
9.50591
  0
LINE
  8
0
 10
-21.839
 20
9.50591
 11
-22.0266
 21
9.52365
  0
LINE
  8
0
 10
-22.0266
 20
9.52365
 11
-22.2128
 21
9.55313
  0
LINE
  8
0
 10
-22.2128
 20
9.55313
 11
-22.3967
 21
9.59424
  0
LINE
  8
0
 10
-22.3967
 20
9.59424
 11
-22.5777
 21
9.64682
  0
LINE
  8
0
 10
-22.5777
 20
9.64682
 11
-22.755
 21
9.71066
  0
LINE
  8
0
 10
-22.755
 20
9.71066
 11
-22.928
 21
9.78551
  0
LINE
  8
0
 10
-22.928
 20
9.78551
 11
-23.0959
 21
9.87108
  0
LINE
  8
0
 10
-23.0959
 20
9.87108
 11
-23.2581
 21
9.96701
  0
LINE
  8
0
 10
-23.2581
 20
9.96701
 11
-23.414
 21
10.0729
  0
LINE
  8
0
 10
-23.414
 20
10.0729
 11
-23.5629
 21
10.1884
  0
LINE
  8
0
 10
-23.5629
 20
10.1884
 11
-23.7043
 21
10.3131
  0
LINE
  8
0
 10
-23.7043
 20
10.3131
 11
-23.8375
 21
10.4464
  0
LINE
  8
0
 10
-23.8375
 20
10.4464
 11
-23.9622
 21
10.5877
  0
LINE
  8
0
 10
-23.9622
 20
10.5877
 11
-24.0777
 21
10.7366
  0
LINE
  8
0
 10
-24.0777
 20
10.7366
 11
-24.1836
 21
10.8925
  0
LINE
  8
0
 10
-24.1836
 20
10.8925
 11
-24.2795
 21
11.0547
  0
LINE
  8
0
 10
-24.2795
 20
11.0547
 11
-24.3651
 21
11.2227
  0
LINE
  8
0
 10
-24.3651
 20
11.2227
 11
-24.44
 21
11.3956
  0
LINE
  8
0
 10
-24.44
 20
11.3956
 11
-24.5038
 21
11.5729
  0
LINE
  8
0
 10
-24.5038
 20
11.5729
 11
-24.5564
 21
11.7539
  0
LINE
  8
0
 10
-24.5564
 20
11.7539
 11
-24.5975
 21
11.9379
  0
LINE
  8
0
 10
-24.5975
 20
11.9379
 11
-24.627
 21
12.124
  0
LINE
  8
0
 10
-24.627
 20
12.124
 11
-24.6447
 21
12.3116
  0
LINE
  8
0
 10
-24.6447
 20
12.3116
 11
-24.6506
 21
12.5
  0
LINE
  8
0
 10
-24.6506
 20
12.5
 11
-24.6447
 21
12.6884
  0
LINE
  8
0
 10
-24.6447
 20
12.6884
 11
-24.627
 21
12.876
  0
LINE
  8
0
 10
-24.627
 20
12.876
 11
-24.5975
 21
13.0621
  0
LINE
  8
0
 10
-24.5975
 20
13.0621
 11
-24.5564
 21
13.2461
  0
LINE
  8
0
 10
-24.5564
 20
13.2461
 11
-24.5038
 21
13.427
  0
LINE
  8
0
 10
-24.5038
 20
13.427
 11
-24.44
 21
13.6044
  0
LINE
  8
0
 10
-24.44
 20
13.6044
 11
-24.3651
 21
13.7773
  0
LINE
  8
0
 10
-24.3651
 20
13.7773
 11
-24.2795
 21
13.9453
  0
LINE
  8
0
 10
-24.2795
 20
13.9453
 11
-24.1836
 21
14.1075
  0
LINE
  8
0
 10
-24.1836
 20
14.1075
 11
-24.0777
 21
14.2634
  0
LINE
  8
0
 10
-24.0777
 20
14.2634
 11
-23.9622
 21
14.4123
  0
LINE
  8
0
 10
-23.9622
 20
14.4123
 11
-23.8375
 21
14.5536
  0
LINE
  8
0
 10
-23.8375
 20
14.5536
 11
-23.7043
 21
14.6869
  0
LINE
  8
0
 10
-23.7043
 20
14.6869
 11
-23.5629
 21
14.8115
  0
LINE
  8
0
 10
-23.5629
 20
14.8115
 11
-23.414
 21
14.927
  0
LINE
  8
0
 10
-23.414
 20
14.927
 11
-23.2581
 21
15.033
  0
LINE
  8
0
 10
-23.2581
 20
15.033
 11
-23.0959
 21
15.1289
  0
LINE
  8
0
 10
-23.0959
 20
15.1289
 11
-22.928
 21
15.2145
  0
LINE
  8
0
 10
-22.928
 20
15.2145
 11
-22.755
 21
15.2893
  0
LINE
  8
0
 10
-22.755
 20
15.2893
 11
-22.5777
 21
15.3532
  0
LINE
  8
0
 10
-22.5777
 20
15.3532
 11
-22.3967
 21
15.4057
  0
LINE
  8
0
 10
-22.3967
 20
15.4057
 11
-22.2128
 21
15.4469
  0
LINE
  8
0
 10
-22.2128
 20
15.4469
 11
-22.0266
 21
15.4763
  0
LINE
  8
0
 10
-22.0266
 20
15.4763
 11
-21.839
 21
15.4941
  0
LINE
  8
0
 10
-21.839
 20
15.4941
 11
-21.6506
 21
15.5
  0
LINE
  8
0
 10
-21.6506
 20
15.5
 11
-21.4622
 21
15.4941
  0
LINE
  8
0
 10
-21.4622
 20
15.4941
 11
-21.2746
 21
15.4763
  0
LINE
  8
0
 10
-21.2746
 20
15.4763
 11
-21.0885
 21
15.4469
  0
LINE
  8
0
 10
-21.0885
 20
15.4469
 11
-20.9046
 21
15.4057
  0
LINE
  8
0
 10
-20.9046
 20
15.4057
 11
-20.7236
 21
15.3532
  0
LINE
  8
0
 10
-20.7236
 20
15.3532
 11
-20.5462
 21
15.2893
  0
LINE
  8
0
 10
-20.5462
 20
15.2893
 11
-20.3733
 21
15.2145
  0
LINE
  8
0
 10
-20.3733
 20
15.2145
 11
-20.2054
 21
15.1289
  0
LINE
  8
0
 10
-20.2054
 20
15.1289
 11
-20.0432
 21
15.033
  0
LINE
  8
0
 10
-20.0432
 20
15.033
 11
-19.8873
 21
14.927
  0
LINE
  8
0
 10
-19.8873
 20
14.927
 11
-19.7384
 21
14.8115
  0
LINE
  8
0
 10
-19.7384
 20
14.8115
 11
-19.597
 21
14.6869
  0
LINE
  8
0
 10
-19.597
 20
14.6869
 11
-19.4637
 21
14.5536
  0
LINE
  8
0
 10
-19.4637
 20
14.5536
 11
-19.3391
 21
14.4123
  0
LINE
  8
0
 10
-19.3391
 20
14.4123
 11
-19.2236
 21
14.2634
  0
LINE
  8
0
 10
-19.2236
 20
14.2634
 11
-19.1176
 21
14.1075
  0
LINE
  8
0
 10
-19.1176
 20
14.1075
 11
-19.0217
 21
13.9453
  0
LINE
  8
0
 10
-19.0217
 20
13.9453
 11
-18.9361
 21
13.7773
  0
LINE
  8
0
 10
-18.9361
 20
13.7773
 11
-18.8613
 21
13.6044
  0
LINE
  8
0
 10
-18.8613
 20
13.6044
 11
-18.7975
 21
13.427
  0
LINE
  8
0
 10
-18.7975
 20
13.427
 11
-18.7449
 21
13.2461
  0
LINE
  8
0
 10
-18.7449
 20
13.2461
 11
-18.7038
 21
13.0621
  0
LINE
  8
0
 10
-18.7038
 20
13.0621
 11
-18.6743
 21
12.876
  0
LINE
  8
0
 10
-18.6743
 20
12.876
 11
-18.6566
 21
12.6884
  0
LINE
  8
0
 10
-18.6566
 20
12.6884
 11
-18.6506
 21
12.5
  0
LINE
  8
0
 10
-18.6506
 20
12.5
 11
-18.6566
 21
12.3116
  0
LINE
  8
0
 10
-18.6566
 20
12.3116
 11
-18.6743
 21
12.124
  0
LINE
  8
0
 10
-18.6743
 20
12.124
 11
-18.7038
 21
11.9379
  0
LINE
  8
0
 10
-18.7038
 20
11.9379
 11
-18.7449
 21
11.7539
  0
LINE
  8
0
 10
-18.7449
 20
11.7539
 11
-18.7975
 21
11.5729
  0
LINE
  8
0
 10
-18.7975
 20
11.5729
 11
-18.8613
 21
11.3956
  0
LINE
  8
0
 10
-18.8613
 20
11.3956
 11
-18.9361
 21
11.2227
  0
LINE
  8
0
 10
-18.9361
 20
11.2227
 11
-19.0217
 21
11.0547
  0
LINE
  8
0
 10
-19.0217
 20
11.0547
 11
-19.1176
 21
10.8925
  0
LINE
  8
0
 10
-19.1176
 20
10.8925
 11
-19.2236
 21
10.7366
  0
LINE
  8
0
 10
-19.2236
 20
10.7366
 11
-19.3391
 21
10.5877
  0
LINE
  8
0
 10
-19.3391
 20
10.5877
 11
-19.4637
 21
10.4464
  0
LINE
  8
0
 10
-19.4637
 20
10.4464
 11
-19.597
 21
10.3131
  0
LINE
  8
0
 10
-19.597
 20
10.3131
 11
-19.7384
 21
10.1884
  0
LINE
  8
0
 10
-19.7384
 20
10.1884
 11
-19.8873
 21
10.0729
  0
LINE
  8
0
 10
-19.8873
 20
10.0729
 11
-20.0432
 21
9.96701
  0
LINE
  8
0
 10
-20.0432
 20
9.96701
 11
-20.2054
 21
9.87108
  0
LINE
  8
0
 10
-20.2054
 20
9.87108
 11
-20.3733
 21
9.78551
  0
LINE
  8
0
 10
-20.3733
 20
9.78551
 11
-20.5462
 21
9.71066
  0
LINE
  8
0
 10
-20.5462
 20
9.71066
 11
-20.7236
 21
9.64682
  0
LINE
  8
0
 10
-20.7236
 20
9.64682
 11
-20.9046
 21
9.59424
  0
LINE
  8
0
 10
-20.9046
 20
9.59424
 11
-21.0885
 21
9.55313
  0
LINE
  8
0
 10
-21.0885
 20
9.55313
 11
-21.2746
 21
9.52365
  0
LINE
  8
0
 10
-21.2746
 20
9.52365
 11
-21.4622
 21
9.50591
  0
LINE
  8
0
 10
-21.4622
 20
9.50591
 11
-21.6506
 21
9.5
  0
LINE
  8
0
 10
-21.6506
 20
9.5
 11
-21.839
 21
9.50591
  0
LINE
  8
0
 10
158.091
 20
-10.4793
 11
157.434
 21
-10.4172
  0
LINE
  8
0
 10
157.434
 20
-10.4172
 11
156.783
 21
-10.314
  0
LINE
  8
0
 10
156.783
 20
-10.314
 11
156.139
 21
-10.1701
  0
LINE
  8
0
 10
156.139
 20
-10.1701
 11
155.505
 21
-9.98608
  0
LINE
  8
0
 10
155.505
 20
-9.98608
 11
154.885
 21
-9.76265
  0
LINE
  8
0
 10
154.885
 20
-9.76265
 11
154.279
 21
-9.50067
  0
LINE
  8
0
 10
154.279
 20
-9.50067
 11
153.692
 21
-9.20122
  0
LINE
  8
0
 10
153.692
 20
-9.20122
 11
153.124
 21
-8.86543
  0
LINE
  8
0
 10
153.124
 20
-8.86543
 11
152.578
 21
-8.49467
  0
LINE
  8
0
 10
152.578
 20
-8.49467
 11
152.057
 21
-8.09038
  0
LINE
  8
0
 10
152.057
 20
-8.09038
 11
151.562
 21
-7.65416
  0
LINE
  8
0
 10
151.562
 20
-7.65416
 11
151.096
 21
-7.18774
  0
LINE
  8
0
 10
151.096
 20
-7.18774
 11
150.66
 21
-6.69295
  0
LINE
  8
0
 10
150.66
 20
-6.69295
 11
150.255
 21
-6.17174
  0
LINE
  8
0
 10
150.255
 20
-6.17174
 11
149.885
 21
-5.62617
  0
LINE
  8
0
 10
149.885
 20
-5.62617
 11
149.549
 21
-5.05841
  0
LINE
  8
0
 10
149.549
 20
-5.05841
 11
149.249
 21
-4.47067
  0
LINE
  8
0
 10
149.249
 20
-4.47067
 11
148.987
 21
-3.8653
  0
LINE
  8
0
 10
148.987
 20
-3.8653
 11
148.764
 21
-3.24467
  0
LINE
  8
0
 10
148.764
 20
-3.24467
 11
148.58
 21
-2.61124
  0
LINE
  8
0
 10
148.58
 20
-2.61124
 11
148.436
 21
-1.9675
  0
LINE
  8
0
 10
148.436
 20
-1.9675
 11
148.333
 21
-1.31599
  0
LINE
  8
0
 10
148.333
 20
-1.31599
 11
148.271
 21
-0.659286
  0
LINE
  8
0
 10
148.271
 20
-0.659286
 11
148.25
 21
0
  0
LINE
  8
0
 10
148.25
 20
0
 11
148.271
 21
0.659286
  0
LINE
  8
0
 10
148.271
 20
0.659286
 11
148.333
 21
1.31599
  0
LINE
  8
0
 10
148.333
 20
1.31599
 11
148.436
 21
1.9675
  0
LINE
  8
0
 10
148.436
 20
1.9675
 11
148.58
 21
2.61124
  0
LINE
  8
0
 10
148.58
 20
2.61124
 11
148.764
 21
3.24467
  0
LINE
  8
0
 10
148.764
 20
3.24467
 11
148.987
 21
3.8653
  0
LINE
  8
0
 10
148.987
 20
3.8653
 11
149.249
 21
4.47067
  0
LINE
  8
0
 10
149.249
 20
4.47067
 11
149.549
 21
5.05841
  0
LINE
  8
0
 10
149.549
 20
5.05841
 11
149.885
 21
5.62617
  0
LINE
  8
0
 10
149.885
 20
5.62617
 11
150.255
 21
6.17174
  0
LINE
  8
0
 10
150.255
 20
6.17174
 11
150.66
 21
6.69295
  0
LINE
  8
0
 10
150.66
 20
6.69295
 11
151.096
 21
7.18774
  0
LINE
  8
0
 10
151.096
 20
7.18774
 11
151.562
 21
7.65416
  0
LINE
  8
0
 10
151.562
 20
7.65416
 11
152.057
 21
8.09038
  0
LINE
  8
0
 10
152.057
 20
8.09038
 11
152.578
 21
8.49467
  0
LINE
  8
0
 10
152.578
 20
8.49467
 11
153.124
 21
8.86543
  0
LINE
  8
0
 10
153.124
 20
8.86543
 11
153.692
 21
9.20122
  0
LINE
  8
0
 10
153.692
 20
9.20122
 11
154.279
 21
9.50067
  0
LINE
  8
0
 10
154.279
 20
9.50067
 11
154.885
 21
9.76265
  0
LINE
  8
0
 10
154.885
 20
9.76265
 11
155.505
 21
9.98608
  0
LINE
  8
0
 10
155.505
 20
9.98608
 11
156.139
 21
10.1701
  0
LINE
  8
0
 10
156.139
 20
10.1701
 11
156.783
 21
10.314
  0
LINE
  8
0
 10
156.783
 20
10.314
 11
157.434
 21
10.4172
  0
LINE
  8
0
 10
157.434
 20
10.4172
 11
158.091
 21
10.4793
  0
LINE
  8
0
 10
158.091
 20
10.4793
 11
158.75
 21
10.5
  0
LINE
  8
0
 10
158.75
 20
10.5
 11
159.409
 21
10.4793
  0
LINE
  8
0
 10
159.409
 20
10.4793
 11
160.066
 21
10.4172
  0
LINE
  8
0
 10
160.066
 20
10.4172
 11
160.717
 21
10.314
  0
LINE
  8
0
 10
160.717
 20
10.314
 11
161.361
 21
10.1701
  0
LINE
  8
0
 10
161.361
 20
10.1701
 11
161.995
 21
9.98608
  0
LINE
  8
0
 10
161.995
 20
9.98608
 11
162.615
 21
9.76265
  0
LINE
  8
0
 10
162.615
 20
9.76265
 11
163.221
 21
9.50067
  0
LINE
  8
0
 10
163.221
 20
9.50067
 11
163.808
 21
9.20122
  0
LINE
  8
0
 10
163.808
 20
9.20122
 11
164.376
 21
8.86543
  0
LINE
  8
0
 10
164.376
 20
8.86543
 11
164.922
 21
8.49467
  0
LINE
  8
0
 10
164.922
 20
8.49467
 11
165.443
 21
8.09038
  0
LINE
  8
0
 10
165.443
 20
8.09038
 11
165.938
 21
7.65416
  0
LINE
  8
0
 10
165.938
 20
7.65416
 11
166.404
 21
7.18774
  0
LINE
  8
0
 10
166.404
 20
7.18774
 11
166.84
 21
6.69295
  0
LINE
  8
0
 10
166.84
 20
6.69295
 11
167.245
 21
6.17174
  0
LINE
  8
0
 10
167.245
 20
6.17174
 11
167.615
 21
5.62617
  0
LINE
  8
0
 10
167.615
 20
5.62617
 11
167.951
 21
5.05841
  0
LINE
  8
0
 10
167.951
 20
5.05841
 11
168.251
 21
4.47067
  0
LINE
  8
0
 10
168.251
 20
4.47067
 11
168.513
 21
3.8653
  0
LINE
  8
0
 10
168.513
 20
3.8653
 11
168.736
 21
3.24467
  0
LINE
  8
0
 10
168.736
 20
3.24467
 11
168.92
 21
2.61124
  0
LINE
  8
0
 10
168.92
 20
2.61124
 11
169.064
 21
1.9675
  0
LINE
  8
0
 10
169.064
 20
1.9675
 11
169.167
 21
1.31599
  0
LINE
  8
0
 10
169.167
 20
1.31599
 11
169.229
 21
0.659286
  0
LINE
  8
0
 10
169.229
 20
0.659286
 11
169.25
 21
0
  0
LINE
  8
0
 10
169.25
 20
0
 11
169.229
 21
-0.659286
  0
LINE
  8
0
 10
169.229
 20
-0.659286
 11
169.167
 21
-1.31599
  0
LINE
  8
0
 10
169.167
 20
-1.31599
 11
169.064
 21
-1.9675
  0
LINE
  8
0
 10
169.064
 20
-1.9675
 11
168.92
 21
-2.61124
  0
LINE
  8
0
 10
168.92
 20
-2.61124
 11
168.736
 21
-3.24467
  0
LINE
  8
0
 10
168.736
 20
-3.24467
 11
168.513
 21
-3.8653
  0
LINE
  8
0
 10
168.513
 20
-3.8653
 11
168.251
 21
-4.47067
  0
LINE
  8
0
 10
168.251
 20
-4.47067
 11
167.951
 21
-5.05841
  0
LINE
  8
0
 10
167.951
 20
-5.05841
 11
167.615
 21
-5.62617
  0
LINE
  8
0
 10
167.615
 20
-5.62617
 11
167.245
 21
-6.17174
  0
LINE
  8
0
 10
167.245
 20
-6.17174
 11
166.84
 21
-6.69295
  0
LINE
  8
0
 10
166.84
 20
-6.69295
 11
166.404
 21
-7.18774
  0
LINE
  8
0
 10
166.404
 20
-7.18774
 11
165.938
 21
-7.65416
  0
LINE
  8
0
 10
165.938
 20
-7.65416
 11
165.443
 21
-8.09038
  0
LINE
  8
0
 10
165.443
 20
-8.09038
 11
164.922
 21
-8.49467
  0
LINE
  8
0
 10
164.922
 20
-8.49467
 11
164.376
 21
-8.86543
  0
LINE
  8
0
 10
164.376
 20
-8.86543
 11
163.808
 21
-9.20122
  0
LINE
  8
0
 10
163.808
 20
-9.20122
 11
163.221
 21
-9.50067
  0
LINE
  8
0
 10
163.221
 20
-9.50067
 11
162.615
 21
-9.76265
  0
LINE
  8
0
 10
162.615
 20
-9.76265
 11
161.995
 21
-9.98608
  0
LINE
  8
0
 10
161.995
 20
-9.98608
 11
161.361
 21
-10.1701
  0
LINE
  8
0
 10
161.361
 20
-10.1701
 11
160.717
 21
-10.314
  0
LINE
  8
0
 10
160.717
 20
-10.314
 11
160.066
 21
-10.4172
  0
LINE
  8
0
 10
160.066
 20
-10.4172
 11
159.409
 21
-10.4793
  0
LINE
  8
0
 10
159.409
 20
-10.4793
 11
158.75
 21
-10.5
  0
LINE
  8
0
 10
158.75
 20
-10.5
 11
158.091
 21
-10.4793
  0
LINE
  8
0
 10
-0.596497
 20
-9.48125
 11
-1.19066
 21
-9.42508
  0
LINE
  8
0
 10
-1.19066
 20
-9.42508
 11
-1.78012
 21
-9.33173
  0
LINE
  8
0
 10
-1.78012
 20
-9.33173
 11
-2.36255
 21
-9.20154
  0
LINE
  8
0
 10
-2.36255
 20
-9.20154
 11
-2.93565
 21
-9.03503
  0
LINE
  8
0
 10
-2.93565
 20
-9.03503
 11
-3.49718
 21
-8.83287
  0
LINE
  8
0
 10
-3.49718
 20
-8.83287
 11
-4.04489
 21
-8.59586
  0
LINE
  8
0
 10
-4.04489
 20
-8.59586
 11
-4.57664
 21
-8.32491
  0
LINE
  8
0
 10
-4.57664
 20
-8.32491
 11
-5.09035
 21
-8.0211
  0
LINE
  8
0
 10
-5.09035
 20
-8.0211
 11
-5.58395
 21
-7.68565
  0
LINE
  8
0
 10
-5.58395
 20
-7.68565
 11
-6.05553
 21
-7.31987
  0
LINE
  8
0
 10
-6.05553
 20
-7.31987
 11
-6.50319
 21
-6.9252
  0
LINE
  8
0
 10
-6.50319
 20
-6.9252
 11
-6.9252
 21
-6.50319
  0
LINE
  8
0
 10
-6.9252
 20
-6.50319
 11
-7.31987
 21
-6.05553
  0
LINE
  8
0
 10
-7.31987
 20
-6.05553
 11
-7.68565
 21
-5.58395
  0
LINE
  8
0
 10
-7.68565
 20
-5.58395
 11
-8.0211
 21
-5.09035
  0
LINE
  8
0
 10
-8.0211
 20
-5.09035
 11
-8.32491
 21
-4.57664
  0
LINE
  8
0
 10
-8.32491
 20
-4.57664
 11
-8.59586
 21
-4.04489
  0
LINE
  8
0
 10
-8.59586
 20
-4.04489
 11
-8.83287
 21
-3.49718
  0
LINE
  8
0
 10
-8.83287
 20
-3.49718
 11
-9.03503
 21
-2.93565
  0
LINE
  8
0
 10
-9.03503
 20
-2.93565
 11
-9.20154
 21
-2.36255
  0
LINE
  8
0
 10
-9.20154
 20
-2.36255
 11
-9.33173
 21
-1.78012
  0
LINE
  8
0
 10
-9.33173
 20
-1.78012
 11
-9.42508
 21
-1.19066
  0
LINE
  8
0
 10
-9.42508
 20
-1.19066
 11
-9.48125
 21
-0.596497
  0
LINE
  8
0
 10
-9.48125
 20
-0.596497
 11
-9.5
 21
0
  0
LINE
  8
0
 10
-9.5
 20
0
 11
-9.48125
 21
0.596497
  0
LINE
  8
0
 10
-9.48125
 20
0.596497
 11
-9.42508
 21
1.19066
  0
LINE
  8
0
 10
-9.42508
 20
1.19066
 11
-9.33173
 21
1.78012
  0
LINE
  8
0
 10
-9.33173
 20
1.78012
 11
-9.20154
 21
2.36255
  0
LINE
  8
0
 10
-9.20154
 20
2.36255
 11
-9.03503
 21
2.93565
  0
LINE
  8
0
 10
-9.03503
 20
2.93565
 11
-8.83287
 21
3.49718
  0
LINE
  8
0
 10
-8.83287
 20
3.49718
 11
-8.59586
 21
4.04489
  0
LINE
  8
0
 10
-8.59586
 20
4.04489
 11
-8.32491
 21
4.57664
  0
LINE
  8
0
 10
-8.32491
 20
4.57664
 11
-8.0211
 21
5.09035
  0
LINE
  8
0
 10
-8.0211
 20
5.09035
 11
-7.68565
 21
5.58395
  0
LINE
  8
0
 10
-7.68565
 20
5.58395
 11
-7.31987
 21
6.05553
  0
LINE
  8
0
 10
-7.31987
 20
6.05553
 11
-6.9252
 21
6.50319
  0
LINE
  8
0
 10
-6.9252
 20
6.50319
 11
-6.50319
 21
6.9252
  0
LINE
  8
0
 10
-6.50319
 20
6.9252
 11
-6.05553
 21
7.31987
  0
LINE
  8
0
 10
-6.05553
 20
7.31987
 11
-5.58395
 21
7.68565
  0
LINE
  8
0
 10
-5.58395
 20
7.68565
 11
-5.09035
 21
8.0211
  0
LINE
  8
0
 10
-5.09035
 20
8.0211
 11
-4.57664
 21
8.32491
  0
LINE
  8
0
 10
-4.57664
 20
8.32491
 11
-4.04489
 21
8.59586
  0
LINE
  8
0
 10
-4.04489
 20
8.59586
 11
-3.49718
 21
8.83287
  0
LINE
  8
0
 10
-3.49718
 20
8.83287
 11
-2.93565
 21
9.03503
  0
LINE
  8
0
 10
-2.93565
 20
9.03503
 11
-2.36255
 21
9.20154
  0
LINE
  8
0
 10
-2.36255
 20
9.20154
 11
-1.78012
 21
9.33173
  0
LINE
  8
0
 10
-1.78012
 20
9.33173
 11
-1.19066
 21
9.42508
  0
LINE
  8
0
 10
-1.19066
 20
9.42508
 11
-0.596497
 21
9.48125
  0
LINE
  8
0
 10
-0.596497
 20
9.48125
 11
0
 21
9.5
  0
LINE
  8
0
 10
0
 20
9.5
 11
0.596497
 21
9.48125
  0
LINE
  8
0
 10
0.596497
 20
9.48125
 11
1.19066
 21
9.42508
  0
LINE
  8
0
 10
1.19066
 20
9.42508
 11
1.78012
 21
9.33173
  0
LINE
  8
0
 10
1.78012
 20
9.33173
 11
2.36255
 21
9.20154
  0
LINE
  8
0
 10
2.36255
 20
9.20154
 11
2.93565
 21
9.03503
  0
LINE
  8
0
 10
2.93565
 20
9.03503
 11
3.49718
 21
8.83287
  0
LINE
  8
0
 10
3.49718
 20
8.83287
 11
4.04489
 21
8.59586
  0
LINE
  8
0
 10
4.04489
 20
8.59586
 11
4.57664
 21
8.32491
  0
LINE
  8
0
 10
4.57664
 20
8.32491
 11
5.09035
 21
8.0211
  0
LINE
  8
0
 10
5.09035
 20
8.0211
 11
5.58395
 21
7.68565
  0
LINE
  8
0
 10
5.58395
 20
7.68565
 11
6.05553
 21
7.31987
  0
LINE
  8
0
 10
6.05553
 20
7.31987
 11
6.50319
 21
6.9252
  0
LINE
  8
0
 10
6.50319
 20
6.9252
 11
6.9252
 21
6.50319
  0
LINE
  8
0
 10
6.9252
 20
6.50319
 11
7.31987
 21
6.05553
  0
LINE
  8
0
 10
7.31987
 20
6.05553
 11
7.68565
 21
5.58395
  0
LINE
  8
0
 10
7.68565
 20
5.58395
 11
8.0211
 21
5.09035
  0
LINE
  8
0
 10
8.0211
 20
5.09035
 11
8.32491
 21
4.57664
  0
LINE
  8
0
 10
8.32491
 20
4.57664
 11
8.59586
 21
4.04489
  0
LINE
  8
0
 10
8.59586
 20
4.04489
 11
8.83287
 21
3.49718
  0
LINE
  8
0
 10
8.83287
 20
3.49718
 11
9.03503
 21
2.93565
  0
LINE
  8
0
 10
9.03503
 20
2.93565
 11
9.20154
 21
2.36255
  0
LINE
  8
0
 10
9.20154
 20
2.36255
 11
9.33173
 21
1.78012
  0
LINE
  8
0
 10
9.33173
 20
1.78012
 11
9.42508
 21
1.19066
  0
LINE
  8
0
 10
9.42508
 20
1.19066
 11
9.48125
 21
0.596497
  0
LINE
  8
0
 10
9.48125
 20
0.596497
 11
9.5
 21
0
  0
LINE
  8
0
 10
9.5
 20
0
 11
9.48125
 21
-0.596497
  0
LINE
  8
0
 10
9.48125
 20
-0.596497
 11
9.42508
 21
-1.19066
  0
LINE
  8
0
 10
9.42508
 20
-1.19066
 11
9.33173
 21
-1.78012
  0
LINE
  8
0
 10
9.33173
 20
-1.78012
 11
9.20154
 21
-2.36255
  0
LINE
  8
0
 10
9.20154
 20
-2.36255
 11
9.03503
 21
-2.93565
  0
LINE
  8
0
 10
9.03503
 20
-2.93565
 11
8.83287
 21
-3.49718
  0
LINE
  8
0
 10
8.83287
 20
-3.49718
 11
8.59586
 21
-4.04489
  0
LINE
  8
0
 10
8.59586
 20
-4.04489
 11
8.32491
 21
-4.57664
  0
LINE
  8
0
 10
8.32491
 20
-4.57664
 11
8.0211
 21
-5.09035
  0
LINE
  8
0
 10
8.0211
 20
-5.09035
 11
7.68565
 21
-5.58395
  0
LINE
  8
0
 10
7.68565
 20
-5.58395
 11
7.31987
 21
-6.05553
  0
LINE
  8
0
 10
7.31987
 20
-6.05553
 11
6.9252
 21
-6.50319
  0
LINE
  8
0
 10
6.9252
 20
-6.50319
 11
6.50319
 21
-6.9252
  0
LINE
  8
0
 10
6.50319
 20
-6.9252
 11
6.05553
 21
-7.31987
  0
LINE
  8
0
 10
6.05553
 20
-7.31987
 11
5.58395
 21
-7.68565
  0
LINE
  8
0
 10
5.58395
 20
-7.68565
 11
5.09035
 21
-8.0211
  0
LINE
  8
0
 10
5.09035
 20
-8.0211
 11
4.57664
 21
-8.32491
  0
LINE
  8
0
 10
4.57664
 20
-8.32491
 11
4.04489
 21
-8.59586
  0
LINE
  8
0
 10
4.04489
 20
-8.59586
 11
3.49718
 21
-8.83287
  0
LINE
  8
0
 10
3.49718
 20
-8.83287
 11
2.93565
 21
-9.03503
  0
LINE
  8
0
 10
2.93565
 20
-9.03503
 11
2.36255
 21
-9.20154
  0
LINE
  8
0
 10
2.36255
 20
-9.20154
 11
1.78012
 21
-9.33173
  0
LINE
  8
0
 10
1.78012
 20
-9.33173
 11
1.19066
 21
-9.42508
  0
LINE
  8
0
 10
1.19066
 20
-9.42508
 11
0.596497
 21
-9.48125
  0
LINE
  8
0
 10
0.596497
 20
-9.48125
 11
0
 21
-9.5
  0
LINE
  8
0
 10
0
 20
-9.5
 11
-0.596497
 21
-9.48125
  0
LINE
  8
0
 10
-0.18837
 20
-27.9941
 11
-0.375992
 21
-27.9763
  0
LINE
  8
0
 10
-0.375992
 20
-27.9763
 11
-0.562134
 21
-27.9469
  0
LINE
  8
0
 10
-0.562134
 20
-27.9469
 11
-0.746063
 21
-27.9057
  0
LINE
  8
0
 10
-0.746063
 20
-27.9057
 11
-0.927048
 21
-27.8532
  0
LINE
  8
0
 10
-0.927048
 20
-27.8532
 11
-1.10437
 21
-27.7893
  0
LINE
  8
0
 10
-1.10437
 20
-27.7893
 11
-1.27733
 21
-27.7145
  0
LINE
  8
0
 10
-1.27733
 20
-27.7145
 11
-1.44525
 21
-27.6289
  0
LINE
  8
0
 10
-1.44525
 20
-27.6289
 11
-1.60747
 21
-27.533
  0
LINE
  8
0
 10
-1.60747
 20
-27.533
 11
-1.76335
 21
-27.427
  0
LINE
  8
0
 10
-1.76335
 20
-27.427
 11
-1.91226
 21
-27.3115
  0
LINE
  8
0
 10
-1.91226
 20
-27.3115
 11
-2.05363
 21
-27.1869
  0
LINE
  8
0
 10
-2.05363
 20
-27.1869
 11
-2.1869
 21
-27.0536
  0
LINE
  8
0
 10
-2.1869
 20
-27.0536
 11
-2.31154
 21
-26.9123
  0
LINE
  8
0
 10
-2.31154
 20
-26.9123
 11
-2.42705
 21
-26.7634
  0
LINE
  8
0
 10
-2.42705
 20
-26.7634
 11
-2.53297
 21
-26.6075
  0
LINE
  8
0
 10
-2.53297
 20
-26.6075
 11
-2.62891
 21
-26.4453
  0
LINE
  8
0
 10
-2.62891
 20
-26.4453
 11
-2.71448
 21
-26.2773
  0
LINE
  8
0
 10
-2.71448
 20
-26.2773
 11
-2.78932
 21
-26.1044
  0
LINE
  8
0
 10
-2.78932
 20
-26.1044
 11
-2.85316
 21
-25.927
  0
LINE
  8
0
 10
-2.85316
 20
-25.927
 11
-2.90575
 21
-25.7461
  0
LINE
  8
0
 10
-2.90575
 20
-25.7461
 11
-2.94685
 21
-25.5621
  0
LINE
  8
0
 10
-2.94685
 20
-25.5621
 11
-2.97633
 21
-25.376
  0
LINE
  8
0
 10
-2.97633
 20
-25.376
 11
-2.99408
 21
-25.1884
  0
LINE
  8
0
 10
-2.99408
 20
-25.1884
 11
-3
 21
-25
  0
LINE
  8
0
 10
-3
 20
-25
 11
-2.99408
 21
-24.8116
  0
LINE
  8
0
 10
-2.99408
 20
-24.8116
 11
-2.97633
 21
-24.624
  0
LINE
  8
0
 10
-2.97633
 20
-24.624
 11
-2.94685
 21
-24.4379
  0
LINE
  8
0
 10
-2.94685
 20
-24.4379
 11
-2.90575
 21
-24.2539
  0
LINE
  8
0
 10
-2.90575
 20
-24.2539
 11
-2.85316
 21
-24.0729
  0
LINE
  8
0
 10
-2.85316
 20
-24.0729
 11
-2.78932
 21
-23.8956
  0
LINE
  8
0
 10
-2.78932
 20
-23.8956
 11
-2.71448
 21
-23.7227
  0
LINE
  8
0
 10
-2.71448
 20
-23.7227
 11
-2.62891
 21
-23.5547
  0
LINE
  8
0
 10
-2.62891
 20
-23.5547
 11
-2.53297
 21
-23.3925
  0
LINE
  8
0
 10
-2.53297
 20
-23.3925
 11
-2.42705
 21
-23.2366
  0
LINE
  8
0
 10
-2.42705
 20
-23.2366
 11
-2.31154
 21
-23.0877
  0
LINE
  8
0
 10
-2.31154
 20
-23.0877
 11
-2.1869
 21
-22.9464
  0
LINE
  8
0
 10
-2.1869
 20
-22.9464
 11
-2.05363
 21
-22.8131
  0
LINE
  8
0
 10
-2.05363
 20
-22.8131
 11
-1.91226
 21
-22.6884
  0
LINE
  8
0
 10
-1.91226
 20
-22.6884
 11
-1.76335
 21
-22.5729
  0
LINE
  8
0
 10
-1.76335
 20
-22.5729
 11
-1.60747
 21
-22.467
  0
LINE
  8
0
 10
-1.60747
 20
-22.467
 11
-1.44525
 21
-22.3711
  0
LINE
  8
0
 10
-1.44525
 20
-22.3711
 11
-1.27733
 21
-22.2855
  0
LINE
  8
0
 10
-1.27733
 20
-22.2855
 11
-1.10437
 21
-22.2107
  0
LINE
  8
0
 10
-1.10437
 20
-22.2107
 11
-0.927048
 21
-22.1468
  0
LINE
  8
0
 10
-0.927048
 20
-22.1468
 11
-0.746063
 21
-22.0942
  0
LINE
  8
0
 10
-0.746063
 20
-22.0942
 11
-0.562134
 21
-22.0531
  0
LINE
  8
0
 10
-0.562134
 20
-22.0531
 11
-0.375992
 21
-22.0237
  0
LINE
  8
0
 10
-0.375992
 20
-22.0237
 11
-0.18837
 21
-22.0059
  0
LINE
  8
0
 10
-0.18837
 20
-22.0059
 11
0
 21
-22
  0
LINE
  8
0
 10
0
 20
-22
 11
0.18837
 21
-22.0059
  0
LINE
  8
0
 10
0.18837
 20
-22.0059
 11
0.375992
 21
-22.0237
  0
LINE
  8
0
 10
0.375992
 20
-22.0237
 11
0.562134
 21
-22.0531
  0
LINE
  8
0
 10
0.562134
 20
-22.0531
 11
0.746063
 21
-22.0942
  0
LINE
  8
0
 10
0.746063
 20
-22.0942
 11
0.927048
 21
-22.1468
  0
LINE
  8
0
 10
0.927048
 20
-22.1468
 11
1.10437
 21
-22.2107
  0
LINE
  8
0
 10
1.10437
 20
-22.2107
 11
1.27733
 21
-22.2855
  0
LINE
  8
0
 10
1.27733
 20
-22.2855
 11
1.44525
 21
-22.3711
  0
LINE
  8
0
 10
1.44525
 20
-22.3711
 11
1.60747
 21
-22.467
  0
LINE
  8
0
 10
1.60747
 20
-22.467
 11
1.76335
 21
-22.5729
  0
LINE
  8
0
 10
1.76335
 20
-22.5729
 11
1.91226
 21
-22.6884
  0
LINE
  8
0
 10
1.91226
 20
-22.6884
 11
2.05363
 21
-22.8131
  0
LINE
  8
0
 10
2.05363
 20
-22.8131
 11
2.1869
 21
-22.9464
  0
LINE
  8
0
 10
2.1869
 20
-22.9464
 11
2.31154
 21
-23.0877
  0
LINE
  8
0
 10
2.31154
 20
-23.0877
 11
2.42705
 21
-23.2366
  0
LINE
  8
0
 10
2.42705
 20
-23.2366
 11
2.53297
 21
-23.3925
  0
LINE
  8
0
 10
2.53297
 20
-23.3925
 11
2.62891
 21
-23.5547
  0
LINE
  8
0
 10
2.62891
 20
-23.5547
 11
2.71448
 21
-23.7227
  0
LINE
  8
0
 10
2.71448
 20
-23.7227
 11
2.78932
 21
-23.8956
  0
LINE
  8
0
 10
2.78932
 20
-23.8956
 11
2.85316
 21
-24.0729
  0
LINE
  8
0
 10
2.85316
 20
-24.0729
 11
2.90575
 21
-24.2539
  0
LINE
  8
0
 10
2.90575
 20
-24.2539
 11
2.94685
 21
-24.4379
  0
LINE
  8
0
 10
2.94685
 20
-24.4379
 11
2.97633
 21
-24.624
  0
LINE
  8
0
 10
2.97633
 20
-24.624
 11
2.99408
 21
-24.8116
  0
LINE
  8
0
 10
2.99408
 20
-24.8116
 11
3
 21
-25
  0
LINE
  8
0
 10
3
 20
-25
 11
2.99408
 21
-25.1884
  0
LINE
  8
0
 10
2.99408
 20
-25.1884
 11
2.97633
 21
-25.376
  0
LINE
  8
0
 10
2.97633
 20
-25.376
 11
2.94685
 21
-25.5621
  0
LINE
  8
0
 10
2.94685
 20
-25.5621
 11
2.90575
 21
-25.7461
  0
LINE
  8
0
 10
2.90575
 20
-25.7461
 11
2.85316
 21
-25.927
  0
LINE
  8
0
 10
2.85316
 20
-25.927
 11
2.78932
 21
-26.1044
  0
LINE
  8
0
 10
2.78932
 20
-26.1044
 11
2.71448
 21
-26.2773
  0
LINE
  8
0
 10
2.71448
 20
-26.2773
 11
2.62891
 21
-26.4453
  0
LINE
  8
0
 10
2.62891
 20
-26.4453
 11
2.53297
 21
-26.6075
  0
LINE
  8
0
 10
2.53297
 20
-26.6075
 11
2.42705
 21
-26.7634
  0
LINE
  8
0
 10
2.42705
 20
-26.7634
 11
2.31154
 21
-26.9123
  0
LINE
  8
0
 10
2.31154
 20
-26.9123
 11
2.1869
 21
-27.0536
  0
LINE
  8
0
 10
2.1869
 20
-27.0536
 11
2.05363
 21
-27.1869
  0
LINE
  8
0
 10
2.05363
 20
-27.1869
 11
1.91226
 21
-27.3115
  0
LINE
  8
0
 10
1.91226
 20
-27.3115
 11
1.76335
 21
-27.427
  0
LINE
  8
0
 10
1.76335
 20
-27.427
 11
1.60747
 21
-27.533
  0
LINE
  8
0
 10
1.60747
 20
-27.533
 11
1.44525
 21
-27.6289
  0
LINE
  8
0
 10
1.44525
 20
-27.6289
 11
1.27733
 21
-27.7145
  0
LINE
  8
0
 10
1.27733
 20
-27.7145
 11
1.10437
 21
-27.7893
  0
LINE
  8
0
 10
1.10437
 20
-27.7893
 11
0.927048
 21
-27.8532
  0
LINE
  8
0
 10
0.927048
 20
-27.8532
 11
0.746063
 21
-27.9057
  0
LINE
  8
0
 10
0.746063
 20
-27.9057
 11
0.562134
 21
-27.9469
  0
LINE
  8
0
 10
0.562134
 20
-27.9469
 11
0.375992
 21
-27.9763
  0
LINE
  8
0
 10
0.375992
 20
-27.9763
 11
0.18837
 21
-27.9941
  0
LINE
  8
0
 10
0.18837
 20
-27.9941
 11
0
 21
-28
  0
LINE
  8
0
 10
0
 20
-28
 11
-0.18837
 21
-27.9941
  0
LINE
  8
0
 10
-135.132
 20
-43.7625
 11
-135.263
 21
-43.7501
  0
LINE
  8
0
 10
-135.263
 20
-43.7501
 11
-135.393
 21
-43.7295
  0
LINE
  8
0
 10
-135.393
 20
-43.7295
 11
-135.522
 21
-43.7007
  0
LINE
  8
0
 10
-135.522
 20
-43.7007
 11
-135.649
 21
-43.6639
  0
LINE
  8
0
 10
-135.649
 20
-43.6639
 11
-135.773
 21
-43.6192
  0
LINE
  8
0
 10
-135.773
 20
-43.6192
 11
-135.894
 21
-43.5668
  0
LINE
  8
0
 10
-135.894
 20
-43.5668
 11
-136.012
 21
-43.5069
  0
LINE
  8
0
 10
-136.012
 20
-43.5069
 11
-136.125
 21
-43.4397
  0
LINE
  8
0
 10
-136.125
 20
-43.4397
 11
-136.234
 21
-43.3656
  0
LINE
  8
0
 10
-136.234
 20
-43.3656
 11
-136.339
 21
-43.2847
  0
LINE
  8
0
 10
-136.339
 20
-43.2847
 11
-136.438
 21
-43.1975
  0
LINE
  8
0
 10
-136.438
 20
-43.1975
 11
-136.531
 21
-43.1042
  0
LINE
  8
0
 10
-136.531
 20
-43.1042
 11
-136.618
 21
-43.0052
  0
LINE
  8
0
 10
-136.618
 20
-43.0052
 11
-136.699
 21
-42.901
  0
LINE
  8
0
 10
-136.699
 20
-42.901
 11
-136.773
 21
-42.7919
  0
LINE
  8
0
 10
-136.773
 20
-42.7919
 11
-136.84
 21
-42.6783
  0
LINE
  8
0
 10
-136.84
 20
-42.6783
 11
-136.9
 21
-42.5608
  0
LINE
  8
0
 10
-136.9
 20
-42.5608
 11
-136.953
 21
-42.4397
  0
LINE
  8
0
 10
-136.953
 20
-42.4397
 11
-136.997
 21
-42.3156
  0
LINE
  8
0
 10
-136.997
 20
-42.3156
 11
-137.034
 21
-42.1889
  0
LINE
  8
0
 10
-137.034
 20
-42.1889
 11
-137.063
 21
-42.0602
  0
LINE
  8
0
 10
-137.063
 20
-42.0602
 11
-137.083
 21
-41.9299
  0
LINE
  8
0
 10
-137.083
 20
-41.9299
 11
-137.096
 21
-41.7985
  0
LINE
  8
0
 10
-137.096
 20
-41.7985
 11
-137.1
 21
-41.6667
  0
LINE
  8
0
 10
-137.1
 20
-41.6667
 11
-137.096
 21
-41.5348
  0
LINE
  8
0
 10
-137.096
 20
-41.5348
 11
-137.083
 21
-41.4035
  0
LINE
  8
0
 10
-137.083
 20
-41.4035
 11
-137.063
 21
-41.2732
  0
LINE
  8
0
 10
-137.063
 20
-41.2732
 11
-137.034
 21
-41.1444
  0
LINE
  8
0
 10
-137.034
 20
-41.1444
 11
-136.997
 21
-41.0177
  0
LINE
  8
0
 10
-136.997
 20
-41.0177
 11
-136.953
 21
-40.8936
  0
LINE
  8
0
 10
-136.953
 20
-40.8936
 11
-136.9
 21
-40.7725
  0
LINE
  8
0
 10
-136.9
 20
-40.7725
 11
-136.84
 21
-40.655
  0
LINE
  8
0
 10
-136.84
 20
-40.655
 11
-136.773
 21
-40.5414
  0
LINE
  8
0
 10
-136.773
 20
-40.5414
 11
-136.699
 21
-40.4323
  0
LINE
  8
0
 10
-136.699
 20
-40.4323
 11
-136.618
 21
-40.3281
  0
LINE
  8
0
 10
-136.618
 20
-40.3281
 11
-136.531
 21
-40.2291
  0
LINE
  8
0
 10
-136.531
 20
-40.2291
 11
-136.438
 21
-40.1358
  0
LINE
  8
0
 10
-136.438
 20
-40.1358
 11
-136.339
 21
-40.0486
  0
LINE
  8
0
 10
-136.339
 20
-40.0486
 11
-136.234
 21
-39.9677
  0
LINE
  8
0
 10
-136.234
 20
-39.9677
 11
-136.125
 21
-39.8936
  0
LINE
  8
0
 10
-136.125
 20
-39.8936
 11
-136.012
 21
-39.8264
  0
LINE
  8
0
 10
-136.012
 20
-39.8264
 11
-135.894
 21
-39.7665
  0
LINE
  8
0
 10
-135.894
 20
-39.7665
 11
-135.773
 21
-39.7141
  0
LINE
  8
0
 10
-135.773
 20
-39.7141
 11
-135.649
 21
-39.6694
  0
LINE
  8
0
 10
-135.649
 20
-39.6694
 11
-135.522
 21
-39.6326
  0
LINE
  8
0
 10
-135.522
 20
-39.6326
 11
-135.393
 21
-39.6039
  0
LINE
  8
0
 10
-135.393
 20
-39.6039
 11
-135.263
 21
-39.5832
  0
LINE
  8
0
 10
-135.263
 20
-39.5832
 11
-135.132
 21
-39.5708
  0
LINE
  8
0
 10
-135.132
 20
-39.5708
 11
-135
 21
-39.5667
  0
LINE
  8
0
 10
-135
 20
-39.5667
 11
-134.868
 21
-39.5708
  0
LINE
  8
0
 10
-134.868
 20
-39.5708
 11
-134.737
 21
-39.5832
  0
LINE
  8
0
 10
-134.737
 20
-39.5832
 11
-134.607
 21
-39.6039
  0
LINE
  8
0
 10
-134.607
 20
-39.6039
 11
-134.478
 21
-39.6326
  0
LINE
  8
0
 10
-134.478
 20
-39.6326
 11
-134.351
 21
-39.6694
  0
LINE
  8
0
 10
-134.351
 20
-39.6694
 11
-134.227
 21
-39.7141
  0
LINE
  8
0
 10
-134.227
 20
-39.7141
 11
-134.106
 21
-39.7665
  0
LINE
  8
0
 10
-134.106
 20
-39.7665
 11
-133.988
 21
-39.8264
  0
LINE
  8
0
 10
-133.988
 20
-39.8264
 11
-133.875
 21
-39.8936
  0
LINE
  8
0
 10
-133.875
 20
-39.8936
 11
-133.766
 21
-39.9677
  0
LINE
  8
0
 10
-133.766
 20
-39.9677
 11
-133.661
 21
-40.0486
  0
LINE
  8
0
 10
-133.661
 20
-40.0486
 11
-133.562
 21
-40.1358
  0
LINE
  8
0
 10
-133.562
 20
-40.1358
 11
-133.469
 21
-40.2291
  0
LINE
  8
0
 10
-133.469
 20
-40.2291
 11
-133.382
 21
-40.3281
  0
LINE
  8
0
 10
-133.382
 20
-40.3281
 11
-133.301
 21
-40.4323
  0
LINE
  8
0
 10
-133.301
 20
-40.4323
 11
-133.227
 21
-40.5414
  0
LINE
  8
0
 10
-133.227
 20
-40.5414
 11
-133.16
 21
-40.655
  0
LINE
  8
0
 10
-133.16
 20
-40.655
 11
-133.1
 21
-40.7725
  0
LINE
  8
0
 10
-133.1
 20
-40.7725
 11
-133.047
 21
-40.8936
  0
LINE
  8
0
 10
-133.047
 20
-40.8936
 11
-133.003
 21
-41.0177
  0
LINE
  8
0
 10
-133.003
 20
-41.0177
 11
-132.966
 21
-41.1444
  0
LINE
  8
0
 10
-132.966
 20
-41.1444
 11
-132.937
 21
-41.2732
  0
LINE
  8
0
 10
-132.937
 20
-41.2732
 11
-132.917
 21
-41.4035
  0
LINE
  8
0
 10
-132.917
 20
-41.4035
 11
-132.904
 21
-41.5348
  0
LINE
  8
0
 10
-132.904
 20
-41.5348
 11
-132.9
 21
-41.6667
  0
LINE
  8
0
 10
-132.9
 20
-41.6667
 11
-132.904
 21
-41.7985
  0
LINE
  8
0
 10
-132.904
 20
-41.7985
 11
-132.917
 21
-41.9299
  0
LINE
  8
0
 10
-132.917
 20
-41.9299
 11
-132.937
 21
-42.0602
  0
LINE
  8
0
 10
-132.937
 20
-42.0602
 11
-132.966
 21
-42.1889
  0
LINE
  8
0
 10
-132.966
 20
-42.1889
 11
-133.003
 21
-42.3156
  0
LINE
  8
0
 10
-133.003
 20
-42.3156
 11
-133.047
 21
-42.4397
  0
LINE
  8
0
 10
-133.047
 20
-42.4397
 11
-133.1
 21
-42.5608
  0
LINE
  8
0
 10
-133.1
 20
-42.5608
 11
-133.16
 21
-42.6783
  0
LINE
  8
0
 10
-133.16
 20
-42.6783
 11
-133.227
 21
-42.7919
  0
LINE
  8
0
 10
-133.227
 20
-42.7919
 11
-133.301
 21
-42.901
  0
LINE
  8
0
 10
-133.301
 20
-42.901
 11
-133.382
 21
-43.0052
  0
LINE
  8
0
 10
-133.382
 20
-43.0052
 11
-133.469
 21
-43.1042
  0
LINE
  8
0
 10
-133.469
 20
-43.1042
 11
-133.562
 21
-43.1975
  0
LINE
  8
0
 10
-133.562
 20
-43.1975
 11
-133.661
 21
-43.2847
  0
LINE
  8
0
 10
-133.661
 20
-43.2847
 11
-133.766
 21
-43.3656
  0
LINE
  8
0
 10
-133.766
 20
-43.3656
 11
-133.875
 21
-43.4397
  0
LINE
  8
0
 10
-133.875
 20
-43.4397
 11
-133.988
 21
-43.5069
  0
LINE
  8
0
 10
-133.988
 20
-43.5069
 11
-134.106
 21
-43.5668
  0
LINE
  8
0
 10
-134.106
 20
-43.5668
 11
-134.227
 21
-43.6192
  0
LINE
  8
0
 10
-134.227
 20
-43.6192
 11
-134.351
 21
-43.6639
  0
LINE
  8
0
 10
-134.351
 20
-43.6639
 11
-134.478
 21
-43.7007
  0
LINE
  8
0
 10
-134.478
 20
-43.7007
 11
-134.607
 21
-43.7295
  0
LINE
  8
0
 10
-134.607
 20
-43.7295
 11
-134.737
 21
-43.7501
  0
LINE
  8
0
 10
-134.737
 20
-43.7501
 11
-134.868
 21
-43.7625
  0
LINE
  8
0
 10
-134.868
 20
-43.7625
 11
-135
 21
-43.7667
  0
LINE
  8
0
 10
-135
 20
-43.7667
 11
-135.132
 21
-43.7625
  0
LINE
  8
0
 10
-100.132
 20
-43.7625
 11
-100.263
 21
-43.7501
  0
LINE
  8
0
 10
-100.263
 20
-43.7501
 11
-100.393
 21
-43.7295
  0
LINE
  8
0
 10
-100.393
 20
-43.7295
 11
-100.522
 21
-43.7007
  0
LINE
  8
0
 10
-100.522
 20
-43.7007
 11
-100.649
 21
-43.6639
  0
LINE
  8
0
 10
-100.649
 20
-43.6639
 11
-100.773
 21
-43.6192
  0
LINE
  8
0
 10
-100.773
 20
-43.6192
 11
-100.894
 21
-43.5668
  0
LINE
  8
0
 10
-100.894
 20
-43.5668
 11
-101.012
 21
-43.5069
  0
LINE
  8
0
 10
-101.012
 20
-43.5069
 11
-101.125
 21
-43.4397
  0
LINE
  8
0
 10
-101.125
 20
-43.4397
 11
-101.234
 21
-43.3656
  0
LINE
  8
0
 10
-101.234
 20
-43.3656
 11
-101.339
 21
-43.2847
  0
LINE
  8
0
 10
-101.339
 20
-43.2847
 11
-101.438
 21
-43.1975
  0
LINE
  8
0
 10
-101.438
 20
-43.1975
 11
-101.531
 21
-43.1042
  0
LINE
  8
0
 10
-101.531
 20
-43.1042
 11
-101.618
 21
-43.0052
  0
LINE
  8
0
 10
-101.618
 20
-43.0052
 11
-101.699
 21
-42.901
  0
LINE
  8
0
 10
-101.699
 20
-42.901
 11
-101.773
 21
-42.7919
  0
LINE
  8
0
 10
-101.773
 20
-42.7919
 11
-101.84
 21
-42.6783
  0
LINE
  8
0
 10
-101.84
 20
-42.6783
 11
-101.9
 21
-42.5608
  0
LINE
  8
0
 10
-101.9
 20
-42.5608
 11
-101.953
 21
-42.4397
  0
LINE
  8
0
 10
-101.953
 20
-42.4397
 11
-101.997
 21
-42.3156
  0
LINE
  8
0
 10
-101.997
 20
-42.3156
 11
-102.034
 21
-42.1889
  0
LINE
  8
0
 10
-102.034
 20
-42.1889
 11
-102.063
 21
-42.0602
  0
LINE
  8
0
 10
-102.063
 20
-42.0602
 11
-102.083
 21
-41.9299
  0
LINE
  8
0
 10
-102.083
 20
-41.9299
 11
-102.096
 21
-41.7985
  0
LINE
  8
0
 10
-102.096
 20
-41.7985
 11
-102.1
 21
-41.6667
  0
LINE
  8
0
 10
-102.1
 20
-41.6667
 11
-102.096
 21
-41.5348
  0
LINE
  8
0
 10
-102.096
 20
-41.5348
 11
-102.083
 21
-41.4035
  0
LINE
  8
0
 10
-102.083
 20
-41.4035
 11
-102.063
 21
-41.2732
  0
LINE
  8
0
 10
-102.063
 20
-41.2732
 11
-102.034
 21
-41.1444
  0
LINE
  8
0
 10
-102.034
 20
-41.1444
 11
-101.997
 21
-41.0177
  0
LINE
  8
0
 10
-101.997
 20
-41.0177
 11
-101.953
 21
-40.8936
  0
LINE
  8
0
 10
-101.953
 20
-40.8936
 11
-101.9
 21
-40.7725
  0
LINE
  8
0
 10
-101.9
 20
-40.7725
 11
-101.84
 21
-40.655
  0
LINE
  8
0
 10
-101.84
 20
-40.655
 11
-101.773
 21
-40.5414
  0
LINE
  8
0
 10
-101.773
 20
-40.5414
 11
-101.699
 21
-40.4323
  0
LINE
  8
0
 10
-101.699
 20
-40.4323
 11
-101.618
 21
-40.3281
  0
LINE
  8
0
 10
-101.618
 20
-40.3281
 11
-101.531
 21
-40.2291
  0
LINE
  8
0
 10
-101.531
 20
-40.2291
 11
-101.438
 21
-40.1358
  0
LINE
  8
0
 10
-101.438
 20
-40.1358
 11
-101.339
 21
-40.0486
  0
LINE
  8
0
 10
-101.339
 20
-40.0486
 11
-101.234
 21
-39.9677
  0
LINE
  8
0
 10
-101.234
 20
-39.9677
 11
-101.125
 21
-39.8936
  0
LINE
  8
0
 10
-101.125
 20
-39.8936
 11
-101.012
 21
-39.8264
  0
LINE
  8
0
 10
-101.012
 20
-39.8264
 11
-100.894
 21
-39.7665
  0
LINE
  8
0
 10
-100.894
 20
-39.7665
 11
-100.773
 21
-39.7141
  0
LINE
  8
0
 10
-100.773
 20
-39.7141
 11
-100.649
 21
-39.6694
  0
LINE
  8
0
 10
-100.649
 20
-39.6694
 11
-100.522
 21
-39.6326
  0
LINE
  8
0
 10
-100.522
 20
-39.6326
 11
-100.393
 21
-39.6039
  0
LINE
  8
0
 10
-100.393
 20
-39.6039
 11
-100.263
 21
-39.5832
  0
LINE
  8
0
 10
-100.263
 20
-39.5832
 11
-100.132
 21
-39.5708
  0
LINE
  8
0
 10
-100.132
 20
-39.5708
 11
-100
 21
-39.5667
  0
LINE
  8
0
 10
-100
 20
-39.5667
 11
-99.8681
 21
-39.5708
  0
LINE
  8
0
 10
-99.8681
 20
-39.5708
 11
-99.7368
 21
-39.5832
  0
LINE
  8
0
 10
-99.7368
 20
-39.5832
 11
-99.6065
 21
-39.6039
  0
LINE
  8
0
 10
-99.6065
 20
-39.6039
 11
-99.4778
 21
-39.6326
  0
LINE
  8
0
 10
-99.4778
 20
-39.6326
 11
-99.3511
 21
-39.6694
  0
LINE
  8
0
 10
-99.3511
 20
-39.6694
 11
-99.2269
 21
-39.7141
  0
LINE
  8
0
 10
-99.2269
 20
-39.7141
 11
-99.1059
 21
-39.7665
  0
LINE
  8
0
 10
-99.1059
 20
-39.7665
 11
-98.9883
 21
-39.8264
  0
LINE
  8
0
 10
-98.9883
 20
-39.8264
 11
-98.8748
 21
-39.8936
  0
LINE
  8
0
 10
-98.8748
 20
-39.8936
 11
-98.7656
 21
-39.9677
  0
LINE
  8
0
 10
-98.7656
 20
-39.9677
 11
-98.6614
 21
-40.0486
  0
LINE
  8
0
 10
-98.6614
 20
-40.0486
 11
-98.5625
 21
-40.1358
  0
LINE
  8
0
 10
-98.5625
 20
-40.1358
 11
-98.4692
 21
-40.2291
  0
LINE
  8
0
 10
-98.4692
 20
-40.2291
 11
-98.3819
 21
-40.3281
  0
LINE
  8
0
 10
-98.3819
 20
-40.3281
 11
-98.3011
 21
-40.4323
  0
LINE
  8
0
 10
-98.3011
 20
-40.4323
 11
-98.2269
 21
-40.5414
  0
LINE
  8
0
 10
-98.2269
 20
-40.5414
 11
-98.1598
 21
-40.655
  0
LINE
  8
0
 10
-98.1598
 20
-40.655
 11
-98.0999
 21
-40.7725
  0
LINE
  8
0
 10
-98.0999
 20
-40.7725
 11
-98.0475
 21
-40.8936
  0
LINE
  8
0
 10
-98.0475
 20
-40.8936
 11
-98.0028
 21
-41.0177
  0
LINE
  8
0
 10
-98.0028
 20
-41.0177
 11
-97.966
 21
-41.1444
  0
LINE
  8
0
 10
-97.966
 20
-41.1444
 11
-97.9372
 21
-41.2732
  0
LINE
  8
0
 10
-97.9372
 20
-41.2732
 11
-97.9165
 21
-41.4035
  0
LINE
  8
0
 10
-97.9165
 20
-41.4035
 11
-97.9041
 21
-41.5348
  0
LINE
  8
0
 10
-97.9041
 20
-41.5348
 11
-97.9
 21
-41.6667
  0
LINE
  8
0
 10
-97.9
 20
-41.6667
 11
-97.9041
 21
-41.7985
  0
LINE
  8
0
 10
-97.9041
 20
-41.7985
 11
-97.9165
 21
-41.9299
  0
LINE
  8
0
 10
-97.9165
 20
-41.9299
 11
-97.9372
 21
-42.0602
  0
LINE
  8
0
 10
-97.9372
 20
-42.0602
 11
-97.966
 21
-42.1889
  0
LINE
  8
0
 10
-97.966
 20
-42.1889
 11
-98.0028
 21
-42.3156
  0
LINE
  8
0
 10
-98.0028
 20
-42.3156
 11
-98.0475
 21
-42.4397
  0
LINE
  8
0
 10
-98.0475
 20
-42.4397
 11
-98.0999
 21
-42.5608
  0
LINE
  8
0
 10
-98.0999
 20
-42.5608
 11
-98.1598
 21
-42.6783
  0
LINE
  8
0
 10
-98.1598
 20
-42.6783
 11
-98.2269
 21
-42.7919
  0
LINE
  8
0
 10
-98.2269
 20
-42.7919
 11
-98.3011
 21
-42.901
  0
LINE
  8
0
 10
-98.3011
 20
-42.901
 11
-98.3819
 21
-43.0052
  0
LINE
  8
0
 10
-98.3819
 20
-43.0052
 11
-98.4692
 21
-43.1042
  0
LINE
  8
0
 10
-98.4692
 20
-43.1042
 11
-98.5625
 21
-43.1975
  0
LINE
  8
0
 10
-98.5625
 20
-43.1975
 11
-98.6614
 21
-43.2847
  0
LINE
  8
0
 10
-98.6614
 20
-43.2847
 11
-98.7656
 21
-43.3656
  0
LINE
  8
0
 10
-98.7656
 20
-43.3656
 11
-98.8748
 21
-43.4397
  0
LINE
  8
0
 10
-98.8748
 20
-43.4397
 11
-98.9883
 21
-43.5069
  0
LINE
  8
0
 10
-98.9883
 20
-43.5069
 11
-99.1059
 21
-43.5668
  0
LINE
  8
0
 10
-99.1059
 20
-43.5668
 11
-99.2269
 21
-43.6192
  0
LINE
  8
0
 10
-99.2269
 20
-43.6192
 11
-99.3511
 21
-43.6639
  0
LINE
  8
0
 10
-99.3511
 20
-43.6639
 11
-99.4778
 21
-43.7007
  0
LINE
  8
0
 10
-99.4778
 20
-43.7007
 11
-99.6065
 21
-43.7295
  0
LINE
  8
0
 10
-99.6065
 20
-43.7295
 11
-99.7368
 21
-43.7501
  0
LINE
  8
0
 10
-99.7368
 20
-43.7501
 11
-99.8681
 21
-43.7625
  0
LINE
  8
0
 10
-99.8681
 20
-43.7625
 11
-100
 21
-43.7667
  0
LINE
  8
0
 10
-100
 20
-43.7667
 11
-100.132
 21
-43.7625
  0
LINE
  8
0
 10
-311.476
 20
-95.4941
 11
-311.664
 21
-95.4763
  0
LINE
  8
0
 10
-311.664
 20
-95.4763
 11
-311.85
 21
-95.4469
  0
LINE
  8
0
 10
-311.85
 20
-95.4469
 11
-312.034
 21
-95.4057
  0
LINE
  8
0
 10
-312.034
 20
-95.4057
 11
-312.215
 21
-95.3532
  0
LINE
  8
0
 10
-312.215
 20
-95.3532
 11
-312.392
 21
-95.2893
  0
LINE
  8
0
 10
-312.392
 20
-95.2893
 11
-312.565
 21
-95.2145
  0
LINE
  8
0
 10
-312.565
 20
-95.2145
 11
-312.733
 21
-95.1289
  0
LINE
  8
0
 10
-312.733
 20
-95.1289
 11
-312.895
 21
-95.033
  0
LINE
  8
0
 10
-312.895
 20
-95.033
 11
-313.051
 21
-94.927
  0
LINE
  8
0
 10
-313.051
 20
-94.927
 11
-313.2
 21
-94.8115
  0
LINE
  8
0
 10
-313.2
 20
-94.8115
 11
-313.341
 21
-94.6869
  0
LINE
  8
0
 10
-313.341
 20
-94.6869
 11
-313.475
 21
-94.5536
  0
LINE
  8
0
 10
-313.475
 20
-94.5536
 11
-313.599
 21
-94.4123
  0
LINE
  8
0
 10
-313.599
 20
-94.4123
 11
-313.715
 21
-94.2634
  0
LINE
  8
0
 10
-313.715
 20
-94.2634
 11
-313.821
 21
-94.1075
  0
LINE
  8
0
 10
-313.821
 20
-94.1075
 11
-313.917
 21
-93.9453
  0
LINE
  8
0
 10
-313.917
 20
-93.9453
 11
-314.002
 21
-93.7773
  0
LINE
  8
0
 10
-314.002
 20
-93.7773
 11
-314.077
 21
-93.6044
  0
LINE
  8
0
 10
-314.077
 20
-93.6044
 11
-314.141
 21
-93.427
  0
LINE
  8
0
 10
-314.141
 20
-93.427
 11
-314.193
 21
-93.2461
  0
LINE
  8
0
 10
-314.193
 20
-93.2461
 11
-314.234
 21
-93.0621
  0
LINE
  8
0
 10
-314.234
 20
-93.0621
 11
-314.264
 21
-92.876
  0
LINE
  8
0
 10
-314.264
 20
-92.876
 11
-314.282
 21
-92.6884
  0
LINE
  8
0
 10
-314.282
 20
-92.6884
 11
-314.288
 21
-92.5
  0
LINE
  8
0
 10
-314.288
 20
-92.5
 11
-314.282
 21
-92.3116
  0
LINE
  8
0
 10
-314.282
 20
-92.3116
 11
-314.264
 21
-92.124
  0
LINE
  8
0
 10
-314.264
 20
-92.124
 11
-314.234
 21
-91.9379
  0
LINE
  8
0
 10
-314.234
 20
-91.9379
 11
-314.193
 21
-91.7539
  0
LINE
  8
0
 10
-314.193
 20
-91.7539
 11
-314.141
 21
-91.573
  0
LINE
  8
0
 10
-314.141
 20
-91.573
 11
-314.077
 21
-91.3956
  0
LINE
  8
0
 10
-314.077
 20
-91.3956
 11
-314.002
 21
-91.2227
  0
LINE
  8
0
 10
-314.002
 20
-91.2227
 11
-313.917
 21
-91.0547
  0
LINE
  8
0
 10
-313.917
 20
-91.0547
 11
-313.821
 21
-90.8925
  0
LINE
  8
0
 10
-313.821
 20
-90.8925
 11
-313.715
 21
-90.7366
  0
LINE
  8
0
 10
-313.715
 20
-90.7366
 11
-313.599
 21
-90.5877
  0
LINE
  8
0
 10
-313.599
 20
-90.5877
 11
-313.475
 21
-90.4464
  0
LINE
  8
0
 10
-313.475
 20
-90.4464
 11
-313.341
 21
-90.3131
  0
LINE
  8
0
 10
-313.341
 20
-90.3131
 11
-313.2
 21
-90.1885
  0
LINE
  8
0
 10
-313.2
 20
-90.1885
 11
-313.051
 21
-90.073
  0
LINE
  8
0
 10
-313.051
 20
-90.073
 11
-312.895
 21
-89.967
  0
LINE
  8
0
 10
-312.895
 20
-89.967
 11
-312.733
 21
-89.8711
  0
LINE
  8
0
 10
-312.733
 20
-89.8711
 11
-312.565
 21
-89.7855
  0
LINE
  8
0
 10
-312.565
 20
-89.7855
 11
-312.392
 21
-89.7107
  0
LINE
  8
0
 10
-312.392
 20
-89.7107
 11
-312.215
 21
-89.6468
  0
LINE
  8
0
 10
-312.215
 20
-89.6468
 11
-312.034
 21
-89.5943
  0
LINE
  8
0
 10
-312.034
 20
-89.5943
 11
-311.85
 21
-89.5531
  0
LINE
  8
0
 10
-311.85
 20
-89.5531
 11
-311.664
 21
-89.5237
  0
LINE
  8
0
 10
-311.664
 20
-89.5237
 11
-311.476
 21
-89.5059
  0
LINE
  8
0
 10
-311.476
 20
-89.5059
 11
-311.288
 21
-89.5
  0
LINE
  8
0
 10
-311.288
 20
-89.5
 11
-311.099
 21
-89.5059
  0
LINE
  8
0
 10
-311.099
 20
-89.5059
 11
-310.912
 21
-89.5237
  0
LINE
  8
0
 10
-310.912
 20
-89.5237
 11
-310.725
 21
-89.5531
  0
LINE
  8
0
 10
-310.725
 20
-89.5531
 11
-310.542
 21
-89.5943
  0
LINE
  8
0
 10
-310.542
 20
-89.5943
 11
-310.361
 21
-89.6468
  0
LINE
  8
0
 10
-310.361
 20
-89.6468
 11
-310.183
 21
-89.7107
  0
LINE
  8
0
 10
-310.183
 20
-89.7107
 11
-310.01
 21
-89.7855
  0
LINE
  8
0
 10
-310.01
 20
-89.7855
 11
-309.842
 21
-89.8711
  0
LINE
  8
0
 10
-309.842
 20
-89.8711
 11
-309.68
 21
-89.967
  0
LINE
  8
0
 10
-309.68
 20
-89.967
 11
-309.524
 21
-90.073
  0
LINE
  8
0
 10
-309.524
 20
-90.073
 11
-309.375
 21
-90.1885
  0
LINE
  8
0
 10
-309.375
 20
-90.1885
 11
-309.234
 21
-90.3131
  0
LINE
  8
0
 10
-309.234
 20
-90.3131
 11
-309.101
 21
-90.4464
  0
LINE
  8
0
 10
-309.101
 20
-90.4464
 11
-308.976
 21
-90.5877
  0
LINE
  8
0
 10
-308.976
 20
-90.5877
 11
-308.861
 21
-90.7366
  0
LINE
  8
0
 10
-308.861
 20
-90.7366
 11
-308.755
 21
-90.8925
  0
LINE
  8
0
 10
-308.755
 20
-90.8925
 11
-308.659
 21
-91.0547
  0
LINE
  8
0
 10
-308.659
 20
-91.0547
 11
-308.573
 21
-91.2227
  0
LINE
  8
0
 10
-308.573
 20
-91.2227
 11
-308.498
 21
-91.3956
  0
LINE
  8
0
 10
-308.498
 20
-91.3956
 11
-308.434
 21
-91.573
  0
LINE
  8
0
 10
-308.434
 20
-91.573
 11
-308.382
 21
-91.7539
  0
LINE
  8
0
 10
-308.382
 20
-91.7539
 11
-308.341
 21
-91.9379
  0
LINE
  8
0
 10
-308.341
 20
-91.9379
 11
-308.311
 21
-92.124
  0
LINE
  8
0
 10
-308.311
 20
-92.124
 11
-308.294
 21
-92.3116
  0
LINE
  8
0
 10
-308.294
 20
-92.3116
 11
-308.288
 21
-92.5
  0
LINE
  8
0
 10
-308.288
 20
-92.5
 11
-308.294
 21
-92.6884
  0
LINE
  8
0
 10
-308.294
 20
-92.6884
 11
-308.311
 21
-92.876
  0
LINE
  8
0
 10
-308.311
 20
-92.876
 11
-308.341
 21
-93.0621
  0
LINE
  8
0
 10
-308.341
 20
-93.0621
 11
-308.382
 21
-93.2461
  0
LINE
  8
0
 10
-308.382
 20
-93.2461
 11
-308.434
 21
-93.427
  0
LINE
  8
0
 10
-308.434
 20
-93.427
 11
-308.498
 21
-93.6044
  0
LINE
  8
0
 10
-308.498
 20
-93.6044
 11
-308.573
 21
-93.7773
  0
LINE
  8
0
 10
-308.573
 20
-93.7773
 11
-308.659
 21
-93.9453
  0
LINE
  8
0
 10
-308.659
 20
-93.9453
 11
-308.755
 21
-94.1075
  0
LINE
  8
0
 10
-308.755
 20
-94.1075
 11
-308.861
 21
-94.2634
  0
LINE
  8
0
 10
-308.861
 20
-94.2634
 11
-308.976
 21
-94.4123
  0
LINE
  8
0
 10
-308.976
 20
-94.4123
 11
-309.101
 21
-94.5536
  0
LINE
  8
0
 10
-309.101
 20
-94.5536
 11
-309.234
 21
-94.6869
  0
LINE
  8
0
 10
-309.234
 20
-94.6869
 11
-309.375
 21
-94.8115
  0
LINE
  8
0
 10
-309.375
 20
-94.8115
 11
-309.524
 21
-94.927
  0
LINE
  8
0
 10
-309.524
 20
-94.927
 11
-309.68
 21
-95.033
  0
LINE
  8
0
 10
-309.68
 20
-95.033
 11
-309.842
 21
-95.1289
  0
LINE
  8
0
 10
-309.842
 20
-95.1289
 11
-310.01
 21
-95.2145
  0
LINE
  8
0
 10
-310.01
 20
-95.2145
 11
-310.183
 21
-95.2893
  0
LINE
  8
0
 10
-310.183
 20
-95.2893
 11
-310.361
 21
-95.3532
  0
LINE
  8
0
 10
-310.361
 20
-95.3532
 11
-310.542
 21
-95.4057
  0
LINE
  8
0
 10
-310.542
 20
-95.4057
 11
-310.725
 21
-95.4469
  0
LINE
  8
0
 10
-310.725
 20
-95.4469
 11
-310.912
 21
-95.4763
  0
LINE
  8
0
 10
-310.912
 20
-95.4763
 11
-311.099
 21
-95.4941
  0
LINE
  8
0
 10
-311.099
 20
-95.4941
 11
-311.288
 21
-95.5
  0
LINE
  8
0
 10
-311.288
 20
-95.5
 11
-311.476
 21
-95.4941
  0
LINE
  8
0
 10
311.099
 20
-95.4941
 11
310.912
 21
-95.4763
  0
LINE
  8
0
 10
310.912
 20
-95.4763
 11
310.725
 21
-95.4469
  0
LINE
  8
0
 10
310.725
 20
-95.4469
 11
310.542
 21
-95.4057
  0
LINE
  8
0
 10
310.542
 20
-95.4057
 11
310.361
 21
-95.3532
  0
LINE
  8
0
 10
310.361
 20
-95.3532
 11
310.183
 21
-95.2893
  0
LINE
  8
0
 10
310.183
 20
-95.2893
 11
310.01
 21
-95.2145
  0
LINE
  8
0
 10
310.01
 20
-95.2145
 11
309.842
 21
-95.1289
  0
LINE
  8
0
 10
309.842
 20
-95.1289
 11
309.68
 21
-95.033
  0
LINE
  8
0
 10
309.68
 20
-95.033
 11
309.524
 21
-94.927
  0
LINE
  8
0
 10
309.524
 20
-94.927
 11
309.375
 21
-94.8115
  0
LINE
  8
0
 10
309.375
 20
-94.8115
 11
309.234
 21
-94.6869
  0
LINE
  8
0
 10
309.234
 20
-94.6869
 11
309.101
 21
-94.5536
  0
LINE
  8
0
 10
309.101
 20
-94.5536
 11
308.976
 21
-94.4123
  0
LINE
  8
0
 10
308.976
 20
-94.4123
 11
308.861
 21
-94.2634
  0
LINE
  8
0
 10
308.861
 20
-94.2634
 11
308.755
 21
-94.1075
  0
LINE
  8
0
 10
308.755
 20
-94.1075
 11
308.659
 21
-93.9453
  0
LINE
  8
0
 10
308.659
 20
-93.9453
 11
308.573
 21
-93.7773
  0
LINE
  8
0
 10
308.573
 20
-93.7773
 11
308.498
 21
-93.6044
  0
LINE
  8
0
 10
308.498
 20
-93.6044
 11
308.434
 21
-93.427
  0
LINE
  8
0
 10
308.434
 20
-93.427
 11
308.382
 21
-93.2461
  0
LINE
  8
0
 10
308.382
 20
-93.2461
 11
308.341
 21
-93.0621
  0
LINE
  8
0
 10
308.341
 20
-93.0621
 11
308.311
 21
-92.876
  0
LINE
  8
0
 10
308.311
 20
-92.876
 11
308.294
 21
-92.6884
  0
LINE
  8
0
 10
308.294
 20
-92.6884
 11
308.288
 21
-92.5
  0
LINE
  8
0
 10
308.288
 20
-92.5
 11
308.294
 21
-92.3116
  0
LINE
  8
0
 10
308.294
 20
-92.3116
 11
308.311
 21
-92.124
  0
LINE
  8
0
 10
308.311
 20
-92.124
 11
308.341
 21
-91.9379
  0
LINE
  8
0
 10
308.341
 20
-91.9379
 11
308.382
 21
-91.7539
  0
LINE
  8
0
 10
308.382
 20
-91.7539
 11
308.434
 21
-91.573
  0
LINE
  8
0
 10
308.434
 20
-91.573
 11
308.498
 21
-91.3956
  0
LINE
  8
0
 10
308.498
 20
-91.3956
 11
308.573
 21
-91.2227
  0
LINE
  8
0
 10
308.573
 20
-91.2227
 11
308.659
 21
-91.0547
  0
LINE
  8
0
 10
308.659
 20
-91.0547
 11
308.755
 21
-90.8925
  0
LINE
  8
0
 10
308.755
 20
-90.8925
 11
308.861
 21
-90.7366
  0
LINE
  8
0
 10
308.861
 20
-90.7366
 11
308.976
 21
-90.5877
  0
LINE
  8
0
 10
308.976
 20
-90.5877
 11
309.101
 21
-90.4464
  0
LINE
  8
0
 10
309.101
 20
-90.4464
 11
309.234
 21
-90.3131
  0
LINE
  8
0
 10
309.234
 20
-90.3131
 11
309.375
 21
-90.1885
  0
LINE
  8
0
 10
309.375
 20
-90.1885
 11
309.524
 21
-90.073
  0
LINE
  8
0
 10
309.524
 20
-90.073
 11
309.68
 21
-89.967
  0
LINE
  8
0
 10
309.68
 20
-89.967
 11
309.842
 21
-89.8711
  0
LINE
  8
0
 10
309.842
 20
-89.8711
 11
310.01
 21
-89.7855
  0
LINE
  8
0
 10
310.01
 20
-89.7855
 11
310.183
 21
-89.7107
  0
LINE
  8
0
 10
310.183
 20
-89.7107
 11
310.361
 21
-89.6468
  0
LINE
  8
0
 10
310.361
 20
-89.6468
 11
310.542
 21
-89.5943
  0
LINE
  8
0
 10
310.542
 20
-89.5943
 11
310.725
 21
-89.5531
  0
LINE
  8
0
 10
310.725
 20
-89.5531
 11
310.912
 21
-89.5237
  0
LINE
  8
0
 10
310.912
 20
-89.5237
 11
311.099
 21
-89.5059
  0
LINE
  8
0
 10
311.099
 20
-89.5059
 11
311.288
 21
-89.5
  0
LINE
  8
0
 10
311.288
 20
-89.5
 11
311.476
 21
-89.5059
  0
LINE
  8
0
 10
311.476
 20
-89.5059
 11
311.664
 21
-89.5237
  0
LINE
  8
0
 10
311.664
 20
-89.5237
 11
311.85
 21
-89.5531
  0
LINE
  8
0
 10
311.85
 20
-89.5531
 11
312.034
 21
-89.5943
  0
LINE
  8
0
 10
312.034
 20
-89.5943
 11
312.215
 21
-89.6468
  0
LINE
  8
0
 10
312.215
 20
-89.6468
 11
312.392
 21
-89.7107
  0
LINE
  8
0
 10
312.392
 20
-89.7107
 11
312.565
 21
-89.7855
  0
LINE
  8
0
 10
312.565
 20
-89.7855
 11
312.733
 21
-89.8711
  0
LINE
  8
0
 10
312.733
 20
-89.8711
 11
312.895
 21
-89.967
  0
LINE
  8
0
 10
312.895
 20
-89.967
 11
313.051
 21
-90.073
  0
LINE
  8
0
 10
313.051
 20
-90.073
 11
313.2
 21
-90.1885
  0
LINE
  8
0
 10
313.2
 20
-90.1885
 11
313.341
 21
-90.3131
  0
LINE
  8
0
 10
313.341
 20
-90.3131
 11
313.475
 21
-90.4464
  0
LINE
  8
0
 10
313.475
 20
-90.4464
 11
313.599
 21
-90.5877
  0
LINE
  8
0
 10
313.599
 20
-90.5877
 11
313.715
 21
-90.7366
  0
LINE
  8
0
 10
313.715
 20
-90.7366
 11
313.821
 21
-90.8925
  0
LINE
  8
0
 10
313.821
 20
-90.8925
 11
313.917
 21
-91.0547
  0
LINE
  8
0
 10
313.917
 20
-91.0547
 11
314.002
 21
-91.2227
  0
LINE
  8
0
 10
314.002
 20
-91.2227
 11
314.077
 21
-91.3956
  0
LINE
  8
0
 10
314.077
 20
-91.3956
 11
314.141
 21
-91.573
  0
LINE
  8
0
 10
314.141
 20
-91.573
 11
314.193
 21
-91.7539
  0
LINE
  8
0
 10
314.193
 20
-91.7539
 11
314.234
 21
-91.9379
  0
LINE
  8
0
 10
314.234
 20
-91.9379
 11
314.264
 21
-92.124
  0
LINE
  8
0
 10
314.264
 20
-92.124
 11
314.282
 21
-92.3116
  0
LINE
  8
0
 10
314.282
 20
-92.3116
 11
314.288
 21
-92.5
  0
LINE
  8
0
 10
314.288
 20
-92.5
 11
314.282
 21
-92.6884
  0
LINE
  8
0
 10
314.282
 20
-92.6884
 11
314.264
 21
-92.876
  0
LINE
  8
0
 10
314.264
 20
-92.876
 11
314.234
 21
-93.0621
  0
LINE
  8
0
 10
314.234
 20
-93.0621
 11
314.193
 21
-93.2461
  0
LINE
  8
0
 10
314.193
 20
-93.2461
 11
314.141
 21
-93.427
  0
LINE
  8
0
 10
314.141
 20
-93.427
 11
314.077
 21
-93.6044
  0
LINE
  8
0
 10
314.077
 20
-93.6044
 11
314.002
 21
-93.7773
  0
LINE
  8
0
 10
314.002
 20
-93.7773
 11
313.917
 21
-93.9453
  0
LINE
  8
0
 10
313.917
 20
-93.9453
 11
313.821
 21
-94.1075
  0
LINE
  8
0
 10
313.821
 20
-94.1075
 11
313.715
 21
-94.2634
  0
LINE
  8
0
 10
313.715
 20
-94.2634
 11
313.599
 21
-94.4123
  0
LINE
  8
0
 10
313.599
 20
-94.4123
 11
313.475
 21
-94.5536
  0
LINE
  8
0
 10
313.475
 20
-94.5536
 11
313.341
 21
-94.6869
  0
LINE
  8
0
 10
313.341
 20
-94.6869
 11
313.2
 21
-94.8115
  0
LINE
  8
0
 10
313.2
 20
-94.8115
 11
313.051
 21
-94.927
  0
LINE
  8
0
 10
313.051
 20
-94.927
 11
312.895
 21
-95.033
  0
LINE
  8
0
 10
312.895
 20
-95.033
 11
312.733
 21
-95.1289
  0
LINE
  8
0
 10
312.733
 20
-95.1289
 11
312.565
 21
-95.2145
  0
LINE
  8
0
 10
312.565
 20
-95.2145
 11
312.392
 21
-95.2893
  0
LINE
  8
0
 10
312.392
 20
-95.2893
 11
312.215
 21
-95.3532
  0
LINE
  8
0
 10
312.215
 20
-95.3532
 11
312.034
 21
-95.4057
  0
LINE
  8
0
 10
312.034
 20
-95.4057
 11
311.85
 21
-95.4469
  0
LINE
  8
0
 10
311.85
 20
-95.4469
 11
311.664
 21
-95.4763
  0
LINE
  8
0
 10
311.664
 20
-95.4763
 11
311.476
 21
-95.4941
  0
LINE
  8
0
 10
311.476
 20
-95.4941
 11
311.288
 21
-95.5
  0
LINE
  8
0
 10
311.288
 20
-95.5
 11
311.099
 21
-95.4941
  0
LINE
  8
0
 10
-100.132
 20
-116.596
 11
-100.263
 21
-116.583
  0
LINE
  8
0
 10
-100.263
 20
-116.583
 11
-100.393
 21
-116.563
  0
LINE
  8
0
 10
-100.393
 20
-116.563
 11
-100.522
 21
-116.534
  0
LINE
  8
0
 10
-100.522
 20
-116.534
 11
-100.649
 21
-116.497
  0
LINE
  8
0
 10
-100.649
 20
-116.497
 11
-100.773
 21
-116.453
  0
LINE
  8
0
 10
-100.773
 20
-116.453
 11
-100.894
 21
-116.4
  0
LINE
  8
0
 10
-100.894
 20
-116.4
 11
-101.012
 21
-116.34
  0
LINE
  8
0
 10
-101.012
 20
-116.34
 11
-101.125
 21
-116.273
  0
LINE
  8
0
 10
-101.125
 20
-116.273
 11
-101.234
 21
-116.199
  0
LINE
  8
0
 10
-101.234
 20
-116.199
 11
-101.339
 21
-116.118
  0
LINE
  8
0
 10
-101.339
 20
-116.118
 11
-101.438
 21
-116.031
  0
LINE
  8
0
 10
-101.438
 20
-116.031
 11
-101.531
 21
-115.938
  0
LINE
  8
0
 10
-101.531
 20
-115.938
 11
-101.618
 21
-115.839
  0
LINE
  8
0
 10
-101.618
 20
-115.839
 11
-101.699
 21
-115.734
  0
LINE
  8
0
 10
-101.699
 20
-115.734
 11
-101.773
 21
-115.625
  0
LINE
  8
0
 10
-101.773
 20
-115.625
 11
-101.84
 21
-115.512
  0
LINE
  8
0
 10
-101.84
 20
-115.512
 11
-101.9
 21
-115.394
  0
LINE
  8
0
 10
-101.9
 20
-115.394
 11
-101.953
 21
-115.273
  0
LINE
  8
0
 10
-101.953
 20
-115.273
 11
-101.997
 21
-115.149
  0
LINE
  8
0
 10
-101.997
 20
-115.149
 11
-102.034
 21
-115.022
  0
LINE
  8
0
 10
-102.034
 20
-115.022
 11
-102.063
 21
-114.893
  0
LINE
  8
0
 10
-102.063
 20
-114.893
 11
-102.083
 21
-114.763
  0
LINE
  8
0
 10
-102.083
 20
-114.763
 11
-102.096
 21
-114.632
  0
LINE
  8
0
 10
-102.096
 20
-114.632
 11
-102.1
 21
-114.5
  0
LINE
  8
0
 10
-102.1
 20
-114.5
 11
-102.096
 21
-114.368
  0
LINE
  8
0
 10
-102.096
 20
-114.368
 11
-102.083
 21
-114.237
  0
LINE
  8
0
 10
-102.083
 20
-114.237
 11
-102.063
 21
-114.106
  0
LINE
  8
0
 10
-102.063
 20
-114.106
 11
-102.034
 21
-113.978
  0
LINE
  8
0
 10
-102.034
 20
-113.978
 11
-101.997
 21
-113.851
  0
LINE
  8
0
 10
-101.997
 20
-113.851
 11
-101.953
 21
-113.727
  0
LINE
  8
0
 10
-101.953
 20
-113.727
 11
-101.9
 21
-113.606
  0
LINE
  8
0
 10
-101.9
 20
-113.606
 11
-101.84
 21
-113.488
  0
LINE
  8
0
 10
-101.84
 20
-113.488
 11
-101.773
 21
-113.375
  0
LINE
  8
0
 10
-101.773
 20
-113.375
 11
-101.699
 21
-113.266
  0
LINE
  8
0
 10
-101.699
 20
-113.266
 11
-101.618
 21
-113.161
  0
LINE
  8
0
 10
-101.618
 20
-113.161
 11
-101.531
 21
-113.062
  0
LINE
  8
0
 10
-101.531
 20
-113.062
 11
-101.438
 21
-112.969
  0
LINE
  8
0
 10
-101.438
 20
-112.969
 11
-101.339
 21
-112.882
  0
LINE
  8
0
 10
-101.339
 20
-112.882
 11
-101.234
 21
-112.801
  0
LINE
  8
0
 10
-101.234
 20
-112.801
 11
-101.125
 21
-112.727
  0
LINE
  8
0
 10
-101.125
 20
-112.727
 11
-101.012
 21
-112.66
  0
LINE
  8
0
 10
-101.012
 20
-112.66
 11
-100.894
 21
-112.6
  0
LINE
  8
0
 10
-100.894
 20
-112.6
 11
-100.773
 21
-112.547
  0
LINE
  8
0
 10
-100.773
 20
-112.547
 11
-100.649
 21
-112.503
  0
LINE
  8
0
 10
-100.649
 20
-112.503
 11
-100.522
 21
-112.466
  0
LINE
  8
0
 10
-100.522
 20
-112.466
 11
-100.393
 21
-112.437
  0
LINE
  8
0
 10
-100.393
 20
-112.437
 11
-100.263
 21
-112.417
  0
LINE
  8
0
 10
-100.263
 20
-112.417
 11
-100.132
 21
-112.404
  0
LINE
  8
0
 10
-100.132
 20
-112.404
 11
-100
 21
-112.4
  0
LINE
  8
0
 10
-100
 20
-112.4
 11
-99.8681
 21
-112.404
  0
LINE
  8
0
 10
-99.8681
 20
-112.404
 11
-99.7368
 21
-112.417
  0
LINE
  8
0
 10
-99.7368
 20
-112.417
 11
-99.6065
 21
-112.437
  0
LINE
  8
0
 10
-99.6065
 20
-112.437
 11
-99.4778
 21
-112.466
  0
LINE
  8
0
 10
-99.4778
 20
-112.466
 11
-99.3511
 21
-112.503
  0
LINE
  8
0
 10
-99.3511
 20
-112.503
 11
-99.2269
 21
-112.547
  0
LINE
  8
0
 10
-99.2269
 20
-112.547
 11
-99.1059
 21
-112.6
  0
LINE
  8
0
 10
-99.1059
 20
-112.6
 11
-98.9883
 21
-112.66
  0
LINE
  8
0
 10
-98.9883
 20
-112.66
 11
-98.8748
 21
-112.727
  0
LINE
  8
0
 10
-98.8748
 20
-112.727
 11
-98.7656
 21
-112.801
  0
LINE
  8
0
 10
-98.7656
 20
-112.801
 11
-98.6614
 21
-112.882
  0
LINE
  8
0
 10
-98.6614
 20
-112.882
 11
-98.5625
 21
-112.969
  0
LINE
  8
0
 10
-98.5625
 20
-112.969
 11
-98.4692
 21
-113.062
  0
LINE
  8
0
 10
-98.4692
 20
-113.062
 11
-98.3819
 21
-113.161
  0
LINE
  8
0
 10
-98.3819
 20
-113.161
 11
-98.3011
 21
-113.266
  0
LINE
  8
0
 10
-98.3011
 20
-113.266
 11
-98.2269
 21
-113.375
  0
LINE
  8
0
 10
-98.2269
 20
-113.375
 11
-98.1598
 21
-113.488
  0
LINE
  8
0
 10
-98.1598
 20
-113.488
 11
-98.0999
 21
-113.606
  0
LINE
  8
0
 10
-98.0999
 20
-113.606
 11
-98.0475
 21
-113.727
  0
LINE
  8
0
 10
-98.0475
 20
-113.727
 11
-98.0028
 21
-113.851
  0
LINE
  8
0
 10
-98.0028
 20
-113.851
 11
-97.966
 21
-113.978
  0
LINE
  8
0
 10
-97.966
 20
-113.978
 11
-97.9372
 21
-114.106
  0
LINE
  8
0
 10
-97.9372
 20
-114.106
 11
-97.9165
 21
-114.237
  0
LINE
  8
0
 10
-97.9165
 20
-114.237
 11
-97.9041
 21
-114.368
  0
LINE
  8
0
 10
-97.9041
 20
-114.368
 11
-97.9
 21
-114.5
  0
LINE
  8
0
 10
-97.9
 20
-114.5
 11
-97.9041
 21
-114.632
  0
LINE
  8
0
 10
-97.9041
 20
-114.632
 11
-97.9165
 21
-114.763
  0
LINE
  8
0
 10
-97.9165
 20
-114.763
 11
-97.9372
 21
-114.893
  0
LINE
  8
0
 10
-97.9372
 20
-114.893
 11
-97.966
 21
-115.022
  0
LINE
  8
0
 10
-97.966
 20
-115.022
 11
-98.0028
 21
-115.149
  0
LINE
  8
0
 10
-98.0028
 20
-115.149
 11
-98.0475
 21
-115.273
  0
LINE
  8
0
 10
-98.0475
 20
-115.273
 11
-98.0999
 21
-115.394
  0
LINE
  8
0
 10
-98.0999
 20
-115.394
 11
-98.1598
 21
-115.512
  0
LINE
  8
0
 10
-98.1598
 20
-115.512
 11
-98.2269
 21
-115.625
  0
LINE
  8
0
 10
-98.2269
 20
-115.625
 11
-98.3011
 21
-115.734
  0
LINE
  8
0
 10
-98.3011
 20
-115.734
 11
-98.3819
 21
-115.839
  0
LINE
  8
0
 10
-98.3819
 20
-115.839
 11
-98.4692
 21
-115.938
  0
LINE
  8
0
 10
-98.4692
 20
-115.938
 11
-98.5625
 21
-116.031
  0
LINE
  8
0
 10
-98.5625
 20
-116.031
 11
-98.6614
 21
-116.118
  0
LINE
  8
0
 10
-98.6614
 20
-116.118
 11
-98.7656
 21
-116.199
  0
LINE
  8
0
 10
-98.7656
 20
-116.199
 11
-98.8748
 21
-116.273
  0
LINE
  8
0
 10
-98.8748
 20
-116.273
 11
-98.9883
 21
-116.34
  0
LINE
  8
0
 10
-98.9883
 20
-116.34
 11
-99.1059
 21
-116.4
  0
LINE
  8
0
 10
-99.1059
 20
-116.4
 11
-99.2269
 21
-116.453
  0
LINE
  8
0
 10
-99.2269
 20
-116.453
 11
-99.3511
 21
-116.497
  0
LINE
  8
0
 10
-99.3511
 20
-116.497
 11
-99.4778
 21
-116.534
  0
LINE
  8
0
 10
-99.4778
 20
-116.534
 11
-99.6065
 21
-116.563
  0
LINE
  8
0
 10
-99.6065
 20
-116.563
 11
-99.7368
 21
-116.583
  0
LINE
  8
0
 10
-99.7368
 20
-116.583
 11
-99.8681
 21
-116.596
  0
LINE
  8
0
 10
-99.8681
 20
-116.596
 11
-100
 21
-116.6
  0
LINE
  8
0
 10
-100
 20
-116.6
 11
-100.132
 21
-116.596
  0
LINE
  8
0
 10
99.8681
 20
-116.596
 11
99.7368
 21
-116.583
  0
LINE
  8
0
 10
99.7368
 20
-116.583
 11
99.6065
 21
-116.563
  0
LINE
  8
0
 10
99.6065
 20
-116.563
 11
99.4778
 21
-116.534
  0
LINE
  8
0
 10
99.4778
 20
-116.534
 11
99.3511
 21
-116.497
  0
LINE
  8
0
 10
99.3511
 20
-116.497
 11
99.2269
 21
-116.453
  0
LINE
  8
0
 10
99.2269
 20
-116.453
 11
99.1059
 21
-116.4
  0
LINE
  8
0
 10
99.1059
 20
-116.4
 11
98.9883
 21
-116.34
  0
LINE
  8
0
 10
98.9883
 20
-116.34
 11
98.8748
 21
-116.273
  0
LINE
  8
0
 10
98.8748
 20
-116.273
 11
98.7656
 21
-116.199
  0
LINE
  8
0
 10
98.7656
 20
-116.199
 11
98.6614
 21
-116.118
  0
LINE
  8
0
 10
98.6614
 20
-116.118
 11
98.5625
 21
-116.031
  0
LINE
  8
0
 10
98.5625
 20
-116.031
 11
98.4692
 21
-115.938
  0
LINE
  8
0
 10
98.4692
 20
-115.938
 11
98.3819
 21
-115.839
  0
LINE
  8
0
 10
98.3819
 20
-115.839
 11
98.3011
 21
-115.734
  0
LINE
  8
0
 10
98.3011
 20
-115.734
 11
98.2269
 21
-115.625
  0
LINE
  8
0
 10
98.2269
 20
-115.625
 11
98.1598
 21
-115.512
  0
LINE
  8
0
 10
98.1598
 20
-115.512
 11
98.0999
 21
-115.394
  0
LINE
  8
0
 10
98.0999
 20
-115.394
 11
98.0475
 21
-115.273
  0
LINE
  8
0
 10
98.0475
 20
-115.273
 11
98.0028
 21
-115.149
  0
LINE
  8
0
 10
98.0028
 20
-115.149
 11
97.966
 21
-115.022
  0
LINE
  8
0
 10
97.966
 20
-115.022
 11
97.9372
 21
-114.893
  0
LINE
  8
0
 10
97.9372
 20
-114.893
 11
97.9165
 21
-114.763
  0
LINE
  8
0
 10
97.9165
 20
-114.763
 11
97.9041
 21
-114.632
  0
LINE
  8
0
 10
97.9041
 20
-114.632
 11
97.9
 21
-114.5
  0
LINE
  8
0
 10
97.9
 20
-114.5
 11
97.9041
 21
-114.368
  0
LINE
  8
0
 10
97.9041
 20
-114.368
 11
97.9165
 21
-114.237
  0
LINE
  8
0
 10
97.9165
 20
-114.237
 11
97.9372
 21
-114.106
  0
LINE
  8
0
 10
97.9372
 20
-114.106
 11
97.966
 21
-113.978
  0
LINE
  8
0
 10
97.966
 20
-113.978
 11
98.0028
 21
-113.851
  0
LINE
  8
0
 10
98.0028
 20
-113.851
 11
98.0475
 21
-113.727
  0
LINE
  8
0
 10
98.0475
 20
-113.727
 11
98.0999
 21
-113.606
  0
LINE
  8
0
 10
98.0999
 20
-113.606
 11
98.1598
 21
-113.488
  0
LINE
  8
0
 10
98.1598
 20
-113.488
 11
98.2269
 21
-113.375
  0
LINE
  8
0
 10
98.2269
 20
-113.375
 11
98.3011
 21
-113.266
  0
LINE
  8
0
 10
98.3011
 20
-113.266
 11
98.3819
 21
-113.161
  0
LINE
  8
0
 10
98.3819
 20
-113.161
 11
98.4692
 21
-113.062
  0
LINE
  8
0
 10
98.4692
 20
-113.062
 11
98.5625
 21
-112.969
  0
LINE
  8
0
 10
98.5625
 20
-112.969
 11
98.6614
 21
-112.882
  0
LINE
  8
0
 10
98.6614
 20
-112.882
 11
98.7656
 21
-112.801
  0
LINE
  8
0
 10
98.7656
 20
-112.801
 11
98.8748
 21
-112.727
  0
LINE
  8
0
 10
98.8748
 20
-112.727
 11
98.9883
 21
-112.66
  0
LINE
  8
0
 10
98.9883
 20
-112.66
 11
99.1059
 21
-112.6
  0
LINE
  8
0
 10
99.1059
 20
-112.6
 11
99.2269
 21
-112.547
  0
LINE
  8
0
 10
99.2269
 20
-112.547
 11
99.3511
 21
-112.503
  0
LINE
  8
0
 10
99.3511
 20
-112.503
 11
99.4778
 21
-112.466
  0
LINE
  8
0
 10
99.4778
 20
-112.466
 11
99.6065
 21
-112.437
  0
LINE
  8
0
 10
99.6065
 20
-112.437
 11
99.7368
 21
-112.417
  0
LINE
  8
0
 10
99.7368
 20
-112.417
 11
99.8681
 21
-112.404
  0
LINE
  8
0
 10
99.8681
 20
-112.404
 11
100
 21
-112.4
  0
LINE
  8
0
 10
100
 20
-112.4
 11
100.132
 21
-112.404
  0
LINE
  8
0
 10
100.132
 20
-112.404
 11
100.263
 21
-112.417
  0
LINE
  8
0
 10
100.263
 20
-112.417
 11
100.393
 21
-112.437
  0
LINE
  8
0
 10
100.393
 20
-112.437
 11
100.522
 21
-112.466
  0
LINE
  8
0
 10
100.522
 20
-112.466
 11
100.649
 21
-112.503
  0
LINE
  8
0
 10
100.649
 20
-112.503
 11
100.773
 21
-112.547
  0
LINE
  8
0
 10
100.773
 20
-112.547
 11
100.894
 21
-112.6
  0
LINE
  8
0
 10
100.894
 20
-112.6
 11
101.012
 21
-112.66
  0
LINE
  8
0
 10
101.012
 20
-112.66
 11
101.125
 21
-112.727
  0
LINE
  8
0
 10
101.125
 20
-112.727
 11
101.234
 21
-112.801
  0
LINE
  8
0
 10
101.234
 20
-112.801
 11
101.339
 21
-112.882
  0
LINE
  8
0
 10
101.339
 20
-112.882
 11
101.438
 21
-112.969
  0
LINE
  8
0
 10
101.438
 20
-112.969
 11
101.531
 21
-113.062
  0
LINE
  8
0
 10
101.531
 20
-113.062
 11
101.618
 21
-113.161
  0
LINE
  8
0
 10
101.618
 20
-113.161
 11
101.699
 21
-113.266
  0
LINE
  8
0
 10
101.699
 20
-113.266
 11
101.773
 21
-113.375
  0
LINE
  8
0
 10
101.773
 20
-113.375
 11
101.84
 21
-113.488
  0
LINE
  8
0
 10
101.84
 20
-113.488
 11
101.9
 21
-113.606
  0
LINE
  8
0
 10
101.9
 20
-113.606
 11
101.953
 21
-113.727
  0
LINE
  8
0
 10
101.953
 20
-113.727
 11
101.997
 21
-113.851
  0
LINE
  8
0
 10
101.997
 20
-113.851
 11
102.034
 21
-113.978
  0
LINE
  8
0
 10
102.034
 20
-113.978
 11
102.063
 21
-114.106
  0
LINE
  8
0
 10
102.063
 20
-114.106
 11
102.083
 21
-114.237
  0
LINE
  8
0
 10
102.083
 20
-114.237
 11
102.096
 21
-114.368
  0
LINE
  8
0
 10
102.096
 20
-114.368
 11
102.1
 21
-114.5
  0
LINE
  8
0
 10
102.1
 20
-114.5
 11
102.096
 21
-114.632
  0
LINE
  8
0
 10
102.096
 20
-114.632
 11
102.083
 21
-114.763
  0
LINE
  8
0
 10
102.083
 20
-114.763
 11
102.063
 21
-114.893
  0
LINE
  8
0
 10
102.063
 20
-114.893
 11
102.034
 21
-115.022
  0
LINE
  8
0
 10
102.034
 20
-115.022
 11
101.997
 21
-115.149
  0
LINE
  8
0
 10
101.997
 20
-115.149
 11
101.953
 21
-115.273
  0
LINE
  8
0
 10
101.953
 20
-115.273
 11
101.9
 21
-115.394
  0
LINE
  8
0
 10
101.9
 20
-115.394
 11
101.84
 21
-115.512
  0
LINE
  8
0
 10
101.84
 20
-115.512
 11
101.773
 21
-115.625
  0
LINE
  8
0
 10
101.773
 20
-115.625
 11
101.699
 21
-115.734
  0
LINE
  8
0
 10
101.699
 20
-115.734
 11
101.618
 21
-115.839
  0
LINE
  8
0
 10
101.618
 20
-115.839
 11
101.531
 21
-115.938
  0
LINE
  8
0
 10
101.531
 20
-115.938
 11
101.438
 21
-116.031
  0
LINE
  8
0
 10
101.438
 20
-116.031
 11
101.339
 21
-116.118
  0
LINE
  8
0
 10
101.339
 20
-116.118
 11
101.234
 21
-116.199
  0
LINE
  8
0
 10
101.234
 20
-116.199
 11
101.125
 21
-116.273
  0
LINE
  8
0
 10
101.125
 20
-116.273
 11
101.012
 21
-116.34
  0
LINE
  8
0
 10
101.012
 20
-116.34
 11
100.894
 21
-116.4
  0
LINE
  8
0
 10
100.894
 20
-116.4
 11
100.773
 21
-116.453
  0
LINE
  8
0
 10
100.773
 20
-116.453
 11
100.649
 21
-116.497
  0
LINE
  8
0
 10
100.649
 20
-116.497
 11
100.522
 21
-116.534
  0
LINE
  8
0
 10
100.522
 20
-116.534
 11
100.393
 21
-116.563
  0
LINE
  8
0
 10
100.393
 20
-116.563
 11
100.263
 21
-116.583
  0
LINE
  8
0
 10
100.263
 20
-116.583
 11
100.132
 21
-116.596
  0
LINE
  8
0
 10
100.132
 20
-116.596
 11
100
 21
-116.6
  0
LINE
  8
0
 10
100
 20
-116.6
 11
99.8681
 21
-116.596
  0
LINE
  8
0
 10
134.868
 20
-116.596
 11
134.737
 21
-116.583
  0
LINE
  8
0
 10
134.737
 20
-116.583
 11
134.607
 21
-116.563
  0
LINE
  8
0
 10
134.607
 20
-116.563
 11
134.478
 21
-116.534
  0
LINE
  8
0
 10
134.478
 20
-116.534
 11
134.351
 21
-116.497
  0
LINE
  8
0
 10
134.351
 20
-116.497
 11
134.227
 21
-116.453
  0
LINE
  8
0
 10
134.227
 20
-116.453
 11
134.106
 21
-116.4
  0
LINE
  8
0
 10
134.106
 20
-116.4
 11
133.988
 21
-116.34
  0
LINE
  8
0
 10
133.988
 20
-116.34
 11
133.875
 21
-116.273
  0
LINE
  8
0
 10
133.875
 20
-116.273
 11
133.766
 21
-116.199
  0
LINE
  8
0
 10
133.766
 20
-116.199
 11
133.661
 21
-116.118
  0
LINE
  8
0
 10
133.661
 20
-116.118
 11
133.562
 21
-116.031
  0
LINE
  8
0
 10
133.562
 20
-116.031
 11
133.469
 21
-115.938
  0
LINE
  8
0
 10
133.469
 20
-115.938
 11
133.382
 21
-115.839
  0
LINE
  8
0
 10
133.382
 20
-115.839
 11
133.301
 21
-115.734
  0
LINE
  8
0
 10
133.301
 20
-115.734
 11
133.227
 21
-115.625
  0
LINE
  8
0
 10
133.227
 20
-115.625
 11
133.16
 21
-115.512
  0
LINE
  8
0
 10
133.16
 20
-115.512
 11
133.1
 21
-115.394
  0
LINE
  8
0
 10
133.1
 20
-115.394
 11
133.047
 21
-115.273
  0
LINE
  8
0
 10
133.047
 20
-115.273
 11
133.003
 21
-115.149
  0
LINE
  8
0
 10
133.003
 20
-115.149
 11
132.966
 21
-115.022
  0
LINE
  8
0
 10
132.966
 20
-115.022
 11
132.937
 21
-114.893
  0
LINE
  8
0
 10
132.937
 20
-114.893
 11
132.917
 21
-114.763
  0
LINE
  8
0
 10
132.917
 20
-114.763
 11
132.904
 21
-114.632
  0
LINE
  8
0
 10
132.904
 20
-114.632
 11
132.9
 21
-114.5
  0
LINE
  8
0
 10
132.9
 20
-114.5
 11
132.904
 21
-114.368
  0
LINE
  8
0
 10
132.904
 20
-114.368
 11
132.917
 21
-114.237
  0
LINE
  8
0
 10
132.917
 20
-114.237
 11
132.937
 21
-114.106
  0
LINE
  8
0
 10
132.937
 20
-114.106
 11
132.966
 21
-113.978
  0
LINE
  8
0
 10
132.966
 20
-113.978
 11
133.003
 21
-113.851
  0
LINE
  8
0
 10
133.003
 20
-113.851
 11
133.047
 21
-113.727
  0
LINE
  8
0
 10
133.047
 20
-113.727
 11
133.1
 21
-113.606
  0
LINE
  8
0
 10
133.1
 20
-113.606
 11
133.16
 21
-113.488
  0
LINE
  8
0
 10
133.16
 20
-113.488
 11
133.227
 21
-113.375
  0
LINE
  8
0
 10
133.227
 20
-113.375
 11
133.301
 21
-113.266
  0
LINE
  8
0
 10
133.301
 20
-113.266
 11
133.382
 21
-113.161
  0
LINE
  8
0
 10
133.382
 20
-113.161
 11
133.469
 21
-113.062
  0
LINE
  8
0
 10
133.469
 20
-113.062
 11
133.562
 21
-112.969
  0
LINE
  8
0
 10
133.562
 20
-112.969
 11
133.661
 21
-112.882
  0
LINE
  8
0
 10
133.661
 20
-112.882
 11
133.766
 21
-112.801
  0
LINE
  8
0
 10
133.766
 20
-112.801
 11
133.875
 21
-112.727
  0
LINE
  8
0
 10
133.875
 20
-112.727
 11
133.988
 21
-112.66
  0
LINE
  8
0
 10
133.988
 20
-112.66
 11
134.106
 21
-112.6
  0
LINE
  8
0
 10
134.106
 20
-112.6
 11
134.227
 21
-112.547
  0
LINE
  8
0
 10
134.227
 20
-112.547
 11
134.351
 21
-112.503
  0
LINE
  8
0
 10
134.351
 20
-112.503
 11
134.478
 21
-112.466
  0
LINE
  8
0
 10
134.478
 20
-112.466
 11
134.607
 21
-112.437
  0
LINE
  8
0
 10
134.607
 20
-112.437
 11
134.737
 21
-112.417
  0
LINE
  8
0
 10
134.737
 20
-112.417
 11
134.868
 21
-112.404
  0
LINE
  8
0
 10
134.868
 20
-112.404
 11
135
 21
-112.4
  0
LINE
  8
0
 10
135
 20
-112.4
 11
135.132
 21
-112.404
  0
LINE
  8
0
 10
135.132
 20
-112.404
 11
135.263
 21
-112.417
  0
LINE
  8
0
 10
135.263
 20
-112.417
 11
135.393
 21
-112.437
  0
LINE
  8
0
 10
135.393
 20
-112.437
 11
135.522
 21
-112.466
  0
LINE
  8
0
 10
135.522
 20
-112.466
 11
135.649
 21
-112.503
  0
LINE
  8
0
 10
135.649
 20
-112.503
 11
135.773
 21
-112.547
  0
LINE
  8
0
 10
135.773
 20
-112.547
 11
135.894
 21
-112.6
  0
LINE
  8
0
 10
135.894
 20
-112.6
 11
136.012
 21
-112.66
  0
LINE
  8
0
 10
136.012
 20
-112.66
 11
136.125
 21
-112.727
  0
LINE
  8
0
 10
136.125
 20
-112.727
 11
136.234
 21
-112.801
  0
LINE
  8
0
 10
136.234
 20
-112.801
 11
136.339
 21
-112.882
  0
LINE
  8
0
 10
136.339
 20
-112.882
 11
136.438
 21
-112.969
  0
LINE
  8
0
 10
136.438
 20
-112.969
 11
136.531
 21
-113.062
  0
LINE
  8
0
 10
136.531
 20
-113.062
 11
136.618
 21
-113.161
  0
LINE
  8
0
 10
136.618
 20
-113.161
 11
136.699
 21
-113.266
  0
LINE
  8
0
 10
136.699
 20
-113.266
 11
136.773
 21
-113.375
  0
LINE
  8
0
 10
136.773
 20
-113.375
 11
136.84
 21
-113.488
  0
LINE
  8
0
 10
136.84
 20
-113.488
 11
136.9
 21
-113.606
  0
LINE
  8
0
 10
136.9
 20
-113.606
 11
136.953
 21
-113.727
  0
LINE
  8
0
 10
136.953
 20
-113.727
 11
136.997
 21
-113.851
  0
LINE
  8
0
 10
136.997
 20
-113.851
 11
137.034
 21
-113.978
  0
LINE
  8
0
 10
137.034
 20
-113.978
 11
137.063
 21
-114.106
  0
LINE
  8
0
 10
137.063
 20
-114.106
 11
137.083
 21
-114.237
  0
LINE
  8
0
 10
137.083
 20
-114.237
 11
137.096
 21
-114.368
  0
LINE
  8
0
 10
137.096
 20
-114.368
 11
137.1
 21
-114.5
  0
LINE
  8
0
 10
137.1
 20
-114.5
 11
137.096
 21
-114.632
  0
LINE
  8
0
 10
137.096
 20
-114.632
 11
137.083
 21
-114.763
  0
LINE
  8
0
 10
137.083
 20
-114.763
 11
137.063
 21
-114.893
  0
LINE
  8
0
 10
137.063
 20
-114.893
 11
137.034
 21
-115.022
  0
LINE
  8
0
 10
137.034
 20
-115.022
 11
136.997
 21
-115.149
  0
LINE
  8
0
 10
136.997
 20
-115.149
 11
136.953
 21
-115.273
  0
LINE
  8
0
 10
136.953
 20
-115.273
 11
136.9
 21
-115.394
  0
LINE
  8
0
 10
136.9
 20
-115.394
 11
136.84
 21
-115.512
  0
LINE
  8
0
 10
136.84
 20
-115.512
 11
136.773
 21
-115.625
  0
LINE
  8
0
 10
136.773
 20
-115.625
 11
136.699
 21
-115.734
  0
LINE
  8
0
 10
136.699
 20
-115.734
 11
136.618
 21
-115.839
  0
LINE
  8
0
 10
136.618
 20
-115.839
 11
136.531
 21
-115.938
  0
LINE
  8
0
 10
136.531
 20
-115.938
 11
136.438
 21
-116.031
  0
LINE
  8
0
 10
136.438
 20
-116.031
 11
136.339
 21
-116.118
  0
LINE
  8
0
 10
136.339
 20
-116.118
 11
136.234
 21
-116.199
  0
LINE
  8
0
 10
136.234
 20
-116.199
 11
136.125
 21
-116.273
  0
LINE
  8
0
 10
136.125
 20
-116.273
 11
136.012
 21
-116.34
  0
LINE
  8
0
 10
136.012
 20
-116.34
 11
135.894
 21
-116.4
  0
LINE
  8
0
 10
135.894
 20
-116.4
 11
135.773
 21
-116.453
  0
LINE
  8
0
 10
135.773
 20
-116.453
 11
135.649
 21
-116.497
  0
LINE
  8
0
 10
135.649
 20
-116.497
 11
135.522
 21
-116.534
  0
LINE
  8
0
 10
135.522
 20
-116.534
 11
135.393
 21
-116.563
  0
LINE
  8
0
 10
135.393
 20
-116.563
 11
135.263
 21
-116.583
  0
LINE
  8
0
 10
135.263
 20
-116.583
 11
135.132
 21
-116.596
  0
LINE
  8
0
 10
135.132
 20
-116.596
 11
135
 21
-116.6
  0
LINE
  8
0
 10
135
 20
-116.6
 11
134.868
 21
-116.596
  0
LINE
  8
0
 10
-135.132
 20
-116.596
 11
-135.263
 21
-116.583
  0
LINE
  8
0
 10
-135.263
 20
-116.583
 11
-135.393
 21
-116.563
  0
LINE
  8
0
 10
-135.393
 20
-116.563
 11
-135.522
 21
-116.534
  0
LINE
  8
0
 10
-135.522
 20
-116.534
 11
-135.649
 21
-116.497
  0
LINE
  8
0
 10
-135.649
 20
-116.497
 11
-135.773
 21
-116.453
  0
LINE
  8
0
 10
-135.773
 20
-116.453
 11
-135.894
 21
-116.4
  0
LINE
  8
0
 10
-135.894
 20
-116.4
 11
-136.012
 21
-116.34
  0
LINE
  8
0
 10
-136.012
 20
-116.34
 11
-136.125
 21
-116.273
  0
LINE
  8
0
 10
-136.125
 20
-116.273
 11
-136.234
 21
-116.199
  0
LINE
  8
0
 10
-136.234
 20
-116.199
 11
-136.339
 21
-116.118
  0
LINE
  8
0
 10
-136.339
 20
-116.118
 11
-136.438
 21
-116.031
  0
LINE
  8
0
 10
-136.438
 20
-116.031
 11
-136.531
 21
-115.938
  0
LINE
  8
0
 10
-136.531
 20
-115.938
 11
-136.618
 21
-115.839
  0
LINE
  8
0
 10
-136.618
 20
-115.839
 11
-136.699
 21
-115.734
  0
LINE
  8
0
 10
-136.699
 20
-115.734
 11
-136.773
 21
-115.625
  0
LINE
  8
0
 10
-136.773
 20
-115.625
 11
-136.84
 21
-115.512
  0
LINE
  8
0
 10
-136.84
 20
-115.512
 11
-136.9
 21
-115.394
  0
LINE
  8
0
 10
-136.9
 20
-115.394
 11
-136.953
 21
-115.273
  0
LINE
  8
0
 10
-136.953
 20
-115.273
 11
-136.997
 21
-115.149
  0
LINE
  8
0
 10
-136.997
 20
-115.149
 11
-137.034
 21
-115.022
  0
LINE
  8
0
 10
-137.034
 20
-115.022
 11
-137.063
 21
-114.893
  0
LINE
  8
0
 10
-137.063
 20
-114.893
 11
-137.083
 21
-114.763
  0
LINE
  8
0
 10
-137.083
 20
-114.763
 11
-137.096
 21
-114.632
  0
LINE
  8
0
 10
-137.096
 20
-114.632
 11
-137.1
 21
-114.5
  0
LINE
  8
0
 10
-137.1
 20
-114.5
 11
-137.096
 21
-114.368
  0
LINE
  8
0
 10
-137.096
 20
-114.368
 11
-137.083
 21
-114.237
  0
LINE
  8
0
 10
-137.083
 20
-114.237
 11
-137.063
 21
-114.106
  0
LINE
  8
0
 10
-137.063
 20
-114.106
 11
-137.034
 21
-113.978
  0
LINE
  8
0
 10
-137.034
 20
-113.978
 11
-136.997
 21
-113.851
  0
LINE
  8
0
 10
-136.997
 20
-113.851
 11
-136.953
 21
-113.727
  0
LINE
  8
0
 10
-136.953
 20
-113.727
 11
-136.9
 21
-113.606
  0
LINE
  8
0
 10
-136.9
 20
-113.606
 11
-136.84
 21
-113.488
  0
LINE
  8
0
 10
-136.84
 20
-113.488
 11
-136.773
 21
-113.375
  0
LINE
  8
0
 10
-136.773
 20
-113.375
 11
-136.699
 21
-113.266
  0
LINE
  8
0
 10
-136.699
 20
-113.266
 11
-136.618
 21
-113.161
  0
LINE
  8
0
 10
-136.618
 20
-113.161
 11
-136.531
 21
-113.062
  0
LINE
  8
0
 10
-136.531
 20
-113.062
 11
-136.438
 21
-112.969
  0
LINE
  8
0
 10
-136.438
 20
-112.969
 11
-136.339
 21
-112.882
  0
LINE
  8
0
 10
-136.339
 20
-112.882
 11
-136.234
 21
-112.801
  0
LINE
  8
0
 10
-136.234
 20
-112.801
 11
-136.125
 21
-112.727
  0
LINE
  8
0
 10
-136.125
 20
-112.727
 11
-136.012
 21
-112.66
  0
LINE
  8
0
 10
-136.012
 20
-112.66
 11
-135.894
 21
-112.6
  0
LINE
  8
0
 10
-135.894
 20
-112.6
 11
-135.773
 21
-112.547
  0
LINE
  8
0
 10
-135.773
 20
-112.547
 11
-135.649
 21
-112.503
  0
LINE
  8
0
 10
-135.649
 20
-112.503
 11
-135.522
 21
-112.466
  0
LINE
  8
0
 10
-135.522
 20
-112.466
 11
-135.393
 21
-112.437
  0
LINE
  8
0
 10
-135.393
 20
-112.437
 11
-135.263
 21
-112.417
  0
LINE
  8
0
 10
-135.263
 20
-112.417
 11
-135.132
 21
-112.404
  0
LINE
  8
0
 10
-135.132
 20
-112.404
 11
-135
 21
-112.4
  0
LINE
  8
0
 10
-135
 20
-112.4
 11
-134.868
 21
-112.404
  0
LINE
  8
0
 10
-134.868
 20
-112.404
 11
-134.737
 21
-112.417
  0
LINE
  8
0
 10
-134.737
 20
-112.417
 11
-134.607
 21
-112.437
  0
LINE
  8
0
 10
-134.607
 20
-112.437
 11
-134.478
 21
-112.466
  0
LINE
  8
0
 10
-134.478
 20
-112.466
 11
-134.351
 21
-112.503
  0
LINE
  8
0
 10
-134.351
 20
-112.503
 11
-134.227
 21
-112.547
  0
LINE
  8
0
 10
-134.227
 20
-112.547
 11
-134.106
 21
-112.6
  0
LINE
  8
0
 10
-134.106
 20
-112.6
 11
-133.988
 21
-112.66
  0
LINE
  8
0
 10
-133.988
 20
-112.66
 11
-133.875
 21
-112.727
  0
LINE
  8
0
 10
-133.875
 20
-112.727
 11
-133.766
 21
-112.801
  0
LINE
  8
0
 10
-133.766
 20
-112.801
 11
-133.661
 21
-112.882
  0
LINE
  8
0
 10
-133.661
 20
-112.882
 11
-133.562
 21
-112.969
  0
LINE
  8
0
 10
-133.562
 20
-112.969
 11
-133.469
 21
-113.062
  0
LINE
  8
0
 10
-133.469
 20
-113.062
 11
-133.382
 21
-113.161
  0
LINE
  8
0
 10
-133.382
 20
-113.161
 11
-133.301
 21
-113.266
  0
LINE
  8
0
 10
-133.301
 20
-113.266
 11
-133.227
 21
-113.375
  0
LINE
  8
0
 10
-133.227
 20
-113.375
 11
-133.16
 21
-113.488
  0
LINE
  8
0
 10
-133.16
 20
-113.488
 11
-133.1
 21
-113.606
  0
LINE
  8
0
 10
-133.1
 20
-113.606
 11
-133.047
 21
-113.727
  0
LINE
  8
0
 10
-133.047
 20
-113.727
 11
-133.003
 21
-113.851
  0
LINE
  8
0
 10
-133.003
 20
-113.851
 11
-132.966
 21
-113.978
  0
LINE
  8
0
 10
-132.966
 20
-113.978
 11
-132.937
 21
-114.106
  0
LINE
  8
0
 10
-132.937
 20
-114.106
 11
-132.917
 21
-114.237
  0
LINE
  8
0
 10
-132.917
 20
-114.237
 11
-132.904
 21
-114.368
  0
LINE
  8
0
 10
-132.904
 20
-114.368
 11
-132.9
 21
-114.5
  0
LINE
  8
0
 10
-132.9
 20
-114.5
 11
-132.904
 21
-114.632
  0
LINE
  8
0
 10
-132.904
 20
-114.632
 11
-132.917
 21
-114.763
  0
LINE
  8
0
 10
-132.917
 20
-114.763
 11
-132.937
 21
-114.893
  0
LINE
  8
0
 10
-132.937
 20
-114.893
 11
-132.966
 21
-115.022
  0
LINE
  8
0
 10
-132.966
 20
-115.022
 11
-133.003
 21
-115.149
  0
LINE
  8
0
 10
-133.003
 20
-115.149
 11
-133.047
 21
-115.273
  0
LINE
  8
0
 10
-133.047
 20
-115.273
 11
-133.1
 21
-115.394
  0
LINE
  8
0
 10
-133.1
 20
-115.394
 11
-133.16
 21
-115.512
  0
LINE
  8
0
 10
-133.16
 20
-115.512
 11
-133.227
 21
-115.625
  0
LINE
  8
0
 10
-133.227
 20
-115.625
 11
-133.301
 21
-115.734
  0
LINE
  8
0
 10
-133.301
 20
-115.734
 11
-133.382
 21
-115.839
  0
LINE
  8
0
 10
-133.382
 20
-115.839
 11
-133.469
 21
-115.938
  0
LINE
  8
0
 10
-133.469
 20
-115.938
 11
-133.562
 21
-116.031
  0
LINE
  8
0
 10
-133.562
 20
-116.031
 11
-133.661
 21
-116.118
  0
LINE
  8
0
 10
-133.661
 20
-116.118
 11
-133.766
 21
-116.199
  0
LINE
  8
0
 10
-133.766
 20
-116.199
 11
-133.875
 21
-116.273
  0
LINE
  8
0
 10
-133.875
 20
-116.273
 11
-133.988
 21
-116.34
  0
LINE
  8
0
 10
-133.988
 20
-116.34
 11
-134.106
 21
-116.4
  0
LINE
  8
0
 10
-134.106
 20
-116.4
 11
-134.227
 21
-116.453
  0
LINE
  8
0
 10
-134.227
 20
-116.453
 11
-134.351
 21
-116.497
  0
LINE
  8
0
 10
-134.351
 20
-116.497
 11
-134.478
 21
-116.534
  0
LINE
  8
0
 10
-134.478
 20
-116.534
 11
-134.607
 21
-116.563
  0
LINE
  8
0
 10
-134.607
 20
-116.563
 11
-134.737
 21
-116.583
  0
LINE
  8
0
 10
-134.737
 20
-116.583
 11
-134.868
 21
-116.596
  0
LINE
  8
0
 10
-134.868
 20
-116.596
 11
-135
 21
-116.6
  0
LINE
  8
0
 10
-135
 20
-116.6
 11
-135.132
 21
-116.596
  0
ENDSEC
  0
SECTION
  2
OBJECTS
  0
DICTIONARY
  0
ENDSEC
  0
EOF
