  0
SECTION
  2
BLOCKS
  0
ENDSEC
  0
SECTION
  2
ENTITIES
  0
LINE
  8
0
 10
15.0697
 20
-239.526
 11
30.08
 21
-238.108
  0
LINE
  8
0
 10
30.08
 20
-238.108
 11
44.9715
 21
-235.749
  0
LINE
  8
0
 10
44.9715
 20
-235.749
 11
59.6856
 21
-232.46
  0
LINE
  8
0
 10
59.6856
 20
-232.46
 11
74.1641
 21
-228.254
  0
LINE
  8
0
 10
74.1641
 20
-228.254
 11
88.3499
 21
-223.146
  0
LINE
  8
0
 10
88.3499
 20
-223.146
 11
102.187
 21
-217.158
  0
LINE
  8
0
 10
102.187
 20
-217.158
 11
115.621
 21
-210.314
  0
LINE
  8
0
 10
115.621
 20
-210.314
 11
128.598
 21
-202.639
  0
LINE
  8
0
 10
128.598
 20
-202.639
 11
141.068
 21
-194.164
  0
LINE
  8
0
 10
141.068
 20
-194.164
 11
152.982
 21
-184.923
  0
LINE
  8
0
 10
152.982
 20
-184.923
 11
164.291
 21
-174.952
  0
LINE
  8
0
 10
164.291
 20
-174.952
 11
174.952
 21
-164.291
  0
LINE
  8
0
 10
174.952
 20
-164.291
 11
184.923
 21
-152.982
  0
LINE
  8
0
 10
184.923
 20
-152.982
 11
194.164
 21
-141.068
  0
LINE
  8
0
 10
194.164
 20
-141.068
 11
202.639
 21
-128.598
  0
LINE
  8
0
 10
202.639
 20
-128.598
 11
210.314
 21
-115.621
  0
LINE
  8
0
 10
210.314
 20
-115.621
 11
217.158
 21
-102.187
  0
LINE
  8
0
 10
217.158
 20
-102.187
 11
223.146
 21
-88.3499
  0
LINE
  8
0
 10
223.146
 20
-88.3499
 11
224.352
 21
-85
  0
LINE
  8
0
 10
224.352
 20
-85
 11
-224.352
 21
-85
  0
LINE
  8
0
 10
-224.352
 20
-85
 11
-223.146
 21
-88.3499
  0
LINE
  8
0
 10
-223.146
 20
-88.3499
 11
-217.158
 21
-102.187
  0
LINE
  8
0
 10
-217.158
 20
-102.187
 11
-210.314
 21
-115.621
  0
LINE
  8
0
 10
-210.314
 20
-115.621
 11
-202.639
 21
-128.598
  0
LINE
  8
0
 10
-202.639
 20
-128.598
 11
-194.164
 21
-141.068
  0
LINE
  8
0
 10
-194.164
 20
-141.068
 11
-184.923
 21
-152.982
  0
LINE
  8
0
 10
-184.923
 20
-152.982
 11
-174.952
 21
-164.291
  0
LINE
  8
0
 10
-174.952
 20
-164.291
 11
-164.291
 21
-174.952
  0
LINE
  8
0
 10
-164.291
 20
-174.952
 11
-152.982
 21
-184.923
  0
LINE
  8
0
 10
-152.982
 20
-184.923
 11
-141.068
 21
-194.164
  0
LINE
  8
0
 10
-141.068
 20
-194.164
 11
-128.598
 21
-202.639
  0
LINE
  8
0
 10
-128.598
 20
-202.639
 11
-115.621
 21
-210.314
  0
LINE
  8
0
 10
-115.621
 20
-210.314
 11
-102.187
 21
-217.158
  0
LINE
  8
0
 10
-102.187
 20
-217.158
 11
-88.3499
 21
-223.146
  0
LINE
  8
0
 10
-88.3499
 20
-223.146
 11
-74.1641
 21
-228.254
  0
LINE
  8
0
 10
-74.1641
 20
-228.254
 11
-59.6856
 21
-232.46
  0
LINE
  8
0
 10
-59.6856
 20
-232.46
 11
-44.9715
 21
-235.749
  0
LINE
  8
0
 10
-44.9715
 20
-235.749
 11
-30.08
 21
-238.108
  0
LINE
  8
0
 10
-30.08
 20
-238.108
 11
-15.0697
 21
-239.526
  0
LINE
  8
0
 10
-15.0697
 20
-239.526
 11
0
 21
-240
  0
LINE
  8
0
 10
0
 20
-240
 11
15.0697
 21
-239.526
  0
ENDSEC
  0
SECTION
  2
OBJECTS
  0
DICTIONARY
  0
ENDSEC
  0
EOF
