  0
SECTION
  2
BLOCKS
  0
ENDSEC
  0
SECTION
  2
ENTITIES
  0
LINE
  8
0
 10
150
 20
0
 11
-150
 21
0
  0
LINE
  8
0
 10
-150
 20
0
 11
-150
 21
-51
  0
LINE
  8
0
 10
-150
 20
-51
 11
150
 21
-51
  0
LINE
  8
0
 10
150
 20
-51
 11
150
 21
0
  0
LINE
  8
0
 10
-142.132
 20
-10.0959
 11
-142.263
 21
-10.0834
  0
LINE
  8
0
 10
-142.263
 20
-10.0834
 11
-142.393
 21
-10.0628
  0
LINE
  8
0
 10
-142.393
 20
-10.0628
 11
-142.522
 21
-10.034
  0
LINE
  8
0
 10
-142.522
 20
-10.034
 11
-142.649
 21
-9.99721
  0
LINE
  8
0
 10
-142.649
 20
-9.99721
 11
-142.773
 21
-9.95253
  0
LINE
  8
0
 10
-142.773
 20
-9.95253
 11
-142.894
 21
-9.90013
  0
LINE
  8
0
 10
-142.894
 20
-9.90013
 11
-143.012
 21
-9.84024
  0
LINE
  8
0
 10
-143.012
 20
-9.84024
 11
-143.125
 21
-9.77309
  0
LINE
  8
0
 10
-143.125
 20
-9.77309
 11
-143.234
 21
-9.69893
  0
LINE
  8
0
 10
-143.234
 20
-9.69893
 11
-143.339
 21
-9.61807
  0
LINE
  8
0
 10
-143.339
 20
-9.61807
 11
-143.438
 21
-9.53082
  0
LINE
  8
0
 10
-143.438
 20
-9.53082
 11
-143.531
 21
-9.43755
  0
LINE
  8
0
 10
-143.531
 20
-9.43755
 11
-143.618
 21
-9.33858
  0
LINE
  8
0
 10
-143.618
 20
-9.33858
 11
-143.699
 21
-9.23434
  0
LINE
  8
0
 10
-143.699
 20
-9.23434
 11
-143.773
 21
-9.12523
  0
LINE
  8
0
 10
-143.773
 20
-9.12523
 11
-143.84
 21
-9.01167
  0
LINE
  8
0
 10
-143.84
 20
-9.01167
 11
-143.9
 21
-8.89413
  0
LINE
  8
0
 10
-143.9
 20
-8.89413
 11
-143.953
 21
-8.77306
  0
LINE
  8
0
 10
-143.953
 20
-8.77306
 11
-143.997
 21
-8.64893
  0
LINE
  8
0
 10
-143.997
 20
-8.64893
 11
-144.034
 21
-8.52225
  0
LINE
  8
0
 10
-144.034
 20
-8.52225
 11
-144.063
 21
-8.39349
  0
LINE
  8
0
 10
-144.063
 20
-8.39349
 11
-144.083
 21
-8.2632
  0
LINE
  8
0
 10
-144.083
 20
-8.2632
 11
-144.096
 21
-8.13185
  0
LINE
  8
0
 10
-144.096
 20
-8.13185
 11
-144.1
 21
-8
  0
LINE
  8
0
 10
-144.1
 20
-8
 11
-144.096
 21
-7.86813
  0
LINE
  8
0
 10
-144.096
 20
-7.86813
 11
-144.083
 21
-7.73679
  0
LINE
  8
0
 10
-144.083
 20
-7.73679
 11
-144.063
 21
-7.60649
  0
LINE
  8
0
 10
-144.063
 20
-7.60649
 11
-144.034
 21
-7.47774
  0
LINE
  8
0
 10
-144.034
 20
-7.47774
 11
-143.997
 21
-7.35106
  0
LINE
  8
0
 10
-143.997
 20
-7.35106
 11
-143.953
 21
-7.22693
  0
LINE
  8
0
 10
-143.953
 20
-7.22693
 11
-143.9
 21
-7.10585
  0
LINE
  8
0
 10
-143.9
 20
-7.10585
 11
-143.84
 21
-6.98831
  0
LINE
  8
0
 10
-143.84
 20
-6.98831
 11
-143.773
 21
-6.87476
  0
LINE
  8
0
 10
-143.773
 20
-6.87476
 11
-143.699
 21
-6.76564
  0
LINE
  8
0
 10
-143.699
 20
-6.76564
 11
-143.618
 21
-6.66141
  0
LINE
  8
0
 10
-143.618
 20
-6.66141
 11
-143.531
 21
-6.56244
  0
LINE
  8
0
 10
-143.531
 20
-6.56244
 11
-143.438
 21
-6.46916
  0
LINE
  8
0
 10
-143.438
 20
-6.46916
 11
-143.339
 21
-6.38191
  0
LINE
  8
0
 10
-143.339
 20
-6.38191
 11
-143.234
 21
-6.30106
  0
LINE
  8
0
 10
-143.234
 20
-6.30106
 11
-143.125
 21
-6.2269
  0
LINE
  8
0
 10
-143.125
 20
-6.2269
 11
-143.012
 21
-6.15974
  0
LINE
  8
0
 10
-143.012
 20
-6.15974
 11
-142.894
 21
-6.09985
  0
LINE
  8
0
 10
-142.894
 20
-6.09985
 11
-142.773
 21
-6.04745
  0
LINE
  8
0
 10
-142.773
 20
-6.04745
 11
-142.649
 21
-6.00278
  0
LINE
  8
0
 10
-142.649
 20
-6.00278
 11
-142.522
 21
-5.96597
  0
LINE
  8
0
 10
-142.522
 20
-5.96597
 11
-142.393
 21
-5.93719
  0
LINE
  8
0
 10
-142.393
 20
-5.93719
 11
-142.263
 21
-5.91655
  0
LINE
  8
0
 10
-142.263
 20
-5.91655
 11
-142.132
 21
-5.90413
  0
LINE
  8
0
 10
-142.132
 20
-5.90413
 11
-142
 21
-5.89999
  0
LINE
  8
0
 10
-142
 20
-5.89999
 11
-141.868
 21
-5.90413
  0
LINE
  8
0
 10
-141.868
 20
-5.90413
 11
-141.737
 21
-5.91655
  0
LINE
  8
0
 10
-141.737
 20
-5.91655
 11
-141.607
 21
-5.93719
  0
LINE
  8
0
 10
-141.607
 20
-5.93719
 11
-141.478
 21
-5.96597
  0
LINE
  8
0
 10
-141.478
 20
-5.96597
 11
-141.351
 21
-6.00278
  0
LINE
  8
0
 10
-141.351
 20
-6.00278
 11
-141.227
 21
-6.04745
  0
LINE
  8
0
 10
-141.227
 20
-6.04745
 11
-141.106
 21
-6.09985
  0
LINE
  8
0
 10
-141.106
 20
-6.09985
 11
-140.988
 21
-6.15974
  0
LINE
  8
0
 10
-140.988
 20
-6.15974
 11
-140.875
 21
-6.2269
  0
LINE
  8
0
 10
-140.875
 20
-6.2269
 11
-140.766
 21
-6.30106
  0
LINE
  8
0
 10
-140.766
 20
-6.30106
 11
-140.661
 21
-6.38191
  0
LINE
  8
0
 10
-140.661
 20
-6.38191
 11
-140.562
 21
-6.46916
  0
LINE
  8
0
 10
-140.562
 20
-6.46916
 11
-140.469
 21
-6.56244
  0
LINE
  8
0
 10
-140.469
 20
-6.56244
 11
-140.382
 21
-6.66141
  0
LINE
  8
0
 10
-140.382
 20
-6.66141
 11
-140.301
 21
-6.76564
  0
LINE
  8
0
 10
-140.301
 20
-6.76564
 11
-140.227
 21
-6.87476
  0
LINE
  8
0
 10
-140.227
 20
-6.87476
 11
-140.16
 21
-6.98831
  0
LINE
  8
0
 10
-140.16
 20
-6.98831
 11
-140.1
 21
-7.10585
  0
LINE
  8
0
 10
-140.1
 20
-7.10585
 11
-140.047
 21
-7.22693
  0
LINE
  8
0
 10
-140.047
 20
-7.22693
 11
-140.003
 21
-7.35106
  0
LINE
  8
0
 10
-140.003
 20
-7.35106
 11
-139.966
 21
-7.47774
  0
LINE
  8
0
 10
-139.966
 20
-7.47774
 11
-139.937
 21
-7.60649
  0
LINE
  8
0
 10
-139.937
 20
-7.60649
 11
-139.917
 21
-7.73679
  0
LINE
  8
0
 10
-139.917
 20
-7.73679
 11
-139.904
 21
-7.86813
  0
LINE
  8
0
 10
-139.904
 20
-7.86813
 11
-139.9
 21
-8
  0
LINE
  8
0
 10
-139.9
 20
-8
 11
-139.904
 21
-8.13185
  0
LINE
  8
0
 10
-139.904
 20
-8.13185
 11
-139.917
 21
-8.2632
  0
LINE
  8
0
 10
-139.917
 20
-8.2632
 11
-139.937
 21
-8.39349
  0
LINE
  8
0
 10
-139.937
 20
-8.39349
 11
-139.966
 21
-8.52225
  0
LINE
  8
0
 10
-139.966
 20
-8.52225
 11
-140.003
 21
-8.64893
  0
LINE
  8
0
 10
-140.003
 20
-8.64893
 11
-140.047
 21
-8.77306
  0
LINE
  8
0
 10
-140.047
 20
-8.77306
 11
-140.1
 21
-8.89413
  0
LINE
  8
0
 10
-140.1
 20
-8.89413
 11
-140.16
 21
-9.01167
  0
LINE
  8
0
 10
-140.16
 20
-9.01167
 11
-140.227
 21
-9.12523
  0
LINE
  8
0
 10
-140.227
 20
-9.12523
 11
-140.301
 21
-9.23434
  0
LINE
  8
0
 10
-140.301
 20
-9.23434
 11
-140.382
 21
-9.33858
  0
LINE
  8
0
 10
-140.382
 20
-9.33858
 11
-140.469
 21
-9.43755
  0
LINE
  8
0
 10
-140.469
 20
-9.43755
 11
-140.562
 21
-9.53082
  0
LINE
  8
0
 10
-140.562
 20
-9.53082
 11
-140.661
 21
-9.61807
  0
LINE
  8
0
 10
-140.661
 20
-9.61807
 11
-140.766
 21
-9.69893
  0
LINE
  8
0
 10
-140.766
 20
-9.69893
 11
-140.875
 21
-9.77309
  0
LINE
  8
0
 10
-140.875
 20
-9.77309
 11
-140.988
 21
-9.84024
  0
LINE
  8
0
 10
-140.988
 20
-9.84024
 11
-141.106
 21
-9.90013
  0
LINE
  8
0
 10
-141.106
 20
-9.90013
 11
-141.227
 21
-9.95253
  0
LINE
  8
0
 10
-141.227
 20
-9.95253
 11
-141.351
 21
-9.99721
  0
LINE
  8
0
 10
-141.351
 20
-9.99721
 11
-141.478
 21
-10.034
  0
LINE
  8
0
 10
-141.478
 20
-10.034
 11
-141.607
 21
-10.0628
  0
LINE
  8
0
 10
-141.607
 20
-10.0628
 11
-141.737
 21
-10.0834
  0
LINE
  8
0
 10
-141.737
 20
-10.0834
 11
-141.868
 21
-10.0959
  0
LINE
  8
0
 10
-141.868
 20
-10.0959
 11
-142
 21
-10.1
  0
LINE
  8
0
 10
-142
 20
-10.1
 11
-142.132
 21
-10.0959
  0
LINE
  8
0
 10
-142.132
 20
-45.0959
 11
-142.263
 21
-45.0834
  0
LINE
  8
0
 10
-142.263
 20
-45.0834
 11
-142.393
 21
-45.0628
  0
LINE
  8
0
 10
-142.393
 20
-45.0628
 11
-142.522
 21
-45.034
  0
LINE
  8
0
 10
-142.522
 20
-45.034
 11
-142.649
 21
-44.9972
  0
LINE
  8
0
 10
-142.649
 20
-44.9972
 11
-142.773
 21
-44.9525
  0
LINE
  8
0
 10
-142.773
 20
-44.9525
 11
-142.894
 21
-44.9001
  0
LINE
  8
0
 10
-142.894
 20
-44.9001
 11
-143.012
 21
-44.8402
  0
LINE
  8
0
 10
-143.012
 20
-44.8402
 11
-143.125
 21
-44.7731
  0
LINE
  8
0
 10
-143.125
 20
-44.7731
 11
-143.234
 21
-44.6989
  0
LINE
  8
0
 10
-143.234
 20
-44.6989
 11
-143.339
 21
-44.6181
  0
LINE
  8
0
 10
-143.339
 20
-44.6181
 11
-143.438
 21
-44.5308
  0
LINE
  8
0
 10
-143.438
 20
-44.5308
 11
-143.531
 21
-44.4375
  0
LINE
  8
0
 10
-143.531
 20
-44.4375
 11
-143.618
 21
-44.3386
  0
LINE
  8
0
 10
-143.618
 20
-44.3386
 11
-143.699
 21
-44.2343
  0
LINE
  8
0
 10
-143.699
 20
-44.2343
 11
-143.773
 21
-44.1252
  0
LINE
  8
0
 10
-143.773
 20
-44.1252
 11
-143.84
 21
-44.0117
  0
LINE
  8
0
 10
-143.84
 20
-44.0117
 11
-143.9
 21
-43.8941
  0
LINE
  8
0
 10
-143.9
 20
-43.8941
 11
-143.953
 21
-43.7731
  0
LINE
  8
0
 10
-143.953
 20
-43.7731
 11
-143.997
 21
-43.6489
  0
LINE
  8
0
 10
-143.997
 20
-43.6489
 11
-144.034
 21
-43.5222
  0
LINE
  8
0
 10
-144.034
 20
-43.5222
 11
-144.063
 21
-43.3935
  0
LINE
  8
0
 10
-144.063
 20
-43.3935
 11
-144.083
 21
-43.2632
  0
LINE
  8
0
 10
-144.083
 20
-43.2632
 11
-144.096
 21
-43.1319
  0
LINE
  8
0
 10
-144.096
 20
-43.1319
 11
-144.1
 21
-43
  0
LINE
  8
0
 10
-144.1
 20
-43
 11
-144.096
 21
-42.8681
  0
LINE
  8
0
 10
-144.096
 20
-42.8681
 11
-144.083
 21
-42.7368
  0
LINE
  8
0
 10
-144.083
 20
-42.7368
 11
-144.063
 21
-42.6065
  0
LINE
  8
0
 10
-144.063
 20
-42.6065
 11
-144.034
 21
-42.4778
  0
LINE
  8
0
 10
-144.034
 20
-42.4778
 11
-143.997
 21
-42.3511
  0
LINE
  8
0
 10
-143.997
 20
-42.3511
 11
-143.953
 21
-42.2269
  0
LINE
  8
0
 10
-143.953
 20
-42.2269
 11
-143.9
 21
-42.1059
  0
LINE
  8
0
 10
-143.9
 20
-42.1059
 11
-143.84
 21
-41.9883
  0
LINE
  8
0
 10
-143.84
 20
-41.9883
 11
-143.773
 21
-41.8748
  0
LINE
  8
0
 10
-143.773
 20
-41.8748
 11
-143.699
 21
-41.7656
  0
LINE
  8
0
 10
-143.699
 20
-41.7656
 11
-143.618
 21
-41.6614
  0
LINE
  8
0
 10
-143.618
 20
-41.6614
 11
-143.531
 21
-41.5624
  0
LINE
  8
0
 10
-143.531
 20
-41.5624
 11
-143.438
 21
-41.4692
  0
LINE
  8
0
 10
-143.438
 20
-41.4692
 11
-143.339
 21
-41.3819
  0
LINE
  8
0
 10
-143.339
 20
-41.3819
 11
-143.234
 21
-41.3011
  0
LINE
  8
0
 10
-143.234
 20
-41.3011
 11
-143.125
 21
-41.2269
  0
LINE
  8
0
 10
-143.125
 20
-41.2269
 11
-143.012
 21
-41.1597
  0
LINE
  8
0
 10
-143.012
 20
-41.1597
 11
-142.894
 21
-41.0999
  0
LINE
  8
0
 10
-142.894
 20
-41.0999
 11
-142.773
 21
-41.0475
  0
LINE
  8
0
 10
-142.773
 20
-41.0475
 11
-142.649
 21
-41.0028
  0
LINE
  8
0
 10
-142.649
 20
-41.0028
 11
-142.522
 21
-40.966
  0
LINE
  8
0
 10
-142.522
 20
-40.966
 11
-142.393
 21
-40.9372
  0
LINE
  8
0
 10
-142.393
 20
-40.9372
 11
-142.263
 21
-40.9165
  0
LINE
  8
0
 10
-142.263
 20
-40.9165
 11
-142.132
 21
-40.9041
  0
LINE
  8
0
 10
-142.132
 20
-40.9041
 11
-142
 21
-40.9
  0
LINE
  8
0
 10
-142
 20
-40.9
 11
-141.868
 21
-40.9041
  0
LINE
  8
0
 10
-141.868
 20
-40.9041
 11
-141.737
 21
-40.9165
  0
LINE
  8
0
 10
-141.737
 20
-40.9165
 11
-141.607
 21
-40.9372
  0
LINE
  8
0
 10
-141.607
 20
-40.9372
 11
-141.478
 21
-40.966
  0
LINE
  8
0
 10
-141.478
 20
-40.966
 11
-141.351
 21
-41.0028
  0
LINE
  8
0
 10
-141.351
 20
-41.0028
 11
-141.227
 21
-41.0475
  0
LINE
  8
0
 10
-141.227
 20
-41.0475
 11
-141.106
 21
-41.0999
  0
LINE
  8
0
 10
-141.106
 20
-41.0999
 11
-140.988
 21
-41.1597
  0
LINE
  8
0
 10
-140.988
 20
-41.1597
 11
-140.875
 21
-41.2269
  0
LINE
  8
0
 10
-140.875
 20
-41.2269
 11
-140.766
 21
-41.3011
  0
LINE
  8
0
 10
-140.766
 20
-41.3011
 11
-140.661
 21
-41.3819
  0
LINE
  8
0
 10
-140.661
 20
-41.3819
 11
-140.562
 21
-41.4692
  0
LINE
  8
0
 10
-140.562
 20
-41.4692
 11
-140.469
 21
-41.5624
  0
LINE
  8
0
 10
-140.469
 20
-41.5624
 11
-140.382
 21
-41.6614
  0
LINE
  8
0
 10
-140.382
 20
-41.6614
 11
-140.301
 21
-41.7656
  0
LINE
  8
0
 10
-140.301
 20
-41.7656
 11
-140.227
 21
-41.8748
  0
LINE
  8
0
 10
-140.227
 20
-41.8748
 11
-140.16
 21
-41.9883
  0
LINE
  8
0
 10
-140.16
 20
-41.9883
 11
-140.1
 21
-42.1059
  0
LINE
  8
0
 10
-140.1
 20
-42.1059
 11
-140.047
 21
-42.2269
  0
LINE
  8
0
 10
-140.047
 20
-42.2269
 11
-140.003
 21
-42.3511
  0
LINE
  8
0
 10
-140.003
 20
-42.3511
 11
-139.966
 21
-42.4778
  0
LINE
  8
0
 10
-139.966
 20
-42.4778
 11
-139.937
 21
-42.6065
  0
LINE
  8
0
 10
-139.937
 20
-42.6065
 11
-139.917
 21
-42.7368
  0
LINE
  8
0
 10
-139.917
 20
-42.7368
 11
-139.904
 21
-42.8681
  0
LINE
  8
0
 10
-139.904
 20
-42.8681
 11
-139.9
 21
-43
  0
LINE
  8
0
 10
-139.9
 20
-43
 11
-139.904
 21
-43.1319
  0
LINE
  8
0
 10
-139.904
 20
-43.1319
 11
-139.917
 21
-43.2632
  0
LINE
  8
0
 10
-139.917
 20
-43.2632
 11
-139.937
 21
-43.3935
  0
LINE
  8
0
 10
-139.937
 20
-43.3935
 11
-139.966
 21
-43.5222
  0
LINE
  8
0
 10
-139.966
 20
-43.5222
 11
-140.003
 21
-43.6489
  0
LINE
  8
0
 10
-140.003
 20
-43.6489
 11
-140.047
 21
-43.7731
  0
LINE
  8
0
 10
-140.047
 20
-43.7731
 11
-140.1
 21
-43.8941
  0
LINE
  8
0
 10
-140.1
 20
-43.8941
 11
-140.16
 21
-44.0117
  0
LINE
  8
0
 10
-140.16
 20
-44.0117
 11
-140.227
 21
-44.1252
  0
LINE
  8
0
 10
-140.227
 20
-44.1252
 11
-140.301
 21
-44.2343
  0
LINE
  8
0
 10
-140.301
 20
-44.2343
 11
-140.382
 21
-44.3386
  0
LINE
  8
0
 10
-140.382
 20
-44.3386
 11
-140.469
 21
-44.4375
  0
LINE
  8
0
 10
-140.469
 20
-44.4375
 11
-140.562
 21
-44.5308
  0
LINE
  8
0
 10
-140.562
 20
-44.5308
 11
-140.661
 21
-44.6181
  0
LINE
  8
0
 10
-140.661
 20
-44.6181
 11
-140.766
 21
-44.6989
  0
LINE
  8
0
 10
-140.766
 20
-44.6989
 11
-140.875
 21
-44.7731
  0
LINE
  8
0
 10
-140.875
 20
-44.7731
 11
-140.988
 21
-44.8402
  0
LINE
  8
0
 10
-140.988
 20
-44.8402
 11
-141.106
 21
-44.9001
  0
LINE
  8
0
 10
-141.106
 20
-44.9001
 11
-141.227
 21
-44.9525
  0
LINE
  8
0
 10
-141.227
 20
-44.9525
 11
-141.351
 21
-44.9972
  0
LINE
  8
0
 10
-141.351
 20
-44.9972
 11
-141.478
 21
-45.034
  0
LINE
  8
0
 10
-141.478
 20
-45.034
 11
-141.607
 21
-45.0628
  0
LINE
  8
0
 10
-141.607
 20
-45.0628
 11
-141.737
 21
-45.0834
  0
LINE
  8
0
 10
-141.737
 20
-45.0834
 11
-141.868
 21
-45.0959
  0
LINE
  8
0
 10
-141.868
 20
-45.0959
 11
-142
 21
-45.1
  0
LINE
  8
0
 10
-142
 20
-45.1
 11
-142.132
 21
-45.0959
  0
ENDSEC
  0
SECTION
  2
OBJECTS
  0
DICTIONARY
  0
ENDSEC
  0
EOF
